<svg xmlns="http://www.w3.org/2000/svg" viewBox="0 0 1366 768"><defs><style>.cls-1,.cls-12{fill:#e3e4e5;}.cls-1,.cls-11,.cls-12,.cls-13,.cls-14,.cls-15,.cls-16,.cls-17,.cls-19,.cls-20,.cls-21,.cls-26,.cls-9{stroke:#000;}.cls-1,.cls-11,.cls-12,.cls-13,.cls-14,.cls-15,.cls-16,.cls-17,.cls-19,.cls-2,.cls-20,.cls-21,.cls-25,.cls-26,.cls-29,.cls-3,.cls-4,.cls-5,.cls-6,.cls-9{stroke-miterlimit:10;}.cls-2{fill:#abd3f4;stroke:#abd3f4;}.cls-3{fill:#5a392b;stroke:#5a392b;}.cls-4{fill:#f8b648;stroke:#f8b648;}.cls-5{fill:#5e9aaa;stroke:#5e9aaa;}.cls-6{fill:#f2c777;stroke:#f2c777;}.cls-7{fill:#fcfbfa;}.cls-11,.cls-8{fill:#fff;}.cls-9{fill:#ffcf72;}.cls-10{fill:#e82600;}.cls-11{stroke-width:0.87px;}.cls-12{stroke-width:0.84px;}.cls-13,.cls-18,.cls-21,.cls-25,.cls-26{fill:#fcdb38;}.cls-13{stroke-width:7.07px;}.cls-14{fill:#f9f9f7;}.cls-14,.cls-15,.cls-16,.cls-17,.cls-19{stroke-width:2.02px;}.cls-15{fill:#4268a0;}.cls-16{fill:#070600;}.cls-17{fill:#020100;}.cls-19,.cls-20,.cls-29{fill:none;}.cls-20{stroke-width:1.01px;}.cls-21{stroke-width:2.02px;}.cls-22{fill:#ce453a;}.cls-23{fill:#ba2c53;}.cls-24{fill:#bd2d56;}.cls-25,.cls-29{stroke:#000102;}.cls-27{fill:#afd2ef;}.cls-28{fill:#000102;}.cls-29{stroke-width:0.25px;}.cls-30{fill:#bcd9ed;}</style></defs><title>dreng_vaerelse</title><g id="baggrund"><polygon class="cls-1" points="0.5 673.5 1365.5 673.5 1366.5 0.5 0.5 0.5 0.5 673.5"/><polygon class="cls-2" points="0.5 673.5 1365.5 673.5 1366.5 768.5 0.5 768.5 0.5 673.5"/></g><g id="seng"><rect class="cls-3" x="615.5" y="375.5" width="22" height="327"/><rect class="cls-3" x="59.5" y="441.5" width="22" height="261"/><ellipse class="cls-3" cx="70.5" cy="428.5" rx="11" ry="10"/><ellipse class="cls-3" cx="626.5" cy="363.5" rx="11" ry="10"/><rect class="cls-4" x="81.5" y="534.31" width="534" height="78.99"/><rect class="cls-5" x="81.5" y="613.5" width="534" height="24.82"/><path class="cls-5" d="M615.5,534.5V493.58l-103-.08s-17,14.63,0,40.81Z"/></g><g id="skab"><polygon class="cls-6" points="953.5 739.5 1366 739.5 1366 23.31 953.5 23.5 953.5 739.5"/><circle class="cls-7" cx="1118.5" cy="375.5" r="9"/><circle class="cls-8" cx="1205.5" cy="375.5" r="9"/><polygon class="cls-5" points="954.39 428.96 1366.5 427.95 1366.5 523.88 954.39 523.88 954.39 428.96"/><polygon class="cls-5" points="953.39 529.96 1365.5 528.95 1365.5 624.88 953.39 624.88 953.39 529.96"/><polygon class="cls-5" points="953.39 630.96 1365.5 629.95 1365.5 725.88 953.39 725.88 953.39 630.96"/><line class="cls-9" x1="1160.44" y1="23.41" x2="1160.44" y2="427.95"/><circle class="cls-8" cx="1013" cy="685" r="7.5"/><circle class="cls-8" cx="1313" cy="685" r="7.5"/><circle class="cls-8" cx="1013" cy="578" r="7.5"/><circle class="cls-8" cx="1313" cy="578" r="7.5"/><circle class="cls-8" cx="1013" cy="476" r="7.5"/><circle class="cls-8" cx="1313" cy="476" r="7.5"/></g><g id="ur"><circle class="cls-10" cx="784" cy="77" r="52.5"/><circle class="cls-11" cx="783.5" cy="76.5" r="47"/><circle class="cls-11" cx="783.5" cy="35.5" r="2"/><circle class="cls-11" cx="817.5" cy="93.5" r="2"/><circle class="cls-11" cx="782.5" cy="117.5" r="2"/><circle class="cls-11" cx="762.5" cy="109.5" r="2"/><circle class="cls-11" cx="748.5" cy="58.5" r="2"/><circle class="cls-11" cx="762.5" cy="43.5" r="2"/><circle class="cls-11" cx="825.5" cy="76.5" r="2"/><circle class="cls-11" cx="748.5" cy="93.5" r="2"/><circle class="cls-11" cx="801.5" cy="109.5" r="2"/><circle class="cls-11" cx="741.5" cy="76.5" r="2"/><circle class="cls-11" cx="819.5" cy="58.5" r="2"/><circle class="cls-11" cx="805.5" cy="43.5" r="2"/><polyline class="cls-1" points="781.5 77 781.5 54 783.5 48 785.5 54 785.5 77"/><polyline class="cls-12" points="779.5 78.5 767.11 66.94 765.42 62.63 769.84 64.02 781.58 74.95"/><circle class="cls-1" cx="783" cy="78" r="3.5"/></g><g id="barca_poster" data-name="barca poster"><path class="cls-13" d="M188.24,88.1S234.7,100.22,265,78c0,0,46.46,36.36,97,0,0,0,40.4,24.24,76.75,10.1l12.12,14.14s-50.5,56.56,12.12,127.25l-12.12,14.14s10.1,113.11-115.13,121.19L313.47,383l-22.22-20.2s-117.15,2-115.13-119.17L164,227.47s60.6-60.6,12.12-125.23Z"/><path class="cls-14" d="M200.36,197.17s26.26-42.42-4-92.91c0,0,52.52,6.06,68.68-10.1,0,0,36.36,20.2,48.48,14.14v88.87Z"/><path class="cls-15" d="M193.29,242.62,368,244.09l65.62.55s18.18,109.07-119.17,105C314.48,349.67,183.19,363.81,193.29,242.62Z"/><polygon class="cls-16" points="261.96 236.56 268.02 236.56 268.02 224.44 278.12 224.44 278.12 218.38 268.02 218.38 268.02 212.32 284.18 212.32 284.18 206.26 261.96 206.26 261.96 236.56"/><path class="cls-17" d="M316.5,226.46l6.06,4s-12.12,14.14-22.22,0c0,0-4-4,0-18.18,0,0,10.1-14.14,22.22,0l-4,2s-8.08-8.08-12.12,0c0,0-6.06,10.1,2,16.16C308.42,230.5,314.48,232.52,316.5,226.46Z"/><path d="M358.92,220.4s10.1,6.06,0,16.16H340.74v-30.3h18.18S367,212.32,358.92,220.4Zm-2-2a9.75,9.75,0,0,0,0-8.08H344.78v8.08Zm0,14.14a9.75,9.75,0,0,0,0-8.08H344.78v8.08Z"/><path class="cls-18" d="M356.9,210.3a9.75,9.75,0,0,1,0,8.08H344.78V210.3Z"/><path class="cls-18" d="M356.9,224.44a9.75,9.75,0,0,1,0,8.08H344.78v-8.08Z"/><path class="cls-19" d="M340.74,236.56v-30.3h18.18s8.08,6.06,0,14.14c0,0,10.1,6.06,0,16.16Z"/><path class="cls-20" d="M344.78,210.3H356.9a9.75,9.75,0,0,1,0,8.08H344.78Z"/><path class="cls-20" d="M344.78,224.44H356.9a9.75,9.75,0,0,1,0,8.08H344.78Z"/><path class="cls-21" d="M315.49,197.17l110.66,2s-22.13-52.52,4-92.91c0,0-36.22,8.08-68.41-10.1,0,0-24.14,16.16-46.28,12.12Z"/><polygon class="cls-18" points="315.49 197.17 326.5 197.17 325.59 110.32 315.49 110.32 315.49 197.17"/><path class="cls-18" d="M338.92,197.17h11.15V104.26s-6.12,2.36-11.15,4.08Z"/><polygon class="cls-18" points="362.25 197.17 374.07 197.17 374.07 104.27 361.95 98.2 362.25 197.17"/><polygon class="cls-18" points="386.19 197.17 398.31 197.17 398.31 108.25 386.19 106.28 386.19 197.17"/><path class="cls-18" d="M410.42,197.17h14.06s-24.08-42.11,2.14-88.87c0,0-10.14.65-16.2.88Z"/><polygon class="cls-22" points="398.31 197.17 410.42 197.17 410.42 109.41 396.65 108.3 398.31 197.17"/><polygon class="cls-22" points="374.32 197.17 385.93 197.17 385.93 108.21 374.07 104.26 374.32 197.17"/><polygon class="cls-22" points="349.83 104.14 361.95 98.2 361.95 197.17 349.83 197.17 349.83 104.14"/><polygon class="cls-22" points="325.75 197.17 339.57 197.17 339.73 108.3 325.59 110.32 325.75 197.17"/><path class="cls-22" d="M242.14,134.56l.77-28.17L265.22,96l10.58,6.19v32.32h35.64v34.34H275.81L275.73,198l-33-.28,1.39-28.79-33.57-.45a83,83,0,0,0-.09-33.89Z"/><path class="cls-23" d="M369,244.64v98s26.26-8.16,34.34-18.37v-79.6Z"/><rect class="cls-23" x="298.32" y="244.64" width="32.32" height="104.02"/><path class="cls-24" d="M226.62,243.63H261v101s-22.22-8.08-34.34-16.16Z"/><ellipse class="cls-25" cx="314" cy="297.5" rx="33.5" ry="33"/><path class="cls-25" d="M312.5,264.5s-6,7,0,14c0,0,19.5-4.5,34.5,21.5,0,0,1.5-14.5-8.5-25.5C338.5,274.5,328.5,262.5,312.5,264.5Z"/><path class="cls-26" d="M314.5,278.5s-14,6,0,19c0,0,9-9,15,6,0,0,13,0,14,8,0,0,5-7,2-15C345.5,296.5,333.5,274.5,314.5,278.5Z"/><path class="cls-26" d="M312.5,278.5s-6-4-1-14c0,0-16,3-17,6,0,0-7,26,3,33,0,0,15,6,17-6C314.5,297.5,303.5,291.5,312.5,278.5Z"/><path class="cls-25" d="M283,310s9.5,2.5,13.5-6.5c0,0-9-11-2-33C294.5,270.5,275,281,283,310Z"/><path class="cls-26" d="M283.5,309.5s12,1,14-6c0,0,13,6,17-6,0,0,11-9,15,6,0,0-3,18-36,20C293.5,323.5,284.5,316.5,283.5,309.5Z"/><path class="cls-25" d="M329.5,304.5S338,300,344,311c1.22.78-19.92,34.87-50.5,11.5C293.5,322.5,325.5,321.5,329.5,304.5Z"/></g><g id="spejl"><rect class="cls-27" x="714.5" y="213" width="144" height="419"/><path class="cls-28" d="M872,200l1,471H858.5V647.5h-144v23h-15L699,200ZM858.5,632V213h-144V632Z"/><polygon class="cls-29" points="699 200 872 200 873 671 858.5 671 858.5 647.5 714.5 647.5 714.5 670.5 699.5 670.5 699 200"/><rect class="cls-29" x="714.5" y="213" width="144" height="419"/><polygon class="cls-30" points="715 391 858 529 858 428 715 288 715 391"/></g></svg>
