<svg xmlns="http://www.w3.org/2000/svg" viewBox="0 0 1367.5 805.14"><defs><style>.cls-1{fill:none;}.cls-1,.cls-11,.cls-12,.cls-13,.cls-14,.cls-15,.cls-2,.cls-3,.cls-5,.cls-6,.cls-7,.cls-8,.cls-9{stroke:#000;stroke-miterlimit:10;}.cls-2{fill:#e9eced;}.cls-3{fill:#6d4a51;}.cls-4{fill:#f294f2;}.cls-12,.cls-5{fill:#fff;}.cls-5{stroke-width:0.87px;}.cls-6,.cls-7{fill:#e3e4e5;}.cls-7{stroke-width:0.84px;}.cls-8{fill:#726c5f;}.cls-9{fill:#7c593e;}.cls-10{fill:#d1aa8f;}.cls-11{fill:#8a6f6a;}.cls-13{fill:#ffa3c5;}.cls-14{fill:#ffb1ff;}.cls-15{fill:#f4912d;}.cls-16{fill:#93ac55;}.cls-17{fill:#606823;}.cls-18{fill:#677c31;}.cls-19{fill:#bbc88a;}.cls-20{fill:#a3b186;}.cls-21{fill:#9aae6d;}.cls-22{fill:#55682b;}.cls-23{fill:#576f1e;}.cls-24{fill:#758b4e;}.cls-25{fill:#74954a;}</style></defs><title>pige_room1</title><g id="Layer_5" data-name="Layer 5"><rect class="cls-1" x="1.5" y="637.5" width="1365" height="131"/><rect class="cls-2" x="1" y="2" width="1366" height="702.5"/><polyline class="cls-3" points="1114.5 393.5 1115.5 1.5 914.5 0.5 914.5 393.5 1114.5 393.5"/><circle class="cls-4" cx="766.25" cy="115.75" r="68.75"/><circle class="cls-5" cx="765.6" cy="115.1" r="61.55"/><circle class="cls-5" cx="765.6" cy="61.41" r="2.62"/><circle class="cls-5" cx="810.12" cy="137.36" r="2.62"/><circle class="cls-5" cx="764.29" cy="168.79" r="2.62"/><circle class="cls-5" cx="738.1" cy="158.31" r="2.62"/><circle class="cls-5" cx="719.76" cy="91.53" r="2.62"/><circle class="cls-5" cx="738.1" cy="71.88" r="2.62"/><circle class="cls-5" cx="820.6" cy="115.1" r="2.62"/><circle class="cls-5" cx="719.76" cy="137.36" r="2.62"/><circle class="cls-5" cx="789.17" cy="158.31" r="2.62"/><circle class="cls-5" cx="710.6" cy="115.1" r="2.62"/><circle class="cls-5" cx="812.74" cy="91.53" r="2.62"/><circle class="cls-5" cx="794.4" cy="71.88" r="2.62"/><polyline class="cls-6" points="762.98 115.75 762.98 85.63 765.6 77.78 768.21 85.63 768.21 115.75"/><polyline class="cls-7" points="760.36 117.72 744.14 102.58 741.91 96.93 747.71 98.75 763.08 113.07"/><circle class="cls-6" cx="764.94" cy="117.06" r="4.58"/><polygon class="cls-8" points="0.5 664 1366.5 664 1365.5 768.5 0.5 768.5 0.5 664"/><path class="cls-2" d="M139.4,679.5" transform="translate(1 1)"/><polyline class="cls-9" points="173 680.57 120 680.57 148.19 679.44 173 680.57"/><ellipse class="cls-10" cx="147.25" cy="739.25" rx="41.75" ry="10.75"/><ellipse class="cls-2" cx="136" cy="731.5" rx="1.5"/><path class="cls-1" d="M160.08,729.24a5.69,5.69,0,0,1-2.5,1.24" transform="translate(1 1)"/><path d="M453.3,804.14a1.5,1.5,0,0,0,0-3,1.5,1.5,0,0,0,0,3Z" transform="translate(1 1)"/><path class="cls-8" d="M117.13,730.55c2.37,3,2.75,3.37,2.75,3.37l-2.75-3.37h58.23l-1.9,2.67,1.9-2.67" transform="translate(1 1)"/></g><g id="seng"><rect class="cls-11" x="45.5" y="404.5" width="19" height="256"/><path class="cls-12" d="M54.5,402.5" transform="translate(1 1)"/><circle class="cls-11" cx="55.5" cy="394.5" r="10"/><rect class="cls-11" x="586.5" y="340.5" width="20" height="320"/><circle class="cls-11" cx="596.5" cy="330.5" r="10"/><rect class="cls-11" x="64.5" y="573.03" width="522" height="25.39"/><polygon class="cls-13" points="586.5 494.66 65.5 494.66 64.5 573.5 586.5 573.5 586.5 494.66"/><path class="cls-14" d="M585.5,455.5h-102s-16,15.32,0,38.16l102-.16Z" transform="translate(1 1)"/></g><g id="skab"><polygon class="cls-15" points="914.5 0.5 914.5 702.5 1315.5 702.5 1315.5 631.5 1315.5 0.5 914.5 0.5"/><path class="cls-1" d="M1314.5,670.8h0Z" transform="translate(1 1)"/><rect class="cls-1" x="914.5" y="577.85" width="401" height="3.64"/><path class="cls-1" d="M1324.5,586.5" transform="translate(1 1)"/><rect class="cls-1" x="914.5" y="483.82" width="401" height="3.7"/><path class="cls-1" d="M1114,0l-.5,392.5Z" transform="translate(1 1)"/><path class="cls-1" d="M1314.5,392.5h0Z" transform="translate(1 1)"/><path class="cls-1" d="M1332.5,416.5" transform="translate(1 1)"/><circle class="cls-13" cx="1075" cy="345" r="8.5"/><circle class="cls-13" cx="1160" cy="345" r="8.5"/><ellipse class="cls-13" cx="1262.5" cy="430.5" rx="8" ry="7"/><circle class="cls-13" cx="971" cy="431" r="8.5"/><circle class="cls-13" cx="971" cy="520" r="8.5"/><circle class="cls-13" cx="971" cy="609" r="8.5"/><circle class="cls-13" cx="1263" cy="520" r="8.5"/><circle class="cls-13" cx="1263" cy="609" r="8.5"/><path class="cls-1" d="M44.5,630.5" transform="translate(1 1)"/></g><g id="Layer_7" data-name="Layer 7"><path class="cls-16" d="M155.67,685.74h0s13.79-57.9,30.27-59.71c7.28-.8-30.27,59.71-30.27,59.71h0" transform="translate(1 1)"/><path class="cls-17" d="M154.57,682.5s-1.29-51.77-7.77-50.48S154.57,682.5,154.57,682.5Z" transform="translate(1 1)"/><path class="cls-18" d="M146.4,682.5s9.43-73.32,14.09-74.49S146.4,682.5,146.4,682.5h0" transform="translate(1 1)"/><path class="cls-19" d="M131.52,685.42s5.94-69,16.47-70.41C148,615,139.88,685.52,131.52,685.42Z" transform="translate(1 1)"/><path class="cls-20" d="M132.45,681.5s-4.51-44.9-32.14-46V632s34.53,2.3,35.69,48.35Z" transform="translate(1 1)"/><path class="cls-10" d="M119.13,680h52.55s14.47,36.78,1.79,53.22c-3,3.83-7.37,6.55-13.79,7.45a43.7,43.7,0,0,1-12.59-.3s-31.31,5.59-33.54-21.24S119.13,680,119.13,680Z" transform="translate(1 1)"/><path class="cls-21" d="M145.06,579.28c-4.85-9.48-12-18.4-22.07-21.61a8.86,8.86,0,0,0-5-.43c-2.68.72-4.48,3.36-5.54,6-2,5.09-2.24,10.7-1.87,16.11A81,81,0,0,0,131,627.58c3.85,4.28,12.56,15.54,17.71,8.61,4.83-6.51,4.87-19.58,4.45-27.12A74.77,74.77,0,0,0,145.06,579.28Z" transform="translate(1 1)"/><path class="cls-22" d="M138.63,583.27c-5.41-8-12.85-15.22-22.25-17.24a8.25,8.25,0,0,0-4.53,0c-2.34.85-3.68,3.32-4.35,5.71-1.3,4.64-.86,9.59.06,14.33a73.63,73.63,0,0,0,23.65,40.81c3.93,3.46,13,12.66,16.91,6.14,3.65-6.12,2.27-17.63,1.08-24.23A66.92,66.92,0,0,0,138.63,583.27Z" transform="translate(1 1)"/><path class="cls-23" d="M66.91,597.26c-9.85-2.87-20.9-3.79-30,.95a8.8,8.8,0,0,0-3.7,3.1c-1.34,2.29-.77,5.22.31,7.65,2.09,4.7,5.81,8.47,9.78,11.74a78.52,78.52,0,0,0,47.17,17.48c5.58.17,19.3,1.57,18.07-6.44-1.15-7.51-10.11-16-15.57-20.65A71.37,71.37,0,0,0,66.91,597.26Z" transform="translate(1 1)"/><path class="cls-23" d="M67.31,595.82c-7-2-14.41-3.12-21.69-2-5,.79-12.91,2.83-14.44,8.49-1.62,6,3.66,12.46,7.59,16.32a71.26,71.26,0,0,0,19.07,13,87.43,87.43,0,0,0,40.07,8.15c3.61-.09,8.55-.36,11-3.49,2.92-3.79.09-9.23-2.1-12.65C98,610,82.56,600.44,67.31,595.82c-1.85-.56-2.64,2.33-.8,2.89,14.23,4.31,28.15,13,36.84,25.32,1.59,2.25,4.07,5.71,3.76,8.66-.36,3.37-4.41,3.83-7.1,4.07a80.47,80.47,0,0,1-14.49-.39,76.47,76.47,0,0,1-42.34-17.73,31.57,31.57,0,0,1-7.69-9.06c-1.78-3.45-2.45-6.47,1.11-9.47a15.23,15.23,0,0,1,5.16-2.29c8.08-2.59,16.77-1.34,24.76.89A1.5,1.5,0,0,0,67.31,595.82Z" transform="translate(1 1)"/><path class="cls-24" d="M176.65,568.77c-1.67-9.47-5.47-19.15-13.22-24.85a8.25,8.25,0,0,0-4.14-1.83c-2.48-.18-4.71,1.52-6.31,3.43-3.09,3.7-4.72,8.4-5.83,13.09A73.63,73.63,0,0,0,152,605.52c2.17,4.77,6.67,16.89,12.9,12.54,5.84-4.08,9.3-15.14,10.92-21.65A66.92,66.92,0,0,0,176.65,568.77Z" transform="translate(1 1)"/><path class="cls-25" d="M211.77,599.46c2.48-7.47,3.5-15.92.13-23a6.75,6.75,0,0,0-2.27-2.93c-1.72-1.1-4-.74-5.87,0-3.66,1.47-6.66,4.21-9.28,7.16a60.24,60.24,0,0,0-14.75,35.66c-.29,4.28-1.75,14.75,4.42,14,5.79-.67,12.58-7.29,16.27-11.35A54.76,54.76,0,0,0,211.77,599.46Z" transform="translate(1 1)"/><path class="cls-25" d="M184.78,628.11c3.8-4.29,4.54-9.82,6.74-14.93.75-1.75-1.83-3.28-2.59-1.51-2,4.76-2.75,10.34-6.27,14.32-1.27,1.44.84,3.57,2.12,2.12Z" transform="translate(1 1)"/><path class="cls-25" d="M188.1,616q-2.07,3.4-3.89,6.93c-.88,1.71,1.71,3.23,2.59,1.51q1.82-3.54,3.89-6.93c1-1.65-1.58-3.16-2.59-1.51Z" transform="translate(1 1)"/></g></svg>
