<?xml version="1.0" encoding="utf-8"?>
<!-- Generator: Adobe Illustrator 21.1.0, SVG Export Plug-In . SVG Version: 6.00 Build 0)  -->
<svg version="1.1" xmlns="http://www.w3.org/2000/svg" xmlns:xlink="http://www.w3.org/1999/xlink" x="0px" y="0px"
	 viewBox="0 0 1366 768" style="enable-background:new 0 0 1366 768;" xml:space="preserve">
<style type="text/css">
	.st0{display:none;}
	.st1{fill:#7F6B6E;stroke:#000000;stroke-miterlimit:10;}
	.st2{fill:#E9ECED;stroke:#000000;stroke-miterlimit:10;}
	.st3{fill:#8A6F6A;stroke:#000000;stroke-miterlimit:10;}
	.st4{fill:#FFFFFF;stroke:#000000;stroke-miterlimit:10;}
	.st5{fill:#FFA3C5;stroke:#000000;stroke-miterlimit:10;}
	.st6{fill:#FFB1FF;stroke:#000000;stroke-miterlimit:10;}
	.st7{fill:#F4912D;stroke:#000000;stroke-miterlimit:10;}
	.st8{fill:none;stroke:#000000;stroke-miterlimit:10;}
	.st9{fill:#BBAF9C;stroke:#000000;stroke-miterlimit:10;}
</style>
<g id="Layer_1" class="st0">
</g>
<g id="Layer_4">
</g>
<g id="Layer_5">
	<rect x="0.5" y="636.5" class="st1" width="1365" height="131"/>
	<rect x="0.5" y="-0.5" class="st2" width="1365" height="637"/>
</g>
<g id="seng">
	<rect x="44.5" y="403.5" class="st3" width="19" height="256"/>
	<path class="st4" d="M54.5,402.5"/>
	<circle class="st3" cx="54.5" cy="393.5" r="10"/>
	<rect x="585.5" y="339.5" class="st3" width="20" height="320"/>
	<circle class="st3" cx="595.5" cy="329.5" r="10"/>
	<rect x="63.5" y="572" class="st3" width="522" height="25.4"/>
	<polygon class="st5" points="585.5,493.7 64.5,493.7 63.5,572.5 585.5,572.5 	"/>
	<path class="st6" d="M585.5,455.5l-102,0c0,0-16,15.3,0,38.2l102-0.2V455.5z"/>
</g>
<g id="skab">
	<polygon class="st7" points="913.5,-0.5 913.5,701.5 1314.5,701.5 1314.5,630.5 1314.5,-0.5 	"/>
	<path class="st8" d="M1314.5,670.8h-401H1314.5z"/>
	<rect x="913.5" y="576.9" class="st8" width="401" height="3.6"/>
	<path class="st8" d="M1324.5,586.5"/>
	<rect x="913.5" y="482.8" class="st8" width="401" height="3.7"/>
	<path class="st8" d="M1114,0l-0.5,392.5L1114,0z"/>
	<path class="st8" d="M1314.5,392.5h-401H1314.5z"/>
	<path class="st8" d="M1332.5,416.5"/>
	<circle class="st5" cx="1074" cy="344" r="8.5"/>
	<circle class="st5" cx="1159" cy="344" r="8.5"/>
	<ellipse class="st5" cx="1261.5" cy="429.5" rx="8" ry="7"/>
	<circle class="st5" cx="970" cy="430" r="8.5"/>
	<circle class="st5" cx="970" cy="519" r="8.5"/>
	<circle class="st5" cx="970" cy="608" r="8.5"/>
	<circle class="st5" cx="1262" cy="519" r="8.5"/>
	<circle class="st5" cx="1262" cy="608" r="8.5"/>
	<path class="st8" d="M44.5,630.5"/>
	<path class="st8" d="M-15.5,630.5h60H-15.5z"/>
	<path class="st8" d="M64.5,630.5h521H64.5z"/>
	<path class="st8" d="M605.5,630.5h40H605.5z"/>
	<path class="st8" d="M873.8,630.5h39.7H873.8z"/>
	<line class="st9" x1="1350" y1="630.5" x2="1315" y2="630.5"/>
</g>
</svg>
