<svg xmlns="http://www.w3.org/2000/svg" viewBox="0 0 1368 769"><defs><style>.cls-1{fill:#e9eced;}.cls-1,.cls-10,.cls-11,.cls-12,.cls-13,.cls-14,.cls-15,.cls-2,.cls-4,.cls-5,.cls-6,.cls-8{stroke:#000;stroke-miterlimit:10;}.cls-2{fill:#6d4a51;}.cls-3{fill:#f294f2;}.cls-4{fill:#fff;stroke-width:0.87px;}.cls-5,.cls-6{fill:#e3e4e5;}.cls-6{stroke-width:0.84px;}.cls-11,.cls-7{fill:#726c5f;}.cls-8{fill:#7c593e;}.cls-9{fill:#d1aa8f;}.cls-10{fill:none;}.cls-12{fill:#8a6f6a;}.cls-13{fill:#ffa3c5;}.cls-14{fill:#ffb1ff;}.cls-15{fill:#f4912d;}.cls-16{fill:#93ac55;}.cls-17{fill:#606823;}.cls-18{fill:#677c31;}.cls-19{fill:#bbc88a;}.cls-20{fill:#a3b186;}.cls-21{fill:#9aae6d;}.cls-22{fill:#55682b;}.cls-23{fill:#576f1e;}.cls-24{fill:#758b4e;}.cls-25{fill:#74954a;}</style></defs><title>room_pige</title><g id="Layer_2" data-name="Layer 2"><g id="Layer_7" data-name="Layer 7"><rect class="cls-1" x="1" y="2" width="1366" height="701.94"/><polyline class="cls-2" points="1114.5 393.19 1115.5 1.5 914.5 0.5 914.5 393.19 1114.5 393.19"/><ellipse class="cls-3" cx="766.25" cy="115.66" rx="68.75" ry="68.7"/><ellipse class="cls-4" cx="765.6" cy="115.01" rx="61.55" ry="61.5"/><circle class="cls-4" cx="765.6" cy="61.36" r="2.62"/><circle class="cls-4" cx="810.12" cy="137.25" r="2.62"/><circle class="cls-4" cx="764.29" cy="168.66" r="2.62"/><circle class="cls-4" cx="738.1" cy="158.19" r="2.62"/><circle class="cls-4" cx="719.76" cy="91.45" r="2.62"/><circle class="cls-4" cx="738.1" cy="71.83" r="2.62"/><circle class="cls-4" cx="820.6" cy="115.01" r="2.62"/><circle class="cls-4" cx="719.76" cy="137.25" r="2.62"/><circle class="cls-4" cx="789.17" cy="158.19" r="2.62"/><circle class="cls-4" cx="710.6" cy="115.01" r="2.62"/><circle class="cls-4" cx="812.74" cy="91.45" r="2.62"/><circle class="cls-4" cx="794.4" cy="71.83" r="2.62"/><polyline class="cls-5" points="762.98 115.66 762.98 85.57 765.6 77.72 768.21 85.57 768.21 115.66"/><polyline class="cls-6" points="760.36 117.62 744.14 102.5 741.91 96.85 747.71 98.67 763.08 112.98"/><circle class="cls-5" cx="764.94" cy="116.97" r="4.58"/><polygon class="cls-7" points="0 664.48 1368 664.48 1367 769 0 769 0 664.48"/><polyline class="cls-8" points="173 680.03 120 680.03 148.19 678.9 173 680.03"/><ellipse class="cls-9" cx="147.25" cy="738.67" rx="41.75" ry="10.74"/><path class="cls-1" d="M137.5,730.92h0Z"/><path class="cls-10" d="M161.08,729.67a5.78,5.78,0,0,1-2.5,1.24"/><path class="cls-11" d="M118.13,731c2.37,2.95,2.75,3.37,2.75,3.37L118.13,731h58.24l-1.9,2.67,1.9-2.67"/><rect class="cls-12" x="45.5" y="404.18" width="19" height="255.8"/><ellipse class="cls-12" cx="55.5" cy="394.19" rx="10" ry="9.99"/><rect class="cls-12" x="586.5" y="340.23" width="20" height="319.75"/><ellipse class="cls-12" cx="596.5" cy="330.24" rx="10" ry="9.99"/><rect class="cls-12" x="64.5" y="572.57" width="522" height="25.37"/><polygon class="cls-13" points="586.5 494.27 65.5 494.27 64.5 573.05 586.5 573.05 586.5 494.27"/><path class="cls-14" d="M586.5,456.14h-102s-16,15.31,0,38.13l102-.16Z"/><polygon class="cls-15" points="914.5 0.5 914.5 701.95 1315.5 701.95 1315.5 631 1315.5 0.5 914.5 0.5"/><path class="cls-10" d="M1315.5,671.27h0Z"/><rect class="cls-10" x="914.5" y="577.4" width="401" height="3.64"/><rect class="cls-10" x="914.5" y="483.44" width="401" height="3.7"/><path class="cls-10" d="M1115,1l-.5,392.19Z"/><path class="cls-10" d="M1315.5,393.19h0Z"/><ellipse class="cls-13" cx="1075" cy="344.73" rx="8.5" ry="8.49"/><ellipse class="cls-13" cx="1160" cy="344.73" rx="8.5" ry="8.49"/><ellipse class="cls-13" cx="1262.5" cy="430.16" rx="8" ry="6.99"/><ellipse class="cls-13" cx="971" cy="430.66" rx="8.5" ry="8.49"/><ellipse class="cls-13" cx="971" cy="519.59" rx="8.5" ry="8.49"/><ellipse class="cls-13" cx="971" cy="608.52" rx="8.5" ry="8.49"/><ellipse class="cls-13" cx="1263" cy="519.59" rx="8.5" ry="8.49"/><ellipse class="cls-13" cx="1263" cy="608.52" rx="8.5" ry="8.49"/><path class="cls-16" d="M156.67,686.2h0s13.79-57.85,30.27-59.66c7.28-.79-30.27,59.66-30.27,59.66h0"/><path class="cls-17" d="M155.57,683s-1.29-51.73-7.76-50.43S155.57,683,155.57,683Z"/><path class="cls-18" d="M147.4,683s9.43-73.26,14.08-74.43S147.4,683,147.4,683h0"/><path class="cls-19" d="M132.52,685.88s5.94-69,16.47-70.35C149,615.53,140.88,686,132.52,685.88Z"/><path class="cls-20" d="M133.45,682s-4.51-44.86-32.14-46V632.5s34.54,2.3,35.69,48.31Z"/><path class="cls-9" d="M120.13,680.46h52.55s14.47,36.76,1.79,53.18c-2.95,3.83-7.37,6.55-13.79,7.45a43.77,43.77,0,0,1-12.6-.3s-31.3,5.59-33.54-21.23S120.13,680.46,120.13,680.46Z"/><path class="cls-21" d="M146.06,579.82c-4.85-9.47-12-18.38-22.06-21.59a8.81,8.81,0,0,0-5-.43c-2.68.72-4.48,3.36-5.54,6-2,5.08-2.24,10.69-1.87,16.09A80.9,80.9,0,0,0,132,628.08c3.84,4.28,12.56,15.53,17.71,8.6,4.83-6.5,4.87-19.56,4.45-27.1A74.56,74.56,0,0,0,146.06,579.82Z"/><path class="cls-22" d="M139.63,583.81c-5.4-7.95-12.84-15.21-22.25-17.23a8.17,8.17,0,0,0-4.52,0c-2.34.85-3.68,3.31-4.35,5.71-1.3,4.63-.86,9.58.06,14.31a73.53,73.53,0,0,0,23.64,40.78c3.94,3.45,13,12.65,16.91,6.14,3.66-6.12,2.27-17.62,1.08-24.21A66.64,66.64,0,0,0,139.63,583.81Z"/><path class="cls-23" d="M67.91,597.79c-9.85-2.86-20.9-3.78-30,1a8.84,8.84,0,0,0-3.71,3.09c-1.34,2.29-.76,5.22.31,7.65,2.09,4.69,5.81,8.46,9.78,11.72a78.51,78.51,0,0,0,47.17,17.47c5.58.17,19.3,1.57,18.07-6.43-1.15-7.51-10.11-16-15.57-20.63A71.43,71.43,0,0,0,67.91,597.79Z"/><path class="cls-23" d="M68.31,596.35c-7-2-14.41-3.12-21.69-2-5,.78-12.92,2.82-14.45,8.48-1.62,6,3.66,12.45,7.59,16.31a71.34,71.34,0,0,0,19.07,13,87.53,87.53,0,0,0,40.07,8.14c3.6-.1,8.54-.36,11-3.49,2.92-3.79.09-9.23-2.1-12.65C99,610.55,83.56,601,68.31,596.35c-1.85-.56-2.64,2.33-.8,2.89,14.23,4.31,28.15,13,36.84,25.3,1.59,2.24,4.07,5.7,3.76,8.65-.36,3.37-4.41,3.83-7.11,4.07a81.6,81.6,0,0,1-14.49-.39,76.51,76.51,0,0,1-42.34-17.72,31.64,31.64,0,0,1-7.69-9c-1.78-3.45-2.45-6.46,1.11-9.46a15.4,15.4,0,0,1,5.16-2.29c8.08-2.58,16.77-1.33,24.76.89A1.5,1.5,0,0,0,68.31,596.35Z"/><path class="cls-24" d="M177.65,569.33c-1.66-9.47-5.47-19.14-13.21-24.83a8.34,8.34,0,0,0-4.14-1.84c-2.48-.18-4.72,1.52-6.31,3.43-3.09,3.69-4.72,8.39-5.83,13.07A73.62,73.62,0,0,0,153,606.05c2.17,4.76,6.68,16.87,12.9,12.53,5.85-4.08,9.31-15.13,10.93-21.64A66.75,66.75,0,0,0,177.65,569.33Z"/><path class="cls-25" d="M212.77,600c2.47-7.46,3.49-15.9.12-23a6.69,6.69,0,0,0-2.26-2.92c-1.72-1.1-4-.74-5.88,0-3.66,1.47-6.66,4.21-9.27,7.16a60.17,60.17,0,0,0-14.75,35.64c-.29,4.27-1.75,14.74,4.42,14,5.79-.67,12.58-7.29,16.28-11.35A54.82,54.82,0,0,0,212.77,600Z"/><path class="cls-25" d="M185.78,628.62c3.8-4.29,4.55-9.81,6.74-14.92.76-1.75-1.83-3.28-2.59-1.51-2,4.76-2.75,10.33-6.27,14.31-1.27,1.44.84,3.57,2.12,2.12Z"/><path class="cls-25" d="M189.1,616.47q-2.07,3.39-3.89,6.93c-.88,1.71,1.7,3.23,2.59,1.51,1.21-2.36,2.51-4.66,3.89-6.93,1-1.65-1.58-3.16-2.59-1.51Z"/></g></g></svg>
