<svg xmlns="http://www.w3.org/2000/svg" viewBox="0 0 1367.5 805.14"><defs><style>.cls-1{fill:none;}.cls-1,.cls-11,.cls-12,.cls-13,.cls-14,.cls-2,.cls-3,.cls-5,.cls-6,.cls-7,.cls-8,.cls-9{stroke:#000;stroke-miterlimit:10;}.cls-2{fill:#e9eced;}.cls-3{fill:#6d4a51;}.cls-4{fill:#f294f2;}.cls-5{fill:#fff;stroke-width:0.87px;}.cls-6,.cls-7{fill:#e3e4e5;}.cls-7{stroke-width:0.84px;}.cls-8{fill:#726c5f;}.cls-9{fill:#7c593e;}.cls-10{fill:#d1aa8f;}.cls-11{fill:#8a6f6a;}.cls-12{fill:#ffa3c5;}.cls-13{fill:#ffb1ff;}.cls-14{fill:#f4912d;}.cls-15{fill:#93ac55;}.cls-16{fill:#606823;}.cls-17{fill:#677c31;}.cls-18{fill:#bbc88a;}.cls-19{fill:#a3b186;}.cls-20{fill:#9aae6d;}.cls-21{fill:#55682b;}.cls-22{fill:#576f1e;}.cls-23{fill:#758b4e;}.cls-24{fill:#74954a;}</style></defs><title>rroom1</title><g id="Layer_2" data-name="Layer 2"><g id="Layer_5" data-name="Layer 5"><rect class="cls-1" x="1.5" y="637.5" width="1365" height="131"/><rect class="cls-2" x="1" y="2" width="1366" height="702.5"/><polyline class="cls-3" points="1114.5 393.5 1115.5 1.5 914.5 0.5 914.5 393.5 1114.5 393.5"/><circle class="cls-4" cx="766.25" cy="115.75" r="68.75"/><circle class="cls-5" cx="765.6" cy="115.1" r="61.55"/><circle class="cls-5" cx="765.6" cy="61.41" r="2.62"/><circle class="cls-5" cx="810.12" cy="137.36" r="2.62"/><circle class="cls-5" cx="764.29" cy="168.79" r="2.62"/><circle class="cls-5" cx="738.1" cy="158.31" r="2.62"/><circle class="cls-5" cx="719.76" cy="91.53" r="2.62"/><circle class="cls-5" cx="738.1" cy="71.88" r="2.62"/><circle class="cls-5" cx="820.6" cy="115.1" r="2.62"/><circle class="cls-5" cx="719.76" cy="137.36" r="2.62"/><circle class="cls-5" cx="789.17" cy="158.31" r="2.62"/><circle class="cls-5" cx="710.6" cy="115.1" r="2.62"/><circle class="cls-5" cx="812.74" cy="91.53" r="2.62"/><circle class="cls-5" cx="794.4" cy="71.88" r="2.62"/><polyline class="cls-6" points="762.98 115.75 762.98 85.63 765.6 77.78 768.21 85.63 768.21 115.75"/><polyline class="cls-7" points="760.36 117.72 744.14 102.58 741.91 96.93 747.71 98.75 763.08 113.07"/><circle class="cls-6" cx="764.94" cy="117.06" r="4.58"/><polygon class="cls-8" points="0.5 664 1366.5 664 1365.5 768.5 0.5 768.5 0.5 664"/><polyline class="cls-9" points="173 680.57 120 680.57 148.19 679.44 173 680.57"/><ellipse class="cls-10" cx="147.25" cy="739.25" rx="41.75" ry="10.75"/><path class="cls-2" d="M137.5,731.5h0Z"/><path class="cls-1" d="M161.08,730.25a5.65,5.65,0,0,1-2.5,1.23"/><path d="M454.3,805.14a1.5,1.5,0,0,0,0-3,1.5,1.5,0,0,0,0,3Z"/><path class="cls-8" d="M118.13,731.55c2.37,3,2.75,3.37,2.75,3.37l-2.75-3.37h58.24l-1.9,2.67,1.9-2.67"/></g><g id="seng"><rect class="cls-11" x="45.5" y="404.5" width="19" height="256"/><circle class="cls-11" cx="55.5" cy="394.5" r="10"/><rect class="cls-11" x="586.5" y="340.5" width="20" height="320"/><circle class="cls-11" cx="596.5" cy="330.5" r="10"/><rect class="cls-11" x="64.5" y="573.03" width="522" height="25.39"/><polygon class="cls-12" points="586.5 494.66 65.5 494.66 64.5 573.5 586.5 573.5 586.5 494.66"/><path class="cls-13" d="M586.5,456.5h-102s-16,15.32,0,38.16l102-.16Z"/></g><g id="skab"><polygon class="cls-14" points="914.5 0.5 914.5 702.5 1315.5 702.5 1315.5 631.5 1315.5 0.5 914.5 0.5"/><path class="cls-1" d="M1315.5,671.8h0Z"/><rect class="cls-1" x="914.5" y="577.85" width="401" height="3.64"/><rect class="cls-1" x="914.5" y="483.82" width="401" height="3.7"/><path class="cls-1" d="M1115,1l-.5,392.5Z"/><path class="cls-1" d="M1315.5,393.5h0Z"/><circle class="cls-12" cx="1075" cy="345" r="8.5"/><circle class="cls-12" cx="1160" cy="345" r="8.5"/><ellipse class="cls-12" cx="1262.5" cy="430.5" rx="8" ry="7"/><circle class="cls-12" cx="971" cy="431" r="8.5"/><circle class="cls-12" cx="971" cy="520" r="8.5"/><circle class="cls-12" cx="971" cy="609" r="8.5"/><circle class="cls-12" cx="1263" cy="520" r="8.5"/><circle class="cls-12" cx="1263" cy="609" r="8.5"/></g><g id="Layer_7" data-name="Layer 7"><path class="cls-15" d="M156.67,686.75h0s13.79-57.91,30.27-59.71c7.28-.8-30.27,59.71-30.27,59.71h0"/><path class="cls-16" d="M155.57,683.5s-1.29-51.77-7.76-50.47S155.57,683.5,155.57,683.5Z"/><path class="cls-17" d="M147.4,683.5s9.43-73.32,14.08-74.48S147.4,683.5,147.4,683.5h0"/><path class="cls-18" d="M132.52,686.43s5.94-69,16.47-70.42C149,616,140.88,686.52,132.52,686.43Z"/><path class="cls-19" d="M133.45,682.5s-4.51-44.89-32.14-46V633s34.54,2.3,35.69,48.35Z"/><path class="cls-10" d="M120.13,681h52.55s14.47,36.78,1.79,53.22c-2.95,3.83-7.37,6.56-13.79,7.46a43.77,43.77,0,0,1-12.6-.3s-31.3,5.59-33.54-21.25S120.13,681,120.13,681Z"/><path class="cls-20" d="M146.06,580.28c-4.85-9.48-12-18.4-22.06-21.61a8.9,8.9,0,0,0-5-.43c-2.68.72-4.48,3.36-5.54,6-2,5.09-2.24,10.7-1.87,16.11A81,81,0,0,0,132,628.58c3.84,4.28,12.56,15.54,17.71,8.61,4.83-6.51,4.87-19.59,4.45-27.12A74.66,74.66,0,0,0,146.06,580.28Z"/><path class="cls-21" d="M139.63,584.27c-5.4-8-12.84-15.22-22.25-17.24a8.17,8.17,0,0,0-4.52,0c-2.34.85-3.68,3.31-4.35,5.71-1.3,4.64-.86,9.59.06,14.32a73.58,73.58,0,0,0,23.64,40.81c3.94,3.46,13,12.67,16.91,6.15,3.66-6.12,2.27-17.63,1.08-24.23A66.73,66.73,0,0,0,139.63,584.27Z"/><path class="cls-22" d="M67.91,598.27c-9.85-2.87-20.9-3.79-30,.94a8.79,8.79,0,0,0-3.71,3.1c-1.34,2.29-.76,5.22.31,7.65,2.09,4.7,5.81,8.47,9.78,11.74a78.58,78.58,0,0,0,47.17,17.48c5.58.17,19.3,1.56,18.07-6.44-1.15-7.51-10.11-16-15.57-20.65A71.43,71.43,0,0,0,67.91,598.27Z"/><path class="cls-22" d="M68.31,596.82c-7-2-14.41-3.12-21.69-2-5,.79-12.92,2.83-14.45,8.49-1.62,6,3.66,12.46,7.59,16.32a71.61,71.61,0,0,0,19.07,13.05,87.4,87.4,0,0,0,40.07,8.14c3.61-.09,8.54-.36,11-3.49,2.92-3.79.09-9.23-2.1-12.65C99,611,83.56,601.44,68.31,596.82c-1.85-.56-2.64,2.33-.8,2.89,14.23,4.32,28.15,13,36.84,25.32,1.59,2.25,4.07,5.71,3.76,8.66-.36,3.37-4.41,3.83-7.11,4.07a79.76,79.76,0,0,1-14.49-.39,76.5,76.5,0,0,1-42.34-17.73,31.55,31.55,0,0,1-7.69-9.06c-1.78-3.45-2.45-6.46,1.11-9.47a15.19,15.19,0,0,1,5.16-2.28c8.08-2.59,16.77-1.34,24.76.88A1.5,1.5,0,0,0,68.31,596.82Z"/><path class="cls-23" d="M177.65,569.78c-1.66-9.47-5.47-19.16-13.21-24.85a8.34,8.34,0,0,0-4.14-1.84c-2.48-.18-4.72,1.52-6.31,3.43-3.09,3.7-4.72,8.4-5.83,13.09A73.71,73.71,0,0,0,153,606.53c2.17,4.76,6.68,16.88,12.9,12.54,5.85-4.08,9.31-15.15,10.93-21.65A66.9,66.9,0,0,0,177.65,569.78Z"/><path class="cls-24" d="M212.77,600.47c2.47-7.47,3.49-15.92.12-23a6.72,6.72,0,0,0-2.26-2.93c-1.72-1.1-4-.74-5.88,0-3.66,1.47-6.66,4.21-9.27,7.16a60.23,60.23,0,0,0-14.75,35.67c-.29,4.27-1.75,14.75,4.42,14,5.79-.67,12.58-7.3,16.28-11.36A55,55,0,0,0,212.77,600.47Z"/><path class="cls-24" d="M185.78,629.12c3.8-4.3,4.55-9.82,6.74-14.93.76-1.76-1.83-3.29-2.59-1.52-2,4.76-2.75,10.34-6.27,14.33-1.27,1.44.84,3.57,2.12,2.12Z"/><path class="cls-24" d="M189.1,617q-2.07,3.39-3.89,6.93c-.88,1.72,1.7,3.24,2.59,1.52q1.81-3.54,3.89-6.94c1-1.65-1.58-3.16-2.59-1.51Z"/></g></g></svg>
