<svg id="Lag_1" data-name="Lag 1" xmlns="http://www.w3.org/2000/svg" viewBox="0 0 1366 768"><defs><style>.cls-1{fill:#1f2531;}.cls-2{fill:#63e517;}.cls-3{font-size:53px;fill:#8ccee5;}.cls-11,.cls-15,.cls-3,.cls-8{font-family:Roboto-Black, Roboto;}.cls-4{letter-spacing:-0.01em;}.cls-5{letter-spacing:-0.01em;}.cls-6{letter-spacing:-0.04em;}.cls-7{fill:#f59039;}.cls-8{font-size:35px;fill:#e9eded;}.cls-9{letter-spacing:-0.01em;}.cls-10{letter-spacing:-0.01em;}.cls-11,.cls-15{font-size:47.71px;}.cls-11,.cls-16{fill:#fcfcfc;}.cls-12{fill:#152230;stroke:#fff;}.cls-12,.cls-13{stroke-miterlimit:10;}.cls-13{fill:#f2902c;stroke:#fdffff;}.cls-14,.cls-15{fill:#fff;}</style></defs><title>proev_igen</title><rect class="cls-1" width="1366" height="775"/><rect class="cls-2" x="960" y="495" width="213.68" height="167" rx="9.74" ry="9.74"/><text class="cls-3"><tspan x="104" y="126.7">Når dit billede først er bl</tspan><tspan class="cls-4" x="686.82" y="126.7">ev</tspan><tspan x="742.38" y="126.7">et </tspan><tspan x="104" y="190.3">delt, kan du ik</tspan><tspan class="cls-5" x="439.57" y="190.3">k</tspan><tspan x="468.04" y="190.3">e slette det </tspan><tspan x="104" y="253.9">igen.</tspan><tspan class="cls-6" x="104" y="381.1">T</tspan><tspan x="135.24" y="381.1">ænk før du deler!</tspan></text><rect class="cls-7" x="104" y="473" width="763" height="210" rx="12" ry="12"/><text class="cls-8" transform="translate(126.83 535.25)">Har du prø<tspan class="cls-9" x="165.93" y="0">v</tspan><tspan x="183.78" y="0">et lignende, eller </tspan><tspan x="0" y="42">vil du ba</tspan><tspan class="cls-10" x="132.46" y="42">r</tspan><tspan x="145.4" y="42">e gerne vide me</tspan><tspan class="cls-10" x="397.49" y="42">r</tspan><tspan x="410.43" y="42">e </tspan><tspan x="0" y="84">om emnet? Så besøg </tspan></text><text class="cls-11" transform="translate(998.63 564.27) scale(1.04 1)">PRØV<tspan x="0" y="57.26"> </tspan></text><path class="cls-12" d="M627,584.43a10.55,10.55,0,0,0-2.8,1.94c-3.19,2.4-6.35,4.85-9.53,7.27-.25.19-.48.56-.84.42s-.27-.65-.27-1c0-4.92,0-9.83,0-14.74,0-1.15-.35-1.37-1.41-1.35-3.12.07-6.25,0-9.37,0a6.51,6.51,0,0,1-6.58-6.7c0-18,.09-35.91,0-53.86a7.08,7.08,0,0,1,7.45-7.43q98.78.11,197.56.05a6.46,6.46,0,0,1,6.81,6.82q0,27.18,0,54.36c0,3.41-1.78,5.64-5.39,6.71-.71,0-1.41,0-2.12,0H637.83a3.56,3.56,0,0,0-2.52.8c-1.59,1.34-3.35,2.47-4.94,3.79C629.24,582.5,627.82,583.13,627,584.43Z"/><path class="cls-13" d="M627,584.43c.83-1.3,2.24-1.94,3.38-2.88,1.6-1.33,3.36-2.46,4.94-3.79a3.56,3.56,0,0,1,2.52-.8H800.48c.71,0,1.41,0,2.12,0,.39.76,1.27.67,1.88,1.07a6.41,6.41,0,0,1,3.14,5.71c0,18-.07,36,.05,54a7,7,0,0,1-7.26,7.24q-48.23-.1-96.46,0c-11.62,0-23.24,0-34.86,0a5.19,5.19,0,0,0-3.39,1.18q-8.17,6.32-16.37,12.61c-1.25,1-2.53,1.87-3.79,2.82-.78.59-1.06.39-1.06-.56q0-7.06,0-14.12c0-1.88,0-1.91-1.88-1.91-2.83,0-5.67-.09-8.5,0a6.87,6.87,0,0,1-7.08-7.14c.07-17.37,0-34.74,0-52.1C627,585.26,627,584.85,627,584.43Z"/><path class="cls-14" d="M632.35,560.54h-9.14V525.39h14.54q5.92,0,9.07,3.08t3.15,8.67q0,5.59-3.15,8.67t-9.07,3.08h-5.41Zm0-19h3q5,0,5-4.38t-5-4.38h-3Z"/><path class="cls-14" d="M682.26,560.54H670.89L662.17,547v13.52H653V525.39h14.22a14,14,0,0,1,5.13.86,9.65,9.65,0,0,1,5.76,5.8,12,12,0,0,1,.72,4.2,10.31,10.31,0,0,1-1.93,6.5,9.74,9.74,0,0,1-5.71,3.38ZM662.17,541.1h1.72A6.66,6.66,0,0,0,668,540a4.3,4.3,0,0,0,0-6.43,6.66,6.66,0,0,0-4.15-1.12h-1.72Z"/><path class="cls-14" d="M694.19,525.39v35.15H685V525.39Z"/><path class="cls-14" d="M706.76,525.39l8.48,21.39,8.53-21.39h9.93l-14.82,35.15h-7.27l-14.78-35.15Z"/><path class="cls-14" d="M753.59,554.68H740.54l-2.1,6.11H728.7l13.38-35.15h10l13.38,35.15h-9.74Zm-2.42-6.95-4.1-11.7-4.1,11.7Z"/><path class="cls-14" d="M778.95,533.38v27.41h-9.14V533.38h-7.5v-7.74h24.15v7.74Z"/><path class="cls-14" d="M673.31,602a11.28,11.28,0,0,0-3-1.79,7.9,7.9,0,0,0-2.88-.58,4.68,4.68,0,0,0-2.88.84,2.61,2.61,0,0,0-1.12,2.18,2.17,2.17,0,0,0,.56,1.53,4.85,4.85,0,0,0,1.46,1,12.43,12.43,0,0,0,2,.77q1.14.33,2.25.7a14.07,14.07,0,0,1,6.53,4,9.81,9.81,0,0,1,2.07,6.48,12.62,12.62,0,0,1-.91,4.88,10.18,10.18,0,0,1-2.65,3.74,12.21,12.21,0,0,1-4.28,2.42,17.82,17.82,0,0,1-5.74.86,21.11,21.11,0,0,1-12.32-4l3.9-7.34a15.82,15.82,0,0,0,4,2.7,9.72,9.72,0,0,0,4,.88,4.72,4.72,0,0,0,3.32-1,3.17,3.17,0,0,0,.81-3.7,3,3,0,0,0-.93-1.07,7.45,7.45,0,0,0-1.7-.91q-1-.42-2.53-.93-1.77-.56-3.46-1.23a10.88,10.88,0,0,1-3-1.79,8.31,8.31,0,0,1-2.14-2.81,9.94,9.94,0,0,1-.81-4.3,12.42,12.42,0,0,1,.86-4.72,10.48,10.48,0,0,1,2.42-3.63,10.78,10.78,0,0,1,3.81-2.35,14.41,14.41,0,0,1,5-.84,22.1,22.1,0,0,1,5.44.72,24,24,0,0,1,5.44,2.11Z"/><path class="cls-14" d="M681.81,628.1v-35h9.11l16.83,21.43V593.05h9.06v35h-9.06l-16.83-21.43V628.1Z"/><path class="cls-14" d="M743.45,622h-13l-2.09,6.09h-9.71l13.34-35h9.95l13.34,35h-9.72ZM741,615.09l-4.09-11.67-4.09,11.67Z"/><path class="cls-14" d="M766.08,607.51l11.11-14.46h11.25l-13.9,16.59,15.2,18.45H777.94l-11.85-15.2v15.2H757v-35h9.11Z"/><text class="cls-15" transform="translate(1008.79 629.58) scale(1.04 1)">IGEN</text><g id="Lag_2" data-name="Lag 2"><polygon class="cls-16" points="485 620.47 519.71 620.47 519.71 631.51 556 611 519.71 590.49 519.71 601.53 485 601.53 485 620.47"/></g></svg>
