<?xml version="1.0" encoding="utf-8"?>
<!-- Generator: Adobe Illustrator 21.1.0, SVG Export Plug-In . SVG Version: 6.00 Build 0)  -->
<svg version="1.1" xmlns="http://www.w3.org/2000/svg" xmlns:xlink="http://www.w3.org/1999/xlink" x="0px" y="0px"
	 viewBox="0 0 1366 768" style="enable-background:new 0 0 1366 768;" xml:space="preserve">
<style type="text/css">
	.st0{fill:#E9ECED;}
	.st1{fill:#A6AFB2;}
	.st2{fill:#F4912D;stroke:#000000;stroke-miterlimit:10;}
	.st3{fill:#202532;stroke:#000000;stroke-miterlimit:10;}
	.st4{fill:none;}
	.st5{fill:#FFFFFF;}
	.st6{font-family:'Roboto-Black';}
	.st7{font-size:50px;}
	.st8{font-family:'MyriadPro-Regular';}
	.st9{fill:#F4912D;}
	.st10{fill:#152230;}
	.st11{fill:#F2902C;}
	.st12{fill:#D8D8D8;}
	.st13{font-size:48px;}
</style>
<g id="Layer_2">
	<rect x="-1" class="st0" width="1368" height="768"/>
</g>
<g id="Layer_1">
	<path class="st1" d="M985,115.6H413c-6.6,0-12-5.4-12-12V42.4c0-6.6,5.4-12,12-12h572c6.6,0,12,5.4,12,12v61.3
		C997,110.2,991.6,115.6,985,115.6z"/>
	<path class="st2" d="M534.9,721.5H287.1c-6.6,0-12-5.4-12-12v-82c0-6.6,5.4-12,12-12h247.7c6.6,0,12,5.4,12,12v82
		C546.9,716.1,541.5,721.5,534.9,721.5z"/>
	<path class="st3" d="M1066.9,721.5H819.1c-6.6,0-12-5.4-12-12v-82c0-6.6,5.4-12,12-12h247.7c6.6,0,12,5.4,12,12v82
		C1078.9,716.1,1073.5,721.5,1066.9,721.5z"/>
	<rect x="259.7" y="519.3" class="st4" width="300.3" height="221.8"/>
	<text transform="matrix(1 0 0 1 409.8545 621.8779)"><tspan x="0" y="0" class="st5 st6 st7"> </tspan><tspan x="-54.8" y="60" class="st5 st6 st7">PIGE</tspan></text>
	<rect x="782.7" y="519.3" class="st4" width="300.3" height="221.8"/>
	<text transform="matrix(1 0 0 1 851.7998 681.8779)" class="st5 st6 st7">DRENG</text>
	<text transform="matrix(1 0 0 1 978.917 651.041)" class="st8 st7"> </text>
	<path class="st9" d="M63,139"/>
	<path class="st10" d="M41.3,78.7c-1,0.3-1.6,1.1-2.4,1.7c-2.8,2.1-5.5,4.2-8.2,6.3c-0.2,0.2-0.4,0.5-0.7,0.4
		c-0.4-0.2-0.2-0.6-0.2-0.9c0-4.2,0-8.5,0-12.7c0-1-0.3-1.2-1.2-1.2c-2.7,0.1-5.4,0-8.1,0c-3.3,0-5.7-2.5-5.7-5.8
		c0-15.5,0.1-31,0-46.5c0-4,2.8-6.4,6.4-6.4c56.9,0.1,113.8,0,170.7,0c3.5,0,5.9,2.4,5.9,5.9c0,15.7,0,31.3,0,47
		c0,2.9-1.5,4.9-4.7,5.8c-0.6,0-1.2,0-1.8,0c-33.8,0-67.6,0-101.5,0c-13,0-26.1,0-39.1,0c-0.8,0-1.5,0.1-2.2,0.7
		c-1.4,1.2-2.9,2.1-4.3,3.3C43.2,77,42,77.6,41.3,78.7z"/>
	<path class="st11" d="M43.2,79.1c0.7-1.1,1.9-1.7,2.9-2.5c1.4-1.1,2.9-2.1,4.3-3.3c0.7-0.6,1.4-0.7,2.2-0.7c13,0,26.1,0,39.1,0
		c33.8,0,67.6,0,101.5,0c0.6,0,1.2,0,1.8,0c0.3,0.7,1.1,0.6,1.6,0.9c1.8,1.2,2.7,2.8,2.7,4.9c0,15.5-0.1,31.1,0,46.6
		c0,3.3-2.3,6.3-6.3,6.3c-27.8-0.1-55.6,0-83.4,0c-10,0-20.1,0-30.1,0c-1.2,0-2.1,0.3-2.9,1c-4.7,3.6-9.4,7.3-14.1,10.9
		c-1.1,0.8-2.2,1.6-3.3,2.4c-0.7,0.5-0.9,0.3-0.9-0.5c0-4.1,0-8.1,0-12.2c0-1.6,0-1.7-1.6-1.7c-2.4,0-4.9-0.1-7.3,0
		c-3.4,0.1-6.1-2.6-6.1-6.2c0.1-15,0-30,0-45C43.3,79.8,43.3,79.5,43.2,79.1z"/>
	<path class="st5" d="M47.9,58.5H40V28.1h12.6c3.4,0,6,0.9,7.8,2.7c1.8,1.8,2.7,4.3,2.7,7.5s-0.9,5.7-2.7,7.5
		c-1.8,1.8-4.4,2.7-7.8,2.7h-4.7V58.5z M47.9,42h2.6c2.9,0,4.4-1.3,4.4-3.8c0-2.5-1.5-3.8-4.4-3.8h-2.6V42z"/>
	<path class="st5" d="M91,58.5h-9.8l-7.5-11.7v11.7h-7.9V28.1H78c1.7,0,3.2,0.2,4.4,0.7c1.3,0.5,2.3,1.2,3.1,2
		c0.8,0.9,1.4,1.9,1.9,3c0.4,1.1,0.6,2.3,0.6,3.6c0,2.3-0.6,4.2-1.7,5.6c-1.1,1.4-2.8,2.4-4.9,2.9L91,58.5z M73.6,41.7h1.5
		c1.6,0,2.8-0.3,3.6-1c0.8-0.6,1.2-1.6,1.2-2.8c0-1.2-0.4-2.1-1.2-2.8c-0.8-0.6-2-1-3.6-1h-1.5V41.7z"/>
	<path class="st5" d="M101.3,28.1v30.4h-7.9V28.1H101.3z"/>
	<path class="st5" d="M112.2,28.1l7.3,18.5l7.4-18.5h8.6l-12.8,30.4h-6.3l-12.8-30.4H112.2z"/>
	<path class="st5" d="M152.6,53.4h-11.3l-1.8,5.3h-8.4l11.6-30.4h8.6l11.6,30.4h-8.4L152.6,53.4z M150.5,47.4L147,37.3l-3.5,10.1
		H150.5z"/>
	<path class="st5" d="M174.6,35v23.7h-7.9V35h-6.5v-6.7H181V35H174.6z"/>
	<g>
		<path class="st5" d="M83.3,94.3c-0.9-0.7-1.7-1.2-2.6-1.5c-0.9-0.3-1.7-0.5-2.5-0.5c-1,0-1.8,0.2-2.5,0.7c-0.6,0.5-1,1.1-1,1.9
			c0,0.5,0.2,1,0.5,1.3c0.3,0.3,0.7,0.6,1.3,0.9c0.5,0.3,1.1,0.5,1.8,0.7c0.7,0.2,1.3,0.4,1.9,0.6c2.6,0.9,4.5,2,5.6,3.4
			c1.2,1.4,1.8,3.3,1.8,5.6c0,1.6-0.3,3-0.8,4.2c-0.5,1.3-1.3,2.3-2.3,3.2c-1,0.9-2.2,1.6-3.7,2.1c-1.5,0.5-3.1,0.7-5,0.7
			c-3.8,0-7.4-1.1-10.6-3.4l3.4-6.3c1.2,1,2.3,1.8,3.5,2.3c1.2,0.5,2.3,0.8,3.4,0.8c1.3,0,2.2-0.3,2.9-0.9c0.6-0.6,0.9-1.3,0.9-2
			c0-0.5-0.1-0.8-0.2-1.2c-0.2-0.3-0.4-0.6-0.8-0.9c-0.4-0.3-0.9-0.5-1.5-0.8s-1.3-0.5-2.2-0.8c-1-0.3-2-0.7-3-1.1
			c-1-0.4-1.8-0.9-2.6-1.5c-0.8-0.6-1.4-1.5-1.8-2.4c-0.5-1-0.7-2.2-0.7-3.7c0-1.5,0.2-2.9,0.7-4.1c0.5-1.2,1.2-2.3,2.1-3.1
			c0.9-0.9,2-1.5,3.3-2c1.3-0.5,2.8-0.7,4.4-0.7c1.5,0,3.1,0.2,4.7,0.6c1.6,0.4,3.2,1,4.7,1.8L83.3,94.3z"/>
		<path class="st5" d="M90.6,116.9V86.6h7.9l14.5,18.5V86.6h7.8v30.3H113L98.5,98.3v18.5H90.6z"/>
		<path class="st5" d="M143.9,111.6h-11.2l-1.8,5.3h-8.4L134,86.6h8.6l11.5,30.3h-8.4L143.9,111.6z M141.8,105.6l-3.5-10.1
			l-3.5,10.1H141.8z"/>
		<path class="st5" d="M163.4,99.1l9.6-12.5h9.7l-12,14.3l13.1,15.9h-10.2l-10.2-13.1v13.1h-7.9V86.6h7.9V99.1z"/>
	</g>
	<rect x="361" y="-5.3" class="st4" width="718.4" height="154.9"/>
	<text transform="matrix(1 0 0 1 360.9824 86.3955)"><tspan x="0" y="0" class="st12 st8 st13">       </tspan><tspan x="71.2" y="0" class="st12 st6 st13">  </tspan><tspan x="95.1" y="0" class="st0 st6 st13">Er du pige eller dreng?</tspan></text>
</g>
</svg>
