<svg xmlns="http://www.w3.org/2000/svg" xmlns:xlink="http://www.w3.org/1999/xlink" width="2200" height="2800" viewBox="0 0 2200 2800"><defs><style>.cls-1,.cls-20,.cls-24,.cls-33,.cls-6{fill:none;}.cls-2{fill:#f5c8a1;}.cls-3{fill:#472915;}.cls-4{fill:#000102;}.cls-5{fill:#313a4c;}.cls-6{stroke:#202532;}.cls-20,.cls-24,.cls-33,.cls-6{stroke-miterlimit:10;}.cls-7{fill:#202532;}.cls-8{fill:#f4ab76;}.cls-9{fill:#d3aa8c;}.cls-10{fill:#3f332a;}.cls-11{fill:#f4c7a8;}.cls-12{fill:#3f2513;}.cls-13{fill:#333c4f;}.cls-14{fill:#d8ae91;}.cls-15{fill:#7a0b16;}.cls-16{fill:#f4f4f4;}.cls-17{fill:#c1142d;}.cls-18{fill:#efefef;}.cls-19{fill:#b56f5d;}.cls-20{stroke:#d3aa8c;}.cls-21{fill:#635044;}.cls-22{fill:#f4bd92;}.cls-23{fill:#f4926c;}.cls-24{stroke:#ba6c54;stroke-width:0.5px;}.cls-25{fill:#d1ad95;}.cls-26{fill:#2e4972;}.cls-27{fill:#40659b;}.cls-28{fill:#313649;}.cls-29{fill:#d7dadb;}.cls-30{fill:#e5e5e5;}.cls-31{fill:#959696;}.cls-32{fill:#fff;}.cls-33{stroke:#fff;}.cls-34{clip-path:url(#clip-path);}.cls-35{fill:#f25a5a;}.cls-36{clip-path:url(#clip-path-2);}</style><clipPath id="clip-path"><rect class="cls-1" x="15.5" y="2114" width="501" height="686"/></clipPath><clipPath id="clip-path-2"><rect class="cls-1" x="596.5" y="2100" width="439" height="700"/></clipPath></defs><title>Dreng_sprite</title><g id="Layer_5" data-name="Layer 5"><path class="cls-2" d="M357.64,949.07s-12.39-12.38-12.39,5c0,14.54,7,17.76,9.22,18.41-.86,5.65-9.77,62.08-20.36,62.08,0,0-16.1,14.86-63.28-73.11h0a60.17,60.17,0,0,0,29.24-12.94s11.11-9.52,10.31-30.94,3.93-18.47,3.93-18.47,13.92-2.16,17.89-10.89.4-18.25-13.52-14.37L193,868.34s-19.44-10.71-17.45,8.73c.93,9.15-3.18,11.5,23,17.85,15.53,3.76,11.9,30.94,11.9,30.94s.4,10.71,5.55,15.87S231.44,956,234.61,957.2a70.9,70.9,0,0,0,6.76,2.23h0s-78.14,54-79.38,186.55c0,0-7.89,38.14,4.8,58,0,0,8.73-2.38,8.73-34.91,0,0,3.57,18.64,7.14,18.64s-7.14-47.6-7.14-47.6,4.36-63.48,31.34-103.54c4.26-6.33,7.41-11.13,9.7-14.71l4.18,92.07s-7.14,38.48,5.95,58.31c0,0-13.09,96.8-10.71,109.89s1.19,77.76,1.19,83.31S235.8,1371,235.8,1371s-1.59-80.14.79-88.87,15.47-73.79,15.47-97.59,7.54-25.39,7.54-25.39,7.14-.4,9.52,11.51,10.71,74.58,14.29,82.51,1.58,68.24,2,70.22,3.17,50,3.17,50h16.67s-3.58-63.87-2.78-78.55-.4-102.35-7.14-125.76c0,0,5.36-28-4.55-52.79s-4.95-86.69-4.95-86.69,40.87,34.68,53.25,35.91,33.44-87.92,33.44-87.92l3.72-2.48c11.14,0,17.33-8.67,18.57-11.15S357.64,949.07,357.64,949.07Z"/><path class="cls-3" d="M195.33,869.92s-37.29-87.67-19.43-96c0,0-13.1,6-15.48,7.14s8.73-13.09,15.48-13.49c0,0-7.15-9.92-15.87-9.92,0,0,7.14-8.72,26.18,3.18,0,0,35.7-63.87,98-40.86l5.95,2.77s-14.28,6.75-16.66,17.06c0,0,55.14-33.32,93.23-9.92,0,0-24.6,21-23,27,0,0,14.28-7.14,23-7.14,0,0-34.52,52-37.69,65.46,0,0,15.87-3.57,23.8,2.77,0,0-24.2,7.15-19.84,7.54,0,0,10.72-2,13.49,2.38s-28.16,40.47-25.78,52.37c0,0-6.75,34.91-7.94,38.88s-42.84,70.61-100,8.33c0,0-13.49-29.36-13.49-33.33S197.71,875.88,195.33,869.92Z"/><path class="cls-2" d="M348.72,909.7a6.6,6.6,0,0,0-9,0h0a5.74,5.74,0,0,0,0,8.46l10.86,10.27a6.61,6.61,0,0,0,9,0h0a5.76,5.76,0,0,0,0-8.46Z"/><path class="cls-4" d="M394.24,960.27c0,4.71-3.41,8.52-7.62,8.52H354.19c-4.2,0-7.61-3.81-7.61-8.52V882.05c0-4.71,3.41-8.52,7.61-8.52h32.43c4.21,0,7.62,3.81,7.62,8.52Z"/><path class="cls-5" d="M391.08,955.23a1,1,0,0,1-.91,1H351.12a1,1,0,0,1-.91-1v-71.5a1,1,0,0,1,.91-1h39.05a1,1,0,0,1,.91,1Z"/><path class="cls-6" d="M374.44,962.17a4,4,0,1,1-4-4A4,4,0,0,1,374.44,962.17Z"/><path class="cls-7" d="M371.55,879.09a1.06,1.06,0,1,1-1.06-1.06A1.06,1.06,0,0,1,371.55,879.09Z"/><path class="cls-2" d="M341.23,919.52a6.6,6.6,0,0,0-8.68,2.41h0a5.86,5.86,0,0,0,2.39,8.24l10.72,5.65a6.6,6.6,0,0,0,8.68-2.41h0a5.87,5.87,0,0,0-2.39-8.24Z"/><path class="cls-8" d="M347.29,934.34s-6-3.51-4-6.77,7.73-.57,8.21-.32c.82.43,2.73,2,1,5S348.57,935,347.29,934.34Z"/><path class="cls-2" d="M341.43,933.87a6.6,6.6,0,0,0-8.68,2.41h0a5.88,5.88,0,0,0,2.39,8.24l10.72,5.65a6.6,6.6,0,0,0,8.68-2.41h0a5.86,5.86,0,0,0-2.39-8.24Z"/><path class="cls-8" d="M347.35,948.25s-5.57-3.31-3.64-6.57,7.38-.75,7.83-.52c.77.41,2.55,1.88.79,4.86S348.55,948.89,347.35,948.25Z"/><path class="cls-2" d="M344.06,949.36a6.6,6.6,0,0,0-8.68,2.41h0a5.86,5.86,0,0,0,2.39,8.24l10.72,5.65a6.59,6.59,0,0,0,8.67-2.41h0a5.86,5.86,0,0,0-2.38-8.24Z"/><path class="cls-8" d="M350.26,964.26s-6.09-3.59-4.17-6.84,7.87-.51,8.35-.25c.84.44,2.8,2,1,5S351.56,965,350.26,964.26Z"/><path class="cls-2" d="M364.69,944.15l22-.57s4.46-1.21,14.35,6.73c5.39,4.33-9.91,17.34-9.91,17.34l1.45-14-15.05.29s-14.28,0-13.34-9.41a.36.36,0,0,1,.11-.22l.24-.12"/><path class="cls-8" d="M366.73,944.23s1.14,3.24,6.32,3.23,4.45-3.66,4.45-3.66Z"/><path class="cls-9" d="M250,988.71c.3,4.49.32,9,.3,13.42,0,2.23-.06,4.46-.12,6.69s-.17,4.45-.32,6.68c-.33,4.45-.94,8.9-1.09,13.36a121.78,121.78,0,0,0,.28,13.37l.49,6.68c.18,2.22.26,4.44.45,6.65s.32,4.43.56,6.63l.31,3.3.4,3.27c.49,4.4,1.09,8.91,1.18,13.42a57.25,57.25,0,0,1-.18,6.8,23.3,23.3,0,0,1-.57,3.39l-.23.84-.32.82a3.68,3.68,0,0,1-.47.78,1.23,1.23,0,0,1-.81.55v-.3a1.12,1.12,0,0,0,.4-.52,4.49,4.49,0,0,0,.25-.73l.15-.79.08-.81c.06-1.08,0-2.18,0-3.27-.11-2.19-.38-4.39-.64-6.58-.56-4.4-1.34-8.72-2-13.17l-.41-3.38c-.11-1.12-.19-2.25-.25-3.37-.17-2.25-.22-4.5-.27-6.74-.14-4.49,0-9,.25-13.45s.42-8.94.39-13.41-.39-8.95-.44-13.42.24-8.94.61-13.4a133.92,133.92,0,0,1,1.74-13.33Z"/><path class="cls-10" d="M254.23,1119.36c.07,3.46.06,6.86.09,10.24s.11,6.75.31,10.09a79.44,79.44,0,0,0,1.17,9.89,30.22,30.22,0,0,0,3.38,9.41,18.9,18.9,0,0,1-5.64-8.8,39.3,39.3,0,0,1-1.9-10.32,56.43,56.43,0,0,1,.35-10.4A47.35,47.35,0,0,1,254.23,1119.36Z"/><path class="cls-9" d="M254.85,1164.56l-9.91,6.19,3,47.79s5.47-34,4.44-44.07"/><path class="cls-9" d="M267.23,1164.56s6.2,6.19,8.67,6.19a96.78,96.78,0,0,1-2.84,24.59"/><path class="cls-9" d="M195.82,1056.62s-6.61,16.3-11.56,15.06-10.83-6-10.83-6,10.08,16,6.74,41.92l6.57-22.32,6.31-20.18Z"/><path class="cls-11" d="M217.7,1365.19s-1.24,6.19,0,9.9,0,2.48,0,2.48-2.48,5-2.48,6.19,26,1.24,26,1.24,0-6.19-1.24-8.67l-2.48-4.95s0,1.24,1.24-1.24-1.24-5-1.24-5l-1.86-3"/><path class="cls-11" d="M287.93,1365.19s-1.06,6.19,0,9.9,0,2.48,0,2.48-2.12,5-2.12,6.19S308.1,1385,308.1,1385s0-6.19-1.06-8.67l-2.12-4.95s0,1.24,1.06-1.24-1.06-5-1.06-5l-1.6-3"/><path class="cls-9" d="M232.56,1370.14c.15,1.81.2,3.55.49,5.25a11.57,11.57,0,0,0,.64,2.46,7.35,7.35,0,0,0,1.34,2.2,4.37,4.37,0,0,1-2-1.86,7.43,7.43,0,0,1-.92-2.64,11,11,0,0,1-.1-2.75A9.32,9.32,0,0,1,232.56,1370.14Z"/><path class="cls-9" d="M291.8,1371.38a9.32,9.32,0,0,1,.59,2.66,11,11,0,0,1-.1,2.75,7.24,7.24,0,0,1-.92,2.64,4.3,4.3,0,0,1-2,1.85,7.11,7.11,0,0,0,1.34-2.2,11.33,11.33,0,0,0,.64-2.45C291.6,1374.93,291.65,1373.19,291.8,1371.38Z"/><path class="cls-9" d="M219.55,1369.52c.23,1.27.41,2.52.61,3.76.12.62.22,1.23.37,1.82a4.21,4.21,0,0,0,.61,1.5l.28.33-.23.32c-.67.9-1.33,1.85-1.93,2.81a13.42,13.42,0,0,0-.8,1.49,1.82,1.82,0,0,0-.14,1.59,1.11,1.11,0,0,1-.38-.81,3.13,3.13,0,0,1,.07-.92,7.58,7.58,0,0,1,.58-1.7,17.47,17.47,0,0,1,1.81-3.06l0,.65a4.26,4.26,0,0,1-.84-2,14.25,14.25,0,0,1-.23-1.94A18.35,18.35,0,0,1,219.55,1369.52Z"/><path class="cls-9" d="M303.51,1369.52a17.7,17.7,0,0,1,.19,3.85,14.25,14.25,0,0,1-.23,1.94,4.26,4.26,0,0,1-.84,2l0-.65a17.47,17.47,0,0,1,1.81,3.06,8.11,8.11,0,0,1,.58,1.7,3.13,3.13,0,0,1,.07.92,1.11,1.11,0,0,1-.38.81,1.82,1.82,0,0,0-.14-1.59,13.42,13.42,0,0,0-.8-1.49c-.6-1-1.26-1.91-1.93-2.81l-.24-.32.29-.33a4.21,4.21,0,0,0,.61-1.5c.15-.59.25-1.2.37-1.82C303.11,1372,303.29,1370.79,303.51,1369.52Z"/><path class="cls-12" d="M189,854.15s11.32-30.16,12.56-24S214,832.66,214,832.66l11.15,8.67s11.14-14.86,8.67-17.34,7.43,9.91,7.43,9.91l5-5,3.72,9.91s8.66,21,11.14,21,7.43-16.09,7.43-16.09l12.39-12.39s0,19.82,2.47,19.82,9.91-1.24,9.91-5,7.43,7.43,9.91,9.91,8.67-2.48,8.67-5-1.24,3.71,2.47,5,9.91-2.48,9.91-6.19,5.31,8,5.31,8-6.49,7.33-7.76,15.15-7.83,41-7.83,41l-.86,5.22-13.73,17.22s-16.41,13.72-21.78,14.35-16.92,4.37-26,1.88-29.5-16.23-29.5-16.23l-11.64-10.71S198,894.93,198.57,890.42,189,854.15,189,854.15Z"/><path class="cls-2" d="M179.5,1840.09s10.71,47.61,7.14,47.61-7.14-18.65-7.14-18.65c0,32.53-8.73,34.91-8.73,34.91-12.69-19.84-4.8-58-4.8-58,.78-83.67,32.22-136,55.29-163.29,0,13.09-.11,26.21-1,39.61-2.26,3.53-5.31,8.18-9.4,14.25C183.86,1776.61,179.5,1840.09,179.5,1840.09Z"/><path class="cls-2" d="M183.27,1578c1.76-16.07,13.68-9.66,13.68-9.66l125.73,5.46c13.92-3.88,17.49,5.65,13.52,14.37s-17.89,10.89-17.89,10.89-4.72-3-3.93,18.47-10.31,30.94-10.31,30.94a60.17,60.17,0,0,1-29.24,12.94h0c5.51,10.28,10.6,19.14,15.29,26.8-.26,14.33-.58,28.7,1.19,42.62l-1.5-1.26s-4.95,61.92,4.95,86.69,4.55,52.79,4.55,52.79c6.74,23.41,7.93,111.08,7.14,125.76s2.77,78.55,2.77,78.55H292.56s-2.77-48-3.17-50-7.26-57.52-5.12-69.37c1.54-8.56-8.77-71.46-11.15-83.36s-9.52-11.51-9.52-11.51-7.54,1.59-7.54,25.39-13.09,88.87-15.47,97.59-.79,88.87-.79,88.87-18.65,0-18.65-5.56,1.19-70.21-1.19-83.31,10.71-109.89,10.71-109.89c-13.09-19.83-5.95-58.31-5.95-58.31l-4.18-92.07-.3.46c.91-13.4,1-26.52,1-39.61,13.47-15.91,24.09-23.26,24.09-23.26h0a70.9,70.9,0,0,1-6.76-2.23c-3.17-1.19-13.49-10.31-18.65-15.47s-5.55-15.87-5.55-15.87,3.22-25.77-11.9-30.94C182.27,1588,182.26,1587.14,183.27,1578Z"/><path class="cls-3" d="M199.33,1569.92s-37.29-87.67-19.43-96c0,0-13.1,5.95-15.48,7.14s8.73-13.09,15.48-13.49c0,0-7.15-9.92-15.87-9.92,0,0,7.14-8.72,26.18,3.18,0,0,35.7-63.87,98-40.86l5.95,2.77s-14.28,6.75-16.66,17.06c0,0,55.14-33.32,93.23-9.92,0,0-24.6,21-23,27,0,0,14.28-7.14,23-7.14,0,0-34.52,52-37.69,65.46,0,0,15.87-3.57,23.8,2.77,0,0-24.2,7.15-19.84,7.54,0,0,10.72-2,13.49,2.38s-30.21,40.13-25.78,52.37c0,0-14.24,32.79-15.43,36.76s-31,37-92.48,10.45c0,0-5.52-29.48-5.52-33.45S201.71,1575.88,199.33,1569.92Z"/><path class="cls-2" d="M290.12,1688.21c35.43,57.89,48,46.31,48,46.31,10.59,0,19.5-56.43,20.36-62.08-2.24-.65-9.22-3.87-9.22-18.41,0-17.34,12.39-5,12.39-5s38.39,12.39,37.15,14.86-7.43,11.15-18.57,11.15l-3.72,2.48s-21.05,89.16-33.44,87.92c-11-1.09-44.29-28.42-51.75-34.65C289.54,1716.91,289.86,1702.54,290.12,1688.21Z"/><path class="cls-2" d="M389.22,1609.7a6.62,6.62,0,0,1,9,0h0a5.76,5.76,0,0,1,0,8.46l-10.87,10.27a6.59,6.59,0,0,1-8.95,0h0a5.75,5.75,0,0,1,0-8.46Z"/><path class="cls-4" d="M343.7,1660.27c0,4.71,3.41,8.52,7.62,8.52h32.43c4.2,0,7.61-3.81,7.61-8.52v-78.22c0-4.71-3.41-8.52-7.61-8.52H351.32c-4.21,0-7.62,3.81-7.62,8.52Z"/><path class="cls-13" d="M378.54,1582a3,3,0,1,0,3-3A3,3,0,0,0,378.54,1582Z"/><path class="cls-2" d="M396.71,1619.52a6.6,6.6,0,0,1,8.68,2.41h0a5.86,5.86,0,0,1-2.39,8.24l-10.72,5.65a6.6,6.6,0,0,1-8.68-2.41h0a5.87,5.87,0,0,1,2.39-8.24Z"/><path class="cls-8" d="M390.65,1634.34s6-3.51,4-6.77-7.74-.57-8.22-.32c-.81.43-2.73,2-1,5S389.37,1635,390.65,1634.34Z"/><path class="cls-2" d="M396.51,1633.87a6.6,6.6,0,0,1,8.68,2.41h0a5.86,5.86,0,0,1-2.39,8.24l-10.72,5.65a6.6,6.6,0,0,1-8.68-2.41h0a5.87,5.87,0,0,1,2.39-8.24Z"/><path class="cls-8" d="M390.59,1648.25s5.57-3.31,3.65-6.57-7.39-.75-7.84-.52c-.77.41-2.55,1.88-.78,4.86S389.39,1648.89,390.59,1648.25Z"/><path class="cls-2" d="M393.89,1649.36a6.59,6.59,0,0,1,8.67,2.41h0a5.86,5.86,0,0,1-2.38,8.24l-10.73,5.65a6.59,6.59,0,0,1-8.67-2.41h0a5.86,5.86,0,0,1,2.38-8.24Z"/><path class="cls-8" d="M387.69,1664.26s6.08-3.59,4.16-6.84-7.86-.51-8.35-.25c-.84.44-2.8,2-1,5S386.38,1665,387.69,1664.26Z"/><path class="cls-2" d="M373.25,1644.15l-22-.57s-4.46-1.21-14.35,6.73c-5.39,4.33,9.91,17.34,9.91,17.34l-1.45-14,15.05.29s14.28,0,13.34-9.41a.36.36,0,0,0-.11-.22l-.24-.12"/><path class="cls-8" d="M371.21,1644.23s-1.14,3.24-6.31,3.23-4.46-3.66-4.46-3.66Z"/><path class="cls-14" d="M258.85,1859l-9.91,6.83,3,52.71s5.47-37.49,4.44-48.61"/><path class="cls-14" d="M271.23,1858s6.2,7.51,8.67,7.51a141.58,141.58,0,0,1-2.84,29.83"/><path class="cls-9" d="M199.82,1756.62s-6.61,16.3-11.56,15.06-10.83-6-10.83-6,10.08,16,6.74,41.92l6.57-22.32,6.31-20.18Z"/><path class="cls-11" d="M239.75,2067.19s1.24,6.19,0,9.9,0,2.48,0,2.48,2.48,4.95,2.48,6.19-26,1.24-26,1.24,0-6.19,1.24-8.67l2.47-4.95s0,1.24-1.23-1.24,1.23-4.95,1.23-4.95l1.87-3.05"/><path class="cls-11" d="M291.93,2067.19a68.06,68.06,0,0,0,0,9.9c.34,2.91,0,2.48,0,2.48s-3.66,4.43-2.12,6.19c.46,1.24,21.13,1.24,22.29,1.24s0-6.19-1.06-8.67l-2.12-4.95s0,1.24,1.06-1.24-1.06-4.95-1.06-4.95l-1.6-3.05"/><path class="cls-2" d="M325.27,1573s0-23.45-3-34.36-15-34.72-41-36.7-55,7.93-65,0l-10-7.94v79.35l-7-4s5,58.62,21,71.42c11.56,9.26,84.26,18.57,91-5.8,0,0,4.88-20.62,9.86-37.41C324.27,1587,325.27,1573,325.27,1573Z"/><path class="cls-15" d="M291.27,1619h-55s7,22.45,27.5,21.72S291.27,1619,291.27,1619Z"/><path d="M297.27,1554c-2.28-.77-4.46-1.44-6.64-2a35,35,0,0,0-6.51-1,22.44,22.44,0,0,0-6.42.61,34.82,34.82,0,0,0-6.43,2.3,14.1,14.1,0,0,1,5.66-4.53,15.71,15.71,0,0,1,7.31-1.37,19.64,19.64,0,0,1,7.16,1.72A17.64,17.64,0,0,1,297.27,1554Z"/><path d="M226.27,1554a14.19,14.19,0,0,1,5.66-4.53,15.84,15.84,0,0,1,7.31-1.37,19.39,19.39,0,0,1,7.16,1.72,17.5,17.5,0,0,1,5.87,4.18c-2.28-.77-4.46-1.44-6.65-2a34.83,34.83,0,0,0-6.5-1,22.43,22.43,0,0,0-6.42.6A35.63,35.63,0,0,0,226.27,1554Z"/><circle cx="284.27" cy="1570" r="8.5"/><circle class="cls-16" cx="282.27" cy="1572" r="2"/><circle cx="243.27" cy="1570" r="8.5"/><circle class="cls-16" cx="241.27" cy="1572" r="2"/><path class="cls-9" d="M252.77,1554.5a20.6,20.6,0,0,1,3.71,6.65,11.31,11.31,0,0,1,.41,2l.22,1.84.47,3.65a46.59,46.59,0,0,1,.43,7.65,16.86,16.86,0,0,1-.23,2.06,12.16,12.16,0,0,1-.57,2.09,28.54,28.54,0,0,1-1.68,3.61,49.3,49.3,0,0,1-4.26,6.39l-.64.77a7.52,7.52,0,0,1-.69.73,6.35,6.35,0,0,0-.85,1.12,4,4,0,0,0-.49,1.15,1.5,1.5,0,0,0,0,.85,1.55,1.55,0,0,0,.23.4c.18.21.36.41.55.6a7,7,0,0,0,1.17,1,25.94,25.94,0,0,0,3.21,1.45,21.09,21.09,0,0,0,3.36,1.28,34.09,34.09,0,0,0,3.62.75,18.22,18.22,0,0,1-3.78.35,19.31,19.31,0,0,1-3.81-.51,25.2,25.2,0,0,1-3.78-1,8.46,8.46,0,0,1-1.89-1.11c-.27-.21-.54-.43-.79-.66a4.44,4.44,0,0,1-1.45-3.82,7.16,7.16,0,0,1,.69-2.35,8.8,8.8,0,0,1,1.24-1.93c.36-.41.33-.38.54-.65s.33-.46.5-.69a68.57,68.57,0,0,0,3.78-6,24.75,24.75,0,0,0,1.5-3.07,8,8,0,0,0,.46-1.46c.11-.5.19-1,.26-1.6.24-2.26.2-4.71.21-7.16,0-1.23,0-2.47.05-3.74l.11-1.86a9.55,9.55,0,0,0-.05-1.68A30.73,30.73,0,0,0,252.77,1554.5Z"/><path class="cls-17" d="M284.27,1630.35s-31-6.79-41,.93l3.83,3.79,3.81,2.61,4.52,2,3.87.86a29.13,29.13,0,0,0,15.81-2.61l4.7-3,2.94-2.44S283.27,1631.7,284.27,1630.35Z"/><polyline class="cls-18" points="281.18 1619 278.26 1624 247.26 1624 241.26 1619"/><path class="cls-9" d="M302.51,1974.45a12.38,12.38,0,0,1-3.33,3.32,9.8,9.8,0,0,1-4.57,1.76,6.57,6.57,0,0,1-4.85-1.46,7.91,7.91,0,0,1-2.49-4.07,16.73,16.73,0,0,0,3.38,2.79,6.6,6.6,0,0,0,3.78.75,13.54,13.54,0,0,0,4-1.13C299.77,1975.84,301.09,1975.12,302.51,1974.45Z"/><path class="cls-9" d="M222.26,1978a33.07,33.07,0,0,0,4.29,1.59,19.29,19.29,0,0,0,4.27.73,15.94,15.94,0,0,0,4.29-.29,19.57,19.57,0,0,0,2.17-.53c.74-.18,1.43-.5,2.23-.69a10.6,10.6,0,0,1-3.95,2.72,10.85,10.85,0,0,1-4.86.79,12.07,12.07,0,0,1-4.73-1.28A10.45,10.45,0,0,1,222.26,1978Z"/><circle class="cls-19" cx="235.27" cy="1724" r="3"/><circle class="cls-19" cx="278.27" cy="1724" r="3"/><path class="cls-9" d="M274.27,1661a58.81,58.81,0,0,1-7.34,1.33,57.77,57.77,0,0,1-7.45.47,36.74,36.74,0,0,1-7.46-.69,22.71,22.71,0,0,1-3.61-1.08,10,10,0,0,1-3.14-2,11.43,11.43,0,0,0,3.31,1.57,21.64,21.64,0,0,0,3.57.78,52.75,52.75,0,0,0,7.33.45c2.46,0,4.92-.1,7.39-.23,1.23-.07,2.46-.16,3.69-.26S273,1661.1,274.27,1661Z"/><ellipse class="cls-9" cx="258.77" cy="1789.4" rx="3.5" ry="1.4"/><path class="cls-20" d="M308.27,2083s-1.5,3.48-.5,3.5"/><path class="cls-20" d="M303.27,2083s-1.5,3.48-.5,3.5"/><path class="cls-20" d="M299.27,2082s-1.5,4.48-.5,4.5"/><path class="cls-20" d="M294.27,2082s-1,4,0,4"/><path class="cls-20" d="M236.26,2083s-1.48,3.49-.48,3.5"/><path class="cls-20" d="M231.26,2083s-1.48,3.49-.48,3.5"/><path class="cls-20" d="M227.25,2082s-1.47,4.49-.47,4.5"/><path class="cls-20" d="M222.25,2082s-1,4,0,4"/><polyline class="cls-2" points="179.89 1835.79 179.26 1840 186.96 1879.64 181.97 1879.17 179.26 1869 179.14 1879.64 166.26 1878 168.26 1833"/><path class="cls-21" d="M266.23,1848.36s-5.1-3.83-6.38-1.28-3.82,0-5.1,1.28-2.54,2.55-3.82,2.55-5.1,2.55-5.1,3.82-1.27,5.1,0,6.37,2,4.56,2,4.56,27.27,6.92,29.82,3.09,7.65-3.82,6.37-5.1,2.55-5.1,0-5.1-6.37-12.74-7.65-12.74-5.09,1.27-6.37,0S266.23,1848.36,266.23,1848.36Z"/><path class="cls-22" d="M263.09,1854c6.82,0,12.38,4.44,12.79,10l0,0s0,.12,0,.34,0,.24,0,.37a8.85,8.85,0,0,1-.15,1.55c0,.41-.06.88-.09,1.39a16.32,16.32,0,0,1-8.59,7.2,15.33,15.33,0,0,1-4,.55c-7.08,0-12.82-4.79-12.82-10.69S256,1854,263.09,1854Z"/><path class="cls-22" d="M259,1855.29c7.91-4.53,23.44-13.46,26-15.16l5.75,8.68s-18.4,9.49-16.43,10.79h0l.39.35A23.82,23.82,0,0,0,259,1855.29Z"/><path class="cls-23" d="M285,1840.13s5.79-6.34,9.24-1.13,0,7.51-3.49,9.81"/><line class="cls-24" x1="294.65" y1="1839.69" x2="291.97" y2="1841.29"/><path class="cls-9" d="M332.77,1578.5c-1.27.87-2.56,1.71-3.85,2.53l-1.92,1.23c-.31.2-.63.42-.92.63-.14.11-.3.23-.38.31h0a.16.16,0,0,0,.05-.11c0-.14,0,0,0,0v.09l0,.31a12.74,12.74,0,0,0-.09,2.19,1.58,1.58,0,0,0,.26.81.64.64,0,0,0,.63.23,5.41,5.41,0,0,0,2-.65c.59-.32,1.12-.89,1-1.45l.06.1c-.6-.72-1.23-1.43-1.81-2.18.75.58,1.45,1.21,2.18,1.82l0,0,0,.06a2.18,2.18,0,0,1-1.13,2.26,5.42,5.42,0,0,1-2.32.92,1.9,1.9,0,0,1-.74-.06,1.51,1.51,0,0,1-.68-.48,2.53,2.53,0,0,1-.49-1.31,10.37,10.37,0,0,1,.1-2.39l0-.26V1583s0,0,0-.17a1.08,1.08,0,0,1,.08-.19l0,0,.09-.11a3.84,3.84,0,0,1,.52-.4l1-.62c.67-.39,1.36-.74,2-1.09Q330.63,1579.36,332.77,1578.5Z"/><path class="cls-9" d="M193.11,1578.5q2.13.86,4.19,1.91c.69.35,1.37.7,2,1.09l1,.62a3.31,3.31,0,0,1,.52.4l.09.11,0,0a1.08,1.08,0,0,1,.08.19c0,.17,0,.14,0,.17v.06l0,.26a10.37,10.37,0,0,1,.1,2.39,2.53,2.53,0,0,1-.49,1.31,1.51,1.51,0,0,1-.68.48,1.9,1.9,0,0,1-.74.06,5.42,5.42,0,0,1-2.32-.92,2.18,2.18,0,0,1-1.13-2.26l0-.06,0,0c.73-.61,1.43-1.24,2.19-1.82-.59.75-1.21,1.46-1.82,2.18l.06-.1c-.07.56.46,1.13,1.05,1.45a5.45,5.45,0,0,0,2,.65.66.66,0,0,0,.63-.23,1.8,1.8,0,0,0,.26-.81,13.9,13.9,0,0,0-.1-2.19l0-.31v-.09s0-.1,0,0a.16.16,0,0,0,.05.11h0c-.08-.08-.24-.2-.38-.31s-.6-.43-.92-.63L197,1581C195.66,1580.21,194.37,1579.37,193.11,1578.5Z"/><path class="cls-20" d="M217.5,327s1.5,3.48.5,3.5"/><path class="cls-20" d="M222.5,327s1.5,3.48.5,3.5"/><path class="cls-20" d="M226.5,326s1.5,4.48.5,4.5"/><path class="cls-20" d="M231.5,326s1,4,0,4"/><path class="cls-20" d="M1323.5,318s1.5,3.48.5,3.5"/><path class="cls-20" d="M1328.5,318s1.5,3.48.5,3.5"/><path class="cls-20" d="M1332.5,317s1.5,4.48.5,4.5"/><path class="cls-20" d="M1337.5,317s1,4,0,4"/><path class="cls-2" d="M1903.54,262.13c-5.36,10-10.31,18.6-14.89,26.08.25,14.33,1.58,25.7-.19,39.62l1.5-1.26s11.45,65.66,1.54,90.43-12,52.05-12,52.05c-6.75,23.41-7.94,111.08-7.14,125.76s-2.78,78.55-2.78,78.55h16.66s2.78-48,3.18-50,7.26-57.52,5.12-69.37c-1.55-8.56,8.76-71.46,11.14-83.36S1915.5,453,1915.5,453s13,6.2,13,30,7.29,90.39,9.67,99.11.8,88.87.8,88.87,18.64,0,18.64-5.56-1.19-70.21,1.19-83.31-10.71-109.89-10.71-109.89c13.09-19.83,6-58.31,6-58.31l3.19-93.07.29.46c-.91-13.4,0-25.52,0-38.61-11.84-14-21.48-21.36-23.63-22.94C1923.76,260,1913.65,263.26,1903.54,262.13Z"/><path class="cls-3" d="M1989.91,184.56s47.92-82.35,31.24-92.84c0,0,12.25,7.53,14.47,9s-7-14.08-13.68-15.31c0,0,8.32-9,17-7.86,0,0-6-9.55-26.37-.11,0,0-27.48-67.82-92.14-52.75l-6.25,2s13.33,8.47,14.41,19c0,0-50.57-39.93-91.27-21.45,0,0,21.79,23.92,19.47,29.63,0,0-13.28-8.86-21.94-9.95,0,0,27.77,55.86,29.24,69.64,0,0-15.3-5.52-24-.2,0,0,23.12,10.09,18.74,9.94,0,0-10.38-3.3-13.68.69s25,43.57,19.07,55.17c0,0,10,34.31,10.74,38.39s26.15,40.57,90.45,21.88c0,0,9.15-28.56,9.65-32.5S1986.81,190.17,1989.91,184.56Z"/><path class="cls-9" d="M1907.53,464.56s-6.19,6.19-8.67,6.19a96.55,96.55,0,0,0,2.85,24.59"/><path class="cls-2" d="M1999.27,440.09s-10.71,47.61-7.14,47.61,7.14-18.65,7.14-18.65c0,32.53,8.73,34.91,8.73,34.91,12.69-19.84,4.8-58,4.8-58-3.3-84-32.22-136-55.3-163.29,0,13.09.11,26.21,1,39.61,2.27,3.53,4.92,8.46,9.41,14.25C1998.5,376,1999.27,440.09,1999.27,440.09Z"/><path class="cls-2" d="M1849.46,444.09s10.71,47.61,7.14,47.61-7.14-18.65-7.14-18.65c0,32.53-8.73,34.91-8.73,34.91-12.7-19.84-4.8-58-4.8-58,.78-83.67,30.5-135.73,53.57-163,0,13.09,1.61,25.9.7,39.3-2.26,3.53-5.32,8.18-9.4,14.25C1853.82,380.61,1849.46,444.09,1849.46,444.09Z"/><path class="cls-25" d="M1869.78,360.62s-6.61,16.3-11.56,15.06-10.83-6-10.83-6,10.08,15.95,6.74,41.92l6.56-22.32,6.32-20.18Z"/><path class="cls-11" d="M1939,665.19s-1.24,6.19,0,9.9,0,2.48,0,2.48-2.48,4.95-2.48,6.19,26,1.24,26,1.24,0-6.19-1.24-8.67l-2.48-5s0,1.24,1.24-1.24-1.24-4.95-1.24-4.95l-1.86-3.05"/><path class="cls-11" d="M1889.47,665.19a55.5,55.5,0,0,1,0,9.9c-.4,2.91,0,2.48,0,2.48s4.44,4.43,2.57,6.19c-.55,1.24-25.55,1.24-27,1.24s0-6.19,1.28-8.67l2.57-5s0,1.24-1.29-1.24,1.29-4.95,1.29-4.95l1.93-3.05"/><path class="cls-2" d="M2004.85,194.57c.25-16.16-12.38-11.29-12.38-11.29l-9.29-.76,9.31-74.16L1981.58,115c-10.91,6.63-38.45-6.82-64.5-8.09s-40.91,20.86-45.25,31.31-7.25,33.72-7.25,33.72v.21c-11.43-3.5-15.4,4.92-12.73,13.49,2.08,6.69,9.89,10.56,13.94,12.15,1.36,8.37,2.58,17.51,3.47,24.67-1.32,17.87,7,27,7,27a60.14,60.14,0,0,0,27.4,16.47h0l-.47.67c9.89,2.38,20.33.36,30.38,1.42l-.41-.38h0c3.7-.54,6.22-1.19,7-1.37,3.3-.79,14.67-8.56,20.42-13a14.65,14.65,0,0,0,3.31-3.77c8.14-8.08,14.94-25.57,19.57-40.44l.27-.07C2004.6,204.62,2004.71,203.77,2004.85,194.57Z"/><path class="cls-15" d="M1892.59,221.81l54.57,6.84s-9.74,21.41-30,18.14S1892.59,221.81,1892.59,221.81Z"/><path d="M1894.73,156.56a17.56,17.56,0,0,1,6.34-3.41,19.52,19.52,0,0,1,7.31-.82,15.76,15.76,0,0,1,7.09,2.27,14.21,14.21,0,0,1,5,5.2,35.21,35.21,0,0,0-6.09-3.08,22.53,22.53,0,0,0-6.3-1.4,34.47,34.47,0,0,0-6.57.13C1899.33,155.69,1897.08,156.09,1894.73,156.56Z"/><path d="M1965.17,165.4a35.21,35.21,0,0,0-6.09-3.08,22.19,22.19,0,0,0-6.3-1.4,35.32,35.32,0,0,0-6.57.13c-2.23.25-4.48.64-6.83,1.12a17.35,17.35,0,0,1,6.34-3.42,19.52,19.52,0,0,1,7.31-.82,15.81,15.81,0,0,1,7.09,2.28A14.18,14.18,0,0,1,1965.17,165.4Z"/><circle cx="1905.63" cy="174.06" r="8.5"/><circle class="cls-16" cx="1907.37" cy="176.29" r="2"/><circle cx="1946.31" cy="179.16" r="8.5"/><circle class="cls-16" cx="1948.05" cy="181.4" r="2"/><path class="cls-9" d="M1938.82,162.6a30.31,30.31,0,0,0-2.66,6.76,10.17,10.17,0,0,0-.26,1.66l-.12,1.87c-.1,1.26-.27,2.49-.42,3.71-.3,2.44-.63,4.85-.68,7.13,0,.56,0,1.11.06,1.62a8.16,8.16,0,0,0,.28,1.51,25.17,25.17,0,0,0,1.1,3.23,67.49,67.49,0,0,0,3,6.46c.14.25.28.52.41.74a8.21,8.21,0,0,0,.46.72,9.36,9.36,0,0,1,1,2.07,7.44,7.44,0,0,1,.38,2.42,4.69,4.69,0,0,1-.9,2.65,5,5,0,0,1-1,1c-.29.19-.58.38-.88.55a8,8,0,0,1-2,.87,24.46,24.46,0,0,1-3.87.5,18.34,18.34,0,0,1-3.85,0,19.06,19.06,0,0,1-3.7-.81,36.32,36.32,0,0,0,3.68-.29,22.59,22.59,0,0,0,3.5-.85,28.28,28.28,0,0,0,3.37-1.05,7.32,7.32,0,0,0,1.27-.81q.32-.25.63-.54a2.54,2.54,0,0,0,.28-.36,1.49,1.49,0,0,0,.12-.84,4,4,0,0,0-.33-1.2,6.52,6.52,0,0,0-.71-1.21c0-.06-.45-.58-.59-.82s-.36-.56-.54-.84a48.91,48.91,0,0,1-3.43-6.87,26.82,26.82,0,0,1-1.22-3.8,11.5,11.5,0,0,1-.3-2.14,15.8,15.8,0,0,1,0-2.07,45.76,45.76,0,0,1,1.38-7.54l.93-3.57.44-1.79a10,10,0,0,1,.66-1.93A20.39,20.39,0,0,1,1938.82,162.6Z"/><path class="cls-17" d="M1898.12,233.94s31.6-2.88,40.57,6l-4.29,3.28-4.1,2.12-4.73,1.37-3.94.38a29.09,29.09,0,0,1-15.36-4.56L1902,239l-2.61-2.79S1898.94,235.4,1898.12,233.94Z"/><polyline class="cls-18" points="1902.59 223.06 1904.86 228.39 1935.62 232.25 1942.2 228.03"/><path class="cls-9" d="M1876.26,574.45c1.42.67,2.74,1.39,4.08,2a13.48,13.48,0,0,0,4,1.13,6.62,6.62,0,0,0,3.79-.75,17,17,0,0,0,3.38-2.79,7.93,7.93,0,0,1-2.5,4.07,6.57,6.57,0,0,1-4.85,1.46,9.84,9.84,0,0,1-4.57-1.76A12.48,12.48,0,0,1,1876.26,574.45Z"/><path class="cls-9" d="M1956.5,578a10.45,10.45,0,0,1-3.71,3,12,12,0,0,1-4.73,1.28,10.83,10.83,0,0,1-4.85-.79,10.52,10.52,0,0,1-4-2.72c.79.19,1.49.51,2.23.69a18.88,18.88,0,0,0,2.16.53,15.94,15.94,0,0,0,4.29.29,19.28,19.28,0,0,0,4.28-.73A33.5,33.5,0,0,0,1956.5,578Z"/><circle class="cls-19" cx="1943.5" cy="324" r="3"/><circle class="cls-19" cx="1900.5" cy="324" r="3"/><ellipse class="cls-9" cx="1920" cy="389.4" rx="3.5" ry="1.4"/><path class="cls-20" d="M1870.5,681s1.5,3.48.5,3.5"/><path class="cls-20" d="M1875.5,681s1.5,3.48.5,3.5"/><path class="cls-20" d="M1879.5,680s1.5,4.48.5,4.5"/><path class="cls-20" d="M1884.5,680s1,4,0,4"/><polyline class="cls-2" points="1998.88 435.79 1999.5 440 1991.81 479.64 1996.8 479.17 1999.5 469 1999.63 479.64 2012.5 478 2010.5 433"/><path class="cls-9" d="M1856.33,177.45c1.34.74,2.65,1.55,3.92,2.41.64.43,1.27.87,1.89,1.34.3.24.61.47.91.74a3.34,3.34,0,0,1,.47.46l.08.12,0,.06a.41.41,0,0,1,0,.19c0,.18,0,.15,0,.17v.32a10.49,10.49,0,0,1-.19,2.39,2.54,2.54,0,0,1-.65,1.24,1.57,1.57,0,0,1-.73.39,2.06,2.06,0,0,1-.75,0,5.34,5.34,0,0,1-2.18-1.21,2.17,2.17,0,0,1-.85-2.38l0-.06.05,0c.79-.51,1.57-1,2.39-1.53-.67.67-1.38,1.29-2.07,1.94l.07-.09c-.14.54.31,1.17.86,1.57a5.57,5.57,0,0,0,1.86.89.65.65,0,0,0,.65-.16,1.58,1.58,0,0,0,.36-.77,11.52,11.52,0,0,0,.18-2.18l0-.32v-.08s0-.1,0,0a.34.34,0,0,0,0,.12h0c-.07-.09-.21-.23-.33-.35l-.84-.75-1.75-1.46Q1858.06,179,1856.33,177.45Z"/><path class="cls-9" d="M1991.18,192.35c-1.37.71-2.75,1.38-4.13,2l-2.06,1c-.34.17-.67.34-1,.52a3.93,3.93,0,0,0-.41.25h0a.24.24,0,0,0,.06-.11c0-.13,0-.05,0,0v.08l-.06.31a11.83,11.83,0,0,0-.37,2.15,1.75,1.75,0,0,0,.15.85.68.68,0,0,0,.6.3,5.34,5.34,0,0,0,2-.4c.63-.24,1.22-.75,1.23-1.31l0,.11c-.51-.8-1-1.57-1.53-2.39.67.67,1.3,1.38,1.94,2.07l0,0v.06a2.18,2.18,0,0,1-1.4,2.1,5.36,5.36,0,0,1-2.41.63,2.06,2.06,0,0,1-.74-.16,1.54,1.54,0,0,1-.61-.55,2.66,2.66,0,0,1-.33-1.37,10.2,10.2,0,0,1,.41-2.36l0-.25v-.06a.75.75,0,0,1,0-.17.59.59,0,0,1,.1-.17l.05-.05.1-.09a3.22,3.22,0,0,1,.56-.34c.36-.18.72-.33,1.08-.49.71-.3,1.43-.57,2.15-.83C1988.23,193.2,1989.69,192.74,1991.18,192.35Z"/><path class="cls-26" d="M1884.5,428.87s-17,94.86-18,115.94-5,110.19-5,110.19h30s18.86-181.58,24-191c6-11,7,10,7,10s5.65,62.28,7.32,71.34,6.72,50.14,6.72,50.14l0,59.52h26s3-6.71,3-9.58V559.18s-4-119.44-8-124.87l-4-5.44-69-2.87Z"/><path class="cls-27" d="M1861.5,649a61,61,0,0,0-1,8.48v6.28a45.75,45.75,0,0,0,21,5.24h12s1-11.52,0-15.71c0,0,2-2.1-4,0S1865.5,656.24,1861.5,649Z"/><path class="cls-27" d="M1965.54,645a63.41,63.41,0,0,1,1,8.48v6.28a42.36,42.36,0,0,1-20.09,5.24h-11.48s-1-11.52,0-15.71c0,0-1.92-2.1,3.82,0S1961.72,652.24,1965.54,645Z"/><path class="cls-28" d="M1995.5,346c-16-46-53-80-53-80l.17.62L1933.5,277s-30,14-32-11c0,0-18,7-22,12s-7,11-7,13c0,1.72-11.64,36.24-15.3,47.67-4.6,9.11-8.22,17.66-9.7,24.33-6,27-13,67-11,77l12.5,4.5s16-64,21-79,19.46-38,19.46-38l-5,98.54,74,8-1-112.77c.32,5.11,11.13,16,21,32.77,10,17,21,86,21,86h13C2015.5,417,1998.62,355,1995.5,346Z"/><path class="cls-29" d="M1868.41,669s-8.05,2.88-9.91,4-32,2.75-32,10.62,1.86,12.38,5.59,12.38h58.67s6.52-12.38,1.86-20.25-2.79-4.5-2.79-4.5S1880.52,682.5,1868.41,669Z"/><path class="cls-30" d="M1891.84,433.1a15.67,15.67,0,0,1-.51,4.43,20.56,20.56,0,0,1-1.54,4.2,16.21,16.21,0,0,1-2.56,3.72,9.26,9.26,0,0,1-3.73,2.55,32.25,32.25,0,0,0,2.49-3.5c.74-1.18,1.37-2.43,2-3.67C1889.29,438.32,1890.4,435.73,1891.84,433.1Z"/><path class="cls-30" d="M1947.5,437.1c1.44,2.63,2.55,5.22,3.83,7.73.65,1.24,1.28,2.49,2,3.67a33.81,33.81,0,0,0,2.5,3.5,9.37,9.37,0,0,1-3.74-2.55,16.17,16.17,0,0,1-2.55-3.72,19.44,19.44,0,0,1-1.54-4.2A15,15,0,0,1,1947.5,437.1Z"/><path class="cls-31" d="M1828.07,693.11h64l-1,3.59h-59S1829.14,698.53,1828.07,693.11Z"/><path class="cls-29" d="M1960.39,669s8,2.88,9.91,4,32,2.75,32,10.63-1.86,12.37-5.59,12.37H1938s-6.52-12.38-1.86-20.25,2.79-4.5,2.79-4.5S1948.28,682.5,1960.39,669Z"/><path class="cls-31" d="M2000.73,693.11h-64l1,3.59h59S1999.67,698.53,2000.73,693.11Z"/><path class="cls-32" d="M1863.35,182.69s-6.09-.59-7.46,2.26-.51,20.09-.51,20.09l2,.25.78-11.57s2.08-3.19,3.94-1.94C1862.09,191.78,1865,186.76,1863.35,182.69Z"/><path class="cls-33" d="M1856.38,205.17s2.33,45.64,20.8,67.11A161.93,161.93,0,0,1,1904,316s2.28,26-.33,38.76S1892.69,409,1892.07,414,1884.28,432,1888,440.5"/><path class="cls-32" d="M1983.21,195.72s6.06.93,6.68,4-4.48,19.59-4.48,19.59l-2-.25,2.1-11.41s-1.23-3.59-3.34-2.85C1982.19,204.83,1980.63,199.25,1983.21,195.72Z"/><path class="cls-33" d="M1984.42,219.22s-13.54,43.65-36.74,59.89-45.77,33.06-45.77,33.06"/><g class="cls-34"><path class="cls-2" d="M245.28,2531.69c-9,16.77-17.35,31.28-25,43.84.43,24,1,48-2,71.31l2.51-2.1s8.29,103.61-8.29,145.06-7.6,88.33-7.6,88.33c-11.29,39.17-13.28,185.87-12,210.43S188.27,3220,188.27,3220h27.88s4.65-80.32,5.31-83.64,12.15-96.26,8.57-116.08c-2.58-14.33,14.66-119.58,18.65-139.49s15.93-19.26,15.93-19.26,12.61,2.66,12.61,42.49,21.91,148.7,25.89,163.3,1.33,148.7,1.33,148.7,31.2,0,31.2-9.3-2-117.49,2-139.4-17.92-183.88-17.92-183.88c21.9-33.19,10-97.58,10-97.58l7-154.06c.15.25.33.52.49.77-1.52-22.41-1.69-44.37-1.71-66.28-18.29-21.61-33.44-33.78-38.5-37.6C279.86,2529.81,262,2533,245.28,2531.69Z"/><path class="cls-2" d="M405.34,2829.67s-17.92,79.66-11.95,79.66,11.95-31.2,11.95-31.2c0,54.43,14.61,58.42,14.61,58.42,21.24-33.19,8-97,8-97-1.3-140-53.92-227.64-92.53-273.24,0,21.91.19,43.87,1.71,66.28,3.79,5.92,8.9,13.69,15.74,23.84C398,2723.46,405.34,2829.67,405.34,2829.67Z"/><path class="cls-25" d="M371.33,2690s11.06,27.26,19.35,25.19,18.11-10,18.11-10-16.86,26.68-11.27,70.14l-11-37.35L376,2704.23Z"/><path class="cls-2" d="M154.66,2836.36s17.93,79.66,12,79.66-12-31.2-12-31.2c0,54.44-14.6,58.42-14.6,58.42-21.24-33.19-8-97-8-97,1.31-140,51-227.13,89.65-272.72,0,21.91,2.69,43.34,1.17,65.76-3.78,5.91-8.9,13.68-15.73,23.84C162,2730.15,154.66,2836.36,154.66,2836.36Z"/><path class="cls-25" d="M188.67,2696.7s-11.06,27.26-19.35,25.19-18.11-10-18.11-10,16.87,26.67,11.27,70.14l11-37.36L184,2710.92Z"/><circle class="cls-19" cx="312.03" cy="2635.42" r="5.02"/><circle class="cls-19" cx="240.07" cy="2635.42" r="5.02"/><ellipse class="cls-9" cx="272.7" cy="2744.85" rx="5.86" ry="2.34"/><path class="cls-2" d="M247.49,2527.34q-5.33,9.93-10.33,18.81a18.63,18.63,0,0,0,6.26,2.26Z"/><path class="cls-2" d="M297,2550.08c4.29-1.19,12.86-7.23,17.89-10.78a171.85,171.85,0,0,0-18-15.27Z"/><path class="cls-2" d="M368.51,2416.08c33.87-11.58,33.88-13,32.2-28.31-3-26.88-22.9-16.17-22.9-16.17l-210.39,9.14c-23.28-6.48-29.26,9.45-22.62,24.05S174.75,2423,174.75,2423s7.89-4.93,6.56,30.92,17.26,51.78,17.26,51.78c14,11.32,25.59,33.19,38.59,40.45q5-8.9,10.33-18.81l-4.07,21.07a18.63,18.63,0,0,1-6.26-2.26q-8,14.23-15.24,26c.42,24,4.39,43.28,1.42,66.58l-.91,2.62s8.29,103.62-8.29,145.06-7.6,88.33-7.6,88.33c-11.29,39.17-13.28,185.87-11.95,210.44s-4.65,131.43-4.65,131.43h27.88s4.65-80.32,5.31-83.64,12.16-96.26,8.58-116.08c-2.59-14.33,14.66-119.58,18.64-139.49s15.93-19.25,15.93-19.25,12.62,2.65,12.62,42.48,21.9,148.7,25.88,163.3,1.33,148.7,1.33,148.7,31.2,0,31.2-9.29-2-117.5,2-139.41-17.92-183.88-17.92-183.88c21.91-33.19,10-97.58,10-97.58l7-154.06.5.78c-1.53-22.42-3.37-37.16-3.39-59.07-8.28-9.78-20.42-15.74-26.77-21.75-5,3.55-7.42.48-11.71,1.67l-.15-26a171.85,171.85,0,0,1,18,15.27c2-1.43,3.5-2.47,3.86-2.61,5.31-2,15.06-28.44,20.08-36.81,6.28-10.46,9.8-32,9.8-32S343.21,2424.73,368.51,2416.08Z"/><path class="cls-3" d="M373.82,2374.26s62.4-146.71,32.53-160.65c0,0,21.91,10,25.89,11.95s-14.61-21.9-25.89-22.57c0,0,11.95-16.59,26.55-16.59,0,0-11.95-14.61-43.81,5.31,0,0-59.74-106.88-164-68.38l-10,4.65s23.9,11.28,27.88,28.54c0,0-92.27-55.76-156-16.59,0,0,41.16,35.18,38.5,45.14,0,0-23.9-12-38.5-12,0,0,57.75,87,63.06,109.53,0,0-26.55-6-39.83,4.65,0,0,40.5,11.95,33.19,12.61,0,0-17.92-3.32-22.57,4s50.57,67.15,43.15,87.63c0,0,23.83,54.87,25.82,61.51s51.88,61.91,154.74,17.48c0,0,9.25-49.33,9.25-56S369.84,2384.22,373.82,2374.26Z"/><path class="cls-2" d="M163.1,2379.4s0-39.24,5-57.5,25.1-58.09,68.61-61.41,92,13.28,108.76,0l16.73-13.28V2380l11.72-6.64s-8.37,98.09-35.14,119.51c-19.35,15.48-141,31.06-152.27-9.71,0,0-8.18-34.51-16.5-62.6C164.78,2402.83,163.1,2379.4,163.1,2379.4Z"/><path class="cls-15" d="M312,2496.54H230.22s10.41-50.11,40.9-48.49S312,2496.54,312,2496.54Z"/><path d="M203.73,2349.71a33.62,33.62,0,0,1,9.42-7.2,35.12,35.12,0,0,1,11.44-3.78,28.54,28.54,0,0,1,12.09.85,26.08,26.08,0,0,1,10.35,5.9,44.38,44.38,0,0,0-10.89-3.62,35.23,35.23,0,0,0-11.13-.16,37.31,37.31,0,0,0-5.5,1.14,53,53,0,0,0-5.38,1.79A75,75,0,0,0,203.73,2349.71Z"/><path d="M334.54,2351.16a44.59,44.59,0,0,0-9.57-6.33,33,33,0,0,0-5.24-1.95,30.83,30.83,0,0,0-5.47-1.1,47.65,47.65,0,0,0-11.26,0,76.2,76.2,0,0,0-11.37,2.19,33.38,33.38,0,0,1,11-4.5,34.69,34.69,0,0,1,12-.66,28.64,28.64,0,0,1,11.45,4A26,26,0,0,1,334.54,2351.16Z"/><circle cx="231.71" cy="2374.38" r="14.22"/><circle class="cls-16" cx="235.05" cy="2377.73" r="3.35"/><circle cx="300.31" cy="2374.38" r="14.22"/><circle class="cls-16" cx="303.66" cy="2377.73" r="3.35"/><path class="cls-9" d="M284.42,2348.45a56.27,56.27,0,0,0-2.23,5.77,33.33,33.33,0,0,0-1.42,5.88,17,17,0,0,0-.21,2.91l.08,3.11c0,2.1-.07,4.17-.11,6.23a106.18,106.18,0,0,0,.15,12.13c.11,1,.23,1.94.42,2.85a10.11,10.11,0,0,0,.34,1.34,11,11,0,0,0,.46,1.32,42.45,42.45,0,0,0,2.58,5.31,97.34,97.34,0,0,0,6.49,10.22c1.92,2.58,6.79,7.22,4.08,12.73a9.69,9.69,0,0,1-.57.85c-.22.24-.45.5-.67.72-.4.37-.82.74-1.25,1.09a12.93,12.93,0,0,1-2.91,1.81,47.37,47.37,0,0,1-6.13,1.81,33.47,33.47,0,0,1-6.23,1.11,34.35,34.35,0,0,1-6.26-.22,50.61,50.61,0,0,0,6.1-.88,35.13,35.13,0,0,0,5.78-1.88,49.36,49.36,0,0,0,5.56-2.28,12,12,0,0,0,2.2-1.66c.35-.32.69-.67,1-1l.34-.45a4.17,4.17,0,0,0,.26-.46c.58-1.2.2-2.85-.66-4.39a11.1,11.1,0,0,0-1.55-2.15c-.2-.19-.8-.81-1.11-1.19s-.69-.84-1-1.26a91.78,91.78,0,0,1-7-10.57,47.11,47.11,0,0,1-2.74-5.87,15.18,15.18,0,0,1-.53-1.61,14,14,0,0,1-.4-1.67,25.39,25.39,0,0,1-.39-3.29,82.36,82.36,0,0,1,.51-12.63l.6-6.15.25-3.08a17.19,17.19,0,0,1,.57-3.23,32.26,32.26,0,0,1,2.32-5.91A39.6,39.6,0,0,1,284.42,2348.45Z"/><path class="cls-17" d="M303.1,2496.54H234.68L246.25,2485l5.77-3.86,6.81-2.86,5.78-1.24a42.6,42.6,0,0,1,23.4,4.16l6.87,4.53,4.27,3.7A81.3,81.3,0,0,0,303.1,2496.54Z"/><circle class="cls-19" cx="313.7" cy="2632.07" r="5.02"/><circle class="cls-19" cx="241.75" cy="2632.07" r="5.02"/><path class="cls-9" d="M248.44,2545.06c2.06.25,4.12.49,6.18.67s4.12.4,6.18.54c4.12.29,8.25.53,12.38.47a76.72,76.72,0,0,0,12.31-.84,36.2,36.2,0,0,0,6-1.41,18.34,18.34,0,0,0,5.49-2.78,17.28,17.28,0,0,1-5.32,3.24,37,37,0,0,1-6,1.71,49.62,49.62,0,0,1-6.2.82q-3.12.24-6.24.26a123.19,123.19,0,0,1-12.45-.7A115.61,115.61,0,0,1,248.44,2545.06Z"/><ellipse class="cls-9" cx="274.38" cy="2741.51" rx="5.86" ry="2.34"/><path class="cls-9" d="M150.55,2388.61q3.51,1.59,6.9,3.4c1.13.61,2.27,1.21,3.37,1.88.56.33,1.11.66,1.65,1a5.18,5.18,0,0,1,.82.65.55.55,0,0,1,.12.14l.06.07a.67.67,0,0,1,.09.21,1.17,1.17,0,0,1,0,.22v.1c0,.14,0,.3,0,.46a17.53,17.53,0,0,1,.18,3.93,4.08,4.08,0,0,1-.75,2,2.92,2.92,0,0,1-.44.42,5.68,5.68,0,0,1-.55.28,3.14,3.14,0,0,1-1.13.1,6.87,6.87,0,0,1-2-.53,10.23,10.23,0,0,1-1.76-.93,5.13,5.13,0,0,1-1.47-1.43,2.57,2.57,0,0,1-.4-2.07v-.06l0,0c1.17-1.06,2.33-2.14,3.53-3.17-1,1.2-2.11,2.36-3.17,3.53l.06-.1a2.15,2.15,0,0,0,.44,1.56,4.41,4.41,0,0,0,1.35,1.14,10.57,10.57,0,0,0,1.67.77,6,6,0,0,0,1.72.41,1.4,1.4,0,0,0,1.32-.49,3,3,0,0,0,.52-1.53,19.76,19.76,0,0,0-.17-3.73c0-.29,0-.84,0-.62a7,7,0,0,0-.68-.54c-.51-.37-1-.72-1.58-1.06l-3.24-2C154.92,2391.29,152.73,2390,150.55,2388.61Z"/><path class="cls-9" d="M384.25,2388.61c-2.18,1.36-4.37,2.68-6.56,4l-3.25,2c-.53.34-1.06.69-1.57,1.06a7,7,0,0,0-.68.54c0-.22,0,.33-.06.62a19.73,19.73,0,0,0-.16,3.73,3.12,3.12,0,0,0,.51,1.53,1.42,1.42,0,0,0,1.32.49,5.89,5.89,0,0,0,1.72-.41,11.11,11.11,0,0,0,1.68-.77,4.49,4.49,0,0,0,1.34-1.14,2.06,2.06,0,0,0,.44-1.56l.06.1c-1.05-1.17-2.13-2.33-3.16-3.53,1.2,1,2.35,2.11,3.53,3.17l0,0,0,.06a2.61,2.61,0,0,1-.4,2.07,5.13,5.13,0,0,1-1.47,1.43,10,10,0,0,1-1.77.93,6.78,6.78,0,0,1-2,.53,3.18,3.18,0,0,1-1.13-.1c-.18-.08-.36-.18-.54-.28a2.92,2.92,0,0,1-.44-.42,4,4,0,0,1-.75-2,18.15,18.15,0,0,1,.17-3.93,3.91,3.91,0,0,0,0-.46v-.1a.61.61,0,0,1,0-.22,1,1,0,0,1,.08-.21l.06-.07.12-.14a5.73,5.73,0,0,1,.83-.65c.54-.37,1.09-.7,1.65-1,1.1-.67,2.23-1.27,3.37-1.88Q380.74,2390.2,384.25,2388.61Z"/></g></g><g id="Layer_4" data-name="Layer 4"><path class="cls-2" d="M345.5,178c-1.77-16.07-13.69-9.66-13.69-9.66L206.08,173.8c-13.91-3.88-17.48,5.65-13.52,14.37s17.9,10.89,17.9,10.89,4.72-2.95,3.92,18.47,10.32,30.94,10.32,30.94a60.13,60.13,0,0,0,29.24,12.94h0c-5.51,10.28-10.59,19.14-15.28,26.8.25,14.33.58,28.7-1.19,42.62l1.5-1.26s12.45,62.66,2.54,87.43-12,52.05-12,52.05c-6.75,23.41-7.94,111.08-7.14,125.76s-2.78,78.55-2.78,78.55H236.2s2.78-48,3.18-50,7.26-57.52,5.12-69.37c-1.55-8.56,8.76-71.46,11.14-83.36S265.5,453,265.5,453s13,6.2,13,30,7.29,90.39,9.67,99.11S289,671,289,671s18.64,0,18.64-5.56-1.19-70.21,1.19-83.31-10.71-109.89-10.71-109.89c13.09-19.83,6-58.31,6-58.31l4.19-92.07.29.46c-.91-13.4-1-26.52-1-39.61-13.47-15.91-24.09-23.26-24.09-23.26h0c3.6-1,6-1.95,6.76-2.23,3.17-1.19,13.48-10.31,18.64-15.47s5.56-15.87,5.56-15.87-3.23-25.77,11.9-30.94C346.5,188,346.51,187.14,345.5,178Z"/><path class="cls-3" d="M329.43,169.92s37.29-87.67,19.44-96c0,0,13.09,6,15.47,7.14S355.61,68,348.87,67.57c0,0,7.14-9.92,15.87-9.92,0,0-7.14-8.72-26.18,3.18,0,0-35.71-63.87-98-40.86l-5.95,2.77s14.28,6.75,16.66,17.06c0,0-55.15-33.32-93.23-9.92,0,0,24.6,21,23,27,0,0-14.28-7.14-23-7.14,0,0,34.51,52,37.69,65.46,0,0-15.87-3.57-23.81,2.77,0,0,24.2,7.15,19.84,7.54,0,0-10.71-2-13.49,2.38S208.5,168,204.07,180.24c0,0,14.24,32.79,15.43,36.76s31,37,92.48,10.45c0,0,5.52-29.48,5.52-33.45S327.05,175.88,329.43,169.92Z"/><path class="cls-9" d="M257.53,464.56s-6.19,6.19-8.67,6.19a96.55,96.55,0,0,0,2.85,24.59"/><path class="cls-2" d="M349.27,440.09s-10.71,47.61-7.14,47.61,7.14-18.65,7.14-18.65C349.27,501.58,358,504,358,504c12.69-19.84,4.8-58,4.8-58-2.3-84-32.22-136-55.3-163.29,0,13.09.11,26.21,1,39.61,2.27,3.53,5.11,8.32,9.41,14.25C346.5,376,349.27,440.09,349.27,440.09Z"/><path class="cls-2" d="M199.46,444.09s10.71,47.61,7.14,47.61-7.14-18.65-7.14-18.65c0,32.53-8.73,34.91-8.73,34.91-12.7-19.84-4.8-58-4.8-58,.78-83.67,30.5-135.73,53.57-163,0,13.09,1.61,25.9.7,39.3-2.26,3.53-5.32,8.18-9.4,14.25C203.82,380.61,199.46,444.09,199.46,444.09Z"/><path class="cls-25" d="M219.78,360.62s-6.61,16.3-11.56,15.06-10.83-6-10.83-6,10.08,15.95,6.74,41.92l6.56-22.32L217,369.12Z"/><path class="cls-11" d="M289,665.19s-1.24,6.19,0,9.9,0,2.48,0,2.48-2.48,4.95-2.48,6.19,26,1.24,26,1.24,0-6.19-1.24-8.67l-2.48-5s0,1.24,1.24-1.24-1.24-4.95-1.24-4.95L307,662.14"/><path class="cls-11" d="M239.47,665.19a55.5,55.5,0,0,1,0,9.9c-.4,2.91,0,2.48,0,2.48s4.44,4.43,2.57,6.19c-.55,1.24-25.55,1.24-26.95,1.24s0-6.19,1.28-8.67l2.57-5s0,1.24-1.29-1.24,1.29-4.95,1.29-4.95l1.93-3.05"/><path class="cls-2" d="M203.5,173s0-23.45,3-34.36,15-34.72,41-36.7,55,7.93,65,0l10-7.94v79.35l7-4s-5,58.62-21,71.42c-11.57,9.26-84.26,18.57-91-5.8,0,0-4.89-20.62-9.86-37.41C204.5,187,203.5,173,203.5,173Z"/><path class="cls-15" d="M237.5,219h55s-7,22.45-27.5,21.72S237.5,219,237.5,219Z"/><path d="M231.5,154a17.64,17.64,0,0,1,5.87-4.18,19.59,19.59,0,0,1,7.15-1.72,15.73,15.73,0,0,1,7.32,1.37A14.17,14.17,0,0,1,257.5,154a35.08,35.08,0,0,0-6.43-2.3,22.51,22.51,0,0,0-6.43-.61,35.05,35.05,0,0,0-6.5.95C236,152.56,233.77,153.23,231.5,154Z"/><path d="M302.5,154a35.63,35.63,0,0,0-6.43-2.31,22.5,22.5,0,0,0-6.43-.6,35.08,35.08,0,0,0-6.5,1c-2.18.51-4.36,1.18-6.64,1.95a17.4,17.4,0,0,1,5.87-4.18,19.39,19.39,0,0,1,7.15-1.72,15.79,15.79,0,0,1,7.31,1.37A14.22,14.22,0,0,1,302.5,154Z"/><circle cx="244.5" cy="170" r="8.5"/><circle class="cls-16" cx="246.5" cy="172" r="2"/><circle cx="285.5" cy="170" r="8.5"/><circle class="cls-16" cx="287.5" cy="172" r="2"/><path class="cls-9" d="M276,154.5a30.26,30.26,0,0,0-1.8,7,10.59,10.59,0,0,0,0,1.68l.11,1.86c.05,1.27,0,2.51,0,3.74,0,2.45,0,4.9.22,7.16a15.27,15.27,0,0,0,.26,1.6,7.26,7.26,0,0,0,.46,1.46,24.66,24.66,0,0,0,1.49,3.07,66.4,66.4,0,0,0,3.79,6c.16.23.34.48.5.69s.18.24.54.65a9.19,9.19,0,0,1,1.24,1.93,7.41,7.41,0,0,1,.68,2.35,4.58,4.58,0,0,1-.57,2.74,4.68,4.68,0,0,1-.87,1.08c-.26.23-.52.45-.8.66a8,8,0,0,1-1.89,1.11,25.41,25.41,0,0,1-3.77,1,19.51,19.51,0,0,1-3.82.51,18.18,18.18,0,0,1-3.77-.35,33.39,33.39,0,0,0,3.61-.75,20.84,20.84,0,0,0,3.37-1.28,26.63,26.63,0,0,0,3.21-1.45,6.56,6.56,0,0,0,1.16-1c.19-.19.38-.39.56-.6a2.49,2.49,0,0,0,.23-.4,1.42,1.42,0,0,0,0-.85,3.93,3.93,0,0,0-.48-1.15,6.87,6.87,0,0,0-.85-1.12,7.52,7.52,0,0,1-.69-.73c-.24-.27-.43-.51-.64-.77a47.33,47.33,0,0,1-4.26-6.39,28.54,28.54,0,0,1-1.68-3.61,12.16,12.16,0,0,1-.57-2.09,15.1,15.1,0,0,1-.23-2.06,44.49,44.49,0,0,1,.43-7.65l.47-3.65.21-1.84a10.48,10.48,0,0,1,.42-2A20.23,20.23,0,0,1,276,154.5Z"/><path class="cls-17" d="M244.5,230.35s31-6.79,41,.93l-3.84,3.79-3.8,2.61-4.53,2-3.86.86a29.13,29.13,0,0,1-15.81-2.61l-4.7-3L246,232.48S245.5,231.7,244.5,230.35Z"/><circle class="cls-35" cx="227.5" cy="202" r="2"/><circle class="cls-35" cx="273.5" cy="145" r="2"/><polyline class="cls-18" points="247.58 219 250.5 224 281.5 224 287.5 219"/><path class="cls-9" d="M226.26,574.45c1.42.67,2.74,1.39,4.08,2a13.48,13.48,0,0,0,4,1.13,6.62,6.62,0,0,0,3.79-.75A17,17,0,0,0,241.5,574a7.93,7.93,0,0,1-2.5,4.07,6.57,6.57,0,0,1-4.85,1.46,9.84,9.84,0,0,1-4.57-1.76A12.48,12.48,0,0,1,226.26,574.45Z"/><path class="cls-9" d="M306.5,578a10.45,10.45,0,0,1-3.71,3,12,12,0,0,1-4.73,1.28,10.83,10.83,0,0,1-4.85-.79,10.52,10.52,0,0,1-3.95-2.72c.79.19,1.49.51,2.23.69a18.88,18.88,0,0,0,2.16.53,15.94,15.94,0,0,0,4.29.29,19.28,19.28,0,0,0,4.28-.73A33.5,33.5,0,0,0,306.5,578Z"/><circle class="cls-19" cx="293.5" cy="324" r="3"/><circle class="cls-19" cx="250.5" cy="324" r="3"/><path class="cls-9" d="M254.5,261c1.24.1,2.47.23,3.7.31s2.47.19,3.7.26c2.46.13,4.92.25,7.38.23a52.66,52.66,0,0,0,7.33-.45,22,22,0,0,0,3.58-.78A11.56,11.56,0,0,0,283.5,259a10.21,10.21,0,0,1-3.14,2,23,23,0,0,1-3.61,1.08,36.77,36.77,0,0,1-7.47.69,58,58,0,0,1-7.45-.47A58.65,58.65,0,0,1,254.5,261Z"/><ellipse class="cls-9" cx="270" cy="389.4" rx="3.5" ry="1.4"/><path class="cls-20" d="M220.5,681s1.5,3.48.5,3.5"/><path class="cls-20" d="M225.5,681s1.5,3.48.5,3.5"/><path class="cls-20" d="M229.5,680s1.5,4.48.5,4.5"/><path class="cls-20" d="M234.5,680s1,4,0,4"/><polyline class="cls-2" points="348.88 435.79 349.5 440 341.81 479.64 346.8 479.17 349.5 469 349.63 479.64 362.5 478 360.5 433"/><path class="cls-9" d="M196,179.5q2.15.85,4.2,1.91c.68.35,1.36.7,2,1.09.34.2.67.4,1,.62a2.9,2.9,0,0,1,.52.4l.09.11,0,.05a1.07,1.07,0,0,1,.07.19,1.17,1.17,0,0,1,0,.17v.06l0,.26a9.82,9.82,0,0,1,.11,2.39,2.62,2.62,0,0,1-.49,1.31,1.63,1.63,0,0,1-.68.48,2,2,0,0,1-.75.06,5.38,5.38,0,0,1-2.31-.92,2.15,2.15,0,0,1-1.13-2.26v-.06l0,0c.72-.61,1.43-1.24,2.18-1.82-.58.75-1.21,1.46-1.82,2.18l.06-.1c-.07.56.46,1.13,1.06,1.45a5.35,5.35,0,0,0,1.95.65.66.66,0,0,0,.63-.23,1.68,1.68,0,0,0,.26-.81,11.85,11.85,0,0,0-.1-2.19l0-.31v-.09s0-.1,0,0a.37.37,0,0,0,0,.11h0s0,0,0,0a3.5,3.5,0,0,0-.37-.31c-.3-.21-.61-.43-.93-.63L199.84,182Q197.91,180.8,196,179.5Z"/><path class="cls-9" d="M331.66,177.5q-1.91,1.31-3.84,2.53l-1.92,1.23c-.32.2-.63.42-.93.63a3.5,3.5,0,0,0-.37.31s0,0,0,0h0a.37.37,0,0,0,.05-.11c0-.14,0-.05,0,0v.09l0,.31a11.85,11.85,0,0,0-.1,2.19,1.68,1.68,0,0,0,.26.81.66.66,0,0,0,.63.23,5.35,5.35,0,0,0,1.95-.65c.6-.32,1.13-.89,1.06-1.45l.06.1c-.61-.72-1.24-1.43-1.82-2.18.75.58,1.46,1.21,2.18,1.82l.05,0v.06a2.15,2.15,0,0,1-1.13,2.26,5.38,5.38,0,0,1-2.31.92,2,2,0,0,1-.75-.06,1.63,1.63,0,0,1-.68-.48,2.62,2.62,0,0,1-.49-1.31,9.82,9.82,0,0,1,.11-2.39l0-.26V182a1.17,1.17,0,0,1,0-.17,1.07,1.07,0,0,1,.07-.19l.05-.05.09-.11a2.9,2.9,0,0,1,.52-.4c.33-.22.66-.42,1-.62.67-.39,1.35-.74,2-1.09Q329.52,178.36,331.66,177.5Z"/><path class="cls-28" d="M251.5,266s-18,7-22,12-7,11-7,13-15.74,48.36-16.37,51.18S250.5,274,250.5,274Z"/><path class="cls-26" d="M234.5,428.87s-17,94.86-18,115.94-5,110.19-5,110.19h30s18.86-181.58,24-191c6-11,7,10,7,10s5.65,62.28,7.32,71.34,6.72,50.14,6.72,50.14l0,59.52h26s3-6.71,3-9.58V559.18s-4-119.44-8-124.87l-4-5.44-69-2.87Z"/><path class="cls-27" d="M211.5,649a61,61,0,0,0-1,8.48v6.28a45.75,45.75,0,0,0,21,5.24h12s1-11.52,0-15.71c0,0,2-2.1-4,0S215.5,656.24,211.5,649Z"/><path class="cls-27" d="M315.54,645a63.41,63.41,0,0,1,1,8.48v6.28A42.36,42.36,0,0,1,296.41,665H284.93s-1-11.52,0-15.71c0,0-1.92-2.1,3.82,0S311.72,652.24,315.54,645Z"/><path class="cls-28" d="M345.5,346c-16-46-53-80-53-80l.17.62L283.5,277s-30,14-32-11l-2.21,3.8L244.5,278s-41,58-47,85-13,67-11,77l12.5,4.5s16-64,21-79,19.46-38,19.46-38l-5,98.54,74,8-1-112.77c.32,5.11,11.13,16,21,32.77,10,17,21,86,21,86h13C365.5,417,348.62,355,345.5,346Z"/><path class="cls-29" d="M218.41,669s-8,2.88-9.91,4-32,2.75-32,10.62S178.36,696,182.09,696h58.67s6.52-12.38,1.86-20.25-2.79-4.5-2.79-4.5S230.52,682.5,218.41,669Z"/><path class="cls-30" d="M241.84,433.1a15.67,15.67,0,0,1-.51,4.43,20.56,20.56,0,0,1-1.54,4.2,16.21,16.21,0,0,1-2.56,3.72A9.26,9.26,0,0,1,233.5,448a32.25,32.25,0,0,0,2.49-3.5c.74-1.18,1.37-2.43,2-3.67C239.29,438.32,240.4,435.73,241.84,433.1Z"/><path class="cls-30" d="M297.5,437.1c1.44,2.63,2.55,5.22,3.83,7.73.65,1.24,1.28,2.49,2,3.67a33.81,33.81,0,0,0,2.5,3.5,9.37,9.37,0,0,1-3.74-2.55,16.17,16.17,0,0,1-2.55-3.72,19.44,19.44,0,0,1-1.54-4.2A15,15,0,0,1,297.5,437.1Z"/><path class="cls-31" d="M178.07,693.11h64l-1,3.59H182S179.14,698.53,178.07,693.11Z"/><path class="cls-29" d="M310.39,669s8.05,2.88,9.91,4,32,2.75,32,10.63S350.44,696,346.71,696H288s-6.52-12.38-1.86-20.25,2.79-4.5,2.79-4.5S298.28,682.5,310.39,669Z"/><path class="cls-31" d="M350.73,693.11h-64l1,3.59h59S349.67,698.53,350.73,693.11Z"/><path class="cls-32" d="M203.62,183.83s-6.12.17-7.12,3.17,2,20,2,20h2l-.67-11.59S201.5,192,203.5,193C203.5,193,205.75,187.66,203.62,183.83Z"/><path class="cls-33" d="M199.5,207s8,45,29,64a162,162,0,0,1,32,40s5.5,25.5,4.5,38.5-27,66-27,71-3.49,12.1,1.25,20.05"/><path class="cls-32" d="M324.17,181.83s6.13.17,7.13,3.17-2,20-2,20h-2l.67-11.59S326.3,190,324.3,191C324.3,191,322.05,185.66,324.17,181.83Z"/><path class="cls-33" d="M328.3,205s-8,45-29,64S258,307.5,258,307.5"/><path class="cls-2" d="M345.5,178c-1.77-16.07-13.69-9.66-13.69-9.66L206.08,173.8c-13.91-3.88-17.48,5.65-13.52,14.37s17.9,10.89,17.9,10.89,4.72-2.95,3.92,18.47,10.32,30.94,10.32,30.94a60.13,60.13,0,0,0,29.24,12.94h0c-5.51,10.28-10.59,19.14-15.28,26.8.25,14.33.58,28.7-1.19,42.62l1.5-1.26s12.45,62.66,2.54,87.43-12,52.05-12,52.05c-6.75,23.41-7.94,111.08-7.14,125.76s-2.78,78.55-2.78,78.55H236.2s2.78-48,3.18-50,7.26-57.52,5.12-69.37c-1.55-8.56,8.76-71.46,11.14-83.36S265.5,453,265.5,453s13,6.2,13,30,7.29,90.39,9.67,99.11S289,671,289,671s18.64,0,18.64-5.56-1.19-70.21,1.19-83.31-10.71-109.89-10.71-109.89c13.09-19.83,6-58.31,6-58.31l4.19-92.07.29.46c-.91-13.4-1-26.52-1-39.61-13.47-15.91-24.09-23.26-24.09-23.26h0c3.6-1,6-1.95,6.76-2.23,3.17-1.19,13.48-10.31,18.64-15.47s5.56-15.87,5.56-15.87-3.23-25.77,11.9-30.94C346.5,188,346.51,187.14,345.5,178Z"/><path class="cls-3" d="M329.43,169.92s37.29-87.67,19.44-96c0,0,13.09,6,15.47,7.14S355.61,68,348.87,67.57c0,0,7.14-9.92,15.87-9.92,0,0-7.14-8.72-26.18,3.18,0,0-35.71-63.87-98-40.86l-5.95,2.77s14.28,6.75,16.66,17.06c0,0-55.15-33.32-93.23-9.92,0,0,24.6,21,23,27,0,0-14.28-7.14-23-7.14,0,0,34.51,52,37.69,65.46,0,0-15.87-3.57-23.81,2.77,0,0,24.2,7.15,19.84,7.54,0,0-10.71-2-13.49,2.38S208.5,168,204.07,180.24c0,0,14.24,32.79,15.43,36.76s31,37,92.48,10.45c0,0,5.52-29.48,5.52-33.45S327.05,175.88,329.43,169.92Z"/><path class="cls-9" d="M257.53,464.56s-6.19,6.19-8.67,6.19a96.55,96.55,0,0,0,2.85,24.59"/><path class="cls-2" d="M199.46,444.09s10.71,47.61,7.14,47.61-7.14-18.65-7.14-18.65c0,32.53-8.73,34.91-8.73,34.91-12.7-19.84-4.8-58-4.8-58,.78-83.67,30.5-135.73,53.57-163,0,13.09,1.61,25.9.7,39.3-2.26,3.53-5.32,8.18-9.4,14.25C203.82,380.61,199.46,444.09,199.46,444.09Z"/><path class="cls-25" d="M219.78,360.62s-6.61,16.3-11.56,15.06-10.83-6-10.83-6,10.08,15.95,6.74,41.92l6.56-22.32L217,369.12Z"/><path class="cls-2" d="M203.5,173s0-23.45,3-34.36,15-34.72,41-36.7,55,7.93,65,0l10-7.94v79.35l7-4s-5,58.62-21,71.42c-11.57,9.26-84.26,18.57-91-5.8,0,0-4.89-20.62-9.86-37.41C204.5,187,203.5,173,203.5,173Z"/><path class="cls-15" d="M237.5,219h55s-7,22.45-27.5,21.72S237.5,219,237.5,219Z"/><path d="M231.5,154a17.64,17.64,0,0,1,5.87-4.18,19.59,19.59,0,0,1,7.15-1.72,15.73,15.73,0,0,1,7.32,1.37A14.17,14.17,0,0,1,257.5,154a35.08,35.08,0,0,0-6.43-2.3,22.51,22.51,0,0,0-6.43-.61,35.05,35.05,0,0,0-6.5.95C236,152.56,233.77,153.23,231.5,154Z"/><path d="M302.5,154a35.63,35.63,0,0,0-6.43-2.31,22.5,22.5,0,0,0-6.43-.6,35.08,35.08,0,0,0-6.5,1c-2.18.51-4.36,1.18-6.64,1.95a17.4,17.4,0,0,1,5.87-4.18,19.39,19.39,0,0,1,7.15-1.72,15.79,15.79,0,0,1,7.31,1.37A14.22,14.22,0,0,1,302.5,154Z"/><circle cx="244.5" cy="170" r="8.5"/><circle class="cls-16" cx="246.5" cy="172" r="2"/><circle cx="285.5" cy="170" r="8.5"/><circle class="cls-16" cx="287.5" cy="172" r="2"/><path class="cls-9" d="M276,154.5a30.26,30.26,0,0,0-1.8,7,10.59,10.59,0,0,0,0,1.68l.11,1.86c.05,1.27,0,2.51,0,3.74,0,2.45,0,4.9.22,7.16a15.27,15.27,0,0,0,.26,1.6,7.26,7.26,0,0,0,.46,1.46,24.66,24.66,0,0,0,1.49,3.07,66.4,66.4,0,0,0,3.79,6c.16.23.34.48.5.69s.18.24.54.65a9.19,9.19,0,0,1,1.24,1.93,7.41,7.41,0,0,1,.68,2.35,4.58,4.58,0,0,1-.57,2.74,4.68,4.68,0,0,1-.87,1.08c-.26.23-.52.45-.8.66a8,8,0,0,1-1.89,1.11,25.41,25.41,0,0,1-3.77,1,19.51,19.51,0,0,1-3.82.51,18.18,18.18,0,0,1-3.77-.35,33.39,33.39,0,0,0,3.61-.75,20.84,20.84,0,0,0,3.37-1.28,26.63,26.63,0,0,0,3.21-1.45,6.56,6.56,0,0,0,1.16-1c.19-.19.38-.39.56-.6a2.49,2.49,0,0,0,.23-.4,1.42,1.42,0,0,0,0-.85,3.93,3.93,0,0,0-.48-1.15,6.87,6.87,0,0,0-.85-1.12,7.52,7.52,0,0,1-.69-.73c-.24-.27-.43-.51-.64-.77a47.33,47.33,0,0,1-4.26-6.39,28.54,28.54,0,0,1-1.68-3.61,12.16,12.16,0,0,1-.57-2.09,15.1,15.1,0,0,1-.23-2.06,44.49,44.49,0,0,1,.43-7.65l.47-3.65.21-1.84a10.48,10.48,0,0,1,.42-2A20.23,20.23,0,0,1,276,154.5Z"/><path class="cls-17" d="M244.5,230.35s31-6.79,41,.93l-3.84,3.79-3.8,2.61-4.53,2-3.86.86a29.13,29.13,0,0,1-15.81-2.61l-4.7-3L246,232.48S245.5,231.7,244.5,230.35Z"/><polyline class="cls-18" points="247.58 219 250.5 224 281.5 224 287.5 219"/><path class="cls-9" d="M226.26,574.45c1.42.67,2.74,1.39,4.08,2a13.48,13.48,0,0,0,4,1.13,6.62,6.62,0,0,0,3.79-.75A17,17,0,0,0,241.5,574a7.93,7.93,0,0,1-2.5,4.07,6.57,6.57,0,0,1-4.85,1.46,9.84,9.84,0,0,1-4.57-1.76A12.48,12.48,0,0,1,226.26,574.45Z"/><path class="cls-9" d="M306.5,578a10.45,10.45,0,0,1-3.71,3,12,12,0,0,1-4.73,1.28,10.83,10.83,0,0,1-4.85-.79,10.52,10.52,0,0,1-3.95-2.72c.79.19,1.49.51,2.23.69a18.88,18.88,0,0,0,2.16.53,15.94,15.94,0,0,0,4.29.29,19.28,19.28,0,0,0,4.28-.73A33.5,33.5,0,0,0,306.5,578Z"/><circle class="cls-19" cx="293.5" cy="324" r="3"/><circle class="cls-19" cx="250.5" cy="324" r="3"/><ellipse class="cls-9" cx="270" cy="389.4" rx="3.5" ry="1.4"/><polyline class="cls-2" points="348.88 435.79 349.5 440 341.81 479.64 346.8 479.17 349.5 469 349.63 479.64 362.5 478 360.5 433"/><path class="cls-9" d="M196,179.5q2.15.85,4.2,1.91c.68.35,1.36.7,2,1.09.34.2.67.4,1,.62a2.9,2.9,0,0,1,.52.4l.09.11,0,.05a1.07,1.07,0,0,1,.07.19,1.17,1.17,0,0,1,0,.17v.06l0,.26a9.82,9.82,0,0,1,.11,2.39,2.62,2.62,0,0,1-.49,1.31,1.63,1.63,0,0,1-.68.48,2,2,0,0,1-.75.06,5.38,5.38,0,0,1-2.31-.92,2.15,2.15,0,0,1-1.13-2.26v-.06l0,0c.72-.61,1.43-1.24,2.18-1.82-.58.75-1.21,1.46-1.82,2.18l.06-.1c-.07.56.46,1.13,1.06,1.45a5.35,5.35,0,0,0,1.95.65.66.66,0,0,0,.63-.23,1.68,1.68,0,0,0,.26-.81,11.85,11.85,0,0,0-.1-2.19l0-.31v-.09s0-.1,0,0a.37.37,0,0,0,0,.11h0s0,0,0,0a3.5,3.5,0,0,0-.37-.31c-.3-.21-.61-.43-.93-.63L199.84,182Q197.91,180.8,196,179.5Z"/><path class="cls-9" d="M331.66,177.5q-1.91,1.31-3.84,2.53l-1.92,1.23c-.32.2-.63.42-.93.63a3.5,3.5,0,0,0-.37.31s0,0,0,0h0a.37.37,0,0,0,.05-.11c0-.14,0-.05,0,0v.09l0,.31a11.85,11.85,0,0,0-.1,2.19,1.68,1.68,0,0,0,.26.81.66.66,0,0,0,.63.23,5.35,5.35,0,0,0,1.95-.65c.6-.32,1.13-.89,1.06-1.45l.06.1c-.61-.72-1.24-1.43-1.82-2.18.75.58,1.46,1.21,2.18,1.82l.05,0v.06a2.15,2.15,0,0,1-1.13,2.26,5.38,5.38,0,0,1-2.31.92,2,2,0,0,1-.75-.06,1.63,1.63,0,0,1-.68-.48,2.62,2.62,0,0,1-.49-1.31,9.82,9.82,0,0,1,.11-2.39l0-.26V182a1.17,1.17,0,0,1,0-.17,1.07,1.07,0,0,1,.07-.19l.05-.05.09-.11a2.9,2.9,0,0,1,.52-.4c.33-.22.66-.42,1-.62.67-.39,1.35-.74,2-1.09Q329.52,178.36,331.66,177.5Z"/><path class="cls-28" d="M251.5,266s-18,7-22,12-7,11-7,13-15.74,48.36-16.37,51.18S250.5,274,250.5,274Z"/><path class="cls-26" d="M234.5,428.87s-17,94.86-18,115.94-5,110.19-5,110.19h30s18.86-181.58,24-191c6-11,7,10,7,10s5.65,62.28,7.32,71.34,6.72,50.14,6.72,50.14l0,59.52h26s3-6.71,3-9.58V559.18s-4-119.44-8-124.87l-4-5.44-69-2.87Z"/><path class="cls-27" d="M211.5,649a61,61,0,0,0-1,8.48v6.28a45.75,45.75,0,0,0,21,5.24h12s1-11.52,0-15.71c0,0,2-2.1-4,0S215.5,656.24,211.5,649Z"/><path class="cls-27" d="M315.54,645a63.41,63.41,0,0,1,1,8.48v6.28A42.36,42.36,0,0,1,296.41,665H284.93s-1-11.52,0-15.71c0,0-1.92-2.1,3.82,0S311.72,652.24,315.54,645Z"/><path class="cls-28" d="M345.5,347c-16-46-53-80-53-80l.17.62L283.5,278s-30,14-32-11l-2.21,3.8L244.5,279s-41,58-47,85-13,67-11,77l12.5,4.5s16-64,21-79,19.46-38,19.46-38l-5,98.54,74,8-1-112.77c.32,5.11,11.13,16,21,32.77,10,17,21,86,21,86h13C365.5,418,348.62,356,345.5,347Z"/><path class="cls-30" d="M241.84,433.1a15.67,15.67,0,0,1-.51,4.43,20.56,20.56,0,0,1-1.54,4.2,16.21,16.21,0,0,1-2.56,3.72A9.26,9.26,0,0,1,233.5,448a32.25,32.25,0,0,0,2.49-3.5c.74-1.18,1.37-2.43,2-3.67C239.29,438.32,240.4,435.73,241.84,433.1Z"/><path class="cls-30" d="M297.5,437.1c1.44,2.63,2.55,5.22,3.83,7.73.65,1.24,1.28,2.49,2,3.67a33.81,33.81,0,0,0,2.5,3.5,9.37,9.37,0,0,1-3.74-2.55,16.17,16.17,0,0,1-2.55-3.72,19.44,19.44,0,0,1-1.54-4.2A15,15,0,0,1,297.5,437.1Z"/><path class="cls-32" d="M203.62,183.83s-6.12.17-7.12,3.17,2,20,2,20h2l-.67-11.59S201.5,192,203.5,193C203.5,193,205.75,187.66,203.62,183.83Z"/><path class="cls-33" d="M199.5,207s8,45,29,64a162,162,0,0,1,32,40s5.5,25.5,4.5,38.5-27,66-27,71-3.49,12.1,1.25,20.05"/><path class="cls-32" d="M324.17,181.83s6.13.17,7.13,3.17-2,20-2,20h-2l.67-11.59S326.3,190,324.3,191C324.3,191,322.05,185.66,324.17,181.83Z"/><path class="cls-33" d="M328.3,205s-8,45-29,64S258,307.5,258,307.5"/></g><g id="Layer_3" data-name="Layer 3"><path class="cls-2" d="M803.5,261c-5.36,10-10.27,19.73-14.85,27.21.25,14.33.62,26.87-1.15,40.79,1-.8,3-3,3-3s10.91,66.23,1,91-12,52.05-12,52.05c-6.75,23.41-7.94,111.08-7.14,125.76s-2.78,78.55-2.78,78.55H786.2s2.78-48,3.18-50,7.26-57.52,5.12-69.37c-1.55-8.56,8.76-71.46,11.14-83.36S815.5,453,815.5,453s13,6.2,13,30,7.29,90.39,9.67,99.11S839,671,839,671s18.64,0,18.64-5.56-1.19-70.21,1.19-83.31-10.71-109.89-10.71-109.89c13.09-19.83,5.95-58.31,5.95-58.31L857.5,321c-1.73.16-.1-.15,0,0-.91-13.39,0-25.22,0-38.31-11.84-14-22.85-24.12-25-25.69C822.39,257.21,813.61,262.13,803.5,261Z"/><path class="cls-3" d="M873.6,163.69s28.75-90.83,10.19-97.42c0,0,13.6,4.68,16.08,5.63s-9.94-12.2-16.69-12c0,0,6.16-10.55,14.85-11.38,0,0-7.94-8-25.76,5.65,0,0-41.64-60.17-101.44-31.32l-5.66,3.34S780,31.59,783.38,41.63c0,0-58.07-27.91-93.75-1,0,0,26.49,18.58,25.48,24.66,0,0-14.9-5.74-23.58-4.91,0,0,39.31,48.44,43.76,61.56,0,0-16.14-2-23.43,5,0,0,24.77,4.79,20.47,5.61,0,0-10.86-1-13.2,3.65s33.91,37.06,30.66,49.67c0,0,17.31,31.28,18.87,35.12s34.39,33.87,93.06,1.57c0,0,2.68-29.87,2.3-33.82S871.8,169.84,873.6,163.69Z"/><path class="cls-9" d="M807.53,464.56s-6.19,6.19-8.67,6.19a96.55,96.55,0,0,0,2.85,24.59"/><path class="cls-2" d="M899.27,440.09s-10.71,47.61-7.14,47.61,7.14-18.65,7.14-18.65C899.27,501.58,908,504,908,504c12.69-19.84,4.8-58,4.8-58-3.3-83-32.22-136-55.3-163.29,0,13.09.11,26.21,1,39.61,2.27,3.53,7.89,8.63,12,14.7C897.48,377.07,899.27,440.09,899.27,440.09Z"/><path class="cls-2" d="M749.46,444.09s10.71,47.61,7.14,47.61-7.14-18.65-7.14-18.65c0,32.53-8.73,34.91-8.73,34.91-12.7-19.84-4.8-58-4.8-58,.78-83.67,30.5-135.73,53.57-163,0,13.09,1.61,25.9.7,39.3-2.26,3.53-5.32,8.18-9.4,14.25C753.82,380.61,749.46,444.09,749.46,444.09Z"/><path class="cls-25" d="M769.78,360.62s-6.61,16.3-11.56,15.06-10.83-6-10.83-6,10.08,15.95,6.74,41.92l6.56-22.32L767,369.12Z"/><path class="cls-11" d="M839,665.19s-1.24,6.19,0,9.9,0,2.48,0,2.48-2.48,4.95-2.48,6.19,26,1.24,26,1.24,0-6.19-1.24-8.67l-2.48-5s0,1.24,1.24-1.24-1.24-4.95-1.24-4.95L857,662.14"/><path class="cls-11" d="M789.47,665.19a55.5,55.5,0,0,1,0,9.9c-.4,2.91,0,2.48,0,2.48s4.44,4.43,2.57,6.19c-.55,1.24-25.55,1.24-26.95,1.24s0-6.19,1.28-8.67l2.57-5s0,1.24-1.29-1.24,1.29-4.95,1.29-4.95l1.93-3.05"/><path class="cls-2" d="M890.37,170.2c-3.3-15.83-14.55-8.31-14.55-8.31l-9.23,1.29-7.14-74.4-9.19,8.85c-9.2,8.85-39,1.75-64.71,6.21s-35.36,29.3-37.31,40.44.3,34.5.3,34.5l0,.21c-11.92-.93-13.94,8.16-9.47,15.94,3.5,6.08,12,8.14,16.26,8.81,3.15,7.87,6.34,16.52,8.78,23.31,2.62,17.73,12.7,24.83,12.7,24.83A60.29,60.29,0,0,0,807.18,262h0l-.32.75c10.17.16,19.92-4.09,30-5.26l-.48-.28h0c3.49-1.34,5.8-2.52,6.52-2.87,3-1.49,12.44-11.55,17.08-17.18a14.78,14.78,0,0,0,2.4-4.4c6.18-9.67,9-28.21,10.26-43.74l.25-.12C892.32,180.06,892.24,179.2,890.37,170.2Z"/><path class="cls-15" d="M786.77,221.32l54.75-5.25s-4.82,23-25.3,24.25S786.77,221.32,786.77,221.32Z"/><path d="M774.6,157.19a17.29,17.29,0,0,1,5.44-4.72,19.59,19.59,0,0,1,7-2.4,15.8,15.8,0,0,1,7.41.67,14.14,14.14,0,0,1,6.07,4,36,36,0,0,0-6.63-1.68,22.85,22.85,0,0,0-6.45,0,34.34,34.34,0,0,0-6.38,1.57C778.89,155.33,776.79,156.21,774.6,157.19Z"/><path d="M845.27,150.41a35.74,35.74,0,0,0-6.62-1.68,22.48,22.48,0,0,0-6.45,0,34.25,34.25,0,0,0-6.39,1.57c-2.12.72-4.23,1.6-6.42,2.58a17.54,17.54,0,0,1,5.44-4.73,19.45,19.45,0,0,1,7-2.39,15.78,15.78,0,0,1,7.41.67A14.21,14.21,0,0,1,845.27,150.41Z"/><circle cx="789.06" cy="171.88" r="8.5"/><circle class="cls-16" cx="791.25" cy="173.68" r="2"/><circle cx="829.88" cy="167.96" r="8.5"/><circle class="cls-16" cx="832.06" cy="169.76" r="2"/><path class="cls-9" d="M818.94,153.44a30.5,30.5,0,0,0-1.12,7.18,10.15,10.15,0,0,0,.12,1.68l.28,1.84c.18,1.26.29,2.49.41,3.72a69.8,69.8,0,0,0,.9,7.1,13.29,13.29,0,0,0,.41,1.57,7.81,7.81,0,0,0,.59,1.41,26.76,26.76,0,0,0,1.78,2.91,70.06,70.06,0,0,0,4.35,5.65c.19.22.38.45.56.64a8.23,8.23,0,0,0,.6.6,8.73,8.73,0,0,1,1.42,1.8,7.19,7.19,0,0,1,.9,2.27,4.68,4.68,0,0,1-.3,2.79,5.06,5.06,0,0,1-.76,1.16c-.24.25-.48.49-.74.73a7.94,7.94,0,0,1-1.77,1.28,25.16,25.16,0,0,1-3.66,1.34,19.84,19.84,0,0,1-3.75.87,18.47,18.47,0,0,1-3.79,0,31.41,31.41,0,0,0,3.52-1.09,21,21,0,0,0,3.23-1.59,26.82,26.82,0,0,0,3.06-1.76,6.76,6.76,0,0,0,1.07-1.07l.49-.65a1.84,1.84,0,0,0,.19-.42,1.5,1.5,0,0,0-.06-.85,3.84,3.84,0,0,0-.59-1.1,6.67,6.67,0,0,0-.95-1,7.86,7.86,0,0,1-.76-.66c-.26-.24-.48-.47-.71-.71a49.57,49.57,0,0,1-4.85-5.95,27.28,27.28,0,0,1-2-3.44,11.08,11.08,0,0,1-.76-2,16,16,0,0,1-.43-2,45.15,45.15,0,0,1-.3-7.65l.12-3.69,0-1.85a10.24,10.24,0,0,1,.22-2A20.28,20.28,0,0,1,818.94,153.44Z"/><path class="cls-17" d="M794.82,232s30.21-9.72,40.91-3l-3.46,4.15-3.54,3-4.32,2.37-3.76,1.24a29.14,29.14,0,0,1-16-1.1l-5-2.51-3.16-2.14S796,233.2,794.82,232Z"/><polyline class="cls-18" points="796.81 220.36 800.19 225.06 831.05 222.1 836.54 216.55"/><path class="cls-9" d="M776.26,574.45c1.42.67,2.74,1.39,4.08,2a13.48,13.48,0,0,0,4,1.13,6.62,6.62,0,0,0,3.79-.75A17,17,0,0,0,791.5,574a7.93,7.93,0,0,1-2.5,4.07,6.57,6.57,0,0,1-4.85,1.46,9.84,9.84,0,0,1-4.57-1.76A12.48,12.48,0,0,1,776.26,574.45Z"/><path class="cls-9" d="M856.5,578a10.45,10.45,0,0,1-3.71,3,12,12,0,0,1-4.73,1.28,10.83,10.83,0,0,1-4.85-.79,10.52,10.52,0,0,1-4-2.72c.79.19,1.49.51,2.23.69a18.88,18.88,0,0,0,2.16.53,15.94,15.94,0,0,0,4.29.29,19.28,19.28,0,0,0,4.28-.73A33.5,33.5,0,0,0,856.5,578Z"/><circle class="cls-19" cx="843.5" cy="324" r="3"/><circle class="cls-19" cx="800.5" cy="324" r="3"/><ellipse class="cls-9" cx="820" cy="389.4" rx="3.5" ry="1.4"/><path class="cls-20" d="M770.5,681s1.5,3.48.5,3.5"/><path class="cls-20" d="M775.5,681s1.5,3.48.5,3.5"/><path class="cls-20" d="M779.5,680s1.5,4.48.5,4.5"/><path class="cls-20" d="M784.5,680s1,4,0,4"/><polyline class="cls-2" points="898.88 435.79 899.5 440 891.81 479.64 896.8 479.17 899.5 469 899.63 479.64 912.5 478 910.5 433"/><path class="cls-9" d="M741.69,186c1.48.44,2.93.94,4.36,1.5.72.28,1.43.57,2.13.9.35.16.7.32,1.06.51a3.41,3.41,0,0,1,.55.36l.1.09.05.05a.76.76,0,0,1,.09.18c.06.17,0,.14,0,.17v.06l0,.25a11,11,0,0,1,.34,2.37,2.57,2.57,0,0,1-.37,1.36,1.65,1.65,0,0,1-.63.54,2,2,0,0,1-.74.13,5.42,5.42,0,0,1-2.39-.7,2.17,2.17,0,0,1-1.34-2.14v-.06l0,0c.67-.68,1.31-1.37,2-2-.51.8-1.06,1.56-1.6,2.34l0-.1c0,.56.56,1.08,1.19,1.34a5.36,5.36,0,0,0,2,.46.64.64,0,0,0,.61-.29,1.65,1.65,0,0,0,.18-.83,13.58,13.58,0,0,0-.3-2.17l-.06-.31v-.08s0-.1,0,0a.24.24,0,0,0,.06.11h0a2.5,2.5,0,0,0-.4-.27c-.31-.19-.65-.37-1-.55l-2-1C744.4,187.42,743,186.71,741.69,186Z"/><path class="cls-9" d="M876.54,171c-1.18,1-2.38,1.94-3.58,2.88l-1.8,1.41c-.29.24-.59.48-.86.72-.12.12-.27.25-.34.34h0a.28.28,0,0,0,0-.12v.36a11.82,11.82,0,0,0,.12,2.19,1.66,1.66,0,0,0,.33.78.68.68,0,0,0,.65.18,5.4,5.4,0,0,0,1.88-.84,1.69,1.69,0,0,0,.91-1.54l.07.09c-.67-.67-1.36-1.31-2-2,.8.51,1.56,1.07,2.34,1.6l.05,0,0,.06a2.16,2.16,0,0,1-.91,2.35,5.35,5.35,0,0,1-2.21,1.14,2.09,2.09,0,0,1-.75,0,1.7,1.7,0,0,1-.72-.4,2.6,2.6,0,0,1-.62-1.27,10.3,10.3,0,0,1-.12-2.39v-.32s0,0,0-.17a.6.6,0,0,1,.06-.19l0-.06a.31.31,0,0,1,.08-.11,3.37,3.37,0,0,1,.48-.46c.31-.25.62-.48.94-.71.62-.45,1.27-.87,1.92-1.28Q874.49,172.09,876.54,171Z"/><path class="cls-26" d="M784.5,428.87s-17,94.86-18,115.94-5,110.19-5,110.19h30s18.86-181.58,24-191c6-11,7,10,7,10s5.65,62.28,7.32,71.34,6.72,50.14,6.72,50.14l0,59.52h26s3-6.71,3-9.58V559.18s-4-119.44-8-124.87l-4-5.44-69-2.87Z"/><path class="cls-27" d="M761.5,649a61,61,0,0,0-1,8.48v6.28a45.75,45.75,0,0,0,21,5.24h12s1-11.52,0-15.71c0,0,2-2.1-4,0S765.5,656.24,761.5,649Z"/><path class="cls-27" d="M865.54,645a63.41,63.41,0,0,1,1,8.48v6.28A42.36,42.36,0,0,1,846.41,665H834.93s-1-11.52,0-15.71c0,0-1.92-2.1,3.82,0S861.72,652.24,865.54,645Z"/><path class="cls-28" d="M895.5,346c-16-46-53-80-53-80l.17.62L833.5,277s-30,14-32-11c0,0-18,7-22,12s-7,11-7,13c0,1.72-11.64,36.24-15.3,47.67-4.6,9.11-8.22,17.66-9.7,24.33-6,27-13,67-11,77l12.5,4.5s16-64,21-79,19.46-38,19.46-38l-5,98.54,74,8-1-112.77c.32,5.11,11.13,16,21,32.77,10,17,21,86,21,86h13C915.5,417,898.62,355,895.5,346Z"/><path class="cls-29" d="M768.41,669s-8,2.88-9.91,4-32,2.75-32,10.62S728.36,696,732.09,696h58.67s6.52-12.38,1.86-20.25-2.79-4.5-2.79-4.5S780.52,682.5,768.41,669Z"/><path class="cls-30" d="M791.84,433.1a15.67,15.67,0,0,1-.51,4.43,20.56,20.56,0,0,1-1.54,4.2,16.21,16.21,0,0,1-2.56,3.72A9.26,9.26,0,0,1,783.5,448a32.25,32.25,0,0,0,2.49-3.5c.74-1.18,1.37-2.43,2-3.67C789.29,438.32,790.4,435.73,791.84,433.1Z"/><path class="cls-30" d="M847.5,437.1c1.44,2.63,2.55,5.22,3.83,7.73.65,1.24,1.28,2.49,2,3.67a33.81,33.81,0,0,0,2.5,3.5,9.37,9.37,0,0,1-3.74-2.55,16.17,16.17,0,0,1-2.55-3.72,19.44,19.44,0,0,1-1.54-4.2A15,15,0,0,1,847.5,437.1Z"/><path class="cls-31" d="M728.07,693.11h64l-1,3.59H732S729.14,698.53,728.07,693.11Z"/><path class="cls-29" d="M860.39,669s8.05,2.88,9.91,4,32,2.75,32,10.63S900.44,696,896.71,696H838s-6.52-12.38-1.86-20.25,2.79-4.5,2.79-4.5S848.28,682.5,860.39,669Z"/><path class="cls-31" d="M900.73,693.11h-64l1,3.59h59S899.67,698.53,900.73,693.11Z"/><path class="cls-32" d="M749.69,189.55s-6.08.75-6.78,3.83,3.9,19.72,3.9,19.72l2-.19L747,201.44s1.34-3.56,3.43-2.75C750.45,198.69,752.17,193.15,749.69,189.55Z"/><path class="cls-33" d="M747.8,213s12.26,44,35,60.94a161.83,161.83,0,0,1,35.67,36.77s7.91,24.85,8.16,37.89S803.52,414.52,804,419.5s-19.48,10.54-14,18"/><path class="cls-32" d="M869.5,176.05s6.11-.42,7.4,2.47-.09,20.1-.09,20.1l-2,.19-.44-11.59s-2-3.24-3.88-2.06C870.5,185.16,867.75,180.06,869.5,176.05Z"/><path class="cls-33" d="M875.82,198.72s-3.67,45.56-22.76,66.47-37.43,42.27-37.43,42.27"/></g><g id="Layer_7" data-name="Layer 7"><path class="cls-2" d="M1445.5,178c-1.77-16.07-13.69-9.66-13.69-9.66l-125.73,5.46c-13.91-3.88-17.48,5.65-13.52,14.37s17.9,10.89,17.9,10.89,4.72-2.95,3.92,18.47,10.32,30.94,10.32,30.94a60.13,60.13,0,0,0,29.24,12.94h0c-5.51,10.28-10.59,19.14-15.28,26.8.25,14.33,1.58,24.7-.19,38.62l1.5-1.26s11.45,66.66,1.54,91.43-12,52.05-12,52.05c-6.75,23.41-7.94,111.08-7.14,125.76s-2.78,78.55-2.78,78.55h16.66s2.78-48,3.18-50,7.26-57.52,5.12-69.37c-1.55-8.56,8.76-71.46,11.14-83.36S1365.5,453,1365.5,453s13,6.2,13,30,7.29,90.39,9.67,99.11.8,88.87.8,88.87,18.64,0,18.64-5.56-1.19-70.21,1.19-83.31-10.71-109.89-10.71-109.89c13.09-19.83,6-58.31,6-58.31l2.19-94.07.29.46c-.91-13.4,1-24.52,1-37.61-13.47-15.91-24.09-23.26-24.09-23.26h0c3.6-1,6-1.95,6.76-2.23,3.17-1.19,13.48-10.31,18.64-15.47s5.56-15.87,5.56-15.87-3.23-25.77,11.9-30.94C1446.5,188,1446.51,187.14,1445.5,178Z"/><path class="cls-3" d="M1429.43,169.92s37.29-87.67,19.44-96c0,0,13.09,6,15.47,7.14s-8.73-13.09-15.47-13.49c0,0,7.14-9.92,15.87-9.92,0,0-7.14-8.72-26.18,3.18,0,0-35.71-63.87-98-40.86l-6,2.77s14.28,6.75,16.66,17.06c0,0-55.15-33.32-93.23-9.92,0,0,24.6,21,23,27,0,0-14.28-7.14-23-7.14,0,0,34.51,52,37.69,65.46,0,0-15.87-3.57-23.81,2.77,0,0,24.2,7.15,19.84,7.54,0,0-10.71-2-13.49,2.38s30.22,40.13,25.79,52.37c0,0,14.24,32.79,15.43,36.76s31,37,92.48,10.45c0,0,5.52-29.48,5.52-33.45S1427.05,175.88,1429.43,169.92Z"/><path class="cls-9" d="M1357.53,464.56s-6.19,6.19-8.67,6.19a96.55,96.55,0,0,0,2.85,24.59"/><path class="cls-2" d="M1449.27,440.09s-10.71,47.61-7.14,47.61,7.14-18.65,7.14-18.65c0,32.53,8.73,34.91,8.73,34.91,12.69-19.84,4.8-58,4.8-58-2.3-83-32.22-136-55.3-163.29,0,13.09.11,26.21,1,39.61,2.27,3.53,4.85,8.52,9.41,14.25C1448.5,375,1449.27,440.09,1449.27,440.09Z"/><path class="cls-2" d="M1299.46,444.09s10.71,47.61,7.14,47.61-7.14-18.65-7.14-18.65c0,32.53-8.73,34.91-8.73,34.91-12.7-19.84-4.8-58-4.8-58,.78-83.67,30.5-135.73,53.57-163,0,13.09,1.61,25.9.7,39.3-2.26,3.53-5.32,8.18-9.4,14.25C1303.82,380.61,1299.46,444.09,1299.46,444.09Z"/><path class="cls-25" d="M1319.78,360.62s-6.61,16.3-11.56,15.06-10.83-6-10.83-6,10.08,15.95,6.74,41.92l6.56-22.32,6.32-20.18Z"/><path class="cls-11" d="M1389,665.19s-1.24,6.19,0,9.9,0,2.48,0,2.48-2.48,4.95-2.48,6.19,26,1.24,26,1.24,0-6.19-1.24-8.67l-2.48-5s0,1.24,1.24-1.24-1.24-4.95-1.24-4.95l-1.86-3.05"/><path class="cls-11" d="M1339.47,665.19a55.5,55.5,0,0,1,0,9.9c-.4,2.91,0,2.48,0,2.48s4.44,4.43,2.57,6.19c-.55,1.24-25.55,1.24-27,1.24s0-6.19,1.28-8.67l2.57-5s0,1.24-1.29-1.24,1.29-4.95,1.29-4.95l1.93-3.05"/><path class="cls-2" d="M1303.5,173s0-23.45,3-34.36,15-34.72,41-36.7,55,7.93,65,0l10-7.94v79.35l7-4s-5,58.62-21,71.42c-11.57,9.26-84.26,18.57-91-5.8,0,0-4.89-20.62-9.86-37.41C1304.5,187,1303.5,173,1303.5,173Z"/><path class="cls-15" d="M1337.5,219h55s-7,22.45-27.5,21.72S1337.5,219,1337.5,219Z"/><path d="M1331.5,154a17.64,17.64,0,0,1,5.87-4.18,19.59,19.59,0,0,1,7.15-1.72,15.73,15.73,0,0,1,7.32,1.37,14.17,14.17,0,0,1,5.66,4.53,35.08,35.08,0,0,0-6.43-2.3,22.51,22.51,0,0,0-6.43-.61,35.05,35.05,0,0,0-6.5.95C1336,152.56,1333.77,153.23,1331.5,154Z"/><path d="M1402.5,154a35.63,35.63,0,0,0-6.43-2.31,22.5,22.5,0,0,0-6.43-.6,35.08,35.08,0,0,0-6.5,1c-2.18.51-4.36,1.18-6.64,1.95a17.4,17.4,0,0,1,5.87-4.18,19.39,19.39,0,0,1,7.15-1.72,15.79,15.79,0,0,1,7.31,1.37A14.22,14.22,0,0,1,1402.5,154Z"/><circle cx="1344.5" cy="170" r="8.5"/><circle class="cls-16" cx="1346.5" cy="172" r="2"/><circle cx="1385.5" cy="170" r="8.5"/><circle class="cls-16" cx="1387.5" cy="172" r="2"/><path class="cls-9" d="M1376,154.5a30.26,30.26,0,0,0-1.8,7,10.59,10.59,0,0,0,0,1.68l.11,1.86c0,1.27,0,2.51,0,3.74,0,2.45,0,4.9.22,7.16a15.27,15.27,0,0,0,.26,1.6,7.26,7.26,0,0,0,.46,1.46,24.66,24.66,0,0,0,1.49,3.07,66.4,66.4,0,0,0,3.79,6c.16.23.34.48.5.69s.18.24.54.65a9.19,9.19,0,0,1,1.24,1.93,7.41,7.41,0,0,1,.68,2.35,4.58,4.58,0,0,1-.57,2.74,4.68,4.68,0,0,1-.87,1.08c-.26.23-.52.45-.8.66a8,8,0,0,1-1.89,1.11,25.41,25.41,0,0,1-3.77,1,19.51,19.51,0,0,1-3.82.51,18.18,18.18,0,0,1-3.77-.35,33.39,33.39,0,0,0,3.61-.75,20.84,20.84,0,0,0,3.37-1.28,26.63,26.63,0,0,0,3.21-1.45,6.56,6.56,0,0,0,1.16-1c.19-.19.38-.39.56-.6a2.49,2.49,0,0,0,.23-.4,1.42,1.42,0,0,0,0-.85,3.93,3.93,0,0,0-.48-1.15,6.87,6.87,0,0,0-.85-1.12,7.52,7.52,0,0,1-.69-.73c-.24-.27-.43-.51-.64-.77a47.33,47.33,0,0,1-4.26-6.39,28.54,28.54,0,0,1-1.68-3.61,12.16,12.16,0,0,1-.57-2.09,15.1,15.1,0,0,1-.23-2.06,44.49,44.49,0,0,1,.43-7.65l.47-3.65.21-1.84a10.48,10.48,0,0,1,.42-2A20.23,20.23,0,0,1,1376,154.5Z"/><path class="cls-17" d="M1344.5,230.35s31-6.79,41,.93l-3.84,3.79-3.8,2.61-4.53,2-3.86.86a29.13,29.13,0,0,1-15.81-2.61l-4.7-3-2.94-2.44S1345.5,231.7,1344.5,230.35Z"/><polyline class="cls-18" points="1347.58 219 1350.5 224 1381.5 224 1387.5 219"/><path class="cls-9" d="M1326.26,574.45c1.42.67,2.74,1.39,4.08,2a13.48,13.48,0,0,0,4,1.13,6.62,6.62,0,0,0,3.79-.75,17,17,0,0,0,3.38-2.79,7.93,7.93,0,0,1-2.5,4.07,6.57,6.57,0,0,1-4.85,1.46,9.84,9.84,0,0,1-4.57-1.76A12.48,12.48,0,0,1,1326.26,574.45Z"/><path class="cls-9" d="M1406.5,578a10.45,10.45,0,0,1-3.71,3,12,12,0,0,1-4.73,1.28,10.83,10.83,0,0,1-4.85-.79,10.52,10.52,0,0,1-4-2.72c.79.19,1.49.51,2.23.69a18.88,18.88,0,0,0,2.16.53,15.94,15.94,0,0,0,4.29.29,19.28,19.28,0,0,0,4.28-.73A33.5,33.5,0,0,0,1406.5,578Z"/><circle class="cls-19" cx="1393.5" cy="324" r="3"/><circle class="cls-19" cx="1350.5" cy="324" r="3"/><ellipse class="cls-9" cx="1370" cy="389.4" rx="3.5" ry="1.4"/><path class="cls-20" d="M1320.5,681s1.5,3.48.5,3.5"/><path class="cls-20" d="M1325.5,681s1.5,3.48.5,3.5"/><path class="cls-20" d="M1329.5,680s1.5,4.48.5,4.5"/><path class="cls-20" d="M1334.5,680s1,4,0,4"/><polyline class="cls-2" points="1448.88 435.79 1449.5 440 1441.81 479.64 1446.8 479.17 1449.5 469 1449.63 479.64 1462.5 478 1460.5 433"/><path class="cls-9" d="M1296,179.5q2.14.85,4.2,1.91c.68.35,1.36.7,2,1.09.34.2.67.4,1,.62a2.9,2.9,0,0,1,.52.4l.09.11.05.05a1.07,1.07,0,0,1,.07.19,1.17,1.17,0,0,1,0,.17v.06l0,.26a9.82,9.82,0,0,1,.11,2.39,2.62,2.62,0,0,1-.49,1.31,1.63,1.63,0,0,1-.68.48,2,2,0,0,1-.75.06,5.38,5.38,0,0,1-2.31-.92,2.15,2.15,0,0,1-1.13-2.26v-.06l0,0c.72-.61,1.43-1.24,2.18-1.82-.58.75-1.21,1.46-1.82,2.18l.06-.1c-.07.56.46,1.13,1.06,1.45a5.35,5.35,0,0,0,2,.65.66.66,0,0,0,.63-.23,1.68,1.68,0,0,0,.26-.81,11.85,11.85,0,0,0-.1-2.19l0-.31v-.09s0-.1,0,0a.37.37,0,0,0,0,.11h0s0,0,0,0-.24-.2-.37-.31c-.3-.21-.61-.43-.93-.63l-1.92-1.23Q1297.91,180.8,1296,179.5Z"/><path class="cls-9" d="M1431.66,177.5q-1.9,1.31-3.84,2.53l-1.92,1.23c-.32.2-.63.42-.93.63a3.5,3.5,0,0,0-.37.31s0,0,0,0h0a.37.37,0,0,0,.05-.11c0-.14,0-.05,0,0v.09l0,.31a11.85,11.85,0,0,0-.1,2.19,1.68,1.68,0,0,0,.26.81.66.66,0,0,0,.63.23,5.35,5.35,0,0,0,1.95-.65c.6-.32,1.13-.89,1.06-1.45l.06.1c-.61-.72-1.24-1.43-1.82-2.18.75.58,1.46,1.21,2.18,1.82l.05,0v.06a2.15,2.15,0,0,1-1.13,2.26,5.38,5.38,0,0,1-2.31.92,2,2,0,0,1-.75-.06,1.63,1.63,0,0,1-.68-.48,2.62,2.62,0,0,1-.49-1.31,9.82,9.82,0,0,1,.11-2.39l0-.26V182a1.17,1.17,0,0,1,0-.17,1.07,1.07,0,0,1,.07-.19l0-.05.09-.11a2.9,2.9,0,0,1,.52-.4c.33-.22.66-.42,1-.62.67-.39,1.35-.74,2-1.09Q1429.52,178.36,1431.66,177.5Z"/><path class="cls-28" d="M1351.5,266s-18,7-22,12-7,11-7,13-15.74,48.36-16.37,51.18S1350.5,274,1350.5,274Z"/><path class="cls-26" d="M1334.5,428.87s-17,94.86-18,115.94-5,110.19-5,110.19h30s18.86-181.58,24-191c6-11,7,10,7,10s5.65,62.28,7.32,71.34,6.72,50.14,6.72,50.14l0,59.52h26s3-6.71,3-9.58V559.18s-4-119.44-8-124.87l-4-5.44-69-2.87Z"/><path class="cls-27" d="M1311.5,649a61,61,0,0,0-1,8.48v6.28a45.75,45.75,0,0,0,21,5.24h12s1-11.52,0-15.71c0,0,2-2.1-4,0S1315.5,656.24,1311.5,649Z"/><path class="cls-27" d="M1415.54,645a63.41,63.41,0,0,1,1,8.48v6.28a42.36,42.36,0,0,1-20.09,5.24h-11.48s-1-11.52,0-15.71c0,0-1.92-2.1,3.82,0S1411.72,652.24,1415.54,645Z"/><path class="cls-28" d="M1445.5,346c-16-46-53-80-53-80l.17.62L1383.5,277s-30,14-32-11l-2.21,3.8-4.79,8.2s-41,58-47,85-13,67-11,77l12.5,4.5s16-64,21-79,19.46-38,19.46-38l-5,98.54,74,8-1-112.77c.32,5.11,11.13,16,21,32.77,10,17,21,86,21,86h13C1465.5,417,1448.62,355,1445.5,346Z"/><path class="cls-29" d="M1318.41,669s-8.05,2.88-9.91,4-32,2.75-32,10.62,1.86,12.38,5.59,12.38h58.67s6.52-12.38,1.86-20.25-2.79-4.5-2.79-4.5S1330.52,682.5,1318.41,669Z"/><path class="cls-30" d="M1341.84,433.1a15.67,15.67,0,0,1-.51,4.43,20.56,20.56,0,0,1-1.54,4.2,16.21,16.21,0,0,1-2.56,3.72,9.26,9.26,0,0,1-3.73,2.55,32.25,32.25,0,0,0,2.49-3.5c.74-1.18,1.37-2.43,2-3.67C1339.29,438.32,1340.4,435.73,1341.84,433.1Z"/><path class="cls-30" d="M1397.5,437.1c1.44,2.63,2.55,5.22,3.83,7.73.65,1.24,1.28,2.49,2,3.67a33.81,33.81,0,0,0,2.5,3.5,9.37,9.37,0,0,1-3.74-2.55,16.17,16.17,0,0,1-2.55-3.72,19.44,19.44,0,0,1-1.54-4.2A15,15,0,0,1,1397.5,437.1Z"/><path class="cls-31" d="M1278.07,693.11h64l-1,3.59h-59S1279.14,698.53,1278.07,693.11Z"/><path class="cls-29" d="M1410.39,669s8,2.88,9.91,4,32,2.75,32,10.63-1.86,12.37-5.59,12.37H1388s-6.52-12.38-1.86-20.25,2.79-4.5,2.79-4.5S1398.28,682.5,1410.39,669Z"/><path class="cls-31" d="M1450.73,693.11h-64l1,3.59h59S1449.67,698.53,1450.73,693.11Z"/><path class="cls-32" d="M1303.62,183.83s-6.12.17-7.12,3.17,2,20,2,20h2l-.67-11.59s1.67-3.41,3.67-2.41C1303.5,193,1305.75,187.66,1303.62,183.83Z"/><path class="cls-33" d="M1299.5,207s8,45,29,64a162,162,0,0,1,32,40s5.5,25.5,4.5,38.5-27,66-27,71-3.49,12.1,1.25,20.05"/><path class="cls-32" d="M1424.17,181.83s6.13.17,7.13,3.17-2,20-2,20h-2l.67-11.59s-1.67-3.41-3.67-2.41C1424.3,191,1422.05,185.66,1424.17,181.83Z"/><path class="cls-33" d="M1428.3,205s-8,45-29,64-41.3,38.5-41.3,38.5"/></g><g id="Layer_8" data-name="Layer 8"><g class="cls-36"><path class="cls-2" d="M795.15,2526.11c-3.55,6.62-7,12.87-10.32,18.81a18.48,18.48,0,0,0,6.25,2.25Z"/><path class="cls-2" d="M844.59,2548.84c4.29-1.18,12.85-7.22,17.88-10.77a172.89,172.89,0,0,0-18-15.27Z"/><path class="cls-2" d="M916.09,2414.93c33.85-11.57,33.86-13,32.18-28.3-2.95-26.86-22.89-16.15-22.89-16.15l-210.25,9.12c-23.27-6.47-29.24,9.45-22.61,24.05s29.93,18.19,29.93,18.19,7.89-4.92,6.56,30.9,17.25,51.75,17.25,51.75c14,11.31,25.57,33.17,38.57,40.43,3.33-5.94,6.77-12.19,10.32-18.81l-4.07,21.06a18.48,18.48,0,0,1-6.25-2.25q-8,14.22-15.24,26c.42,24,4.39,43.26,1.42,66.54l-.91,2.63s8.28,103.55-8.28,145-7.6,88.27-7.6,88.27c-11.28,39.14-13.27,185.76-11.94,210.3S737.63,3215,737.63,3215H765.5s4.64-80.27,5.3-83.59,12.15-96.2,8.57-116C776.78,3001.08,794,2895.9,798,2876s15.93-19.24,15.93-19.24,12.6,2.65,12.6,42.46,21.89,148.6,25.87,163.19S853.73,3211,853.73,3211s31.18,0,31.18-9.29-2-117.42,2-139.32S869,2878.65,869,2878.65c21.89-33.17,10-97.52,10-97.52l7-154c.16.24.33.51.49.77-1.52-22.4-1.69-44.35-1.7-66.24a295.25,295.25,0,0,0-22.26-23.63c-5,3.55-13.59,9.59-17.88,10.77l-.15-26a172.89,172.89,0,0,1,18,15.27,44,44,0,0,1,3.86-2.6c5.31-2,15-28.43,20.07-36.79,6.27-10.46,9.79-32,9.79-32S890.8,2423.57,916.09,2414.93Z"/><path class="cls-3" d="M921.4,2373.13s62.36-146.61,32.51-160.54c0,0,21.89,9.95,25.87,11.94s-14.6-21.9-25.87-22.56c0,0,11.94-16.58,26.53-16.58,0,0-11.94-14.6-43.78,5.3,0,0-59.71-106.81-163.87-68.33l-9.95,4.65s23.89,11.27,27.87,28.52c0,0-92.22-55.72-155.91-16.58,0,0,41.14,35.16,38.48,45.11,0,0-23.88-11.94-38.48-11.94,0,0,57.72,86.9,63,109.46,0,0-26.54-6-39.81,4.64,0,0,40.47,12,33.17,12.61,0,0-17.91-3.32-22.55,4s50.53,67.1,43.12,87.57c0,0,23.81,54.84,25.81,61.47s51.84,61.88,154.64,17.48c0,0,9.24-49.31,9.24-55.94S917.42,2383.08,921.4,2373.13Z"/><path class="cls-2" d="M876.36,2552.19c0,21.89-3.15,33.28-1.63,55.68,3.78,5.91,8.89,13.68,15.72,23.83,7.77,11.53,12,17.75,17.69,30.86,9.06-3.87,18.31,1.77,28.42,0C917.52,2606.4,898.6,2578.45,876.36,2552.19Z"/><path class="cls-2" d="M937.62,2664.93c0,.18-.09.35-.14.52"/><path class="cls-2" d="M929.35,2527.1c.06,12-.58,76.88-21.21,135.46,9.31,3.22,19.13,1.83,29.34,2.89l.14-.52c10.14-38.82,16-81.3,14-134.48C944.12,2530.45,936.84,2527.1,929.35,2527.1Z"/><path class="cls-2" d="M784.39,2545.5c3.69,21.58-.72,36.06,1.57,58.4-2.73,6.46-6.45,15-11.47,26.14-5.7,12.68-6.68,19.16-10.06,33-9.59-2.28-21,5.41-31.31,5.37C742.38,2609.88,766.91,2575.15,784.39,2545.5Z"/><path class="cls-2" d="M764.43,2663.08c-33.48-60-46.28-131.48-46.28-131.48s.6-8,.53-17.19c-6.25,1.79-11.86,4.49-17.9,4.33,6.49,57.41,15.55,114,33.07,152.52C743.74,2668.49,755.8,2667.83,764.43,2663.08Z"/><path class="cls-2" d="M718.52,2522.34c3.19-12.88,5.82-27.88,2.55-33.4a61.57,61.57,0,0,0-8.25-11,53.47,53.47,0,0,0-12.94-9.94c-4.56-2.47-13.46-7.86-10.76-27.06,3.68-26.24-8.46-18.42-8.46-18.42l-.83,3.24c-.55.75-1.32,3.09-1.81,3.85-23.81,36.88,21.65,80.62,21.65,80.62-.31,2.14,1.4,8,1.11,10.13C708.23,2522.53,710.19,2522.58,718.52,2522.34Z"/><path class="cls-2" d="M710.81,2378.27s0-39.22,5-57.46,25.08-58.06,68.56-61.38,92,13.27,108.69,0l16.73-13.26v132.69l11.7-6.63s-8.36,98-35.11,119.43c-19.34,15.47-140.91,31-152.18-9.71,0,0-8.17-34.48-16.49-62.56C712.48,2401.68,710.81,2378.27,710.81,2378.27Z"/><path class="cls-15" d="M859.64,2517.07H777.89s10.4-82.88,40.87-80.2S859.64,2517.07,859.64,2517.07Z"/><path d="M753.87,2354.29a33.35,33.35,0,0,1,7-9.54,35.12,35.12,0,0,1,9.93-6.8,28.35,28.35,0,0,1,11.85-2.55,25.86,25.86,0,0,1,11.56,2.79,44.72,44.72,0,0,0-11.45-.45,35.29,35.29,0,0,0-10.73,3,36.08,36.08,0,0,0-5,2.61,52.37,52.37,0,0,0-4.67,3.22A74.34,74.34,0,0,0,753.87,2354.29Z"/><path d="M873.92,2353.46a44.75,44.75,0,0,0-8.35-7.85,33.92,33.92,0,0,0-4.83-2.81,32.44,32.44,0,0,0-5.2-2,47.86,47.86,0,0,0-11.1-1.91,76.09,76.09,0,0,0-11.57.23,33.41,33.41,0,0,1,11.58-2.58,34.49,34.49,0,0,1,12,1.39,28.52,28.52,0,0,1,10.6,5.85A26,26,0,0,1,873.92,2353.46Z"/><circle cx="779.37" cy="2373.26" r="14.21"/><circle class="cls-16" cx="782.72" cy="2376.6" r="3.34"/><circle cx="847.93" cy="2373.26" r="14.21"/><circle class="cls-16" cx="851.28" cy="2376.6" r="3.34"/><path class="cls-9" d="M832.05,2347.34a56.93,56.93,0,0,0-2.22,5.76,33.58,33.58,0,0,0-1.43,5.88,17,17,0,0,0-.2,2.91l.07,3.11c0,2.09-.07,4.16-.11,6.22a106.14,106.14,0,0,0,.16,12.13c.11,1,.22,1.93.41,2.84a11.42,11.42,0,0,0,.34,1.34,12.21,12.21,0,0,0,.46,1.32,42.45,42.45,0,0,0,2.58,5.31,96.19,96.19,0,0,0,6.49,10.21c1.92,2.58,6.78,7.22,4.08,12.72a7.47,7.47,0,0,1-.58.85c-.22.25-.45.51-.66.73-.41.37-.82.73-1.25,1.08a13.57,13.57,0,0,1-2.91,1.82,47.26,47.26,0,0,1-6.13,1.8,33.36,33.36,0,0,1-6.22,1.11,34.35,34.35,0,0,1-6.26-.22,50.61,50.61,0,0,0,6.1-.88,35,35,0,0,0,5.77-1.88,46.85,46.85,0,0,0,5.56-2.28,11.93,11.93,0,0,0,2.2-1.65c.34-.33.68-.67,1-1l.35-.44a5.2,5.2,0,0,0,.25-.46c.58-1.2.2-2.85-.65-4.39a11.54,11.54,0,0,0-1.55-2.15,13.73,13.73,0,0,1-1.11-1.19c-.37-.43-.69-.84-1-1.26a91.66,91.66,0,0,1-7-10.56,45.68,45.68,0,0,1-2.73-5.87,14.46,14.46,0,0,1-.53-1.61,14,14,0,0,1-.4-1.67,23.44,23.44,0,0,1-.4-3.29,83.57,83.57,0,0,1,.51-12.62l.6-6.14.25-3.08a18,18,0,0,1,.58-3.23,31.47,31.47,0,0,1,2.32-5.9A38.54,38.54,0,0,1,832.05,2347.34Z"/><path class="cls-17" d="M850.72,2517.07H782.34l11.57-19.13,5.76-6.38,6.8-4.74,5.79-2.05s11.42-3,23.38,6.88l6.87,7.5,4.26,6.11S849.29,2513.7,850.72,2517.07Z"/><circle class="cls-19" cx="861.31" cy="2630.78" r="5.02"/><circle class="cls-19" cx="789.41" cy="2630.78" r="5.02"/><path class="cls-9" d="M796.09,2543.83c2.06.24,4.12.49,6.18.67s4.11.4,6.18.54c4.12.28,8.24.52,12.36.47a76.72,76.72,0,0,0,12.31-.84,36.87,36.87,0,0,0,6-1.41,18.46,18.46,0,0,0,5.49-2.78,17.24,17.24,0,0,1-5.32,3.24,35.64,35.64,0,0,1-6,1.7,49.62,49.62,0,0,1-6.2.82c-2.07.17-4.15.25-6.23.26a120,120,0,0,1-12.44-.7A115.58,115.58,0,0,1,796.09,2543.83Z"/><ellipse class="cls-9" cx="822.01" cy="2740.15" rx="5.85" ry="2.34"/><path class="cls-9" d="M698.27,2387.47q3.5,1.59,6.89,3.41c1.13.6,2.27,1.2,3.37,1.87.55.33,1.1.66,1.65,1a5.18,5.18,0,0,1,.82.65.87.87,0,0,1,.12.14l.06.07a.49.49,0,0,1,.08.21.89.89,0,0,1,0,.22v.1c0,.14,0,.3,0,.45a17.58,17.58,0,0,1,.18,3.93,4.08,4.08,0,0,1-.75,2,3.39,3.39,0,0,1-.44.41,5.68,5.68,0,0,1-.55.28,2.93,2.93,0,0,1-1.13.1,6.56,6.56,0,0,1-2-.53,9.58,9.58,0,0,1-1.76-.93,5.22,5.22,0,0,1-1.47-1.42,2.6,2.6,0,0,1-.4-2.08l0-.06,0,0c1.17-1.05,2.33-2.13,3.53-3.16-1,1.2-2.11,2.35-3.16,3.53l.06-.1a2.06,2.06,0,0,0,.43,1.55,4.56,4.56,0,0,0,1.35,1.15,10.06,10.06,0,0,0,1.67.76,6,6,0,0,0,1.72.42,1.38,1.38,0,0,0,1.32-.5,3.13,3.13,0,0,0,.52-1.53,19.65,19.65,0,0,0-.17-3.72c0-.29,0-.84-.06-.62a6,6,0,0,0-.68-.54c-.5-.37-1-.72-1.57-1.06l-3.24-2C702.63,2390.15,700.44,2388.83,698.27,2387.47Z"/><path class="cls-9" d="M931.81,2387.47c-2.17,1.36-4.36,2.68-6.55,4l-3.24,2c-.54.34-1.07.69-1.57,1.06a7,7,0,0,0-.68.54c0-.22,0,.33-.06.62a19.63,19.63,0,0,0-.16,3.72,3,3,0,0,0,.51,1.53,1.39,1.39,0,0,0,1.32.5,6,6,0,0,0,1.72-.42,9.71,9.71,0,0,0,1.67-.76,4.44,4.44,0,0,0,1.35-1.15,2.06,2.06,0,0,0,.43-1.55l.07.1c-1.06-1.18-2.14-2.33-3.17-3.53,1.2,1,2.36,2.11,3.53,3.16l0,0,0,.06a2.6,2.6,0,0,1-.4,2.08,5.22,5.22,0,0,1-1.47,1.42,9.58,9.58,0,0,1-1.76.93,6.56,6.56,0,0,1-2,.53,2.93,2.93,0,0,1-1.13-.1,5.52,5.52,0,0,1-.54-.28,2.92,2.92,0,0,1-.45-.41,4,4,0,0,1-.74-2,17.59,17.59,0,0,1,.17-3.93c0-.15,0-.31,0-.45v-.1a.89.89,0,0,1,0-.22,1,1,0,0,1,.08-.21l.06-.07a.87.87,0,0,1,.12-.14,6.28,6.28,0,0,1,.82-.65c.55-.37,1.1-.7,1.65-1,1.11-.67,2.24-1.27,3.37-1.87Q928.31,2389.07,931.81,2387.47Z"/><path class="cls-9" d="M691.09,2430.77a1.39,1.39,0,0,0-1.53-.47,3.44,3.44,0,0,0-1.45,1.35,16.55,16.55,0,0,0-1.77,4.13c-.86,2.94-1.64,5.94-2.39,8.92a57.35,57.35,0,0,0-1.69,9.06c-.35,3.08.6,6.09,1.15,9.12l-1-4.51a16.69,16.69,0,0,1-.36-4.62,57.66,57.66,0,0,1,1.45-9.16c.68-3,1.37-6,2.16-9a17,17,0,0,1,1.76-4.39,4.19,4.19,0,0,1,1.86-1.76,2,2,0,0,1,1.44-.05,2.73,2.73,0,0,1,1.19.77Z"/><path class="cls-2" d="M933.73,2537.86c-7-11.26-14.15-24.72-12.74-31a61.6,61.6,0,0,1,4.47-13,53.22,53.22,0,0,1,9.24-13.45c3.58-3.75,10.37-11.63,1.88-29.06-11.6-23.82,2.36-20.13,2.36-20.13l1.79,2.83c.75.54,2.21,2.53,2.91,3.1,34,27.73,4.3,83.36,4.3,83.36.95,1.95,2.73,7.92,3.67,9.88C945.18,2534.76,941.72,2535.52,933.73,2537.86Z"/><path class="cls-9" d="M931.69,2439.83a2.75,2.75,0,0,1,.89-1.1,2,2,0,0,1,1.39-.39,4.17,4.17,0,0,1,2.31,1.09,17.41,17.41,0,0,1,3,3.64c1.68,2.62,3.26,5.25,4.84,7.91a56.23,56.23,0,0,1,4.2,8.26,16.7,16.7,0,0,1,1.09,4.51l.4,4.61c-.41-3.05-.43-6.2-1.72-9a57.59,57.59,0,0,0-4.4-8.09c-1.64-2.6-3.31-5.22-5-7.75a16.33,16.33,0,0,0-3-3.38,3.41,3.41,0,0,0-1.8-.84,1.4,1.4,0,0,0-1.31.93Z"/></g></g></svg>
