<svg id="Layer_1" data-name="Layer 1" xmlns="http://www.w3.org/2000/svg" viewBox="0 0 1366 768"><defs><style>.cls-1{fill:#202532;}.cls-2{font-size:48px;fill:#89cce5;}.cls-2,.cls-7{font-family:Roboto-Black, Roboto;}.cls-3{letter-spacing:-0.01em;}.cls-4{letter-spacing:0.01em;}.cls-5{letter-spacing:-0.01em;}.cls-6{fill:#f4912d;}.cls-7{font-size:100px;fill:#fff;}.cls-8{letter-spacing:-0.06em;}.cls-9{letter-spacing:-0.02em;}.cls-10{letter-spacing:-0.03em;}</style></defs><title>tryk_start_mads</title><rect class="cls-1" x="0.5" y="0.5" width="1365" height="767"/><path d="M1365,1V767H1V1H1365m1-1H0V768H1366V0Z"/><text class="cls-2" transform="translate(289.24 117.82)">Mads har sendt dit billede vide<tspan class="cls-3" x="664.59" y="0">r</tspan><tspan x="682.34" y="0">e!</tspan><tspan x="41.32" y="57.6">Se om du kan nå, at t</tspan><tspan class="cls-4" x="494.3" y="57.6">r</tspan><tspan x="512.91" y="57.6">yk</tspan><tspan class="cls-5" x="564.02" y="57.6">k</tspan><tspan x="589.8" y="57.6">e på </tspan><tspan x="55.71" y="115.2">telefonerne for at slette det.</tspan></text><text></text><rect class="cls-6" x="422.5" y="467.5" width="481" height="252" rx="11.5" ry="11.5"/><path d="M892,468a11,11,0,0,1,11,11V708a11,11,0,0,1-11,11H434a11,11,0,0,1-11-11V479a11,11,0,0,1,11-11H892m0-1H434a12,12,0,0,0-12,12V708a12,12,0,0,0,12,12H892a12,12,0,0,0,12-12V479a12,12,0,0,0-12-12Z"/><text class="cls-7" transform="translate(511.51 624.73)">S<tspan class="cls-8" x="62.6" y="0">T</tspan><tspan x="119.78" y="0">A</tspan><tspan class="cls-9" x="187.89" y="0">R</tspan><tspan class="cls-10" x="250.68" y="0">T</tspan></text></svg>
