<?xml version="1.0" encoding="utf-8"?>
<!-- Generator: Adobe Illustrator 21.1.0, SVG Export Plug-In . SVG Version: 6.00 Build 0)  -->
<svg version="1.1" id="Layer_1" xmlns="http://www.w3.org/2000/svg" xmlns:xlink="http://www.w3.org/1999/xlink" x="0px" y="0px"
	 viewBox="0 0 1366 768" style="enable-background:new 0 0 1366 768;" xml:space="preserve">
<style type="text/css">
	.st0{fill:#202532;}
	.st1{fill:none;}
	.st2{fill:#89CCE5;}
	.st3{font-family:'Roboto-Black';}
	.st4{font-size:48px;}
	.st5{fill:#F4912D;}
	.st6{fill:#FFFFFF;}
	.st7{font-size:100px;}
</style>
<g>
	<rect x="0.5" y="0.5" class="st0" width="1365" height="767"/>
	<path d="M1365,1v766H1V1H1365 M1366,0H0v768h1366V0L1366,0z"/>
</g>
<rect x="281" y="81.8" class="st1" width="738.2" height="281.8"/>
<text transform="matrix(1 0 0 1 385.833 117.8184)"><tspan x="0" y="0" class="st2 st3 st4">Dit billede er blevet delt!</tspan><tspan x="-55.3" y="57.6" class="st2 st3 st4">Se om du kan nå, at trykke på </tspan><tspan x="-40.9" y="115.2" class="st2 st3 st4">telefonerne for at slette det.</tspan></text>
<g>
	<path class="st5" d="M434,719.5c-6.3,0-11.5-5.2-11.5-11.5V479c0-6.3,5.2-11.5,11.5-11.5h458c6.3,0,11.5,5.2,11.5,11.5v229
		c0,6.3-5.2,11.5-11.5,11.5H434z"/>
	<path d="M892,468c6.1,0,11,4.9,11,11v229c0,6.1-4.9,11-11,11H434c-6.1,0-11-4.9-11-11V479c0-6.1,4.9-11,11-11H892 M892,467H434
		c-6.6,0-12,5.4-12,12v229c0,6.6,5.4,12,12,12h458c6.6,0,12-5.4,12-12V479C904,472.4,898.6,467,892,467L892,467z"/>
</g>
<rect x="463.3" y="549.7" class="st1" width="407.3" height="181.8"/>
<text transform="matrix(1 0 0 1 505.8984 624.7275)" class="st6 st3 st7">START</text>
</svg>
