<?xml version="1.0" encoding="utf-8"?>
<!-- Generator: Adobe Illustrator 21.1.0, SVG Export Plug-In . SVG Version: 6.00 Build 0)  -->
<svg version="1.1" xmlns="http://www.w3.org/2000/svg" xmlns:xlink="http://www.w3.org/1999/xlink" x="0px" y="0px"
	 viewBox="0 0 1100 1400" style="enable-background:new 0 0 1100 1400;" xml:space="preserve">
<style type="text/css">
	.st0{display:none;}
	.st1{display:inline;fill:none;stroke:#000000;stroke-miterlimit:10;}
	.st2{display:inline;fill:#659FA0;stroke:#000000;stroke-miterlimit:10;}
	.st3{display:inline;fill:#332519;stroke:#332519;stroke-miterlimit:10;}
	.st4{display:inline;fill:#DDC1AB;stroke:#DDC1AB;stroke-miterlimit:10;}
	.st5{fill:#E5CCB7;}
	.st6{fill:#E0AD63;}
	.st7{fill:#F1D6BE;stroke:#F1D6BE;stroke-miterlimit:10;}
	.st8{fill:none;stroke:#000000;stroke-miterlimit:10;}
	.st9{stroke:#F7E1B9;stroke-miterlimit:10;}
	.st10{fill:#F5B4BA;stroke:#F5B4BA;stroke-miterlimit:10;}
	.st11{fill:#B19F9C;stroke:#B19F9D;stroke-miterlimit:10;}
	.st12{fill:#B19F9D;stroke:#B19F9C;stroke-miterlimit:10;}
	.st13{fill:#E68376;stroke:#E68376;stroke-miterlimit:10;}
	.st14{fill:#B7B6B6;stroke:#B7B6B6;stroke-miterlimit:10;}
	.st15{fill:#FDFDFD;stroke:#FDFDFD;stroke-width:0.25;stroke-miterlimit:10;}
	.st16{fill:#F1D6BE;}
	.st17{fill:#3D3333;}
	.st18{fill:#020203;}
	.st19{fill:#FFFFFF;}
	.st20{fill:#CEB7A5;}
	.st21{fill:#FDFDFD;stroke:#FFFFFF;stroke-width:0.25;stroke-miterlimit:10;}
	.st22{fill:#F1D9C3;}
	.st23{fill:none;stroke:#010202;stroke-width:16;stroke-miterlimit:10;}
	.st24{fill:#F1D6BE;stroke:#E0CAB8;stroke-width:2;stroke-miterlimit:10;}
	.st25{fill:#C4AD9E;}
	.st26{fill:none;stroke:#C4AD9E;stroke-width:1.5;stroke-miterlimit:10;}
	.st27{fill:none;stroke:#D3BBAE;stroke-miterlimit:10;}
	.st28{fill:none;stroke:#010202;stroke-width:3;stroke-miterlimit:10;}
	.st29{clip-path:url(#SVGID_2_);fill:#E0AD63;}
	.st30{clip-path:url(#SVGID_2_);fill:#F1D6BE;stroke:#F1D6BE;stroke-miterlimit:10;}
	.st31{clip-path:url(#SVGID_2_);}
	.st32{clip-path:url(#SVGID_2_);fill:none;stroke:#C4AD9E;stroke-width:0.25;stroke-miterlimit:10;}
	.st33{fill:#D3BBAE;}
	.st34{clip-path:url(#SVGID_2_);fill:#FDFDFD;stroke:#FFFFFF;stroke-width:0.25;stroke-miterlimit:10;}
	.st35{clip-path:url(#SVGID_4_);fill:#E0AD63;}
	.st36{clip-path:url(#SVGID_4_);fill:#F1D6BE;stroke:#F1D6BE;stroke-miterlimit:10;}
	.st37{clip-path:url(#SVGID_4_);}
	.st38{clip-path:url(#SVGID_4_);fill:none;stroke:#C4AD9E;stroke-width:0.25;stroke-miterlimit:10;}
	.st39{clip-path:url(#SVGID_4_);fill:#FDFDFD;stroke:#FFFFFF;stroke-width:0.25;stroke-miterlimit:10;}
</style>
<g id="Layer_1" class="st0">

		<image style="display:inline;overflow:visible;" width="450" height="470" xlink:href="stock-vector-young-couple-students-vector-illustration-of-a-flat-design-431648974.jpg"  transform="matrix(1.1327 0 0 1.1327 1733.8094 3313.605)">
	</image>
	<path class="st1" d="M1890.9,3595c17.9,3.5,36.2,3.9,54.8,1.6c-0.4,41.7,0.2,79.3,0,108.6h-11.3c-9.6-26.4-11.4-62.3-8.6-104
		l-16.3-0.9c-2.9,39.4,0.2,74.2,8.8,104.9l-14.7,2.3C1890.1,3674.9,1886.6,3637,1890.9,3595z"/>
	<polygon class="st1" points="1931.2,3706.3 1948.9,3705 1948.9,3714.5 1933.4,3714.5 	"/>
	<polygon class="st1" points="1902.4,3707.4 1920.1,3705 1920.1,3714.5 1908,3716.7 1905.9,3717.1 	"/>
	<path class="st1" d="M1909.8,3723.3l-1.8-6.6l10.8-2l2.4,8.6C1917,3724.8,1913.1,3725.2,1909.8,3723.3z"/>
	<path class="st1" d="M1935.5,3714.7v7.7c3.7,1.1,7.3,1.1,11,0l-0.8-7.7H1935.5z"/>
	<path class="st1" d="M1935.5,3722.4c-14.8,11.4-21.9,14.5-25.6,14.9c-0.6,0.1-3.6,0.3-6.2,2.4c-1.5,1.3-3.4,3.6-2.8,5
		c1,2.2,8.1,1,10.7,0.6c7.9-1.2,37.4-3.2,39.6-2.2c2.2,1,0.5-16.3-4.6-20.7"/>
	<path class="st1" d="M1947.9,3726.6"/>
	<path class="st1" d="M1909.9,3737.3c1.7,2.7,2.2,5.3,1.7,8"/>
	<path class="st1" d="M1909.8,3723.3c-0.1,0.1-26.1,13.9-26.9,13.4c-0.8-0.5-7.5,2.4-7.9,3.1c-0.3,0.7-1.6,5.2,0.6,6.8l25.7-0.7
		l0.2-0.7"/>
	<line class="st1" x1="1925.6" y1="3729.6" x2="1921.1" y2="3723.3"/>
	<path class="st1" d="M1886.7,3746c-0.1-3.1-1.4-6.2-3.9-9.2"/>
	<path class="st2" d="M1884.5,3592.6c22.8,5.7,44.2,7.6,62.7,2.4c0.8-29.1,1.8-57.1,5.1-73.4l3.9,5.3c4.9-3.5,10.2-6,16-7.2
		c-6.8-13.4-17.1-27.9-24.4-31.3c-7.3-3.4-5.9-2.5-14.3-2.9c-1.8,3.1-5.1,6.4-9.9,9.6c-2.9,1-5.5,1.6-9.5,0.4
		c-5.7-0.5-9.1-3.8-10-9.5c-8.3-0.9-8.5-1.2-9.2,0.9c-4.4,3.6-13.1,35.2-13.1,35.2l4.2,1.6L1884.5,3592.6z"/>
	<path class="st3" d="M1941.4,3445.9c5.7-20.1,1.5-29.8-21.2-38.7c-1.2-0.5-5,1.4-2.4,2c2.6,0.6,5.9,0.9,5.4,2.6
		c-0.3,1.2-21.4-8.9-34-1.1c-1.4,4.5,7.7,3,5.5,3.5c-1.3,0.3-15.9,27.3-11.7,28.6"/>
	<path class="st4" d="M1884.1,3459.2c10.8,27.9,49.2,26.8,57.3,2c10.5,1.1,8.2-15.3,0-15.3c-4.6-5.4-8.4-11.6-10.9-18.6
		c-13.7-0.1-30.6,1.3-34.5-3.1c-5.6,6.2-10,12.4-13,18.5C1872.9,3445.1,1877.6,3457.4,1884.1,3459.2z"/>
</g>
<g id="Layer_2">
	<g>
		<g>
			<path class="st5" d="M2737.9-1696.7c-4.3-3.3-9.6-3.2-14.8-2.9c-0.3,0-0.3,0.5,0,0.5c5.1-0.3,10.3-0.4,14.6,2.8
				C2737.9-1696.1,2738.2-1696.5,2737.9-1696.7L2737.9-1696.7z"/>
		</g>
	</g>
	<g>
		<polygon class="st6" points="137.5,62.5 99.2,133.5 110.7,152.8 146.7,164.5 149.7,98.9 		"/>
		<polygon class="st6" points="29.8,113.5 78.2,136.7 74.3,154.4 31.9,154.4 		"/>
		<path class="st7" d="M49.9,632.9l0,24.8c5.6,17.6,20.8,27.9,39.6,35.7c3.7,1.3,10.1-7.6,11.4-10.4s-25.8-23-32.6-34.4l-0.4-15.7"
			/>
		<path class="st7" d="M100.4,636.6l-3,22.9c8,15.2,18.6,23.5,38.2,33.5c5.6,2.9,14.3-7,13-11.2c-1-3.2-20.3-17-27.9-28.8l-0.4-16.4
			"/>
		<path class="st8" d="M99.7,642.6"/>
		<line class="st9" x1="100" y1="642.4" x2="100.5" y2="639.8"/>
		<path class="st10" d="M32,343.5c42.9,21.1,86,23.5,129.4,7.9c1.1,47.7,0.3,93.3-3.2,135.5c0,0-26.4,94.6-33.3,151.2
			c-8.8,4.6-18.3,4.1-28.2,0c-3.3-68.7,3.1-118.4,19.9-147.3c-3.4-30.9-5.8-74.5-14.1-126.3l-10.2-0.7c-16.5,77.4-20,170-17.9,269
			c-9.5,7.1-19.1,6.9-28.8,0C33.4,533.8,27.5,436.9,32,343.5z"/>
		<path class="st11" d="M49.6,655.8c-10.4,8.2-9.6,21.6-1.3,37.2h15.5l-2.8-8.2c6.5,3.4,19.1,10.2,31.9,12.7l18.4-0.5
			c4.8-3.6,4.6-7.3,0-11.1l-34.7-26.7l0,0l22.7,19.3c-1.4,4.3-4.8,7.7-10,10.1c-19.8-3.8-34.8-13.2-40.3-33.8"/>
		<path class="st12" d="M97,653.3l-5.5,12.5l27,28.6c9.3,3.8,19.5,5.1,30.5,4.6c8.5-4.4,12.8-11.8,9.4-14.3L123.2,657l18.5,20.4
			c-0.1,7-3.6,11.1-11.2,11.8c-15.1-6.9-28-15.7-34-29.8L97,653.3z"/>
		<path class="st13" d="M72.8,145.8c1.1,3.2,27.3,25.9,37,0c4.1-2,8.1-2.8,12,0l34.8,23.2l-73.5-2.7L72.8,280l86,4.9l8.5,69.5
			c-51.7,19.5-100.9,18.7-146.1-14.3c7.3-24.6,28.5-53.8,45-86.5L56.8,226c-6,4.5-12.5,6.6-19.2,7.1c-2.3,0.2-4.7,0.2-7.1,0
			c-4.9-19.8-2.6-48.2,2.7-80.2C40.4,145.8,71.4,141.6,72.8,145.8z"/>

			<rect x="76.6" y="166" transform="matrix(0.9978 6.622210e-02 -6.622210e-02 0.9978 15.1566 -7.8754)" class="st14" width="99.5" height="117.4"/>
		<path class="st15" d="M136.2,238.3c0.9-0.5,1.3-1.6,1.6-2.8c0.2-0.8,0.4-1.7,0.5-2.6c0.1-0.9,0.2-1.9-0.1-2.8
			c-0.4-1.2-1.4-2-2.5-2.4c-1.1-0.3-2.2-0.2-3.3-0.2c-1.2,0.1-2.4,0.2-3.6,0.3c-0.6,2.1-0.2,4.5,1.1,6.1c-1,1.3-1.6,3-1.6,4.7
			C130.5,238.5,134.1,239.4,136.2,238.3z"/>
		<path class="st15" d="M123.7,233.6c-1-0.4-1.7-1.3-2-2.4c0,0.2,5.2-0.2,5.1,2.5C125.9,234,124.7,234,123.7,233.6z"/>
		<path class="st7" d="M54.1,254.8l-16.6-20.4c7.7-1.6,13.8-3.6,18.6-7.4l9.2,13.2l88-1.6l11.3-9.7l10.8-1.7l-0.1,3.1l6.5-0.3
			c0,0,0.7,3.3-0.1,3.9c-0.9,0.7-4.3-0.9-4.3-0.9l0,2.1l4.3,1.4c0,0,0.7,3.7-0.1,4.4c-0.8,0.7-4.3-0.1-4.3-0.1l0.4,2.9l3.9-0.8
			c0,0,0.5,2.5,0,3c-0.6,0.6-3.4-0.1-3.4-0.1l3.4,2.2c0,0,0.5,2.5,0,3c-0.9,0.7-4.3-0.9-4.3-0.9l-25,3.9L54.1,254.8z"/>
		<g>
			<path class="st16" d="M119.7,227.1c-4.4,1.6-8.8,2.9-13.4,3.9c-2.1,0.5-4.1,0.8-6.2,0.8c-2.1,0-4.1-0.4-6.2-0.6
				c-2.8-0.3-5.7-0.3-8.5-0.8c-2.8-0.6-5.6-1.8-7.2-4.2c0.8-0.8,1.7,0.1,2.7,0.8c2.7,1.8,6.3,2.8,9.6,3.2c0.7,0.1,1.4,0.2,2.1-0.1
				s1.2-0.9,1.1-1.6c-0.1-0.4-0.4-0.8-0.7-1.1c-2.1-1.9-4.8-3-7.4-4.2s-5.2-2.8-6.5-5.4c-0.1-0.3-0.3-0.6-0.1-0.9
				c0.3-0.6,0.6-1.1,1.6,0.4c1.2,1.6,2.8,2.8,4.4,4c2.1,1.7,4.5,3.2,7.2,3.2c0.8,0,1.8-0.2,2.3-0.9c0.4-0.6,0.4-1.5,0-2.2
				c-0.4-0.7-1-1.2-1.6-1.7c-3.4-2.6-7.5-4.1-10.9-6.6c-0.7-0.5-1.4-1.1-1.6-2c-0.2-0.8-0.2-2.6,0.6-2.3c2.5,3.5,6.9,7.1,10.9,8.8
				c0.9,0.4,2.1,0.7,2.9,0.2c0.9-0.6,1-1.9,0.5-2.8c-0.5-0.9-1.3-1.6-2.2-2.2c-2.4-1.7-5.2-3-7.3-5.2c-0.9-1-2.3-1.8-2.1-3.1
				c0-0.3,0.5-1.9,0.8-1.9c0.2,0,0.1,1.4,0.3,1.6c0.6,0.7,0.9,1.7,1.6,2.3c1.4,1.3,3.4,3.1,5.8,5.8c0.9,1,2.3,1.3,3.6,1.4
				c1.3,0.1,5.1,1,5.6-0.2c0.5-1.2-2.3-4.1-2.8-5.3c-0.7-1.4-1.5-2.8-2.5-4.1c-1.6-2.2-3.4-4.2-5.5-6c0.5-0.5,1.4-0.2,1.9,0.2
				c1.8,1.3,3.4,2.8,4.7,4.6c1.3,1.8,2.4,3.8,4.1,5.4c3.5,3.2,8.7,3.6,13.4,3.9c2.8,0.1,5.7,0.3,8.5,0.4l55.9-9.1V194
				c0,0,16.5,11.7,14.3,18.9c-2.2,7.3-15,13.9-15,13.9L119.7,227.1z"/>
			<g>
				<path class="st16" d="M119.5,226.5c-6.8,2.5-14.5,5.3-21.8,4.6c-3.5-0.3-7.1-0.5-10.6-1.1c-0.9-0.1-8.4-2-7.7-3.1
					c-0.1,0.1,2.7,1.6,2.9,1.7c2.4,1.2,7.9,3.6,10.6,2c3.3-2-0.9-4.7-2.7-5.7c-2.7-1.5-5.8-2.4-8.1-4.4c-0.1-0.1-2.6-2.3-2.2-2.7
					c-0.1,0.1,1.4,1.5,1.5,1.7c0.9,0.9,2,1.7,3,2.5c1.9,1.4,8,5.5,10.3,2c2-3.1-3.2-5.8-5.1-6.9c-1.4-0.8-2.8-1.5-4.2-2.3
					c-0.6-0.4-1.5-0.7-2.1-1.2c0.2,0.1-3.8-4.2-1.6-2.4c2.4,1.9,4.2,4.1,6.9,5.7c2,1.2,7.5,3.7,7.3-0.8c-0.2-4.8-14.8-8-11.1-13.1
					c-0.4,0-0.8-0.1-1.1-0.1c0.7,1.8,1,3,2.4,4.6c1.8,2,4.2,5,6.6,6.3c1.6,0.8,8.2,2.4,9.1-0.1c0.6-1.7-1.8-3.8-2.6-5
					c-1.9-3.1-3.6-5.9-6-8.6c-2.4-2.6,0.9,0.7,1.7,1.6c1.7,1.8,2.8,4,4.4,5.9c1.9,2.3,4.2,3.6,7.1,4.4c7.7,2.1,15.8,1.5,23.6,0.3
					c9.3-1.5,18.6-3,28-4.5c7-1.1,14.1-2.3,21.1-3.4c0.3,0,0.5-0.4,0.5-0.6c0-1.4,0-2.8,0-4.3c0-0.8,0.1-5.4-0.4-4.9
					c-0.7,0.6,1.3,1.5,2.1,2.1c1.8,1.5,3.6,3,5.3,4.7c4.7,4.7,8.7,9.9,3.6,15.9c-2.8,3.3-7.4,7.4-11.6,8.9c-2.9,1-9.6,0.3-13.4,0.3
					c-9.1,0-18.2,0.1-27.3,0.1c-6,0-12,0.1-18.1,0.1c-0.8,0-0.8,1.3,0,1.2c14.5-0.1,29.1-0.1,43.6-0.2c3.6,0,7.3,0,10.9-0.1
					c1.3,0,2.9,0.3,4.1,0c2.7-0.7,5.7-3.4,7.9-5.1c3.2-2.5,7.5-6.1,7.8-10.5c0.5-7.4-9.5-14.6-14.8-18.4c-0.4-0.3-0.9,0.1-0.9,0.5
					c0,1.7,0,3.5,0,5.2c0,1.3-0.5,4.3,0.4,3.7c-1.1,0.8-4.4,0.7-5.7,0.9c-9.2,1.5-18.3,3-27.5,4.5c-7.2,1.2-14.5,2.9-21.7,3.5
					c-5.4,0.5-12.5,0.2-17.6-1.4c-5.4-1.8-7.1-6.7-10.8-10.4c-1.5-1.5-2.9-3.1-5.1-2.5c-0.4,0.1-0.6,0.7-0.3,1
					c2.8,2.5,5.2,5.3,7.1,8.6c0.9,1.5,4.3,5.2,1.6,6.4c-3.1,1.3-7.7-3.2-9.5-5c-2-2-3.3-3.4-4.3-6.1c-0.2-0.5-0.8-0.6-1.1-0.1
					c-2.4,3.3,1.2,5.9,3.6,7.8c0.8,0.6,1.8,1.2,2.6,1.7c1.3,0.8,2.5,1.6,3.6,2.5c-1,0.7-2,1.5-3.1,2.2c-3,0-7.7-5.9-9.4-8
					c-0.2-0.2-0.5-0.2-0.8-0.1c-4.5,2.4,3.6,7.1,5,7.9c0.8,0.4,5.4,2.4,5.5,3.2c-1.1,1.1-2.2,2.2-3.3,3.3c-0.5-0.3-0.9-0.6-1.4-0.9
					c-1.2-0.4-2.6-1.9-3.5-2.7c-0.9-0.8-2.5-3.9-4-3.1c-3.6,1.7,4.6,7,5.6,7.5c1.3,0.7,4.3,1.4,5.2,2.5c0.8,1.1,0.1,3-1.2,3.3
					c-0.7,0.1-2.2-0.5-2.8-0.7c-2.3-0.8-5.2-3.7-7.6-2.9c-0.5,0.2-0.6,0.7-0.3,1c4.6,5.4,12.1,4.7,18.5,5.5
					c8.1,0.9,16.1-1.8,23.6-4.5C120.6,227.4,120.3,226.2,119.5,226.5z"/>
			</g>
		</g>
		<path class="st7" d="M76.2,135.4c-0.9,2.8-1.8,5.6-2.8,8.6c6.3,19.2,27.8,22.6,36.5,1.8c-4.8-2.5-6.4-7.8-8-15.6
			C97.4,141.9,86.2,136.9,76.2,135.4z"/>

			<ellipse transform="matrix(0.9866 -0.1632 0.1632 0.9866 -11.3441 13.7727)" class="st7" cx="78.2" cy="75.9" rx="58.7" ry="64.1"/>
		<path class="st6" d="M5,255.7L45.1,226c0.8-50.8-9.1-116.3-18.7-164.9c0,0,23.8-8.5,25.6-11.9s-1.9-20.1-1.9-20.1
			s5.9,13.4,10.4,15.2c4.5,1.9,23-4.5,23-6.3s0-9.3,0-9.3l7.8,5.6l29.4-2.6c24.4,39.8,27.8,76.6,22.6,128.3l11.2,7.8
			c9.8-57.4-1.1-95.2-26.7-140.9S7.1,0.6,3.4,47.7S5,255.7,5,255.7z"/>
		<g>
			<path class="st17" d="M70.7,68.6c-1.9-1.3-4.3-1.7-6.5-1.4c-2.2,0.3-4.4,1-6.4,2c-2,1-4,2.2-5.8,3.5c-0.9,0.7-1.8,1.4-2.7,2.1
				c-0.9,0.7-1.7,1.5-2.6,2.2c0.7-0.9,1.5-1.8,2.3-2.6c0.8-0.8,1.7-1.6,2.6-2.4c1.8-1.5,3.8-2.8,5.9-3.8c2.1-1,4.4-1.8,6.8-1.9
				c0.6-0.1,1.2,0,1.8,0c0.6,0.1,1.2,0.2,1.7,0.4C68.8,67.2,69.8,67.8,70.7,68.6z"/>
		</g>
		<g>
			<path class="st17" d="M119.9,59.4c-1.2-0.3-2.4-0.8-3.7-1.1c-1.2-0.4-2.5-0.6-3.7-0.9c-2.5-0.5-5-0.7-7.5-0.6
				c-2.5,0.1-5,0.5-7.2,1.6c-2.2,1.1-4.1,2.9-5.2,5.2c0.4-1.2,1-2.4,1.8-3.4c0.8-1,1.9-1.8,3-2.5c2.3-1.3,5-1.8,7.6-1.9
				c2.6-0.1,5.2,0.2,7.7,0.9C115.2,57.4,117.6,58.3,119.9,59.4z"/>
		</g>
		<circle class="st18" cx="62.6" cy="85.4" r="7"/>
		<circle class="st18" cx="104.9" cy="75.2" r="6.8"/>
		<circle class="st19" cx="64.2" cy="83.7" r="1.7"/>
		<circle class="st19" cx="104.9" cy="73" r="1.7"/>
		<g>
			<path class="st20" d="M87.8,68.6c0,2-0.1,4,0,5.9c0,1,0.1,1.9,0.5,2.8c0.4,0.9,0.9,1.7,1.4,2.5c1.1,1.6,2.3,3.2,3.7,4.5
				c1.4,1.3,3,2.4,4.7,3.4l0.2,0.1l0,0.2c-0.1,1.5-0.9,2.5-1.9,3.3c-1,0.7-2.1,1.2-3.2,1.5c-1.1,0.3-2.2,0.5-3.4,0.8
				c-1.1,0.2-2.3,0.5-3.4,0.7c1.1-0.4,2.2-0.7,3.3-1.1c1.1-0.4,2.2-0.7,3.3-1c1.1-0.4,2.1-0.9,2.9-1.6c0.4-0.4,0.8-0.7,1-1.2
				c0.3-0.4,0.4-1,0.4-1.4l0.2,0.4c-1.8-1-3.4-2.1-4.9-3.5c-1.5-1.4-2.7-3.1-3.7-4.8c-0.5-0.9-1-1.8-1.3-2.7c-0.2-0.5-0.3-1-0.3-1.5
				c0-0.5,0-1,0-1.5C87.3,72.6,87.5,70.6,87.8,68.6z"/>
		</g>
		<path class="st21" d="M74,110.5c12.8,18.7,37.8,12.8,37.1-9.2L74,110.5z"/>
	</g>
	<g>
		<polygon class="st6" points="719.7,75.5 668,137.4 675.4,158.6 708.4,177.3 724.5,113.7 		"/>
		<polygon class="st6" points="602,103.6 651.5,144.5 642.5,166.1 593.8,156.1 		"/>
		<path class="st7" d="M620.1,633.1v24.8c5.6,17.6,20.8,27.9,39.6,35.7c3.7,1.3,10.1-7.6,11.4-10.4c1.3-2.8-25.8-23-32.7-34.4
			l-0.4-15.7"/>
		<path class="st7" d="M670.7,636.9l-3,22.9c8,15.2,18.6,23.5,38.3,33.5c5.6,2.9,14.4-7,13-11.2c-1-3.2-20.3-17-27.9-28.8l-0.4-16.4
			"/>
		<path class="st8" d="M670,642.8"/>
		<line class="st9" x1="670.2" y1="642.6" x2="670.7" y2="640.1"/>
		<path class="st10" d="M602.2,343.8c42.9,21.1,86.1,23.5,129.4,7.9c1.1,47.7,0.3,93.3-3.2,135.5c0,0-26.4,94.6-33.3,151.2
			c-8.8,4.6-18.3,4.1-28.2,0c-3.3-68.7,3.1-118.4,19.9-147.3c-3.4-30.9-5.8-74.5-14.1-126.3l-10.3-0.7c-16.5,77.4-20,170-17.9,269
			c-9.5,7.1-19.1,6.9-28.8,0C603.6,534.1,597.8,437.1,602.2,343.8z"/>
		<path class="st11" d="M619.9,656.1c-10.4,8.2-9.6,21.6-1.3,37.2H634l-2.8-8.2c6.5,3.4,19.1,10.2,31.9,12.7l18.4-0.5
			c4.8-3.6,4.6-7.3,0-11.1l-34.8-26.7l0,0l22.7,19.3c-1.4,4.3-4.8,7.7-10,10.1c-19.8-3.8-34.8-13.2-40.3-33.8"/>
		<path class="st12" d="M667.3,653.5l-5.5,12.5l27,28.6c9.3,3.8,19.5,5.1,30.5,4.6c8.5-4.4,12.8-11.8,9.4-14.3l-35.2-27.6l18.5,20.4
			c-0.1,7-3.6,11.1-11.2,11.8c-15.1-6.9-28-15.7-34-29.8L667.3,653.5z"/>
		<path class="st13" d="M643.1,146.1c1.1,3.2,27.3,25.9,37,0c4.1-2,8.1-2.8,12,0l34.8,23.2l-73.6-2.7l-10.3,113.6l86,4.9l8.5,69.5
			c-51.7,19.5-101,18.7-146.2-14.3c7.3-24.6,28.5-53.8,45-86.5l-9.3-27.6c-6,4.5-12.5,6.6-19.2,7.1c-2.3,0.2-4.7,0.2-7.1,0
			c-4.9-19.8-2.6-48.2,2.7-80.2C610.6,146,641.7,141.8,643.1,146.1z"/>

			<rect x="646.9" y="166.2" transform="matrix(0.9978 6.619193e-02 -6.619193e-02 0.9978 16.4157 -45.6196)" class="st14" width="99.6" height="117.4"/>
		<path class="st15" d="M706.4,238.5c0.9-0.5,1.3-1.6,1.6-2.8c0.2-0.8,0.4-1.7,0.5-2.6c0.1-0.9,0.2-1.9-0.1-2.8
			c-0.4-1.2-1.4-2-2.5-2.4c-1.1-0.3-2.2-0.2-3.3-0.2c-1.2,0.1-2.4,0.2-3.6,0.3c-0.6,2.1-0.2,4.5,1.1,6.1c-1,1.3-1.6,3-1.6,4.7
			C700.8,238.7,704.4,239.7,706.4,238.5z"/>
		<path class="st15" d="M694,233.9c-1-0.4-1.7-1.3-2-2.4c0,0.2,5.2-0.2,5.1,2.5C696.2,234.3,695,234.3,694,233.9z"/>
		<path class="st7" d="M624.4,255l-16.6-20.4c7.7-1.6,13.8-3.6,18.6-7.4l9.2,13.2l88-1.6l11.3-9.7l10.8-1.7l-0.1,3.1l6.5-0.3
			c0,0,0.7,3.3-0.1,3.9c-0.9,0.7-4.3-0.9-4.3-0.9l0,2.1l4.3,1.4c0,0,0.7,3.7-0.1,4.4c-0.8,0.7-4.3-0.1-4.3-0.1l0.4,2.9l3.9-0.8
			c0,0,0.5,2.5,0,3c-0.6,0.6-3.4-0.1-3.4-0.1l3.4,2.2c0,0,0.5,2.5,0,3c-0.9,0.7-4.3-0.9-4.3-0.9l-25,3.9L624.4,255z"/>
		<g>
			<path class="st16" d="M690,227.3c-4.4,1.6-8.8,2.9-13.4,3.9c-2.1,0.5-4.1,0.8-6.3,0.8c-2.1,0-4.1-0.4-6.2-0.6
				c-2.8-0.3-5.7-0.3-8.5-0.8c-2.8-0.6-5.6-1.8-7.2-4.2c0.8-0.8,1.7,0.1,2.7,0.8c2.7,1.8,6.3,2.8,9.6,3.2c0.7,0.1,1.4,0.2,2.1-0.1
				s1.2-0.9,1.1-1.6c-0.1-0.4-0.4-0.8-0.7-1.1c-2.1-1.9-4.8-3-7.4-4.2c-2.6-1.2-5.2-2.8-6.5-5.4c-0.1-0.3-0.3-0.6-0.1-0.9
				c0.3-0.6,0.6-1.1,1.6,0.4c1.2,1.6,2.8,2.8,4.4,4c2.1,1.7,4.5,3.2,7.2,3.2c0.8,0,1.8-0.2,2.3-0.9c0.4-0.6,0.4-1.5,0-2.2
				c-0.4-0.7-1-1.2-1.6-1.7c-3.4-2.6-7.5-4.1-10.9-6.6c-0.7-0.5-1.4-1.1-1.6-2s-0.2-2.6,0.6-2.3c2.5,3.5,6.9,7.1,10.9,8.8
				c0.9,0.4,2.1,0.7,2.9,0.2c0.9-0.6,1-1.9,0.5-2.8c-0.5-0.9-1.3-1.6-2.2-2.2c-2.4-1.7-5.2-3-7.3-5.2c-0.9-1-2.3-1.8-2.1-3.1
				c0-0.3,0.5-1.9,0.8-1.9c0.2,0,0.1,1.4,0.3,1.6c0.6,0.7,0.9,1.7,1.6,2.3c1.4,1.3,3.4,3.1,5.8,5.8c0.9,1,2.3,1.3,3.6,1.4
				c1.3,0.1,5.1,1,5.6-0.2c0.5-1.2-2.3-4.1-2.8-5.3c-0.7-1.4-1.5-2.8-2.5-4.1c-1.6-2.2-3.4-4.2-5.5-6c0.5-0.5,1.4-0.2,1.9,0.2
				c1.8,1.3,3.4,2.8,4.7,4.6c1.3,1.8,2.4,3.8,4.1,5.4c3.5,3.2,8.7,3.6,13.4,3.9c2.8,0.1,5.7,0.3,8.5,0.4l55.9-9.1v-9.5
				c0,0,16.5,11.7,14.3,18.9c-2.2,7.3-15,13.9-15,13.9L690,227.3z"/>
			<g>
				<path class="st16" d="M689.8,226.7c-6.8,2.5-14.5,5.3-21.8,4.6c-3.5-0.3-7.1-0.5-10.6-1.1c-0.9-0.1-8.4-2-7.7-3.1
					c-0.1,0.1,2.7,1.6,2.9,1.7c2.4,1.2,7.9,3.6,10.6,2c3.3-2-0.9-4.7-2.7-5.7c-2.7-1.5-5.8-2.4-8.1-4.4c-0.1-0.1-2.6-2.3-2.2-2.7
					c-0.1,0.1,1.4,1.5,1.5,1.7c0.9,0.9,2,1.7,3,2.5c1.9,1.4,8,5.5,10.3,2c2-3.1-3.2-5.8-5.1-6.9c-1.4-0.8-2.8-1.5-4.2-2.3
					c-0.6-0.4-1.5-0.7-2.1-1.2c0.2,0.1-3.8-4.2-1.6-2.4c2.4,1.9,4.2,4.1,6.9,5.7c2,1.2,7.5,3.7,7.3-0.8c-0.2-4.8-14.8-8-11.1-13.1
					c-0.4,0-0.8-0.1-1.1-0.1c0.7,1.8,1,3,2.4,4.6c1.8,2,4.2,5,6.6,6.3c1.6,0.8,8.2,2.4,9.1-0.1c0.6-1.7-1.8-3.8-2.6-5
					c-1.9-3.1-3.6-5.9-6-8.6c-2.4-2.6,0.9,0.7,1.7,1.6c1.7,1.8,2.8,4,4.4,5.9c1.9,2.3,4.2,3.6,7.1,4.4c7.7,2.1,15.8,1.5,23.6,0.3
					c9.3-1.5,18.7-3,28-4.5c7-1.1,14.1-2.3,21.1-3.4c0.3,0,0.5-0.4,0.5-0.6c0-1.4,0-2.8,0-4.3c0-0.8,0.1-5.4-0.4-4.9
					c-0.7,0.6,1.3,1.5,2.1,2.1c1.8,1.5,3.6,3,5.3,4.7c4.7,4.7,8.7,9.9,3.6,15.9c-2.8,3.3-7.4,7.4-11.6,8.9c-2.9,1-9.6,0.3-13.4,0.3
					c-9.1,0-18.2,0.1-27.3,0.1c-6,0-12,0.1-18.1,0.1c-0.8,0-0.8,1.3,0,1.2c14.6-0.1,29.1-0.1,43.7-0.2c3.6,0,7.3,0,10.9-0.1
					c1.3,0,2.9,0.3,4.1,0c2.8-0.7,6.1-3.6,8.3-5.4c3-2.4,7.1-6,7.4-10.2c0.5-7.4-9.5-14.6-14.8-18.4c-0.4-0.3-0.9,0.1-0.9,0.5
					c0,1.7,0,3.5,0,5.2c0,1.3-0.5,4.3,0.4,3.7c-1.1,0.8-4.4,0.7-5.7,0.9c-9.2,1.5-18.3,3-27.5,4.5c-7.2,1.2-14.5,2.9-21.8,3.5
					c-5.4,0.5-12.5,0.2-17.6-1.4c-5.4-1.8-7.1-6.7-10.8-10.4c-1.5-1.5-2.9-3.1-5.1-2.5c-0.4,0.1-0.6,0.7-0.3,1
					c2.8,2.5,5.2,5.3,7.1,8.6c0.9,1.5,4.3,5.2,1.6,6.4c-3.1,1.3-7.7-3.2-9.5-5c-2-2-3.3-3.4-4.3-6.1c-0.2-0.5-0.8-0.6-1.1-0.1
					c-2.4,3.3,1.2,5.9,3.6,7.8c0.8,0.6,1.8,1.2,2.6,1.7c1.3,0.8,2.5,1.6,3.6,2.5c-1,0.7-2,1.5-3.1,2.2c-3,0-7.7-5.9-9.4-8
					c-0.2-0.2-0.5-0.2-0.8-0.1c-4.5,2.4,3.6,7.1,5,7.9c0.8,0.4,5.4,2.4,5.5,3.2c-1.1,1.1-2.2,2.2-3.3,3.3c-0.5-0.3-0.9-0.6-1.4-0.9
					c-1.2-0.4-2.6-1.9-3.5-2.7c-0.9-0.8-2.5-3.9-4-3.1c-3.6,1.7,4.6,7,5.6,7.5c1.3,0.7,4.3,1.4,5.2,2.5c0.8,1.1,0.1,3-1.2,3.3
					c-0.7,0.1-2.2-0.5-2.9-0.7c-2.3-0.8-5.2-3.7-7.6-2.9c-0.5,0.2-0.6,0.7-0.3,1c4.6,5.4,12.1,4.7,18.5,5.5
					c8.1,0.9,16.1-1.8,23.7-4.5C690.9,227.6,690.6,226.4,689.8,226.7z"/>
			</g>
		</g>
		<path class="st7" d="M646.4,135.6c-0.9,2.8-1.8,5.6-2.8,8.6c6.3,19.2,27.8,22.6,36.5,1.8c-4.8-2.5-6.4-7.8-8-15.6
			C667.7,142.1,656.5,137.1,646.4,135.6z"/>

			<ellipse transform="matrix(3.717037e-02 -0.9993 0.9993 3.717037e-02 557.6526 732.43)" class="st7" cx="658.9" cy="76.8" rx="64.1" ry="58.7"/>
		<path class="st6" d="M551.3,238.3l45.3-21.1c10.9-49.6,14.3-115.8,14.6-165.3c0,0,25-3.6,27.5-6.5c2.5-2.9,2.2-20,2.2-20
			s3.2,14.3,7.2,17c4,2.7,23.5,0.2,23.9-1.6s1.9-9.1,1.9-9.1l6.5,7l29.3,3.3c14.3,43.8,15.3,66.5,0.7,116.1l11.1,7.4
			c21-54.3,12.1-77-3.9-126.8s-113.2-49.9-126.2-4.5S551.3,238.3,551.3,238.3z"/>
		<g>
			<path class="st17" d="M653.1,68.1c-1.7-1.6-3.8-2.5-6.1-2.7c-2.2-0.2-4.5,0.1-6.7,0.7c-2.2,0.5-4.3,1.4-6.4,2.3
				c-1,0.5-2.1,1-3.1,1.5c-1,0.5-2,1.1-3,1.7c0.9-0.7,1.8-1.4,2.8-2.1c1-0.7,2-1.2,3-1.8c2.1-1.1,4.2-2,6.5-2.6
				c2.3-0.6,4.7-0.8,7-0.5c0.6,0.1,1.2,0.3,1.7,0.4c0.6,0.2,1.1,0.4,1.6,0.7C651.5,66.4,652.4,67.2,653.1,68.1z"/>
		</g>
		<g>
			<path class="st17" d="M703.1,69c-1.1-0.6-2.2-1.3-3.4-1.8c-1.1-0.6-2.3-1.1-3.4-1.6c-2.3-0.9-4.8-1.7-7.2-2.1
				c-2.5-0.4-5-0.5-7.4,0.1c-2.4,0.6-4.6,2-6.2,4c0.6-1.1,1.4-2.2,2.5-3c1-0.8,2.2-1.4,3.5-1.8c2.5-0.8,5.2-0.8,7.8-0.3
				c2.6,0.4,5.1,1.3,7.4,2.4C698.9,66.1,701.1,67.4,703.1,69z"/>
		</g>
		<ellipse transform="matrix(0.1997 -0.9799 0.9799 0.1997 432.3123 695.2178)" class="st18" cx="641.8" cy="83" rx="7" ry="7"/>

			<ellipse transform="matrix(0.1997 -0.9799 0.9799 0.1997 468.5847 736.6873)" class="st18" cx="685.3" cy="81.5" rx="6.8" ry="6.8"/>

			<ellipse transform="matrix(0.1997 -0.9799 0.9799 0.1997 435.1453 696.0999)" class="st19" cx="643.7" cy="81.7" rx="1.7" ry="1.7"/>

			<ellipse transform="matrix(0.1997 -0.9799 0.9799 0.1997 471.1259 735.3525)" class="st19" cx="685.7" cy="79.3" rx="1.7" ry="1.7"/>
		<g>
			<path class="st20" d="M669.8,71.6c-0.4,1.9-0.9,3.9-1.2,5.8c-0.2,1-0.3,1.9-0.1,2.8c0.2,0.9,0.5,1.9,0.9,2.8
				c0.7,1.8,1.6,3.6,2.7,5.2c1.1,1.6,2.5,3,3.9,4.3l0.2,0.2l-0.1,0.2c-0.4,1.4-1.4,2.3-2.5,2.8c-1.1,0.5-2.3,0.8-3.5,0.9
				c-1.2,0.1-2.3,0.1-3.5,0.1c-1.2,0-2.3,0-3.5,0c1.1-0.1,2.3-0.3,3.4-0.4c1.1-0.1,2.3-0.2,3.4-0.4c1.1-0.2,2.2-0.5,3.2-1
				c0.5-0.3,0.9-0.6,1.2-1c0.3-0.4,0.6-0.9,0.7-1.2l0.2,0.4c-1.5-1.3-2.9-2.8-4.1-4.4c-1.2-1.7-2-3.5-2.7-5.4c-0.3-1-0.6-1.9-0.8-3
				c-0.1-0.5-0.1-1.1,0-1.6c0.1-0.5,0.2-1,0.3-1.5C668.5,75.4,669.2,73.5,669.8,71.6z"/>
		</g>
		<path class="st21" d="M647.9,109.9c8.8,20.9,34.5,20.1,38.2-1.6L647.9,109.9z"/>
	</g>
	<rect x="64.8" y="939" class="st6" width="114" height="33.9"/>
	<rect x="63.3" y="831.8" class="st6" width="115.5" height="74.5"/>
	<g>
		<path class="st22" d="M299,966.7c8.1,3.3,14.7,10,23.3,12.2c0.2,0,0.4,0.1,0.6,0c2.3-1.7,0.4-0.9,0.1-1.4c-0.7-1.3-1.4-2.6-2-3.9
			c1.6,0.2,3.2,0.3,4.8,0.2c0.5,0,1,0,1.4-0.3c0.4-0.2,0.6-0.1,0.5-1.2c-0.1-1.1-0.3-0.4-0.5-0.5c-1.6-1.1-3.3-2.2-4.2-3.9
			c2,0.2,3.9,0.4,5.9,0.6c0.7,0.1,0.8,0.9,1.9-0.6c1.1-1.5-0.3-1.3-0.9-1.8c-1.1-1-2.3-2-3.4-2.9c1.9,0.1,3.8,0.1,5.7,0.2
			c0.2,0,0.4,0,0.6-0.1c0.2-0.1,0.8,1.8,0.3-0.7s-0.6-1.4-1.2-1.8c-0.6-0.4-1.4-0.7-2.1-0.9c-6.6-1.2-10.3-4.3-9-6.2
			c0.2-0.3,2.3-2,2.2-2.4c-0.2-0.7,0.6,1.3,0.2,0.7c-0.6-1,1.7,0.8,2.1,0.2c0.1-0.1-0.5-1.9-0.5-2c0-0.1-0.1-0.2-0.2-0.3
			c-1.9-1.8-4.8-1.9-7.4-1.8c-1.5,0.1-3,0.2-4.3,0.7c-1.1,0.4-2,1.1-2.9,1.8c-5.2,4-9,9.7-10.7,16"/>
	</g>
	<ellipse class="st7" cx="131.7" cy="817.1" rx="45.9" ry="60.8"/>
	<path class="st6" d="M57.7,923L79,895.5c0.7-45.2,15.4-27.8,6.9-71c0,0,21.5,2.8,9.9-27.6c-1.2-3.2,4.5,1.5,4.5,1.5s4,2.5,7.4,5.2
		c13.3,10.4,45.1-0.1,31.6-14.4c-1.1-1.2-3.2-3.8-3.2-3.8l14.5,9.1l17.7-15c16,27.1,3.1,68.3,2.1,110.4l15.9,19.4
		c8.7-51.1,5.3-101.8-17.4-142.4C146,726.3,61.3,743.5,58,785.4C54.7,827.3,57.7,923,57.7,923z"/>
	<polyline class="st23" points="297.7,990.6 304.6,981.3 419.3,834.5 	"/>
	<path class="st7" d="M70.3,1060.5c30.5,2.5,63.9-11.1,103.8,2.6c0.8,48.8,0.2,95.4-2.5,138.6c0,0-20.9,96.8-26.4,154.7
		c-7,4.7-14.5,4.2-22.4,0c-2.6-70.3,2.4-121.1,15.8-150.7c-2.7-31.6-9.3-75.3-15.8-128.4l-2.8-7.7c3.5,6.7,4.7,20.6,4.2,39.4
		c0,0-1.1,24.3-2.2,37.4c-1.1,13.7-2.5,28.6-4.1,44.2c-5.2,52-11.8,111.4-12.8,160.4c-7.5,7.2-23.3,10.5-22.9,0
		c1-23.5,1.5-35.2,2.1-37.1c2.8-9.3-4-32-2.4-77.7c1.1-32-10.4-96.8-10.4-96.8s-10.1-79.6-4.7-81C68,1058,69.3,1059.3,70.3,1060.5z"
		/>
	<path class="st24" d="M60.6,1074.7c7.9,3,14.3,9.2,22.6,11.1c0.2,0,0.4,0.1,0.5,0c2.2-1.6,0.3-0.9,0.1-1.3c-0.7-1.2-1.3-2.4-2-3.6
		c1.6,0.2,3.1,0.2,4.7,0.2c0.5,0,1,0,1.4-0.2c0.4-0.2,0.6-0.1,0.5-1.1c-0.1-1-0.3-0.4-0.5-0.5c-1.5-1-3.2-2-4-3.6
		c1.9,0.2,3.8,0.4,5.7,0.6c0.7,0.1,0.8,0.8,1.9-0.6c1.1-1.4-0.3-1.2-0.8-1.6c-1.1-0.9-2.2-1.8-3.3-2.7c1.8,0.1,3.7,0.1,5.5,0.2
		c0.2,0,0.4,0,0.5-0.1c0.2-0.1,0.7,1.7,0.3-0.6c-0.4-2.3-0.6-1.3-1.2-1.6c-0.6-0.4-1.3-0.7-2-0.8c-2.6-0.4-5.4-1.2-7.5-2.8
		c-1.5-1.2-2.2-3.4,0.4-3.9c0.9-0.2,2.1,0.1,2.6-0.6c0.6-0.7,0-1.8-0.7-2.4c-1.6-1.4-3.9-1.9-6-1.8c-2.2,0.1-4.8,0.5-6.6,1.9
		c-1.8,1.4-3.6,2.7-5.2,4.3c-3.1,3.2-5.4,7.1-6.7,11.3"/>
	<g>
		<g>
			<path class="st25" d="M125.9,1097c-0.1-9.8-5.3-18.6-13.8-23.4c-1.4-0.8-2.7,1.4-1.3,2.2c7.8,4.4,12.5,12.3,12.5,21.2
				C123.4,1098.7,125.9,1098.7,125.9,1097L125.9,1097z"/>
		</g>
	</g>
	<g>
		<g>
			<path class="st25" d="M124,1089.7c8.7,4.8,11.8-8.4,17.5-11.4c1.4-0.8,0.2-2.9-1.3-2.2c-2.4,1.3-4,3.3-5.5,5.5
				c-2,3.1-5.1,8.4-9.5,5.9C123.8,1086.7,122.6,1088.9,124,1089.7L124,1089.7z"/>
		</g>
	</g>
	<g>
		<g>
			<path class="st5" d="M127,955c0.9,0.3,0.8,1.4,0.2,2c-0.3,0.3-0.6,0.4-1,0.5c-0.2,0.1-0.5,0.1-0.5,0.4c-0.1,0.6,0.7,0.5,1.1,0.4
				c0.7-0.3,1-1.1,1-1.8c-0.1-0.4-0.3-0.8-0.6-1.1c-0.4-0.3-1.2-0.4-1.4-0.9c-0.1,0.1-0.2,0.2-0.3,0.4c1.4,0.5,0.7,2.4-0.7,1.9
				c-0.3-0.1-0.4,0.4-0.1,0.5c0.7,0.3,1.4,0.6,2.2,0.9c0-0.2,0-0.3-0.1-0.5c-0.5,0.3-1.9,1-2.1-0.1c-0.1,0.1-0.3,0.2-0.4,0.2
				c0.8,0.7,2,0.2,2.4-0.7c0.4-0.9,0.5-2.8-0.5-3.3c-0.2-0.1-0.4,0-0.4,0.2c0,0.3,0,0.6,0.2,0.9c0.1,0.2,0.2,0.4,0.3,0.6
				c0,0.1,0.1,0.1,0.1,0.2c0.3,0.4,0.1,0.5-0.5,0.2c0.1-0.3-0.4-0.4-0.5-0.1c-0.3,0.8,0.6,1.6,1.3,1c1-0.8-0.5-1.9-0.4-2.7
				c-0.1,0.1-0.3,0.1-0.4,0.2c1.2,0.7,0.2,4.5-1.3,3.3c-0.2-0.2-0.5,0-0.4,0.2c0.3,1.5,2,0.9,2.8,0.4c0.2-0.1,0.1-0.4-0.1-0.5
				c-0.7-0.3-1.4-0.6-2.2-0.9c0,0.2-0.1,0.3-0.1,0.5c2,0.7,3-2.3,0.9-2.9c-0.2-0.1-0.4,0.2-0.3,0.4c0.4,0.8,1.5,0.6,1.8,1.5
				c0.2,0.4,0.1,0.8,0,1.1c-0.1,0.2-0.3,0.4-0.5,0.5c-0.3,0.2-0.3,0.2-0.1,0.2c0.3,0,0.7-0.3,0.9-0.5c1-0.9,1.1-2.5-0.3-3
				C126.8,954.4,126.7,954.9,127,955L127,955z"/>
		</g>
	</g>
	<g>
		<g>
			<path class="st5" d="M176.5,954.6c-0.1,0.5-0.5,0.8-0.9,1c-0.3,0.1,0,0.6,0.3,0.4c0.6-0.3,1-0.7,1.1-1.3
				C177.1,954.4,176.6,954.3,176.5,954.6L176.5,954.6z"/>
		</g>
	</g>
	<path class="st7" d="M83.4,1346.9l0,21.3c6.8,15.1,25.6,24,48.6,30.7c4.5,1.1,12.4-6.5,14-8.9c1.6-2.4-31.7-19.8-40.1-29.6
		l-0.5-13.5"/>
	<path class="st7" d="M122.1,1340.6l0,22.3c6.4,15.8,23.9,25.1,45.3,32.2c4.2,1.2,11.6-6.8,13.1-9.4c1.5-2.6-29.6-20.7-37.4-31
		l-0.5-14.1"/>
	<g>
		<g>
			<path class="st5" d="M143,975.1c0.2,5.8,2.2,11.4,1.8,17.2c-0.4,5.7-2.1,11.1-1.5,16.9c0,0.3,0.5,0.3,0.5,0
				c-0.5-5.8,1.2-11.2,1.5-16.9c0.4-5.8-1.6-11.4-1.8-17.2C143.4,974.7,142.9,974.7,143,975.1L143,975.1z"/>
		</g>
	</g>
	<g>
		<g>
			<path class="st5" d="M123.2,971.1c6-1.4,11.6-7.7,12.7-13.7c0.1-0.3-0.4-0.4-0.5-0.1c-1.1,5.8-6.5,12-12.4,13.4
				C122.7,970.7,122.9,971.1,123.2,971.1L123.2,971.1z"/>
		</g>
	</g>
	<path class="st7" d="M108.3,870.5l0.6,19.8c-12.1,1-25.2,6.8-39,16.8l-67.3,93.7c-6.1,8.2,40.3,51.5,62.9,78.8l3.4-17.7
		c0,0-37.1-59.3-33.5-63.8c3.6-4.4,46.4-58,46.4-58c19.1,53.2,17.2,94.6-9,121.1l101,2c-6.4-24.6-10.2-62.7-9.9-93.9
		c24.4-11.2,13.2-29.3,0.3-43.7l55.4,73.1c2.3,3,7,3.7,14.8,0.6l65.1-30.9l10.2-16.6c0,0-75,21.1-78.5,21.1
		c-3.5,0-56.2-79.1-60.9-82.8c-4.7-3.7-31.9-1.5-31.9-1.5l-1.1-11L108.3,870.5z"/>
	<path class="st26" d="M113.3,972.9c30.2-4.9,25.2-24.9,10.4-33.9"/>
	<g>
		<g>
			<path class="st25" d="M174.4,952.3c0.3,1.4-1,2.7-0.3,3.9c0.7,1.2,2.3,1,3.3,0.2c1-0.8,1.8-2.2,1.4-3.5c-0.3-1.3-1.3-2.1-2.3-2.9
				c-1-0.7-2.4,0.7-1.7,1.7c0.2,0.3,1,1.2,0.7,1.5c-0.8,0.9-0.1,2.5,1.2,2.1c0.2,0,0.3-0.1,0.5-0.1c-0.5-0.6-0.9-1.2-1.4-1.8
				c-0.1,0.1-0.2,0.3-0.3,0.4c-0.6,0.2-1,0.7-0.9,1.4c0.1,0.6,0.6,1.1,1.2,1.1c1.3-0.1,2.7-0.6,3.1-2c0.3-1.2-0.3-2.5-1.6-2.8
				c-1.6-0.4-2.2,2-0.7,2.4c-0.3-0.1-0.1-0.2-0.2-0.3c-0.1,0-0.5,0.2-0.7,0.2c0.1,0.8,0.2,1.6,0.3,2.5c0.8-0.3,1.4-0.8,1.8-1.5
				c0.6-0.9-0.4-2.2-1.4-1.8c-0.2,0-0.3,0.1-0.5,0.1c0.4,0.7,0.8,1.4,1.2,2.1c1.2-1.5,0.7-3.1-0.3-4.6c-0.6,0.6-1.1,1.1-1.7,1.7
				c0.4,0.3,1,0.7,1.1,1.1c0.2,0.5-0.3,0.8-0.5,1.2c-0.5,0.2-0.3,0.4,0.6,0.7c0-0.1,0.1-0.2,0.1-0.3c0.2-0.3,0.3-0.8,0.3-1.1
				c0.1-0.7,0.1-1.4-0.1-2.1C176.5,950.1,174.1,950.7,174.4,952.3L174.4,952.3z"/>
		</g>
	</g>
	<path class="st26" d="M156.9,972.1c30.9-8.4,24.1-33.7,8.5-37.2"/>
	<path class="st27" d="M131.8,898.3c0.6-2.9,3.9-4.4,6.8-4.4c2.5,0,4.9,0.9,7.3,1.4c2.4,0.5,5.1,0.8,7.3-0.4"/>
	<path class="st27" d="M118.4,897.6c-2.5-0.5-5.2-0.2-7.5,0.8c-2.4,1.1-4.4,3-6.9,3.8c-2.5,0.8-5.2,0.5-7.8,0.2"/>
	<g>
		<g>
			<path class="st5" d="M67.6,1078c-1.6-1.2-3.5-1.2-5.4-1.1c-0.3,0-0.3,0.5,0,0.5c1.8-0.1,3.6-0.2,5.1,1
				C67.6,1078.7,67.8,1078.2,67.6,1078L67.6,1078z"/>
		</g>
	</g>
	<g>
		<g>
			<path class="st5" d="M79,1060c-0.6-1-0.9-2-0.9-3.2c0-0.3-0.5-0.3-0.5,0c0,1.2,0.3,2.4,0.9,3.4C78.7,1060.6,79.1,1060.3,79,1060
				L79,1060z"/>
		</g>
	</g>
	<g>
		<g>
			<path class="st25" d="M127.4,956.1c0.3,1.4-1,2.7-0.3,3.9c0.7,1.2,2.3,1,3.3,0.2c1-0.8,1.8-2.2,1.4-3.5c-0.3-1.3-1.3-2.1-2.3-2.9
				c-1-0.7-2.4,0.7-1.7,1.7c0.2,0.3,1,1.2,0.7,1.5c-0.8,0.9-0.1,2.5,1.2,2.1c0.2,0,0.3-0.1,0.5-0.1c-0.5-0.6-0.9-1.2-1.4-1.8
				c-0.1,0.1-0.2,0.3-0.3,0.4c-0.6,0.2-1,0.7-0.9,1.4c0.1,0.6,0.6,1.1,1.2,1.1c1.3-0.1,2.7-0.6,3.1-2c0.3-1.2-0.3-2.5-1.6-2.8
				c-1.6-0.4-2.2,2-0.7,2.4c-0.3-0.1-0.1-0.2-0.2-0.3c-0.1,0-0.5,0.2-0.7,0.2c0.1,0.8,0.2,1.6,0.3,2.5c0.8-0.3,1.4-0.8,1.8-1.5
				c0.6-0.9-0.4-2.2-1.4-1.8c-0.2,0-0.3,0.1-0.5,0.1c0.4,0.7,0.8,1.4,1.2,2.1c1.2-1.5,0.7-3.1-0.3-4.6c-0.6,0.6-1.1,1.1-1.7,1.7
				c0.4,0.3,1,0.7,1.1,1.1c0.2,0.5-0.3,0.8-0.5,1.2c-0.5,0.2-0.3,0.4,0.6,0.7c0-0.1,0.1-0.2,0.1-0.3c0.2-0.3,0.3-0.8,0.3-1.1
				c0.1-0.7,0.1-1.4-0.1-2.1C129.5,953.8,127.1,954.5,127.4,956.1L127.4,956.1z"/>
		</g>
	</g>
	<path class="st21" d="M124.3,849.1c10.8,15.8,31.9,10.8,31.3-7.7L124.3,849.1z"/>
	<path class="st28" d="M144.3,815.6c2-10,9.5-12.5,18.4-5.4"/>
	<path class="st28" d="M105.2,826.5c2-10,9.5-12.5,18.4-5.4"/>
	<g>
		<path class="st20" d="M136.1,816.3c0.7,1.5,1.4,3,2,4.4c0.2,0.4,0.3,0.7,0.5,1c0.2,0.3,0.3,0.5,0.6,0.7c0.5,0.5,1.1,1,1.7,1.4
			c1.2,0.9,2.6,1.8,3.8,2.3c1.3,0.6,2.8,1.1,4.2,1.5l0.8,0.2l0.2,0.7c0.1,0.2,0.1,0.3,0.1,0.4c0,0.1,0,0.2,0,0.3c0,0.2,0,0.4,0,0.5
			c0,0.4-0.1,0.7-0.2,1c-0.2,0.6-0.5,1.2-0.9,1.6c-0.7,0.9-1.6,1.6-2.5,2c-0.9,0.5-1.7,0.8-2.6,1.2c-0.9,0.4-1.8,0.7-2.7,1
			c0.7-0.7,1.4-1.4,2.1-2c0.7-0.6,1.5-1.2,2.1-1.8c0.6-0.6,1.2-1.2,1.5-1.9c0.2-0.3,0.3-0.6,0.3-0.9c0-0.1,0-0.3,0-0.4
			c0-0.1,0-0.1,0-0.2c0,0,0,0,0-0.1c0,0,0-0.1,0,0.1l1,0.9c-1.7-0.3-3.3-0.8-4.9-1.5c-1.7-0.8-2.9-1.8-4.2-3c-0.6-0.6-1.2-1.2-1.7-2
			c-0.3-0.4-0.5-0.9-0.7-1.3c-0.1-0.4-0.2-0.9-0.3-1.3C136.2,819.6,136.1,818,136.1,816.3z"/>
	</g>

		<image style="overflow:visible;" width="605" height="907" xlink:href="23439305_10209769406182389_1944945066_n.png"  transform="matrix(0.1671 0 0 0.1671 367.772 698.4874)">
	</image>
	<g>
		<path class="st16" d="M432.8,797.3c1.4,0,2.8,0,4.2,0.1c0.9,0,1.8,0,2.6,0c0.1,0,0.2,0,0.3-0.1c-0.6-0.3-1.1-0.7-1.7-1"/>
		<g>
			<path class="st16" d="M432.8,799.8c1.5,0,3,0,4.5,0.1c1.2,0,2.9,0.3,3.9-0.4c1.5-1.1,1.7-3.3,0-4.3c-0.6-0.3-1.1-0.7-1.7-1
				c-2.7-1.7-5.3,2.6-2.5,4.3c0.6,0.3,1.1,0.7,1.7,1c0-1.4,0-2.9,0-4.3c0,0-0.1,0.1-0.1,0.1c0.4-0.1,0.8-0.2,1.3-0.3
				c-2.3,0.2-4.7,0-7-0.1C429.6,794.8,429.6,799.8,432.8,799.8L432.8,799.8z"/>
		</g>
	</g>
	<g>
		<g>
			<path class="st16" d="M315.7,954.8c1.3-0.2,1.7,0.2,2.6,1.1c1.2,1.2,3.2,1.5,4.6,0.3c1.4-1.2,1.6-3.2,0.7-4.7
				c-0.8-1.5-2.4-2.3-3.9-2.9c-0.9-0.4-2.1,0.2-2.6,0.9c-0.6,0.9-0.6,1.8-0.2,2.8c0.4,0.9,0.8,1.8,1.3,2.8c0.6,1.2,2.3,1.5,3.4,0.9
				c1.3-0.7,1.5-2.2,0.9-3.4c-0.4-0.9-0.8-1.8-1.3-2.8c-0.9,1.2-1.9,2.4-2.8,3.7c0.2,0.1,0.4,0.2,0.5,0.3c0.8,0.6-0.3,0.2,0.3-0.7
				c0.3-0.3,0.6-0.6,0.9-0.9c0,0,0.1,0,0.1,0c0.4,0,0.9,0,1.3,0c0.2,0,0.5,0.5,0.1,0.1c-0.2-0.2-0.4-0.4-0.6-0.6
				c-0.5-0.4-1-0.8-1.6-1.1c-1.2-0.6-2.5-0.8-3.7-0.7c-1.3,0.2-2.5,1-2.5,2.5C313.2,953.6,314.4,955,315.7,954.8L315.7,954.8z"/>
		</g>
	</g>
	<rect x="612.2" y="834.1" class="st6" width="114.9" height="74.2"/>
	<rect x="613.7" y="940.9" class="st6" width="113.4" height="33.8"/>
	<path class="st7" d="M656.9,872.7l0.6,19.7c-12.1,1-25,6.8-38.8,16.8l-66.9,93.3c-6.9,11.8,54.9,19.9,79,38.3l9.5-15.4
		c0,0-57.5-23.7-54-28.1c3.5-4.4,44.2-55.3,44.2-55.3c19,53,17.1,94.3-9,120.7c-0.3,1.7,112.2,25.1,103.4,7.4
		c-5.4-10.9-13.1-67.9-12.8-99c24.3-11.2,13.1-29.2,0.3-43.5l55.1,72.8c2.3,3,6.9,3.7,14.7,0.6l64.7-30.8l10.1-16.6
		c0,0-74.6,21-78.1,21c-3.5,0-55.9-78.8-60.6-82.5s-31.7-1.5-31.7-1.5l-1.1-10.9L656.9,872.7z"/>
	<g>
		<path class="st22" d="M846.6,968.5c8.1,3.3,14.7,10,23.1,12.1c0.2,0,0.4,0.1,0.6,0c2.3-1.7,0.4-0.9,0.1-1.4
			c-0.7-1.3-1.3-2.6-2-3.9c1.6,0.2,3.2,0.3,4.8,0.2c0.5,0,1,0,1.4-0.3c0.4-0.2,0.6-0.1,0.5-1.2c-0.1-1.1-0.3-0.4-0.5-0.5
			c-1.6-1.1-3.3-2.2-4.1-3.9c1.9,0.2,3.9,0.4,5.8,0.6c0.7,0.1,0.8,0.9,1.9-0.6c1.1-1.5-0.3-1.3-0.9-1.8c-1.1-1-2.3-1.9-3.4-2.9
			c1.9,0.1,3.8,0.1,5.6,0.2c0.2,0,0.4,0,0.6-0.1c0.2-0.1,0.8,1.8,0.3-0.7s-0.6-1.4-1.2-1.8c-0.6-0.4-1.3-0.7-2.1-0.8
			c-6.5-1.2-10.2-4.3-8.9-6.2c0.2-0.3,2.3-2,2.2-2.4c-0.2-0.7,0.6,1.3,0.2,0.7c-0.6-1,1.7,0.8,2.1,0.2c0.1-0.1-0.5-1.9-0.5-2
			c0-0.1-0.1-0.2-0.2-0.3c-1.9-1.8-4.7-1.9-7.3-1.8c-1.5,0.1-2.9,0.2-4.3,0.7c-1.1,0.4-2,1.1-2.9,1.8c-5.1,4-8.9,9.7-10.7,15.9"/>
	</g>
	<g>
		<polyline class="st23" points="845.3,992.3 852.2,983.1 966.3,836.8 		"/>
		<g>

				<image style="overflow:visible;" width="605" height="907" xlink:href="23439305_10209769406182389_1944945066_n.png"  transform="matrix(0.1662 0 0 0.1664 916.0195 700.3191)">
			</image>
		</g>
		<g>
			<defs>
				<rect id="SVGID_1_" x="936.8" y="724.9" width="59" height="97.3"/>
			</defs>
			<clipPath id="SVGID_2_">
				<use xlink:href="#SVGID_1_"  style="overflow:visible;"/>
			</clipPath>

				<rect x="947.2" y="753.5" transform="matrix(-0.9997 2.322815e-02 -2.322815e-02 -0.9997 1953.8854 1496.7749)" class="st29" width="42.1" height="12.5"/>
			<path class="st29" d="M975,715.6c3.8,0.2,8.9,0.5,13.8-0.1l0.6,25.4l-42.6,1l-0.6-27.5l14.7-0.3
				C965.6,714.7,970.3,715.3,975,715.6z"/>
			<path class="st30" d="M953.6,713c7.1,0.9,14.3,2.1,21.4,2.5c1.4,0.1,2.9,0.2,4.5,0.2c-2.2,8.7-8.2,15-15.6,15.2
				c-8.3,0.2-15.3-7.5-17-17.9C949.1,713.1,951.4,713.1,953.6,713z"/>
			<path class="st29" d="M947.3,713.1c0.6,7,2.1,14.8,2.5,22.6l-5.7,7.3c-2-10.2-2.6-20.3-1.5-29.9
				C944.1,713.1,945.7,713.1,947.3,713.1z"/>
			<path class="st29" d="M991.3,715.1c0.4,15.4,0.3,31.9,0.3,31.9l-8.1-10c-0.6-14.7-4.7-11.4-3.8-21.3
				C983.4,715.9,987.5,715.8,991.3,715.1z"/>
			<path class="st30" d="M969,804.7l0.3-0.9c-0.7,2.8-0.8,7.2-0.5,12.7c0,0,0.6,9,1.1,13.9c0.3,2.4,0.5,4.9,0.8,7.5
				c2-1.3,4.4-2.2,7.4-2.2c3.7,0,6.6,1.2,8.7,3.2c0.8-6.6,1.5-11.6,1.5-11.6s3-29.7,1.1-30.2c-0.4-0.1-0.9,0.4-1.3,0.8
				c-11.2,1.2-23.7-3.6-38.3,1.9c0.1,18.2,0.7,35.5,2.1,51.5c0,0,0.5,2,1.2,5.2c3.4-0.1,6.8,0.1,10.1,0.2c0.9,0,1.7,0.1,2.6,0.1
				c-0.5-1.5-1.1-3-1.7-4.3C964.9,840.8,967,824.5,969,804.7z"/>
			<g class="st31">
				<g>
					<path class="st5" d="M991.7,802.9c-2,0.9-3.8,2.3-5.7,3.3c-0.5,0.3-2.5,1.2-2.6,1c0.1,0.1,0.9-1.6,0.9-1.5
						c0.1-0.2,0-0.4-0.2-0.4c-3.6,0.4-1.7,0-0.6-1.5c0.1-0.1,0-0.4-0.2-0.4c-0.5,0.1-2,0.5-2.4,0.2c-0.3-0.3,0.8-0.9,1.3-1.3
						c0.2-0.1,0-0.4-0.2-0.4c-0.5,0-1.8,0.3-2.3,0.1c-0.2-0.1-0.3,0.5,0.2,0.1c0.9-0.9,3.6-0.9,4.2-2.3c0.5-1.1-0.6-0.9-0.7-1.4
						c0,0,1.1-1.2,1.4-1.3c0.8-0.3,2,0.4,2.6,0.8c1.9,1.2,3.3,3.2,4.1,5.3c0.1,0.3,0.6,0.2,0.5-0.1c-0.9-2.5-2.9-5.4-5.5-6.3
						c-1.3-0.4-4.6-0.4-4.4,1.6c0,0.1,0.1,0.2,0.2,0.2c0.6,0.3,0.5,0,0.5,0.9c0,1.1-0.8,1-1.7,1.3c-0.4,0.1-1.2,0.2-1.5,0.5
						c-0.2,0.2-0.4,1-0.2,1.3c0.1,0.1,0.3,0.1,0.4-0.1c-0.1,0.1,2.9-1.2,0.4,0.7c-0.1,0.1-0.1,0.2-0.1,0.3c0.1,0.3,0.3,0.6,0.6,0.8
						c0.1,0,0.2,0,0.3,0c0.3-0.1,0.6-0.1,0.8-0.2c1-0.3,1,0-0.1,0.7c-0.1,0-0.3,0-0.3,0.2c-0.1,0.3-0.1,0.6,0.1,0.8
						c0.1,0.1,0.8,0.2,0.7,0.2c-0.8-0.3,3.2,0.4,0.7,0.8c-0.1,0-0.2,0.1-0.2,0.2c0,2,8.5-3.4,9.2-3.7
						C992.3,803.2,992,802.8,991.7,802.9L991.7,802.9z"/>
				</g>
			</g>
			<g class="st31">
				<g>
					<path class="st25" d="M968.7,813c0-3.4,1.7-6.4,4.5-8.1c0.3-0.2,0-0.6-0.3-0.4c-3,1.8-4.8,5-4.8,8.6
						C968.2,813.3,968.7,813.3,968.7,813L968.7,813z"/>
				</g>
			</g>
			<g class="st31">
				<g>
					<path class="st25" d="M968.7,810.5c-1.7,1-3-0.9-3.9-2.2c-0.5-0.8-1.1-1.5-2-1.9c-0.3-0.1-0.5,0.3-0.3,0.4c2,1,3.4,5.8,6.4,4.1
						C969.3,810.7,969,810.3,968.7,810.5L968.7,810.5z"/>
				</g>
			</g>
			<g class="st31">
				<g>
					<path class="st5" d="M966.2,759.2c-0.4,0.2-0.5,0.5-0.4,0.9c0.1,0.2,0.2,0.4,0.4,0.5c0.1,0.1,0.4,0.1,0.5,0.2
						c0-0.1-0.1-0.2-0.1-0.3c0-0.2,0.1-0.5,0.2-0.7c0.1,0,0.1-0.1,0.2-0.1c0.1-0.1,0.2-0.1,0.2-0.3c0.1-0.2-0.1-0.5-0.3-0.4
						c-0.9,0.4-0.5,1.7,0.5,1.4c0-0.2-0.1-0.3-0.1-0.5c-0.3,0.1-0.5,0.2-0.8,0.3c-0.2,0.1-0.3,0.3-0.1,0.5c0.4,0.3,1.1,0.4,1.3-0.3
						c0.1-0.3-0.2-0.4-0.4-0.2c-0.3,0.3-0.6-0.8-0.3-0.9c-0.1-0.1-0.3-0.1-0.4-0.2c0,0.4-0.6,0.9,0,1.2c0.4,0.2,0.8-0.2,0.7-0.6
						c-0.1-0.3-0.6-0.2-0.5,0.1c0,0,0.3-0.3,0.3-0.4c0-0.1,0.1-0.2,0-0.3c0-0.2-0.2-0.3-0.4-0.2c-0.8,0.6-0.1,2.5,0.9,1.7
						c-0.1-0.1-0.3-0.2-0.4-0.2c-0.1,0.3-0.4,0-0.5,0c0,0.2,0,0.3-0.1,0.5c0.3-0.1,0.5-0.2,0.8-0.3c0.3-0.1,0.2-0.6-0.1-0.5
						c-0.3,0.1-0.3,0-0.2-0.4c-0.1-0.1-0.2-0.2-0.3-0.4c-0.1,0.1-0.3,0.2-0.4,0.2c-0.1,0.1-0.2,0.2-0.3,0.3c-0.1,0.2-0.1,0.5,0,0.7
						c0.2,0.3,0.9,0.7,1,0.2c0-0.1,0-0.2-0.1-0.3c-0.1-0.1-0.1,0-0.2-0.1c-0.1,0-0.1,0-0.2-0.1c-0.3-0.1-0.3-0.3-0.1-0.6
						C966.7,759.5,966.5,759,966.2,759.2L966.2,759.2z"/>
				</g>
			</g>
			<g class="st31">
				<g>
					<path class="st5" d="M947.7,759.8c0.1,0.3,0.2,0.4,0.5,0.6c0.3,0.1,0.5-0.3,0.3-0.4c-0.1,0-0.2-0.1-0.3-0.3
						C948.1,759.4,947.6,759.5,947.7,759.8L947.7,759.8z"/>
				</g>
			</g>
			<g class="st31">
				<g>
					<path class="st5" d="M960.3,767c0,2.1-0.7,4.2-0.5,6.3c0.1,2.1,0.8,4.2,0.7,6.3c0,0.3,0.5,0.3,0.5,0c0.1-2.2-0.6-4.1-0.7-6.3
						c-0.1-2.1,0.5-4.2,0.5-6.3C960.8,766.7,960.3,766.7,960.3,767L960.3,767z"/>
				</g>
			</g>
			<g class="st31">
				<g>
					<path class="st5" d="M968,765c-2.1-0.5-4.1-2.6-4.6-4.7c-0.1-0.3-0.5-0.2-0.5,0.1c0.5,2.2,2.6,4.6,4.9,5.1
						C968.1,765.6,968.3,765.1,968,765L968,765z"/>
				</g>
			</g>
			<path class="st30" d="M972.5,728.1l-0.1,7.3c4.5,0.3,9.3,2.3,14.5,5.9l25.6,34.1c2.3,3-14.4,19.4-22.5,29.7l-1.4-6.5
				c0,0,13.2-22.2,11.8-23.9c-1.4-1.6-17.6-21-17.6-21c-6.6,19.8-5.5,35.1,4.4,44.7l-37.3,1.6c2.2-9.1,3.2-23.2,2.8-34.8
				c-9.1-3.9-5.1-10.7-0.5-16.1l-19.8,27.5c-0.8,1.1-2.5,1.4-5.5,0.4l-24.3-10.9l-3.9-6.1c0,0,27.8,7.2,29.1,7.1s20-29.7,21.8-31.1
				c1.7-1.4,11.7-0.8,11.7-0.8l0.3-4.1L972.5,728.1z"/>
			<path class="st32" d="M971.5,765.9c-11.2-1.5-9.5-9-4.1-12.4"/>
			<g class="st31">
				<g>
					<path class="st25" d="M948.1,758.7c0,0.2-0.1,0.4,0,0.6c0,0.1,0.2,0.5,0.2,0.6c-0.1,0.1-0.4-0.3-0.4-0.4
						c-0.1-0.4,0.3-0.6,0.6-0.8c-0.1-0.1-0.3-0.2-0.4-0.3c-0.3,0.5-0.5,1-0.1,1.4c0.1-0.1,0.2-0.3,0.2-0.4c-0.1,0-0.1,0-0.2,0
						c-0.2-0.1-0.4,0.2-0.3,0.4c0.1,0.2,0.3,0.3,0.5,0.4c0-0.2,0.1-0.3,0.1-0.5c-0.1,0-0.2,0-0.3-0.1c-0.1,0-0.2-0.1-0.1-0.3
						c0.3-0.1,0.2-0.6-0.1-0.5c-0.3,0.1-0.5,0.4-0.4,0.8c0.1,0.4,0.6,0.5,1,0.6c0.2,0,0.4-0.4,0.1-0.5c-0.1,0-0.2-0.1-0.3-0.2
						c-0.1,0.1-0.2,0.2-0.3,0.4c0.1,0,0.1,0,0.2,0c0.3,0.1,0.4-0.2,0.2-0.4c-0.2-0.3,0-0.6,0.2-0.8c0.2-0.3-0.2-0.5-0.4-0.3
						c-0.3,0.3-0.7,0.6-0.7,1.1c0,0.4,0.3,0.7,0.6,0.9c0.2,0.2,0.6,0.2,0.8,0c0.1-0.1,0.1-0.2,0.1-0.4c0-0.1-0.1-0.3-0.2-0.4
						c-0.1-0.2-0.1-0.4-0.1-0.7C948.7,758.5,948.2,758.4,948.1,758.7L948.1,758.7z"/>
				</g>
			</g>
			<path class="st32" d="M954.9,766c-11.4-3.5-8.7-11.1-2.6-13.8"/>
			<g class="st31">
				<g>
					<path class="st33" d="M964.3,738.5c-1.3-3.5-5.7-0.3-8.1-1.2c-0.3-0.1-0.4,0.4-0.1,0.5c2.2,0.8,6.7-2,7.7,0.9
						C963.9,738.9,964.4,738.8,964.3,738.5L964.3,738.5z"/>
				</g>
			</g>
			<g class="st31">
				<g>
					<path class="st33" d="M969.1,738.4c2-0.4,3.1,0.7,4.8,1.4c1.1,0.5,2.3,0.3,3.5,0.2c0.3,0,0.2-0.5-0.1-0.5
						c-1.3,0.2-2.4,0.3-3.6-0.4c-0.6-0.3-1.1-0.7-1.7-1c-1-0.4-1.9-0.4-3-0.3C968.6,738,968.8,738.5,969.1,738.4L969.1,738.4z"/>
				</g>
			</g>
			<g class="st31">
				<g>
					<path class="st5" d="M989.5,804.7c0.5-0.4,1.1-0.4,1.8-0.4c0.3,0,0.3-0.5,0-0.5c-0.8,0-1.5,0-2.1,0.5
						C988.9,804.5,989.3,804.9,989.5,804.7L989.5,804.7z"/>
				</g>
			</g>
			<g class="st31">
				<g>
					<path class="st5" d="M985.2,798c0.2-0.4,0.3-0.9,0.3-1.4c0-0.3-0.5-0.3-0.5,0c0,0.4-0.1,0.8-0.3,1.1
						C984.7,798.1,985.1,798.3,985.2,798L985.2,798z"/>
				</g>
			</g>
			<g class="st31">
				<g>
					<path class="st25" d="M965.5,759.7c0,0.2-0.1,0.4,0,0.6c0,0.1,0.2,0.5,0.2,0.6c-0.1,0.1-0.4-0.3-0.4-0.4
						c-0.1-0.4,0.3-0.6,0.6-0.8c-0.1-0.1-0.3-0.2-0.4-0.3c-0.3,0.5-0.5,1-0.1,1.4c0.1-0.1,0.2-0.3,0.2-0.4c-0.1,0-0.1,0-0.2,0
						c-0.2-0.1-0.4,0.2-0.3,0.4c0.1,0.2,0.3,0.3,0.5,0.4c0-0.2,0.1-0.3,0.1-0.5c-0.1,0-0.2,0-0.3-0.1c-0.1,0-0.2-0.1-0.1-0.3
						c0.3-0.1,0.2-0.6-0.1-0.5c-0.3,0.1-0.5,0.4-0.4,0.8c0.1,0.4,0.6,0.5,1,0.6c0.2,0,0.4-0.4,0.1-0.5c-0.1,0-0.2-0.1-0.3-0.2
						c-0.1,0.1-0.2,0.2-0.3,0.4c0.1,0,0.1,0,0.2,0c0.3,0.1,0.4-0.2,0.2-0.4c-0.2-0.3,0-0.6,0.2-0.8c0.2-0.3-0.2-0.5-0.4-0.3
						c-0.3,0.3-0.7,0.6-0.7,1.1c0,0.4,0.3,0.7,0.6,0.9c0.2,0.2,0.6,0.2,0.8,0c0.1-0.1,0.1-0.2,0.1-0.4c0-0.1-0.1-0.3-0.2-0.4
						c-0.1-0.2-0.1-0.4-0.1-0.7C966,759.5,965.5,759.3,965.5,759.7L965.5,759.7z"/>
				</g>
			</g>
			<path class="st34" d="M966.4,720.3c-3.8,5.9-11.7,4.3-11.6-2.6L966.4,720.3z"/>
		</g>
	</g>
	<ellipse class="st7" cx="680.3" cy="819.4" rx="45.6" ry="60.5"/>
	<path class="st6" d="M606.6,925l21.2-27.4c0.7-45,15.3-27.7,6.8-70.7c0,0,21.4,2.8,9.8-27.5c-1.2-3.2,4.5,1.5,4.5,1.5
		s4,2.5,7.4,5.1c13.2,10.3,44.9-0.1,31.4-14.4c-1.1-1.2-3.2-3.8-3.2-3.8l14.4,9.1l17.6-15c15.9,27,3.1,68,2.1,110l15.8,19.4
		c8.6-50.9,5.3-101.5-17.3-141.9C694.5,729,610.2,746.1,607,787.9C603.7,829.6,606.6,925,606.6,925z"/>
	<path class="st7" d="M627.6,1061.6c30.3,2.5,95,0.2,97.4,8.5c2.4,8.4-13.2,93-16,136.1c0,0-9.9,92.7-15.4,150.4
		c-6.9,4.7-14.4,4.2-22.2,0c-2.6-70,6.2-118.3,8-152.4c1.6-31.5-1.5-72.7-8-125.5l-2.8-7.7c3.5,6.6,4.7,20.5,4.1,39.3
		c0,0-1.1,24.2-2.1,37.2c-1.1,13.7-2.5,28.5-4,44c0,0.3-0.1,1.3-0.3,2.6c1.1,1,4.1,15.3-1.9,16.8c-4.3,1.1-2.3,34.9-10.5,140.4
		c-4.5,2.3-17.8,9-21.5,4.4c-0.9-1.1-1.3-2.5-1.2-4.4c1-23.4,1.5-35.1,2.1-37c2.8-9.3-5-41.4-3.4-86.9c1.1-31.8,9.1-32,9.1-32
		s-22.2-123.9-17.1-132.6C626.7,1054.1,626.6,1060.5,627.6,1061.6z"/>
	<g>
		<g>
			<path class="st25" d="M674.4,1098.4c-0.1-9.7-5.2-18.5-13.7-23.3c-1.4-0.8-2.7,1.4-1.3,2.2c7.7,4.4,12.4,12.3,12.5,21.1
				C672,1100,674.5,1100,674.4,1098.4L674.4,1098.4z"/>
		</g>
	</g>
	<g>
		<g>
			<path class="st25" d="M672.6,1091c8.7,4.8,11.8-8.4,17.4-11.4c1.4-0.8,0.2-2.9-1.3-2.2c-2.4,1.3-4,3.3-5.5,5.5
				c-2,3-5.1,8.3-9.4,5.9C672.4,1088.1,671.2,1090.2,672.6,1091L672.6,1091z"/>
		</g>
	</g>
	<g>
		<g>
			<path class="st5" d="M675.5,956.9c0.9,0.3,0.8,1.4,0.2,2c-0.3,0.3-0.6,0.4-1,0.5c-0.2,0.1-0.5,0.1-0.5,0.4
				c-0.1,0.6,0.7,0.5,1,0.4c0.7-0.3,1-1.1,1-1.8c-0.1-0.4-0.3-0.8-0.6-1.1c-0.4-0.3-1.2-0.4-1.4-0.9c-0.1,0.1-0.2,0.2-0.3,0.4
				c1.4,0.5,0.7,2.4-0.7,1.9c-0.3-0.1-0.4,0.4-0.1,0.5c0.7,0.3,1.4,0.6,2.1,0.8c0-0.2,0-0.3-0.1-0.5c-0.5,0.3-1.9,1-2.1-0.1
				c-0.1,0.1-0.3,0.2-0.4,0.2c0.8,0.7,2,0.2,2.4-0.7c0.4-0.9,0.5-2.8-0.5-3.3c-0.2-0.1-0.4,0-0.4,0.2c0,0.3,0,0.6,0.2,0.9
				c0.1,0.2,0.2,0.4,0.3,0.6c0,0.1,0.1,0.1,0.1,0.2c0.3,0.4,0.1,0.5-0.5,0.2c0.1-0.3-0.4-0.4-0.5-0.1c-0.3,0.8,0.6,1.6,1.3,1
				c1-0.8-0.5-1.9-0.4-2.7c-0.1,0.1-0.3,0.1-0.4,0.2c1.2,0.7,0.2,4.5-1.3,3.3c-0.2-0.2-0.5,0-0.4,0.2c0.3,1.5,1.9,0.9,2.8,0.4
				c0.2-0.1,0.1-0.4-0.1-0.5c-0.7-0.3-1.4-0.6-2.1-0.8c0,0.2-0.1,0.3-0.1,0.5c2,0.7,3-2.3,0.9-2.9c-0.2-0.1-0.4,0.2-0.3,0.4
				c0.4,0.9,1.6,0.6,1.9,1.7c0.1,0.4,0,0.8-0.2,1.1c-0.1,0.1-0.6,0.6-0.6,0.6c0.2,0.1,0.9-0.4,1-0.5c1-0.8,1.2-2.5-0.2-3
				C675.4,956.3,675.2,956.8,675.5,956.9L675.5,956.9z"/>
		</g>
	</g>
	<g>
		<g>
			<path class="st5" d="M724.8,956.4c-0.1,0.5-0.5,0.8-0.9,1c-0.3,0.1,0,0.6,0.3,0.4c0.6-0.3,0.9-0.7,1.1-1.3
				C725.4,956.3,724.9,956.1,724.8,956.4L724.8,956.4z"/>
		</g>
	</g>
	<path class="st7" d="M632.2,1347.3v21.2c6.8,15,25.4,23.9,48.3,30.6c4.5,1.1,12.4-6.5,13.9-8.9c1.6-2.4-31.5-19.7-39.9-29.4
		l-0.5-13.4"/>
	<path class="st7" d="M670.7,1341l0,22.2c6.4,15.7,23.7,25,45.1,32c4.2,1.2,11.5-6.8,13-9.3c1.5-2.5-29.4-20.6-37.2-30.9l-0.5-14.1"
		/>
	<g>
		<g>
			<path class="st5" d="M691.1,976.8c0.2,5.8,2.2,11.4,1.7,17.2c-0.4,5.7-2,11.1-1.5,16.9c0.1,0.8,1.3,0.8,1.2,0
				c-0.5-5.7,1.1-11.2,1.5-16.9c0.4-5.8-1.6-11.4-1.7-17.2C692.3,976,691,976,691.1,976.8L691.1,976.8z"/>
		</g>
	</g>
	<g>
		<g>
			<path class="st5" d="M671.8,972.9c6-1.4,11.5-7.7,12.7-13.7c0.1-0.3-0.4-0.4-0.5-0.1c-1.1,5.8-6.5,11.9-12.3,13.3
				C671.3,972.4,671.5,972.9,671.8,972.9L671.8,972.9z"/>
		</g>
	</g>
	<path class="st26" d="M662,974.6c30-4.8,25.1-24.8,10.3-33.8"/>
	<g>
		<g>
			<path class="st25" d="M722.7,954.2c0.3,1.4-1,2.7-0.3,3.9c0.7,1.2,2.3,1,3.3,0.2c1-0.8,1.7-2.1,1.4-3.5c-0.3-1.3-1.3-2.1-2.3-2.9
				c-1-0.7-2.4,0.7-1.7,1.7c0.2,0.3,1,1.2,0.7,1.5c-0.8,0.9-0.1,2.5,1.2,2.1c0.2,0,0.3-0.1,0.5-0.1c-0.5-0.6-0.9-1.2-1.4-1.8
				c-0.1,0.1-0.2,0.3-0.3,0.3c-0.6,0.2-1,0.7-0.9,1.4c0.1,0.6,0.6,1.1,1.2,1.1c1.3-0.1,2.7-0.6,3.1-2c0.3-1.2-0.3-2.5-1.6-2.8
				c-1.6-0.4-2.2,2-0.7,2.4c-0.3-0.1-0.1-0.2-0.2-0.3c-0.1,0-0.5,0.2-0.7,0.2c0.1,0.8,0.2,1.6,0.3,2.5c0.8-0.3,1.4-0.8,1.8-1.5
				c0.6-0.9-0.4-2.2-1.4-1.8c-0.2,0-0.3,0.1-0.5,0.1c0.4,0.7,0.8,1.4,1.2,2.1c1.2-1.5,0.7-3.1-0.3-4.5c-0.6,0.6-1.1,1.1-1.7,1.7
				c0.4,0.3,1,0.7,1.1,1.1c0.2,0.5-0.3,0.8-0.5,1.2c-0.5,0.2-0.3,0.4,0.6,0.7c0-0.1,0.1-0.2,0.1-0.3c0.2-0.3,0.3-0.8,0.3-1.1
				c0.1-0.7,0.1-1.4-0.1-2.1C724.8,951.9,722.4,952.6,722.7,954.2L722.7,954.2z"/>
		</g>
	</g>
	<path class="st26" d="M705.3,973.9c30.8-8.3,24-33.6,8.5-37"/>
	<path class="st27" d="M680.4,900.4c0.6-2.8,3.8-4.4,6.7-4.4c2.5,0,4.8,0.9,7.2,1.4c2.4,0.5,5,0.8,7.2-0.4"/>
	<path class="st27" d="M667,899.7c-2.5-0.5-5.1-0.2-7.5,0.8c-2.4,1.1-4.4,3-6.9,3.8c-2.5,0.8-5.2,0.5-7.8,0.2"/>
	<g>
		<g>
			<path class="st5" d="M627.8,1061.5c-0.6-1-0.9-2-0.9-3.2c0-0.3-0.5-0.3-0.5,0c0,1.2,0.3,2.4,0.9,3.4
				C627.5,1062,628,1061.8,627.8,1061.5L627.8,1061.5z"/>
		</g>
	</g>
	<g>
		<g>
			<path class="st25" d="M676,957.9c0.3,1.4-1,2.7-0.3,3.9c0.7,1.2,2.3,1,3.3,0.2c1-0.8,1.7-2.1,1.4-3.5c-0.3-1.3-1.3-2.1-2.3-2.9
				c-1-0.7-2.4,0.7-1.7,1.7c0.2,0.3,1,1.2,0.7,1.5c-0.8,0.9-0.1,2.5,1.2,2.1c0.2,0,0.3-0.1,0.5-0.1c-0.5-0.6-0.9-1.2-1.4-1.8
				c-0.1,0.1-0.2,0.3-0.3,0.3c-0.6,0.2-1,0.7-0.9,1.4c0.1,0.6,0.6,1.1,1.2,1.1c1.3-0.1,2.7-0.6,3.1-2c0.3-1.2-0.3-2.5-1.6-2.8
				c-1.6-0.4-2.2,2-0.7,2.4c-0.3-0.1-0.1-0.2-0.2-0.3c-0.1,0-0.5,0.2-0.7,0.2c0.1,0.8,0.2,1.6,0.3,2.5c0.8-0.3,1.4-0.8,1.8-1.5
				c0.6-0.9-0.4-2.2-1.4-1.8c-0.2,0-0.3,0.1-0.5,0.1c0.4,0.7,0.8,1.4,1.2,2.1c1.2-1.5,0.7-3.1-0.3-4.5c-0.6,0.6-1.1,1.1-1.7,1.7
				c0.4,0.3,1,0.7,1.1,1.1c0.2,0.5-0.3,0.8-0.5,1.2c-0.5,0.2-0.3,0.4,0.6,0.7c0-0.1,0.1-0.2,0.1-0.3c0.2-0.3,0.3-0.8,0.3-1.1
				c0.1-0.7,0.1-1.4-0.1-2.1C678.1,955.7,675.7,956.3,676,957.9L676,957.9z"/>
		</g>
	</g>
	<path class="st21" d="M672.9,851.3c10.7,15.7,31.7,10.7,31.1-7.7L672.9,851.3z"/>
	<path class="st28" d="M692.8,818c2-10,9.5-12.4,18.3-5.4"/>
	<path class="st28" d="M653.9,828.8c2-10,9.5-12.4,18.3-5.4"/>
	<g>
		<path class="st20" d="M684.7,818.7c0.7,1.5,1.4,3,2,4.4c0.2,0.4,0.3,0.7,0.5,1c0.2,0.3,0.3,0.5,0.6,0.7c0.5,0.5,1.1,0.9,1.7,1.4
			c1.2,0.9,2.5,1.7,3.8,2.3c1.3,0.6,2.8,1.1,4.2,1.5l0.8,0.2l0.2,0.7c0.1,0.2,0.1,0.3,0.1,0.4c0,0.1,0,0.2,0,0.3c0,0.2,0,0.4,0,0.5
			c0,0.4-0.1,0.7-0.2,1c-0.2,0.6-0.5,1.2-0.8,1.6c-0.7,0.9-1.6,1.5-2.5,2c-0.9,0.5-1.7,0.8-2.6,1.2c-0.9,0.4-1.8,0.7-2.7,1
			c0.7-0.7,1.4-1.4,2.1-2c0.7-0.6,1.5-1.2,2.1-1.8c0.6-0.6,1.2-1.2,1.5-1.9c0.2-0.3,0.3-0.6,0.3-0.9c0-0.1,0-0.3,0-0.4
			c0-0.1,0-0.1,0-0.2c0,0,0,0,0-0.1c0,0,0-0.1,0,0.1l1,0.9c-1.7-0.3-3.3-0.8-4.9-1.5c-1.7-0.8-2.9-1.8-4.2-3c-0.6-0.6-1.2-1.2-1.7-2
			c-0.3-0.4-0.5-0.9-0.7-1.3c-0.1-0.4-0.2-0.9-0.3-1.3C684.7,822,684.6,820.4,684.7,818.7z"/>
	</g>
	<g>
		<path class="st16" d="M980.7,798.8c1.4,0,2.8,0,4.2,0.1c0.9,0,1.8,0,2.6,0c0.1,0,0.2,0,0.3-0.1c-0.5-0.3-1.1-0.7-1.6-1"/>
		<g>
			<path class="st16" d="M980.7,801.3c1.5,0,3,0,4.5,0.1c1.2,0,2.9,0.3,3.9-0.4c1.5-1.1,1.7-3.3,0-4.3c-0.5-0.3-1.1-0.7-1.6-1
				c-2.7-1.7-5.3,2.6-2.5,4.3c0.5,0.3,1.1,0.7,1.6,1c0-1.4,0-2.9,0-4.3c0,0-0.1,0.1-0.1,0.1c0.4-0.1,0.8-0.2,1.3-0.3
				c-2.3,0.2-4.7,0-7-0.1C977.5,796.2,977.5,801.2,980.7,801.3L980.7,801.3z"/>
		</g>
	</g>
	<path class="st24" d="M629.5,1041c7.8,3,14.2,9.2,22.4,11.2c0.2,0,0.4,0.1,0.5,0c2.2-1.6,0.3-0.9,0.1-1.3c-0.7-1.2-1.3-2.4-2-3.6
		c1.5,0.2,3.1,0.2,4.7,0.2c0.5,0,1,0,1.4-0.2s0.6-0.1,0.5-1.1c-0.1-1-0.3-0.4-0.5-0.5c-1.5-1-3.2-2-4-3.6c1.9,0.2,3.8,0.4,5.7,0.6
		c0.7,0.1,0.8,0.8,1.9-0.6c1.1-1.4-0.3-1.2-0.8-1.6c-1.1-0.9-2.2-1.8-3.3-2.7c1.8,0.1,3.7,0.1,5.5,0.2c0.2,0,0.4,0,0.5-0.1
		c0.2-0.1,0.7,1.7,0.3-0.6c-0.4-2.3-0.6-1.3-1.2-1.6c-0.6-0.4-1.3-0.7-2-0.8c-2.5-0.4-5.3-1.2-7.4-2.8c-1.5-1.2-2.2-3.4,0.4-3.9
		c0.9-0.2,2,0.1,2.6-0.6c0.6-0.7,0-1.8-0.7-2.4c-1.6-1.4-3.9-1.9-6-1.8c-2.2,0.1-4.8,0.5-6.5,1.9c-1.8,1.4-3.6,2.7-5.2,4.3
		c-3.1,3.2-5.4,7.1-6.6,11.4"/>
	<g>
		<g>
			<path class="st16" d="M632.3,1039.7c1.7-3.9,4.4-9.4,8.7-10.8c3.1-1,1.7-5.8-1.3-4.8c-5.8,1.9-9.4,7.8-11.7,13.1
				C626.7,1040.1,631,1042.6,632.3,1039.7L632.3,1039.7z"/>
		</g>
	</g>
	<g>
		<g>
			<path class="st16" d="M632.2,1037.6c-0.2-0.2-0.4-0.5-0.6-0.8c-0.2-0.3,0.3,0.5,0,0c-0.1-0.1-0.2-0.3-0.3-0.4
				c-0.7-1.1-2.2-1.7-3.4-0.9c-1.1,0.7-1.6,2.2-0.9,3.4c0.5,0.8,1,1.6,1.5,2.4c1.3-1,2.6-2,3.9-3c-0.4-0.3-0.8-0.7-1.1-1
				c-1-0.9-2.6-1-3.5,0c-0.9,1-1,2.6,0,3.5c0.4,0.3,0.8,0.7,1.1,1c0.9,0.8,2.3,1,3.3,0.2c1-0.7,1.3-2.2,0.6-3.2
				c-0.5-0.8-1-1.6-1.5-2.4c-1.4,0.8-2.9,1.7-4.3,2.5c0.5,0.8,1.1,1.5,1.7,2.2c0.9,1,2.7,1,3.5,0
				C633.2,1040.1,633.2,1038.6,632.2,1037.6L632.2,1037.6z"/>
		</g>
	</g>
	<g>
		<g>
			<path class="st16" d="M651.5,1051.5c0.1,0.2,0.3,0.4,0.4,0.7c0.3,0.4-0.1-0.4,0,0.1c0.1,0.2,0.1,0.4,0.2,0.6
				c0,0.1,0.1,0.3,0.1,0.4c0-0.3-0.1-0.4,0-0.1c0.1,1.3,1.1,2.6,2.5,2.5c1.3-0.1,2.6-1.1,2.5-2.5c-0.1-1.5-0.5-2.9-1.3-4.1
				c-0.7-1.1-2.2-1.7-3.4-0.9C651.3,1048.8,650.7,1050.3,651.5,1051.5L651.5,1051.5z"/>
		</g>
	</g>
	<g>
		<g>
			<path class="st16" d="M662.1,1041.5c0.3,0,0.6,0,0.9,0c1.3,0,2.6-1.1,2.5-2.5c-0.1-1.4-1.1-2.5-2.5-2.5c-0.3,0-0.6,0-0.9,0
				c-1.3,0-2.6,1.1-2.5,2.5C659.7,1040.3,660.7,1041.5,662.1,1041.5L662.1,1041.5z"/>
		</g>
	</g>
	<g>
		<g>
			<path class="st16" d="M875.2,952.5c-0.9-1.2-1.9-2-3.3-2.5c-0.2,1.6-0.4,3.3-0.7,4.9c-0.4-0.1-0.7-0.3-0.8-0.7
				c0.1,0.6,0.2,0.5,0.1-0.3c0.6-0.6,1.2-1.2,1.7-1.7c-0.1,0-0.1,0-0.2,0.1c0.4,0,0.9,0,1.3,0c0.1,0.1,0.3,0.1,0.4,0.2
				c-0.2-0.1-0.3-0.3-0.5-0.4c-0.2-0.2-0.5-0.3-0.7-0.4c-0.6-0.3-1.1-0.5-1.7-0.6c-1.1-0.3-2.3-0.3-3.5-0.3c-3.2-0.1-3.2,4.9,0,5
				c0.9,0,1.9,0,2.8,0.4c0.6,0.3,1,0.8,1.6,1c0.9,0.3,1.8,0.1,2.6-0.4c2.7-2.1-0.1-7-3.2-6.7c-2.9,0.3-3.3,3.8-0.7,4.9
				c0,0,0.2,0.2,0.3,0.2c0.8,1.1,2.2,1.6,3.4,0.9C875.3,955.3,876,953.6,875.2,952.5L875.2,952.5z"/>
		</g>
	</g>
	<g>
		<g>
			<path class="st16" d="M864.6,956.6c0.9-0.2,1.7-0.8,2.2-1.5c-0.5,0.2-0.6,0.3-0.2,0.2c0.2,0,0.4,0,0.7,0c0.6,0,1.2,0,1.8,0.1
				c-0.4-0.1-0.8-0.2-1.3-0.3c0.1,0.1,0.2,0.1,0.3,0.2c-0.4-0.5-0.8-1-1.1-1.5c-0.1-0.5,0.2,0.9,0.3,1.1c0.3,0.5,0.7,0.9,1.1,1.2
				c1,0.6,2.1,0.5,3.1,0.2c1.4-0.4,2.5-2.4,1.5-3.7c-0.5-0.6-0.9-1.2-1.4-1.8c-0.8-1.1-2.2-1.6-3.4-0.9c-1.1,0.6-1.7,2.3-0.9,3.4
				c0.5,0.6,0.9,1.2,1.4,1.8c0.5-1.2,1-2.4,1.5-3.7c0.2,0.1,0.4,0.1,0.6,0.2c0.3,0.3,0.6,0.6,0.9,0.9c0-0.1-0.1-0.1-0.1-0.2
				c0.1,0.4,0.2,0.8,0.3,1.3c-0.1-1.1-0.3-2-1.3-2.6c-0.9-0.6-2-0.6-3.1-0.6c-1,0-1.9,0-2.8,0.3c-0.5,0.2-0.9,0.4-1.3,0.8
				c-0.1,0.1-0.2,0.2-0.3,0.3c-0.3,0.3-0.3,0.3,0.2,0c-1.3,0.2-2.1,1.9-1.7,3.1C861.9,956.3,863.3,956.9,864.6,956.6L864.6,956.6z"
				/>
		</g>
	</g>
	<g>
		<defs>
			<rect id="SVGID_3_" x="388.6" y="723.2" width="59.4" height="97.6"/>
		</defs>
		<clipPath id="SVGID_4_">
			<use xlink:href="#SVGID_3_"  style="overflow:visible;"/>
		</clipPath>

			<rect x="399.1" y="751.8" transform="matrix(-0.9997 2.318950e-02 -2.318950e-02 -0.9997 858.0464 1506.3113)" class="st35" width="42.3" height="12.6"/>
		<path class="st35" d="M427.1,713.8c3.9,0.2,9,0.5,13.9-0.1l0.6,25.5l-42.9,1l-0.6-27.6l14.8-0.3
			C417.6,712.9,422.4,713.5,427.1,713.8z"/>
		<path class="st36" d="M405.6,711.2c7.2,0.9,14.3,2.1,21.5,2.5c1.4,0.1,2.9,0.2,4.5,0.2c-2.2,8.7-8.3,15.1-15.7,15.2
			c-8.3,0.2-15.4-7.5-17.1-18C401.1,711.3,403.3,711.3,405.6,711.2z"/>
		<path class="st35" d="M399.2,711.3c0.7,7.1,2.1,14.8,2.5,22.7l-5.7,7.3c-2-10.2-2.6-20.4-1.6-30
			C396,711.3,397.6,711.3,399.2,711.3z"/>
		<path class="st35" d="M443.5,713.3c0.4,15.5,0.3,32.1,0.3,32.1l-8.1-10c-0.6-14.7-4.7-11.4-3.8-21.3
			C435.5,714.1,439.7,714.1,443.5,713.3z"/>
		<path class="st36" d="M421,803.3l0.3-0.9c-0.7,2.9-0.8,7.3-0.5,12.8c0,0,0.6,9.1,1.1,13.9c0.3,2.4,0.5,5,0.8,7.6
			c2-1.4,4.5-2.2,7.5-2.2c3.7,0,6.6,1.3,8.8,3.2c0.8-6.6,1.5-11.7,1.5-11.7s3.1-29.8,1.1-30.3c-0.4-0.1-0.9,0.4-1.3,0.8
			c-11.3,1.2-23.8-3.6-38.5,1.9c0.1,18.2,0.7,35.6,2.1,51.7c0,0,0.5,2,1.2,5.2c3.4-0.1,6.8,0.1,10.2,0.2c0.9,0,1.7,0.1,2.6,0.1
			c-0.5-1.5-1.1-3-1.7-4.3C417,839.5,419,823.1,421,803.3z"/>
		<g class="st37">
			<g>
				<path class="st5" d="M443.9,801.5c-2,0.9-3.8,2.3-5.8,3.3c-0.5,0.3-2.5,1.2-2.6,1c0.1,0.1,0.9-1.6,0.9-1.5
					c0.1-0.2,0-0.4-0.2-0.4c-3.6,0.4-1.7,0-0.6-1.5c0.1-0.1,0-0.4-0.2-0.4c-0.5,0.1-2,0.5-2.4,0.2c-0.3-0.3,0.8-0.9,1.3-1.3
					c0.2-0.1,0-0.4-0.2-0.4c-0.5,0-1.8,0.3-2.3,0.1c-0.2-0.1-0.3,0.5,0.2,0.1c0.9-0.9,3.6-0.9,4.2-2.3c0.5-1.2-0.6-0.9-0.7-1.4
					c0,0,1.1-1.2,1.4-1.3c0.8-0.3,2,0.4,2.7,0.8c2,1.2,3.3,3.2,4.1,5.3c0.1,0.3,0.6,0.2,0.5-0.1c-0.9-2.5-2.9-5.4-5.6-6.3
					c-1.3-0.4-4.6-0.4-4.4,1.6c0,0.1,0.1,0.2,0.2,0.2c0.6,0.3,0.5,0,0.5,0.9c0,1.1-0.8,1-1.7,1.3c-0.4,0.1-1.2,0.2-1.5,0.5
					c-0.2,0.2-0.4,1-0.2,1.3c0.1,0.1,0.3,0.1,0.4-0.1c-0.1,0.1,2.9-1.2,0.4,0.7c-0.1,0.1-0.1,0.2-0.1,0.3c0.1,0.3,0.3,0.6,0.6,0.8
					c0.1,0,0.2,0,0.3,0c0.3-0.1,0.6-0.1,0.8-0.2c1-0.3,1,0-0.1,0.7c-0.1,0-0.3,0-0.3,0.2c-0.1,0.3-0.1,0.6,0.1,0.8
					c0.1,0.1,0.8,0.2,0.7,0.2c-0.8-0.3,3.3,0.4,0.7,0.8c-0.1,0-0.2,0.1-0.2,0.2c0,2,8.5-3.4,9.2-3.7
					C444.4,801.8,444.2,801.3,443.9,801.5L443.9,801.5z"/>
			</g>
		</g>
		<g class="st37">
			<g>
				<path class="st25" d="M420.7,811.6c0-3.4,1.7-6.4,4.6-8.2c0.3-0.2,0-0.6-0.3-0.4c-3.1,1.8-4.9,5-4.8,8.6
					C420.2,811.9,420.7,811.9,420.7,811.6L420.7,811.6z"/>
			</g>
		</g>
		<g class="st37">
			<g>
				<path class="st25" d="M420.8,809c-1.8,1-3-0.9-3.9-2.2c-0.5-0.8-1.1-1.5-2-1.9c-0.3-0.1-0.5,0.3-0.3,0.4c2,1,3.4,5.9,6.4,4.1
					C421.3,809.3,421,808.9,420.8,809L420.8,809z"/>
			</g>
		</g>
		<g class="st37">
			<g>
				<path class="st5" d="M418.2,757.5c-0.4,0.2-0.5,0.6-0.4,0.9c0.1,0.2,0.2,0.4,0.4,0.5c0.1,0.1,0.4,0.1,0.5,0.2
					c0-0.1-0.1-0.2-0.1-0.3c0-0.2,0.1-0.5,0.2-0.7c0.1,0,0.1-0.1,0.2-0.1c0.1-0.1,0.2-0.1,0.2-0.3c0.1-0.2-0.1-0.5-0.3-0.4
					c-0.9,0.4-0.5,1.7,0.5,1.4c0-0.2-0.1-0.3-0.1-0.5c-0.3,0.1-0.5,0.2-0.8,0.3c-0.2,0.1-0.3,0.3-0.1,0.5c0.4,0.3,1.1,0.4,1.3-0.3
					c0.1-0.3-0.2-0.4-0.4-0.2c-0.3,0.3-0.6-0.8-0.3-1c-0.1-0.1-0.3-0.1-0.4-0.2c0,0.4-0.6,0.9,0,1.2c0.4,0.2,0.8-0.2,0.7-0.6
					c-0.1-0.3-0.6-0.2-0.5,0.1c0,0,0.3-0.3,0.3-0.4c0-0.1,0.1-0.2,0-0.3c0-0.2-0.2-0.3-0.4-0.2c-0.8,0.6-0.1,2.5,0.9,1.7
					c-0.1-0.1-0.3-0.2-0.4-0.2c-0.1,0.3-0.4,0-0.5,0c0,0.2,0,0.3-0.1,0.5c0.3-0.1,0.5-0.2,0.8-0.3c0.3-0.1,0.2-0.6-0.1-0.5
					c-0.3,0.1-0.3,0-0.2-0.4c-0.1-0.1-0.2-0.2-0.3-0.4c-0.1,0.1-0.3,0.2-0.4,0.3c-0.1,0.1-0.2,0.2-0.3,0.3c-0.1,0.2-0.1,0.5,0,0.7
					c0.2,0.3,0.9,0.7,1,0.2c0-0.1,0-0.2-0.1-0.3c-0.1-0.1-0.1,0-0.2-0.1c-0.1,0-0.1,0-0.2-0.1c-0.3-0.1-0.3-0.3-0.1-0.6
					C418.8,757.8,418.5,757.4,418.2,757.5L418.2,757.5z"/>
			</g>
		</g>
		<g class="st37">
			<g>
				<path class="st5" d="M399.7,758.2c0.1,0.3,0.2,0.4,0.5,0.6c0.3,0.1,0.5-0.3,0.3-0.4c-0.1,0-0.2-0.1-0.3-0.3
					C400,757.8,399.6,757.9,399.7,758.2L399.7,758.2z"/>
			</g>
		</g>
		<g class="st37">
			<g>
				<path class="st5" d="M412.3,765.4c0,2.1-0.7,4.2-0.5,6.3c0.1,2.1,0.8,4.2,0.7,6.4c0,0.3,0.5,0.3,0.5,0c0.1-2.2-0.6-4.2-0.7-6.4
					c-0.1-2.1,0.5-4.2,0.5-6.3C412.8,765.1,412.3,765.1,412.3,765.4L412.3,765.4z"/>
			</g>
		</g>
		<g class="st37">
			<g>
				<path class="st5" d="M420,763.4c-2.1-0.5-4.2-2.7-4.6-4.7c-0.1-0.3-0.5-0.2-0.5,0.1c0.5,2.3,2.7,4.6,5,5.1
					C420.2,764,420.3,763.5,420,763.4L420,763.4z"/>
			</g>
		</g>
		<path class="st36" d="M424.6,726.3l-0.1,7.4c4.5,0.3,9.4,2.3,14.6,5.9l25.8,34.2c2.4,3-14.5,19.5-22.7,29.8l-1.4-6.5
			c0,0,13.2-22.3,11.9-24C451.4,771.4,435,752,435,752c-6.6,19.9-5.6,35.3,4.4,44.9l-37.5,1.6c2.2-9.2,3.3-23.3,2.8-34.9
			c-9.2-3.9-5.1-10.8-0.5-16.2l-19.9,27.6c-0.8,1.1-2.6,1.4-5.5,0.4l-24.4-10.9l-3.9-6.1c0,0,28,7.2,29.3,7.2s20.2-29.8,21.9-31.3
			c1.7-1.4,11.8-0.8,11.8-0.8l0.3-4.1L424.6,726.3z"/>
		<path class="st38" d="M423.6,764.3c-11.2-1.5-9.6-9-4.1-12.5"/>
		<g class="st37">
			<g>
				<path class="st25" d="M400.1,757.1c0,0.2-0.1,0.4,0,0.6c0,0.1,0.2,0.5,0.2,0.6c-0.1,0.2-0.4-0.3-0.4-0.4
					c-0.1-0.4,0.3-0.6,0.6-0.8c-0.1-0.1-0.3-0.2-0.4-0.3c-0.3,0.5-0.5,1-0.1,1.4c0.1-0.1,0.2-0.3,0.2-0.4c-0.1,0-0.1,0-0.2,0
					c-0.2-0.1-0.4,0.2-0.3,0.4c0.1,0.2,0.3,0.3,0.5,0.4c0-0.2,0.1-0.3,0.1-0.5c-0.1,0-0.2,0-0.3-0.1c-0.1,0-0.2-0.1-0.1-0.3
					c0.3-0.1,0.2-0.6-0.1-0.5c-0.3,0.1-0.5,0.5-0.4,0.8c0.1,0.4,0.6,0.5,1,0.6c0.2,0,0.4-0.4,0.1-0.5c-0.1,0-0.2-0.1-0.3-0.2
					c-0.1,0.1-0.2,0.2-0.3,0.4c0.1,0,0.1,0,0.2,0c0.3,0.1,0.4-0.2,0.2-0.4c-0.2-0.3,0-0.6,0.2-0.8c0.2-0.3-0.2-0.5-0.4-0.3
					c-0.4,0.3-0.7,0.6-0.7,1.1c0,0.4,0.3,0.7,0.6,0.9c0.2,0.2,0.6,0.2,0.8,0c0.1-0.1,0.1-0.2,0.1-0.4c0-0.1-0.1-0.3-0.2-0.4
					c-0.1-0.2-0.1-0.5-0.1-0.7C400.6,756.9,400.1,756.8,400.1,757.1L400.1,757.1z"/>
			</g>
		</g>
		<path class="st38" d="M406.9,764.4c-11.4-3.5-8.7-11.1-2.6-13.8"/>
		<g class="st37">
			<g>
				<path class="st33" d="M416.3,736.8c-1.3-3.5-5.8-0.3-8.1-1.2c-0.3-0.1-0.4,0.4-0.1,0.5c2.3,0.8,6.7-2,7.8,0.9
					C415.9,737.2,416.4,737.1,416.3,736.8L416.3,736.8z"/>
			</g>
		</g>
		<g class="st37">
			<g>
				<path class="st33" d="M421.1,736.7c2.1-0.4,3.1,0.7,4.8,1.4c1.1,0.5,2.3,0.3,3.5,0.2c0.3,0,0.2-0.5-0.1-0.5
					c-1.3,0.2-2.4,0.3-3.6-0.4c-0.6-0.3-1.1-0.7-1.7-1c-1-0.4-1.9-0.4-3-0.3C420.7,736.3,420.8,736.8,421.1,736.7L421.1,736.7z"/>
			</g>
		</g>
		<g class="st37">
			<g>
				<path class="st5" d="M441.7,803.2c0.5-0.4,1.2-0.4,1.8-0.4c0.3,0,0.3-0.5,0-0.5c-0.8,0-1.5,0-2.1,0.5
					C441.1,803.1,441.4,803.4,441.7,803.2L441.7,803.2z"/>
			</g>
		</g>
		<g class="st37">
			<g>
				<path class="st5" d="M437.4,796.6c0.2-0.4,0.3-0.9,0.3-1.4c0-0.3-0.5-0.3-0.5,0c0,0.4-0.1,0.8-0.3,1.1
					C436.8,796.6,437.2,796.8,437.4,796.6L437.4,796.6z"/>
			</g>
		</g>
		<g class="st37">
			<g>
				<path class="st25" d="M417.5,758.1c0,0.2-0.1,0.4,0,0.6c0,0.1,0.2,0.5,0.2,0.6c-0.1,0.2-0.4-0.3-0.4-0.4
					c-0.1-0.4,0.3-0.6,0.6-0.8c-0.1-0.1-0.3-0.2-0.4-0.3c-0.3,0.5-0.5,1-0.1,1.4c0.1-0.1,0.2-0.3,0.2-0.4c-0.1,0-0.1,0-0.2,0
					c-0.2-0.1-0.4,0.2-0.3,0.4c0.1,0.2,0.3,0.3,0.5,0.4c0-0.2,0.1-0.3,0.1-0.5c-0.1,0-0.2,0-0.3-0.1c-0.1,0-0.2-0.1-0.1-0.3
					c0.3-0.1,0.2-0.6-0.1-0.5c-0.3,0.1-0.5,0.5-0.4,0.8c0.1,0.4,0.6,0.5,1,0.6c0.2,0,0.4-0.4,0.1-0.5c-0.1,0-0.2-0.1-0.3-0.2
					c-0.1,0.1-0.2,0.2-0.3,0.4c0.1,0,0.1,0,0.2,0c0.3,0.1,0.4-0.2,0.2-0.4c-0.2-0.3,0-0.6,0.2-0.8c0.2-0.3-0.2-0.5-0.4-0.3
					c-0.4,0.3-0.7,0.6-0.7,1.1c0,0.4,0.3,0.7,0.6,0.9c0.2,0.2,0.6,0.2,0.8,0c0.1-0.1,0.1-0.2,0.1-0.4c0-0.1-0.1-0.3-0.2-0.4
					c-0.1-0.2-0.1-0.5-0.1-0.7C418.1,757.9,417.6,757.7,417.5,758.1L417.5,758.1z"/>
			</g>
		</g>
		<path class="st39" d="M418.4,718.5c-3.9,5.9-11.7,4.3-11.7-2.6L418.4,718.5z"/>
	</g>
	<g>
		<g>
			<path class="st5" d="M141,975.1c0.2,5.8,2.2,11.4,1.7,17.2c-0.4,5.7-2,11.1-1.5,16.9c0.1,0.8,1.3,0.8,1.2,0
				c-0.5-5.7,1.1-11.2,1.5-16.9c0.4-5.8-1.6-11.4-1.7-17.2C142.2,974.3,140.9,974.3,141,975.1L141,975.1z"/>
		</g>
	</g>
</g>
</svg>
