<svg id="Layer_1" data-name="Layer 1" xmlns="http://www.w3.org/2000/svg" xmlns:xlink="http://www.w3.org/1999/xlink" viewBox="0 0 1017.64 2101.07"><defs><style>.cls-1,.cls-19,.cls-23,.cls-24,.cls-25,.cls-32,.cls-4,.cls-5{fill:none;}.cls-2{fill:#e0ad63;}.cls-12,.cls-20,.cls-3{fill:#f1d6be;}.cls-3{stroke:#f1d6be;}.cls-10,.cls-11,.cls-17,.cls-19,.cls-20,.cls-23,.cls-24,.cls-25,.cls-3,.cls-32,.cls-4,.cls-5,.cls-6,.cls-7,.cls-8,.cls-9{stroke-miterlimit:10;}.cls-4{stroke:#000;}.cls-5{stroke:#f7e1b9;}.cls-6{fill:#f5b4ba;stroke:#f5b4ba;}.cls-7{fill:#b19f9c;stroke:#b19f9d;}.cls-8{fill:#b19f9d;stroke:#b19f9c;}.cls-9{fill:#e68376;stroke:#e68376;}.cls-10{fill:#b7b6b6;stroke:#b7b6b6;}.cls-11,.cls-17{fill:#fdfdfd;}.cls-11{stroke:#fdfdfd;}.cls-11,.cls-17,.cls-32{stroke-width:0.25px;}.cls-13{fill:#3d3333;}.cls-14{fill:#020203;}.cls-15{fill:#fff;}.cls-16{fill:#ceb7a5;}.cls-17{stroke:#fff;}.cls-18{fill:#f1d9c3;}.cls-19,.cls-25{stroke:#010202;}.cls-19{stroke-width:10px;}.cls-20{stroke:#e0cab8;stroke-width:2px;}.cls-21{fill:#c4ad9e;}.cls-22{fill:#e5ccb7;}.cls-23,.cls-32{stroke:#c4ad9e;}.cls-23{stroke-width:1.5px;}.cls-24{stroke:#d3bbae;}.cls-25{stroke-width:3px;}.cls-26{fill:#fcfcfc;}.cls-27{fill:#631b19;}.cls-28{fill:#d35556;}.cls-29{isolation:isolate;}.cls-30{clip-path:url(#clip-path);}.cls-31{clip-path:url(#clip-path-2);}.cls-33{fill:#d3bbae;}.cls-34{clip-path:url(#clip-path-24);}.cls-35{clip-path:url(#clip-path-25);}</style><clipPath id="clip-path" transform="translate(0.6 -0.73)"><rect class="cls-1" x="388.77" y="696.08" width="59.4" height="97.6" transform="translate(-67.21 41.97) rotate(-5.32)"/></clipPath><clipPath id="clip-path-2" transform="translate(0.6 -0.73)"><rect class="cls-1" x="386.2" y="724" width="59.4" height="97.6"/></clipPath><clipPath id="clip-path-24" transform="translate(0.6 -0.73)"><rect class="cls-1" x="939.26" y="701.67" width="59.4" height="97.6" transform="translate(-65.36 92.99) rotate(-5.32)"/></clipPath><clipPath id="clip-path-25" transform="translate(0.6 -0.73)"><rect class="cls-1" x="936.6" y="729.6" width="59.4" height="97.6"/></clipPath><image id="image" width="605" height="907" xlink:href="../../../23439305_10209769406182389_1944945066_n.png"/></defs><title>pige_sprite</title><polygon class="cls-2" points="138.1 61.77 99.8 132.77 111.3 152.07 147.3 163.77 150.3 98.17 138.1 61.77"/><polygon class="cls-2" points="30.4 112.77 78.8 135.97 74.9 153.67 32.5 153.67 30.4 112.77"/><path class="cls-3" d="M49.9,632.9v24.8c5.6,17.6,20.8,27.9,39.6,35.7,3.7,1.3,10.1-7.6,11.4-10.4s-25.8-23-32.6-34.4l-.4-15.7" transform="translate(0.6 -0.73)"/><path class="cls-3" d="M100.4,636.6l-3,22.9c8,15.2,18.6,23.5,38.2,33.5,5.6,2.9,14.3-7,13-11.2-1-3.2-20.3-17-27.9-28.8l-.4-16.4" transform="translate(0.6 -0.73)"/><path class="cls-4" d="M99.7,642.6" transform="translate(0.6 -0.73)"/><line class="cls-5" x1="100.6" y1="641.67" x2="101.1" y2="639.07"/><path class="cls-6" d="M32,343.5c42.9,21.1,86,23.5,129.4,7.9,1.1,47.7.3,93.3-3.2,135.5,0,0-26.4,94.6-33.3,151.2-8.8,4.6-18.3,4.1-28.2,0-3.3-68.7,3.1-118.4,19.9-147.3-3.4-30.9-5.8-74.5-14.1-126.3l-10.2-.7c-16.5,77.4-20,170-17.9,269-9.5,7.1-19.1,6.9-28.8,0C33.4,533.8,27.5,436.9,32,343.5Z" transform="translate(0.6 -0.73)"/><path class="cls-7" d="M49.6,655.8C39.2,664,40,677.4,48.3,693H63.8L61,684.8c6.5,3.4,19.1,10.2,31.9,12.7l18.4-.5c4.8-3.6,4.6-7.3,0-11.1L76.6,659.2h0l22.7,19.3c-1.4,4.3-4.8,7.7-10,10.1-19.8-3.8-34.8-13.2-40.3-33.8" transform="translate(0.6 -0.73)"/><path class="cls-8" d="M97,653.3l-5.5,12.5,27,28.6c9.3,3.8,19.5,5.1,30.5,4.6,8.5-4.4,12.8-11.8,9.4-14.3L123.2,657l18.5,20.4c-.1,7-3.6,11.1-11.2,11.8-15.1-6.9-28-15.7-34-29.8Z" transform="translate(0.6 -0.73)"/><path class="cls-9" d="M72.8,145.8c1.1,3.2,27.3,25.9,37,0,4.1-2,8.1-2.8,12,0L156.6,169l-73.5-2.7L72.8,280l86,4.9,8.5,69.5c-51.7,19.5-100.9,18.7-146.1-14.3,7.3-24.6,28.5-53.8,45-86.5L56.8,226a35.69,35.69,0,0,1-19.2,7.1,42.08,42.08,0,0,1-7.1,0c-4.9-19.8-2.6-48.2,2.7-80.2C40.4,145.8,71.4,141.6,72.8,145.8Z" transform="translate(0.6 -0.73)"/><rect class="cls-10" x="67.61" y="175" width="117.4" height="99.5" transform="translate(-105.71 335.17) rotate(-86.2)"/><path class="cls-11" d="M136.2,238.3a4.14,4.14,0,0,0,1.6-2.8,20,20,0,0,0,.5-2.6,6.62,6.62,0,0,0-.1-2.8,4,4,0,0,0-2.5-2.4,12.22,12.22,0,0,0-3.3-.2l-3.6.3a6.9,6.9,0,0,0,1.1,6.1,7.84,7.84,0,0,0-1.6,4.7C130.5,238.5,134.1,239.4,136.2,238.3Z" transform="translate(0.6 -0.73)"/><path class="cls-11" d="M123.7,233.6a3.48,3.48,0,0,1-2-2.4c0,.2,5.2-.2,5.1,2.5A4.73,4.73,0,0,1,123.7,233.6Z" transform="translate(0.6 -0.73)"/><path class="cls-3" d="M54.1,254.8,37.5,234.4c7.7-1.6,13.8-3.6,18.6-7.4l9.2,13.2,88-1.6,11.3-9.7,10.8-1.7-.1,3.1,6.5-.3s.7,3.3-.1,3.9-4.3-.9-4.3-.9v2.1l4.3,1.4s.7,3.7-.1,4.4-4.3-.1-4.3-.1l.4,2.9,3.9-.8s.5,2.5,0,3-3.4-.1-3.4-.1l3.4,2.2s.5,2.5,0,3c-.9.7-4.3-.9-4.3-.9l-25,3.9Z" transform="translate(0.6 -0.73)"/><path class="cls-12" d="M119.7,227.1a102.85,102.85,0,0,1-13.4,3.9,26.36,26.36,0,0,1-6.2.8c-2.1,0-4.1-.4-6.2-.6-2.8-.3-5.7-.3-8.5-.8s-5.6-1.8-7.2-4.2c.8-.8,1.7.1,2.7.8a22.77,22.77,0,0,0,9.6,3.2,3.76,3.76,0,0,0,2.1-.1,1.58,1.58,0,0,0,1.1-1.6,2.59,2.59,0,0,0-.7-1.1c-2.1-1.9-4.8-3-7.4-4.2s-5.2-2.8-6.5-5.4c-.1-.3-.3-.6-.1-.9.3-.6.6-1.1,1.6.4a21,21,0,0,0,4.4,4c2.1,1.7,4.5,3.2,7.2,3.2a2.81,2.81,0,0,0,2.3-.9,2.16,2.16,0,0,0,0-2.2,6.48,6.48,0,0,0-1.6-1.7c-3.4-2.6-7.5-4.1-10.9-6.6a3.54,3.54,0,0,1-1.6-2c-.2-.8-.2-2.6.6-2.3a28.36,28.36,0,0,0,10.9,8.8,3.32,3.32,0,0,0,2.9.2,2.15,2.15,0,0,0,.5-2.8,6.61,6.61,0,0,0-2.2-2.2c-2.4-1.7-5.2-3-7.3-5.2-.9-1-2.3-1.8-2.1-3.1,0-.3.5-1.9.8-1.9s.1,1.4.3,1.6c.6.7.9,1.7,1.6,2.3a77.44,77.44,0,0,1,5.8,5.8,5.24,5.24,0,0,0,3.6,1.4c1.3.1,5.1,1,5.6-.2s-2.3-4.1-2.8-5.3a25,25,0,0,0-2.5-4.1,34.69,34.69,0,0,0-5.5-6c.5-.5,1.4-.2,1.9.2a20.52,20.52,0,0,1,4.7,4.6,34.94,34.94,0,0,0,4.1,5.4c3.5,3.2,8.7,3.6,13.4,3.9,2.8.1,5.7.3,8.5.4l55.9-9.1V194s16.5,11.7,14.3,18.9-15,13.9-15,13.9Z" transform="translate(0.6 -0.73)"/><path class="cls-12" d="M119.5,226.5c-6.8,2.5-14.5,5.3-21.8,4.6-3.5-.3-7.1-.5-10.6-1.1-.9-.1-8.4-2-7.7-3.1a24.77,24.77,0,0,0,2.9,1.7c2.4,1.2,7.9,3.6,10.6,2,3.3-2-.9-4.7-2.7-5.7-2.7-1.5-5.8-2.4-8.1-4.4-.1-.1-2.6-2.3-2.2-2.7-.1.1,1.4,1.5,1.5,1.7a36.12,36.12,0,0,0,3,2.5c1.9,1.4,8,5.5,10.3,2,2-3.1-3.2-5.8-5.1-6.9-1.4-.8-2.8-1.5-4.2-2.3a22.47,22.47,0,0,1-2.1-1.2c.2.1-3.8-4.2-1.6-2.4,2.4,1.9,4.2,4.1,6.9,5.7,2,1.2,7.5,3.7,7.3-.8-.2-4.8-14.8-8-11.1-13.1-.4,0-.8-.1-1.1-.1a12.71,12.71,0,0,0,2.4,4.6c1.8,2,4.2,5,6.6,6.3,1.6.8,8.2,2.4,9.1-.1.6-1.7-1.8-3.8-2.6-5a57.49,57.49,0,0,0-6-8.6c-2.4-2.6.9.7,1.7,1.6,1.7,1.8,2.8,4,4.4,5.9a13.24,13.24,0,0,0,7.1,4.4c7.7,2.1,15.8,1.5,23.6.3,9.3-1.5,18.6-3,28-4.5,7-1.1,14.1-2.3,21.1-3.4.3,0,.5-.4.5-.6v-4.3c0-.8.1-5.4-.4-4.9-.7.6,1.3,1.5,2.1,2.1,1.8,1.5,3.6,3,5.3,4.7,4.7,4.7,8.7,9.9,3.6,15.9-2.8,3.3-7.4,7.4-11.6,8.9-2.9,1-9.6.3-13.4.3-9.1,0-18.2.1-27.3.1-6,0-12,.1-18.1.1-.8,0-.8,1.3,0,1.2,14.5-.1,29.1-.1,43.6-.2,3.6,0,7.3,0,10.9-.1a18.73,18.73,0,0,0,4.1,0c2.7-.7,5.7-3.4,7.9-5.1,3.2-2.5,7.5-6.1,7.8-10.5.5-7.4-9.5-14.6-14.8-18.4a.59.59,0,0,0-.9.5v5.2c0,1.3-.5,4.3.4,3.7-1.1.8-4.4.7-5.7.9l-27.5,4.5c-7.2,1.2-14.5,2.9-21.7,3.5-5.4.5-12.5.2-17.6-1.4-5.4-1.8-7.1-6.7-10.8-10.4-1.5-1.5-2.9-3.1-5.1-2.5a.64.64,0,0,0-.3,1,34.68,34.68,0,0,1,7.1,8.6c.9,1.5,4.3,5.2,1.6,6.4-3.1,1.3-7.7-3.2-9.5-5-2-2-3.3-3.4-4.3-6.1a.59.59,0,0,0-1.1-.1c-2.4,3.3,1.2,5.9,3.6,7.8.8.6,1.8,1.2,2.6,1.7a32.66,32.66,0,0,1,3.6,2.5c-1,.7-2,1.5-3.1,2.2-3,0-7.7-5.9-9.4-8a.75.75,0,0,0-.8-.1c-4.5,2.4,3.6,7.1,5,7.9.8.4,5.4,2.4,5.5,3.2l-3.3,3.3c-.5-.3-.9-.6-1.4-.9-1.2-.4-2.6-1.9-3.5-2.7s-2.5-3.9-4-3.1c-3.6,1.7,4.6,7,5.6,7.5,1.3.7,4.3,1.4,5.2,2.5a2.25,2.25,0,0,1-1.2,3.3,8.87,8.87,0,0,1-2.8-.7c-2.3-.8-5.2-3.7-7.6-2.9a.6.6,0,0,0-.3,1c4.6,5.4,12.1,4.7,18.5,5.5,8.1.9,16.1-1.8,23.6-4.5C120.6,227.4,120.3,226.2,119.5,226.5Z" transform="translate(0.6 -0.73)"/><path class="cls-3" d="M76.2,135.4c-.9,2.8-1.8,5.6-2.8,8.6,6.3,19.2,27.8,22.6,36.5,1.8-4.8-2.5-6.4-7.8-8-15.6C97.4,141.9,86.2,136.9,76.2,135.4Z" transform="translate(0.6 -0.73)"/><ellipse class="cls-3" cx="78.2" cy="75.9" rx="58.7" ry="64.1" transform="translate(-10.74 13.05) rotate(-9.39)"/><path class="cls-2" d="M5,255.7,45.1,226c.8-50.8-9.1-116.3-18.7-164.9,0,0,23.8-8.5,25.6-11.9s-1.9-20.1-1.9-20.1S56,42.5,60.5,44.3s23-4.5,23-6.3V28.7l7.8,5.6,29.4-2.6c24.4,39.8,27.8,76.6,22.6,128.3l11.2,7.8c9.8-57.4-1.1-95.2-26.7-140.9S7.1.6,3.4,47.7,5,255.7,5,255.7Z" transform="translate(0.6 -0.73)"/><path class="cls-13" d="M70.7,68.6a9.36,9.36,0,0,0-6.5-1.4,20.73,20.73,0,0,0-6.4,2A42.54,42.54,0,0,0,52,72.7l-2.7,2.1c-.9.7-1.7,1.5-2.6,2.2A28.48,28.48,0,0,1,49,74.4c.8-.8,1.7-1.6,2.6-2.4a28.28,28.28,0,0,1,5.9-3.8,17.71,17.71,0,0,1,6.8-1.9,10.82,10.82,0,0,1,1.8,0,8.47,8.47,0,0,1,1.7.4A13.16,13.16,0,0,1,70.7,68.6Z" transform="translate(0.6 -0.73)"/><path class="cls-13" d="M119.9,59.4c-1.2-.3-2.4-.8-3.7-1.1s-2.5-.6-3.7-.9a31.66,31.66,0,0,0-7.5-.6,17.61,17.61,0,0,0-7.2,1.6,11.39,11.39,0,0,0-5.2,5.2,11.12,11.12,0,0,1,1.8-3.4,12.11,12.11,0,0,1,3-2.5,16.77,16.77,0,0,1,7.6-1.9,25,25,0,0,1,7.7.9A44.4,44.4,0,0,1,119.9,59.4Z" transform="translate(0.6 -0.73)"/><circle class="cls-14" cx="63.2" cy="84.67" r="7"/><circle class="cls-14" cx="105.5" cy="74.47" r="6.8"/><circle class="cls-15" cx="64.8" cy="82.97" r="1.7"/><circle class="cls-15" cx="105.5" cy="72.27" r="1.7"/><path class="cls-16" d="M87.8,68.6c0,2-.1,4,0,5.9a6.63,6.63,0,0,0,.5,2.8,20.13,20.13,0,0,0,1.4,2.5,26.87,26.87,0,0,0,3.7,4.5,26.85,26.85,0,0,0,4.7,3.4l.2.1V88a4.49,4.49,0,0,1-1.9,3.3,10.36,10.36,0,0,1-3.2,1.5c-1.1.3-2.2.5-3.4.8s-2.3.5-3.4.7c1.1-.4,2.2-.7,3.3-1.1s2.2-.7,3.3-1a9,9,0,0,0,2.9-1.6,3.78,3.78,0,0,0,1-1.2,2.5,2.5,0,0,0,.4-1.4l.2.4a24.27,24.27,0,0,1-4.9-3.5,21.25,21.25,0,0,1-3.7-4.8,16.64,16.64,0,0,1-1.3-2.7,4,4,0,0,1-.3-1.5V74.4A40.12,40.12,0,0,1,87.8,68.6Z" transform="translate(0.6 -0.73)"/><path class="cls-17" d="M74,110.5c12.8,18.7,37.8,12.8,37.1-9.2Z" transform="translate(0.6 -0.73)"/><polygon class="cls-2" points="720.3 74.77 668.6 136.67 676 157.87 709 176.57 725.1 112.97 720.3 74.77"/><polygon class="cls-2" points="602.6 102.87 652.1 143.77 643.1 165.37 594.4 155.37 602.6 102.87"/><path class="cls-3" d="M620.1,633.1v24.8c5.6,17.6,20.8,27.9,39.6,35.7,3.7,1.3,10.1-7.6,11.4-10.4s-25.8-23-32.7-34.4l-.4-15.7" transform="translate(0.6 -0.73)"/><path class="cls-3" d="M670.7,636.9l-3,22.9c8,15.2,18.6,23.5,38.3,33.5,5.6,2.9,14.4-7,13-11.2-1-3.2-20.3-17-27.9-28.8l-.4-16.4" transform="translate(0.6 -0.73)"/><path class="cls-4" d="M670,642.8" transform="translate(0.6 -0.73)"/><line class="cls-5" x1="670.8" y1="641.87" x2="671.3" y2="639.37"/><path class="cls-6" d="M602.2,343.8c42.9,21.1,86.1,23.5,129.4,7.9,1.1,47.7.3,93.3-3.2,135.5,0,0-26.4,94.6-33.3,151.2-8.8,4.6-18.3,4.1-28.2,0-3.3-68.7,3.1-118.4,19.9-147.3-3.4-30.9-5.8-74.5-14.1-126.3l-10.3-.7c-16.5,77.4-20,170-17.9,269-9.5,7.1-19.1,6.9-28.8,0C603.6,534.1,597.8,437.1,602.2,343.8Z" transform="translate(0.6 -0.73)"/><path class="cls-7" d="M619.9,656.1c-10.4,8.2-9.6,21.6-1.3,37.2H634l-2.8-8.2c6.5,3.4,19.1,10.2,31.9,12.7l18.4-.5c4.8-3.6,4.6-7.3,0-11.1l-34.8-26.7h0l22.7,19.3c-1.4,4.3-4.8,7.7-10,10.1-19.8-3.8-34.8-13.2-40.3-33.8" transform="translate(0.6 -0.73)"/><path class="cls-8" d="M667.3,653.5,661.8,666l27,28.6c9.3,3.8,19.5,5.1,30.5,4.6,8.5-4.4,12.8-11.8,9.4-14.3l-35.2-27.6L712,677.7c-.1,7-3.6,11.1-11.2,11.8-15.1-6.9-28-15.7-34-29.8Z" transform="translate(0.6 -0.73)"/><path class="cls-9" d="M643.1,146.1c1.1,3.2,27.3,25.9,37,0,4.1-2,8.1-2.8,12,0l34.8,23.2-73.6-2.7L643,280.2l86,4.9,8.5,69.5c-51.7,19.5-101,18.7-146.2-14.3,7.3-24.6,28.5-53.8,45-86.5L627,226.2a35.69,35.69,0,0,1-19.2,7.1,42.08,42.08,0,0,1-7.1,0c-4.9-19.8-2.6-48.2,2.7-80.2C610.6,146,641.7,141.8,643.1,146.1Z" transform="translate(0.6 -0.73)"/><rect class="cls-10" x="637.99" y="175.1" width="117.4" height="99.6" transform="matrix(0.07, -1, 1, 0.07, 426.77, 904.44)"/><path class="cls-11" d="M706.4,238.5a4.14,4.14,0,0,0,1.6-2.8,20,20,0,0,0,.5-2.6,6.62,6.62,0,0,0-.1-2.8,4,4,0,0,0-2.5-2.4,12.22,12.22,0,0,0-3.3-.2l-3.6.3a6.9,6.9,0,0,0,1.1,6.1,7.84,7.84,0,0,0-1.6,4.7C700.8,238.7,704.4,239.7,706.4,238.5Z" transform="translate(0.6 -0.73)"/><path class="cls-11" d="M694,233.9a3.48,3.48,0,0,1-2-2.4c0,.2,5.2-.2,5.1,2.5A4.73,4.73,0,0,1,694,233.9Z" transform="translate(0.6 -0.73)"/><path class="cls-3" d="M624.4,255l-16.6-20.4c7.7-1.6,13.8-3.6,18.6-7.4l9.2,13.2,88-1.6,11.3-9.7,10.8-1.7-.1,3.1,6.5-.3s.7,3.3-.1,3.9-4.3-.9-4.3-.9v2.1l4.3,1.4s.7,3.7-.1,4.4-4.3-.1-4.3-.1l.4,2.9,3.9-.8s.5,2.5,0,3-3.4-.1-3.4-.1l3.4,2.2s.5,2.5,0,3c-.9.7-4.3-.9-4.3-.9l-25,3.9Z" transform="translate(0.6 -0.73)"/><path class="cls-12" d="M690,227.3a102.85,102.85,0,0,1-13.4,3.9,26.53,26.53,0,0,1-6.3.8c-2.1,0-4.1-.4-6.2-.6-2.8-.3-5.7-.3-8.5-.8s-5.6-1.8-7.2-4.2c.8-.8,1.7.1,2.7.8a22.77,22.77,0,0,0,9.6,3.2,3.76,3.76,0,0,0,2.1-.1,1.58,1.58,0,0,0,1.1-1.6,2.59,2.59,0,0,0-.7-1.1c-2.1-1.9-4.8-3-7.4-4.2s-5.2-2.8-6.5-5.4c-.1-.3-.3-.6-.1-.9.3-.6.6-1.1,1.6.4a21,21,0,0,0,4.4,4c2.1,1.7,4.5,3.2,7.2,3.2a2.81,2.81,0,0,0,2.3-.9,2.16,2.16,0,0,0,0-2.2,6.48,6.48,0,0,0-1.6-1.7c-3.4-2.6-7.5-4.1-10.9-6.6a3.53,3.53,0,0,1-1.6-2c-.2-.9-.2-2.6.6-2.3a28.36,28.36,0,0,0,10.9,8.8,3.32,3.32,0,0,0,2.9.2,2.15,2.15,0,0,0,.5-2.8,6.61,6.61,0,0,0-2.2-2.2c-2.4-1.7-5.2-3-7.3-5.2-.9-1-2.3-1.8-2.1-3.1,0-.3.5-1.9.8-1.9s.1,1.4.3,1.6c.6.7.9,1.7,1.6,2.3a77.43,77.43,0,0,1,5.8,5.8,5.24,5.24,0,0,0,3.6,1.4c1.3.1,5.1,1,5.6-.2s-2.3-4.1-2.8-5.3a25,25,0,0,0-2.5-4.1,34.69,34.69,0,0,0-5.5-6c.5-.5,1.4-.2,1.9.2a20.52,20.52,0,0,1,4.7,4.6,34.94,34.94,0,0,0,4.1,5.4c3.5,3.2,8.7,3.6,13.4,3.9,2.8.1,5.7.3,8.5.4l55.9-9.1v-9.5s16.5,11.7,14.3,18.9-15,13.9-15,13.9Z" transform="translate(0.6 -0.73)"/><path class="cls-12" d="M689.8,226.7c-6.8,2.5-14.5,5.3-21.8,4.6-3.5-.3-7.1-.5-10.6-1.1-.9-.1-8.4-2-7.7-3.1a24.77,24.77,0,0,0,2.9,1.7c2.4,1.2,7.9,3.6,10.6,2,3.3-2-.9-4.7-2.7-5.7-2.7-1.5-5.8-2.4-8.1-4.4-.1-.1-2.6-2.3-2.2-2.7-.1.1,1.4,1.5,1.5,1.7a36.12,36.12,0,0,0,3,2.5c1.9,1.4,8,5.5,10.3,2,2-3.1-3.2-5.8-5.1-6.9-1.4-.8-2.8-1.5-4.2-2.3a22.47,22.47,0,0,1-2.1-1.2c.2.1-3.8-4.2-1.6-2.4,2.4,1.9,4.2,4.1,6.9,5.7,2,1.2,7.5,3.7,7.3-.8-.2-4.8-14.8-8-11.1-13.1-.4,0-.8-.1-1.1-.1a12.71,12.71,0,0,0,2.4,4.6c1.8,2,4.2,5,6.6,6.3,1.6.8,8.2,2.4,9.1-.1.6-1.7-1.8-3.8-2.6-5a57.49,57.49,0,0,0-6-8.6c-2.4-2.6.9.7,1.7,1.6,1.7,1.8,2.8,4,4.4,5.9a13.25,13.25,0,0,0,7.1,4.4c7.7,2.1,15.8,1.5,23.6.3l28-4.5c7-1.1,14.1-2.3,21.1-3.4.3,0,.5-.4.5-.6v-4.3c0-.8.1-5.4-.4-4.9-.7.6,1.3,1.5,2.1,2.1,1.8,1.5,3.6,3,5.3,4.7,4.7,4.7,8.7,9.9,3.6,15.9-2.8,3.3-7.4,7.4-11.6,8.9-2.9,1-9.6.3-13.4.3-9.1,0-18.2.1-27.3.1-6,0-12,.1-18.1.1-.8,0-.8,1.3,0,1.2,14.6-.1,29.1-.1,43.7-.2,3.6,0,7.3,0,10.9-.1a18.73,18.73,0,0,0,4.1,0c2.8-.7,6.1-3.6,8.3-5.4,3-2.4,7.1-6,7.4-10.2.5-7.4-9.5-14.6-14.8-18.4a.59.59,0,0,0-.9.5v5.2c0,1.3-.5,4.3.4,3.7-1.1.8-4.4.7-5.7.9L716,208.6c-7.2,1.2-14.5,2.9-21.8,3.5-5.4.5-12.5.2-17.6-1.4-5.4-1.8-7.1-6.7-10.8-10.4-1.5-1.5-2.9-3.1-5.1-2.5a.64.64,0,0,0-.3,1,34.68,34.68,0,0,1,7.1,8.6c.9,1.5,4.3,5.2,1.6,6.4-3.1,1.3-7.7-3.2-9.5-5-2-2-3.3-3.4-4.3-6.1a.59.59,0,0,0-1.1-.1c-2.4,3.3,1.2,5.9,3.6,7.8.8.6,1.8,1.2,2.6,1.7a32.66,32.66,0,0,1,3.6,2.5c-1,.7-2,1.5-3.1,2.2-3,0-7.7-5.9-9.4-8a.75.75,0,0,0-.8-.1c-4.5,2.4,3.6,7.1,5,7.9.8.4,5.4,2.4,5.5,3.2l-3.3,3.3c-.5-.3-.9-.6-1.4-.9-1.2-.4-2.6-1.9-3.5-2.7s-2.5-3.9-4-3.1c-3.6,1.7,4.6,7,5.6,7.5,1.3.7,4.3,1.4,5.2,2.5a2.25,2.25,0,0,1-1.2,3.3,10.22,10.22,0,0,1-2.9-.7c-2.3-.8-5.2-3.7-7.6-2.9a.6.6,0,0,0-.3,1c4.6,5.4,12.1,4.7,18.5,5.5,8.1.9,16.1-1.8,23.7-4.5C690.9,227.6,690.6,226.4,689.8,226.7Z" transform="translate(0.6 -0.73)"/><path class="cls-3" d="M646.4,135.6c-.9,2.8-1.8,5.6-2.8,8.6,6.3,19.2,27.8,22.6,36.5,1.8-4.8-2.5-6.4-7.8-8-15.6C667.7,142.1,656.5,137.1,646.4,135.6Z" transform="translate(0.6 -0.73)"/><ellipse class="cls-3" cx="658.81" cy="76.9" rx="64.1" ry="58.7" transform="translate(558.08 731.67) rotate(-87.87)"/><path class="cls-2" d="M551.3,238.3l45.3-21.1c10.9-49.6,14.3-115.8,14.6-165.3,0,0,25-3.6,27.5-6.5s2.2-20,2.2-20,3.2,14.3,7.2,17,23.5.2,23.9-1.6,1.9-9.1,1.9-9.1l6.5,7L709.7,42c14.3,43.8,15.3,66.5.7,116.1l11.1,7.4c21-54.3,12.1-77-3.9-126.8S604.4-11.2,591.4,34.2,551.3,238.3,551.3,238.3Z" transform="translate(0.6 -0.73)"/><path class="cls-13" d="M653.1,68.1a10,10,0,0,0-6.1-2.7,19.16,19.16,0,0,0-6.7.7,37.66,37.66,0,0,0-6.4,2.3c-1,.5-2.1,1-3.1,1.5s-2,1.1-3,1.7c.9-.7,1.8-1.4,2.8-2.1s2-1.2,3-1.8a30.44,30.44,0,0,1,6.5-2.6,18.45,18.45,0,0,1,7-.5c.6.1,1.2.3,1.7.4a7.74,7.74,0,0,1,1.6.7A10.54,10.54,0,0,1,653.1,68.1Z" transform="translate(0.6 -0.73)"/><path class="cls-13" d="M703.1,69a36.52,36.52,0,0,0-3.4-1.8c-1.1-.6-2.3-1.1-3.4-1.6a37,37,0,0,0-7.2-2.1,18.42,18.42,0,0,0-7.4.1,11.57,11.57,0,0,0-6.2,4,8.93,8.93,0,0,1,2.5-3,10.56,10.56,0,0,1,3.5-1.8,15.83,15.83,0,0,1,7.8-.3,26.74,26.74,0,0,1,7.4,2.4A43.38,43.38,0,0,1,703.1,69Z" transform="translate(0.6 -0.73)"/><circle class="cls-14" cx="641.86" cy="82.91" r="7" transform="translate(433.05 694.56) rotate(-78.48)"/><circle class="cls-14" cx="685.25" cy="81.3" r="6.8" transform="translate(469.35 735.78) rotate(-78.48)"/><circle class="cls-15" cx="643.86" cy="81.59" r="1.7" transform="translate(435.94 695.45) rotate(-78.48)"/><circle class="cls-15" cx="685.81" cy="79.17" r="1.7" transform="translate(471.89 734.63) rotate(-78.48)"/><path class="cls-16" d="M669.8,71.6c-.4,1.9-.9,3.9-1.2,5.8a6.67,6.67,0,0,0-.1,2.8,15.17,15.17,0,0,0,.9,2.8,25.67,25.67,0,0,0,2.7,5.2,26.59,26.59,0,0,0,3.9,4.3l.2.2-.1.2a4.39,4.39,0,0,1-2.5,2.8,10.64,10.64,0,0,1-3.5.9c-1.2.1-2.3.1-3.5.1h-3.5c1.1-.1,2.3-.3,3.4-.4s2.3-.2,3.4-.4a11.91,11.91,0,0,0,3.2-1,4,4,0,0,0,1.2-1,5.23,5.23,0,0,0,.7-1.2l.2.4a28.51,28.51,0,0,1-4.1-4.4,22.74,22.74,0,0,1-2.7-5.4,26.28,26.28,0,0,1-.8-3,4.31,4.31,0,0,1,0-1.6l.3-1.5C668.5,75.4,669.2,73.5,669.8,71.6Z" transform="translate(0.6 -0.73)"/><path class="cls-17" d="M647.9,109.9c8.8,20.9,34.5,20.1,38.2-1.6Z" transform="translate(0.6 -0.73)"/><rect class="cls-2" x="65.4" y="938.27" width="114" height="33.9"/><rect class="cls-2" x="63.9" y="831.07" width="115.5" height="74.5"/><path class="cls-18" d="M299,966.7c8.1,3.3,14.7,10,23.3,12.2.2,0,.4.1.6,0,2.3-1.7.4-.9.1-1.4-.7-1.3-1.4-2.6-2-3.9a25.72,25.72,0,0,0,4.8.2,2.23,2.23,0,0,0,1.4-.3c.4-.2.6-.1.5-1.2s-.3-.4-.5-.5c-1.6-1.1-3.3-2.2-4.2-3.9l5.9.6c.7.1.8.9,1.9-.6s-.3-1.3-.9-1.8c-1.1-1-2.3-2-3.4-2.9,1.9.1,3.8.1,5.7.2a1.27,1.27,0,0,0,.6-.1c.2-.1.8,1.8.3-.7s-.6-1.4-1.2-1.8a7.84,7.84,0,0,0-2.1-.9c-6.6-1.2-10.3-4.3-9-6.2.2-.3,2.3-2,2.2-2.4-.2-.7.6,1.3.2.7-.6-1,1.7.8,2.1.2a14.62,14.62,0,0,0-.5-2c0-.1-.1-.2-.2-.3-1.9-1.8-4.8-1.9-7.4-1.8a14.89,14.89,0,0,0-4.3.7,10.84,10.84,0,0,0-2.9,1.8,30.27,30.27,0,0,0-10.7,16" transform="translate(0.6 -0.73)"/><ellipse class="cls-3" cx="132.3" cy="816.37" rx="45.9" ry="60.8"/><path class="cls-2" d="M57.7,923,79,895.5c.7-45.2,15.4-27.8,6.9-71,0,0,21.5,2.8,9.9-27.6-1.2-3.2,4.5,1.5,4.5,1.5s4,2.5,7.4,5.2c13.3,10.4,45.1-.1,31.6-14.4-1.1-1.2-3.2-3.8-3.2-3.8l14.5,9.1,17.7-15c16,27.1,3.1,68.3,2.1,110.4l15.9,19.4c8.7-51.1,5.3-101.8-17.4-142.4C146,726.3,61.3,743.5,58,785.4S57.7,923,57.7,923Z" transform="translate(0.6 -0.73)"/><polyline class="cls-19" points="298.3 989.87 305.2 980.57 419.9 833.77"/><path class="cls-3" d="M70.3,1060.5c30.5,2.5,63.9-11.1,103.8,2.6.8,48.8.2,95.4-2.5,138.6,0,0-20.9,96.8-26.4,154.7-7,4.7-14.5,4.2-22.4,0-2.6-70.3,2.4-121.1,15.8-150.7-2.7-31.6-9.3-75.3-15.8-128.4l-2.8-7.7c3.5,6.7,4.7,20.6,4.2,39.4,0,0-1.1,24.3-2.2,37.4-1.1,13.7-2.5,28.6-4.1,44.2-5.2,52-11.8,111.4-12.8,160.4-7.5,7.2-23.3,10.5-22.9,0,1-23.5,1.5-35.2,2.1-37.1,2.8-9.3-4-32-2.4-77.7,1.1-32-10.4-96.8-10.4-96.8s-10.1-79.6-4.7-81C68,1058,69.3,1059.3,70.3,1060.5Z" transform="translate(0.6 -0.73)"/><path class="cls-20" d="M60.6,1074.7c7.9,3,14.3,9.2,22.6,11.1.2,0,.4.1.5,0,2.2-1.6.3-.9.1-1.3-.7-1.2-1.3-2.4-2-3.6a37,37,0,0,0,4.7.2,3.18,3.18,0,0,0,1.4-.2c.4-.2.6-.1.5-1.1s-.3-.4-.5-.5c-1.5-1-3.2-2-4-3.6l5.7.6c.7.1.8.8,1.9-.6s-.3-1.2-.8-1.6l-3.3-2.7c1.8.1,3.7.1,5.5.2a.75.75,0,0,0,.5-.1c.2-.1.7,1.7.3-.6s-.6-1.3-1.2-1.6a5,5,0,0,0-2-.8,16.69,16.69,0,0,1-7.5-2.8c-1.5-1.2-2.2-3.4.4-3.9.9-.2,2.1.1,2.6-.6s0-1.8-.7-2.4a8.57,8.57,0,0,0-6-1.8c-2.2.1-4.8.5-6.6,1.9a53.94,53.94,0,0,0-5.2,4.3,28.33,28.33,0,0,0-6.7,11.3" transform="translate(0.6 -0.73)"/><path class="cls-21" d="M125.9,1097a27,27,0,0,0-13.8-23.4c-1.4-.8-2.7,1.4-1.3,2.2a24.11,24.11,0,0,1,12.5,21.2,1.3,1.3,0,0,0,2.6,0Z" transform="translate(0.6 -0.73)"/><path class="cls-21" d="M124,1089.7c8.7,4.8,11.8-8.4,17.5-11.4,1.4-.8.2-2.9-1.3-2.2a16.08,16.08,0,0,0-5.5,5.5c-2,3.1-5.1,8.4-9.5,5.9-1.4-.8-2.6,1.4-1.2,2.2Z" transform="translate(0.6 -0.73)"/><path class="cls-22" d="M127,955c.9.3.8,1.4.2,2a1.91,1.91,0,0,1-1,.5c-.2.1-.5.1-.5.4-.1.6.7.5,1.1.4a1.9,1.9,0,0,0,1-1.8,2.38,2.38,0,0,0-.6-1.1c-.4-.3-1.2-.4-1.4-.9a1.38,1.38,0,0,0-.3.4,1,1,0,1,1-.7,1.9c-.3-.1-.4.4-.1.5.7.3,1.4.6,2.2.9a.9.9,0,0,0-.1-.5c-.5.3-1.9,1-2.1-.1a.76.76,0,0,1-.4.2,1.57,1.57,0,0,0,2.4-.7c.4-.9.5-2.8-.5-3.3-.2-.1-.4,0-.4.2a1.49,1.49,0,0,0,.2.9l.3.6c0,.1.1.1.1.2.3.4.1.5-.5.2.1-.3-.4-.4-.5-.1a.84.84,0,0,0,1.3,1c1-.8-.5-1.9-.4-2.7-.1.1-.3.1-.4.2,1.2.7.2,4.5-1.3,3.3-.2-.2-.5,0-.4.2.3,1.5,2,.9,2.8.4.2-.1.1-.4-.1-.5-.7-.3-1.4-.6-2.2-.9,0,.2-.1.3-.1.5a1.52,1.52,0,1,0,.9-2.9c-.2-.1-.4.2-.3.4.4.8,1.5.6,1.8,1.5a1.39,1.39,0,0,1,0,1.1,1.2,1.2,0,0,1-.5.5c-.3.2-.3.2-.1.2a1.62,1.62,0,0,0,.9-.5c1-.9,1.1-2.5-.3-3-.2-.2-.3.3,0,.4Z" transform="translate(0.6 -0.73)"/><path class="cls-22" d="M176.5,954.6a1.5,1.5,0,0,1-.9,1c-.3.1,0,.6.3.4a1.79,1.79,0,0,0,1.1-1.3c.1-.3-.4-.4-.5-.1Z" transform="translate(0.6 -0.73)"/><path class="cls-3" d="M83.4,1346.9v21.3c6.8,15.1,25.6,24,48.6,30.7,4.5,1.1,12.4-6.5,14-8.9s-31.7-19.8-40.1-29.6l-.5-13.5" transform="translate(0.6 -0.73)"/><path class="cls-3" d="M122.1,1340.6v22.3c6.4,15.8,23.9,25.1,45.3,32.2,4.2,1.2,11.6-6.8,13.1-9.4s-29.6-20.7-37.4-31l-.5-14.1" transform="translate(0.6 -0.73)"/><path class="cls-22" d="M143,975.1c.2,5.8,2.2,11.4,1.8,17.2s-2.1,11.1-1.5,16.9a.25.25,0,0,0,.5,0c-.5-5.8,1.2-11.2,1.5-16.9s-1.6-11.4-1.8-17.2c-.1-.4-.6-.4-.5,0Z" transform="translate(0.6 -0.73)"/><path class="cls-22" d="M123.2,971.1c6-1.4,11.6-7.7,12.7-13.7.1-.3-.4-.4-.5-.1-1.1,5.8-6.5,12-12.4,13.4-.3,0-.1.4.2.4Z" transform="translate(0.6 -0.73)"/><path class="cls-3" d="M108.3,870.5l.6,19.8c-12.1,1-25.2,6.8-39,16.8L2.6,1000.8c-6.1,8.2,40.3,51.5,62.9,78.8l3.4-17.7s-37.1-59.3-33.5-63.8,46.4-58,46.4-58c19.1,53.2,17.2,94.6-9,121.1l101,2c-6.4-24.6-10.2-62.7-9.9-93.9,24.4-11.2,13.2-29.3.3-43.7l55.4,73.1c2.3,3,7,3.7,14.8.6l65.1-30.9,10.2-16.6s-75,21.1-78.5,21.1-56.2-79.1-60.9-82.8-31.9-1.5-31.9-1.5l-1.1-11Z" transform="translate(0.6 -0.73)"/><path class="cls-23" d="M113.3,972.9c30.2-4.9,25.2-24.9,10.4-33.9" transform="translate(0.6 -0.73)"/><path class="cls-21" d="M174.4,952.3c.3,1.4-1,2.7-.3,3.9s2.3,1,3.3.2a3.47,3.47,0,0,0,1.4-3.5,5.48,5.48,0,0,0-2.3-2.9c-1-.7-2.4.7-1.7,1.7.2.3,1,1.2.7,1.5a1.25,1.25,0,0,0,1.2,2.1c.2,0,.3-.1.5-.1-.5-.6-.9-1.2-1.4-1.8-.1.1-.2.3-.3.4a1.24,1.24,0,0,0-.9,1.4,1.28,1.28,0,0,0,1.2,1.1c1.3-.1,2.7-.6,3.1-2a2.23,2.23,0,0,0-1.6-2.8,1.25,1.25,0,0,0-.7,2.4c-.3-.1-.1-.2-.2-.3a6.37,6.37,0,0,1-.7.2c.1.8.2,1.6.3,2.5a3.35,3.35,0,0,0,1.8-1.5,1.23,1.23,0,0,0-1.4-1.8c-.2,0-.3.1-.5.1l1.2,2.1c1.2-1.5.7-3.1-.3-4.6l-1.7,1.7c.4.3,1,.7,1.1,1.1s-.3.8-.5,1.2c-.5.2-.3.4.6.7,0-.1.1-.2.1-.3a2.28,2.28,0,0,0,.3-1.1,5,5,0,0,0-.1-2.1c-.1-1.7-2.5-1.1-2.2.5Z" transform="translate(0.6 -0.73)"/><path class="cls-23" d="M156.9,972.1c30.9-8.4,24.1-33.7,8.5-37.2" transform="translate(0.6 -0.73)"/><path class="cls-24" d="M131.8,898.3c.6-2.9,3.9-4.4,6.8-4.4,2.5,0,4.9.9,7.3,1.4s5.1.8,7.3-.4" transform="translate(0.6 -0.73)"/><path class="cls-24" d="M118.4,897.6a12.82,12.82,0,0,0-7.5.8c-2.4,1.1-4.4,3-6.9,3.8s-5.2.5-7.8.2" transform="translate(0.6 -0.73)"/><path class="cls-22" d="M67.6,1078c-1.6-1.2-3.5-1.2-5.4-1.1a.25.25,0,0,0,0,.5c1.8-.1,3.6-.2,5.1,1,.3.3.5-.2.3-.4Z" transform="translate(0.6 -0.73)"/><path class="cls-22" d="M79,1060a6,6,0,0,1-.9-3.2.25.25,0,0,0-.5,0,6.65,6.65,0,0,0,.9,3.4c.2.4.6.1.5-.2Z" transform="translate(0.6 -0.73)"/><path class="cls-21" d="M127.4,956.1c.3,1.4-1,2.7-.3,3.9s2.3,1,3.3.2a3.47,3.47,0,0,0,1.4-3.5,5.48,5.48,0,0,0-2.3-2.9c-1-.7-2.4.7-1.7,1.7.2.3,1,1.2.7,1.5a1.25,1.25,0,0,0,1.2,2.1c.2,0,.3-.1.5-.1-.5-.6-.9-1.2-1.4-1.8-.1.1-.2.3-.3.4a1.24,1.24,0,0,0-.9,1.4,1.28,1.28,0,0,0,1.2,1.1c1.3-.1,2.7-.6,3.1-2a2.23,2.23,0,0,0-1.6-2.8,1.25,1.25,0,0,0-.7,2.4c-.3-.1-.1-.2-.2-.3a6.37,6.37,0,0,1-.7.2c.1.8.2,1.6.3,2.5a3.35,3.35,0,0,0,1.8-1.5,1.23,1.23,0,0,0-1.4-1.8c-.2,0-.3.1-.5.1l1.2,2.1c1.2-1.5.7-3.1-.3-4.6l-1.7,1.7c.4.3,1,.7,1.1,1.1s-.3.8-.5,1.2c-.5.2-.3.4.6.7,0-.1.1-.2.1-.3a2.28,2.28,0,0,0,.3-1.1,5,5,0,0,0-.1-2.1c-.1-1.8-2.5-1.1-2.2.5Z" transform="translate(0.6 -0.73)"/><path class="cls-17" d="M124.3,849.1c10.8,15.8,31.9,10.8,31.3-7.7Z" transform="translate(0.6 -0.73)"/><path class="cls-25" d="M144.3,815.6c2-10,9.5-12.5,18.4-5.4" transform="translate(0.6 -0.73)"/><path class="cls-25" d="M105.2,826.5c2-10,9.5-12.5,18.4-5.4" transform="translate(0.6 -0.73)"/><path class="cls-16" d="M136.1,816.3c.7,1.5,1.4,3,2,4.4a9.29,9.29,0,0,0,.5,1,2,2,0,0,0,.6.7,11.51,11.51,0,0,0,1.7,1.4,19.26,19.26,0,0,0,3.8,2.3,29.91,29.91,0,0,0,4.2,1.5l.8.2.2.7a.76.76,0,0,1,.1.4v.8a3,3,0,0,1-.2,1,4.17,4.17,0,0,1-.9,1.6,6.72,6.72,0,0,1-2.5,2c-.9.5-1.7.8-2.6,1.2s-1.8.7-2.7,1c.7-.7,1.4-1.4,2.1-2s1.5-1.2,2.1-1.8a6.62,6.62,0,0,0,1.5-1.9,1.61,1.61,0,0,0,.3-.9v-.6l1,.9a21.33,21.33,0,0,1-4.9-1.5,16,16,0,0,1-4.2-3,11.19,11.19,0,0,1-1.7-2,8.27,8.27,0,0,1-.7-1.3c-.1-.4-.2-.9-.3-1.3C136.2,819.6,136.1,818,136.1,816.3Z" transform="translate(0.6 -0.73)"/><path class="cls-12" d="M315.7,954.8c1.3-.2,1.7.2,2.6,1.1a3.39,3.39,0,0,0,4.6.3,3.68,3.68,0,0,0,.7-4.7,7.12,7.12,0,0,0-3.9-2.9,2.38,2.38,0,0,0-2.6.9,2.8,2.8,0,0,0-.2,2.8c.4.9.8,1.8,1.3,2.8a2.56,2.56,0,0,0,3.4.9,2.47,2.47,0,0,0,.9-3.4c-.4-.9-.8-1.8-1.3-2.8-.9,1.2-1.9,2.4-2.8,3.7a2.19,2.19,0,0,1,.5.3c.8.6-.3.2.3-.7l.9-.9h1.4c.2,0,.5.5.1.1l-.6-.6a9.06,9.06,0,0,0-1.6-1.1,7,7,0,0,0-3.7-.7,2.61,2.61,0,0,0-2.5,2.5,2.45,2.45,0,0,0,2.5,2.4Z" transform="translate(0.6 -0.73)"/><rect class="cls-2" x="612.8" y="833.37" width="114.9" height="74.2"/><rect class="cls-2" x="614.3" y="940.17" width="113.4" height="33.8"/><path class="cls-3" d="M656.9,872.7l.6,19.7c-12.1,1-25,6.8-38.8,16.8l-66.9,93.3c-6.9,11.8,54.9,19.9,79,38.3l9.5-15.4s-57.5-23.7-54-28.1S630.5,942,630.5,942c19,53-14.7,116.3-8.9,115.3s112.1,30.5,103.3,12.8c-5.4-10.9-13.1-67.9-12.8-99,24.3-11.2,13.1-29.2.3-43.5l55.1,72.8c2.3,3,6.9,3.7,14.7.6l64.7-30.8L857,953.6s-74.6,21-78.1,21-55.9-78.8-60.6-82.5-31.7-1.5-31.7-1.5l-1.1-10.9Z" transform="translate(0.6 -0.73)"/><path class="cls-18" d="M846.6,968.5c8.1,3.3,14.7,10,23.1,12.1.2,0,.4.1.6,0,2.3-1.7.4-.9.1-1.4-.7-1.3-1.3-2.6-2-3.9a25.72,25.72,0,0,0,4.8.2,2.23,2.23,0,0,0,1.4-.3c.4-.2.6-.1.5-1.2s-.3-.4-.5-.5c-1.6-1.1-3.3-2.2-4.1-3.9l5.8.6c.7.1.8.9,1.9-.6s-.3-1.3-.9-1.8c-1.1-1-2.3-1.9-3.4-2.9,1.9.1,3.8.1,5.6.2a1.27,1.27,0,0,0,.6-.1c.2-.1.8,1.8.3-.7s-.6-1.4-1.2-1.8a4.85,4.85,0,0,0-2.1-.8c-6.5-1.2-10.2-4.3-8.9-6.2.2-.3,2.3-2,2.2-2.4-.2-.7.6,1.3.2.7-.6-1,1.7.8,2.1.2a14.62,14.62,0,0,0-.5-2c0-.1-.1-.2-.2-.3-1.9-1.8-4.7-1.9-7.3-1.8a15.47,15.47,0,0,0-4.3.7,10.84,10.84,0,0,0-2.9,1.8,31.61,31.61,0,0,0-10.7,15.9" transform="translate(0.6 -0.73)"/><polyline class="cls-19" points="845.9 991.57 852.8 982.37 966.9 836.07"/><ellipse class="cls-3" cx="680.9" cy="818.67" rx="45.6" ry="60.5"/><path class="cls-2" d="M606.6,925l21.2-27.4c.7-45,15.3-27.7,6.8-70.7,0,0,21.4,2.8,9.8-27.5-1.2-3.2,4.5,1.5,4.5,1.5s4,2.5,7.4,5.1c13.2,10.3,44.9-.1,31.4-14.4-1.1-1.2-3.2-3.8-3.2-3.8l14.4,9.1,17.6-15c15.9,27,3.1,68,2.1,110l15.8,19.4c8.6-50.9,5.3-101.5-17.3-141.9S610.2,746.1,607,787.9,606.6,925,606.6,925Z" transform="translate(0.6 -0.73)"/><path class="cls-3" d="M627.6,1061.6c30.3,2.5,95,.2,97.4,8.5s-13.2,93-16,136.1c0,0-9.9,92.7-15.4,150.4-6.9,4.7-14.4,4.2-22.2,0-2.6-70,6.2-118.3,8-152.4,1.6-31.5-1.5-72.7-8-125.5l-2.8-7.7c3.5,6.6,4.7,20.5,4.1,39.3,0,0-1.1,24.2-2.1,37.2-1.1,13.7-2.5,28.5-4,44,0,.3,1,2.3.8,3.6,1.1,1,3.4,18-2.6,19.5-4.3,1.1-2.7,31.2-10.9,136.7-4.5,2.3-17.8,9-21.5,4.4a6.08,6.08,0,0,1-1.2-4.4c1-23.4,1.5-35.1,2.1-37,2.8-9.3-5-41.4-3.4-86.9,1.1-31.8,14.9-32.5,14.9-32.5s-28.6-130.5-23.5-139.2C632.6,1046.9,626.6,1060.5,627.6,1061.6Z" transform="translate(0.6 -0.73)"/><path class="cls-21" d="M674.4,1098.4a26.87,26.87,0,0,0-13.7-23.3c-1.4-.8-2.7,1.4-1.3,2.2a24.48,24.48,0,0,1,12.5,21.1c.1,1.6,2.6,1.6,2.5,0Z" transform="translate(0.6 -0.73)"/><path class="cls-21" d="M672.6,1091c8.7,4.8,11.8-8.4,17.4-11.4,1.4-.8.2-2.9-1.3-2.2a16.08,16.08,0,0,0-5.5,5.5c-2,3-5.1,8.3-9.4,5.9a1.25,1.25,0,0,0-1.2,2.2Z" transform="translate(0.6 -0.73)"/><path class="cls-22" d="M675.5,956.9c.9.3.8,1.4.2,2a1.91,1.91,0,0,1-1,.5c-.2.1-.5.1-.5.4-.1.6.7.5,1,.4a1.9,1.9,0,0,0,1-1.8,2.38,2.38,0,0,0-.6-1.1c-.4-.3-1.2-.4-1.4-.9a1.38,1.38,0,0,0-.3.4,1,1,0,1,1-.7,1.9c-.3-.1-.4.4-.1.5a18,18,0,0,0,2.1.8.9.9,0,0,0-.1-.5c-.5.3-1.9,1-2.1-.1a.76.76,0,0,1-.4.2,1.57,1.57,0,0,0,2.4-.7c.4-.9.5-2.8-.5-3.3-.2-.1-.4,0-.4.2a1.49,1.49,0,0,0,.2.9l.3.6c0,.1.1.1.1.2.3.4.1.5-.5.2.1-.3-.4-.4-.5-.1a.84.84,0,0,0,1.3,1c1-.8-.5-1.9-.4-2.7-.1.1-.3.1-.4.2,1.2.7.2,4.5-1.3,3.3-.2-.2-.5,0-.4.2.3,1.5,1.9.9,2.8.4.2-.1.1-.4-.1-.5a18,18,0,0,0-2.1-.8c0,.2-.1.3-.1.5a1.52,1.52,0,1,0,.9-2.9c-.2-.1-.4.2-.3.4.4.9,1.6.6,1.9,1.7a1.39,1.39,0,0,1-.2,1.1l-.6.6c.2.1.9-.4,1-.5,1-.8,1.2-2.5-.2-3-.1-.3-.3.2,0,.3Z" transform="translate(0.6 -0.73)"/><path class="cls-22" d="M724.8,956.4a1.5,1.5,0,0,1-.9,1c-.3.1,0,.6.3.4a2,2,0,0,0,1.1-1.3c.1-.2-.4-.4-.5-.1Z" transform="translate(0.6 -0.73)"/><path class="cls-3" d="M632.2,1347.3v21.2c6.8,15,25.4,23.9,48.3,30.6,4.5,1.1,12.4-6.5,13.9-8.9s-31.5-19.7-39.9-29.4l-.5-13.4" transform="translate(0.6 -0.73)"/><path class="cls-3" d="M670.7,1341v22.2c6.4,15.7,23.7,25,45.1,32,4.2,1.2,11.5-6.8,13-9.3s-29.4-20.6-37.2-30.9l-.5-14.1" transform="translate(0.6 -0.73)"/><path class="cls-22" d="M691.1,976.8c.2,5.8,2.2,11.4,1.7,17.2s-2,11.1-1.5,16.9c.1.8,1.3.8,1.2,0-.5-5.7,1.1-11.2,1.5-16.9s-1.6-11.4-1.7-17.2c0-.8-1.3-.8-1.2,0Z" transform="translate(0.6 -0.73)"/><path class="cls-22" d="M671.8,972.9c6-1.4,11.5-7.7,12.7-13.7.1-.3-.4-.4-.5-.1-1.1,5.8-6.5,11.9-12.3,13.3-.4,0-.2.5.1.5Z" transform="translate(0.6 -0.73)"/><path class="cls-23" d="M662,974.6c30-4.8,25.1-24.8,10.3-33.8" transform="translate(0.6 -0.73)"/><path class="cls-21" d="M722.7,954.2c.3,1.4-1,2.7-.3,3.9s2.3,1,3.3.2a3.58,3.58,0,0,0,1.4-3.5,5.48,5.48,0,0,0-2.3-2.9c-1-.7-2.4.7-1.7,1.7.2.3,1,1.2.7,1.5a1.25,1.25,0,0,0,1.2,2.1c.2,0,.3-.1.5-.1-.5-.6-.9-1.2-1.4-1.8-.1.1-.2.3-.3.3a1.24,1.24,0,0,0-.9,1.4,1.28,1.28,0,0,0,1.2,1.1c1.3-.1,2.7-.6,3.1-2a2.23,2.23,0,0,0-1.6-2.8,1.25,1.25,0,0,0-.7,2.4c-.3-.1-.1-.2-.2-.3a6.37,6.37,0,0,1-.7.2c.1.8.2,1.6.3,2.5a3.35,3.35,0,0,0,1.8-1.5,1.23,1.23,0,0,0-1.4-1.8c-.2,0-.3.1-.5.1l1.2,2.1c1.2-1.5.7-3.1-.3-4.5l-1.7,1.7c.4.3,1,.7,1.1,1.1s-.3.8-.5,1.2c-.5.2-.3.4.6.7,0-.1.1-.2.1-.3a2.28,2.28,0,0,0,.3-1.1,5,5,0,0,0-.1-2.1c-.1-1.8-2.5-1.1-2.2.5Z" transform="translate(0.6 -0.73)"/><path class="cls-23" d="M705.3,973.9c30.8-8.3,24-33.6,8.5-37" transform="translate(0.6 -0.73)"/><path class="cls-24" d="M680.4,900.4c.6-2.8,3.8-4.4,6.7-4.4,2.5,0,4.8.9,7.2,1.4s5,.8,7.2-.4" transform="translate(0.6 -0.73)"/><path class="cls-24" d="M667,899.7a12.91,12.91,0,0,0-7.5.8c-2.4,1.1-4.4,3-6.9,3.8s-5.2.5-7.8.2" transform="translate(0.6 -0.73)"/><path class="cls-22" d="M627.8,1061.5a6,6,0,0,1-.9-3.2.25.25,0,0,0-.5,0,6.65,6.65,0,0,0,.9,3.4c.2.3.7.1.5-.2Z" transform="translate(0.6 -0.73)"/><path class="cls-21" d="M676,957.9c.3,1.4-1,2.7-.3,3.9s2.3,1,3.3.2a3.58,3.58,0,0,0,1.4-3.5,5.48,5.48,0,0,0-2.3-2.9c-1-.7-2.4.7-1.7,1.7.2.3,1,1.2.7,1.5a1.25,1.25,0,0,0,1.2,2.1c.2,0,.3-.1.5-.1-.5-.6-.9-1.2-1.4-1.8-.1.1-.2.3-.3.3a1.24,1.24,0,0,0-.9,1.4,1.28,1.28,0,0,0,1.2,1.1c1.3-.1,2.7-.6,3.1-2a2.23,2.23,0,0,0-1.6-2.8,1.25,1.25,0,0,0-.7,2.4c-.3-.1-.1-.2-.2-.3a6.37,6.37,0,0,1-.7.2c.1.8.2,1.6.3,2.5a3.35,3.35,0,0,0,1.8-1.5,1.23,1.23,0,0,0-1.4-1.8c-.2,0-.3.1-.5.1l1.2,2.1c1.2-1.5.7-3.1-.3-4.5l-1.7,1.7c.4.3,1,.7,1.1,1.1s-.3.8-.5,1.2c-.5.2-.3.4.6.7,0-.1.1-.2.1-.3a2.28,2.28,0,0,0,.3-1.1,5,5,0,0,0-.1-2.1c-.1-1.7-2.5-1.1-2.2.5Z" transform="translate(0.6 -0.73)"/><path class="cls-17" d="M672.9,851.3c10.7,15.7,31.7,10.7,31.1-7.7Z" transform="translate(0.6 -0.73)"/><path class="cls-25" d="M692.8,818c2-10,9.5-12.4,18.3-5.4" transform="translate(0.6 -0.73)"/><path class="cls-25" d="M653.9,828.8c2-10,9.5-12.4,18.3-5.4" transform="translate(0.6 -0.73)"/><path class="cls-16" d="M684.7,818.7c.7,1.5,1.4,3,2,4.4a9.29,9.29,0,0,0,.5,1,2,2,0,0,0,.6.7c.5.5,1.1.9,1.7,1.4a21.38,21.38,0,0,0,3.8,2.3,29.91,29.91,0,0,0,4.2,1.5l.8.2.2.7a.76.76,0,0,1,.1.4v.8a3,3,0,0,1-.2,1,6,6,0,0,1-.8,1.6,7.89,7.89,0,0,1-2.5,2c-.9.5-1.7.8-2.6,1.2s-1.8.7-2.7,1c.7-.7,1.4-1.4,2.1-2s1.5-1.2,2.1-1.8a6.62,6.62,0,0,0,1.5-1.9,1.61,1.61,0,0,0,.3-.9v-.6l1,.9a21.34,21.34,0,0,1-4.9-1.5,16,16,0,0,1-4.2-3,11.2,11.2,0,0,1-1.7-2,8.27,8.27,0,0,1-.7-1.3c-.1-.4-.2-.9-.3-1.3A18.8,18.8,0,0,1,684.7,818.7Z" transform="translate(0.6 -0.73)"/><path class="cls-20" d="M629.5,1041c7.8,3,14.2,9.2,22.4,11.2.2,0,.4.1.5,0,2.2-1.6.3-.9.1-1.3-.7-1.2-1.3-2.4-2-3.6a36.19,36.19,0,0,0,4.7.2,3.18,3.18,0,0,0,1.4-.2c.4-.2.6-.1.5-1.1s-.3-.4-.5-.5c-1.5-1-3.2-2-4-3.6l5.7.6c.7.1.8.8,1.9-.6s-.3-1.2-.8-1.6l-3.3-2.7c1.8.1,3.7.1,5.5.2a.75.75,0,0,0,.5-.1c.2-.1.7,1.7.3-.6s-.6-1.3-1.2-1.6a5,5,0,0,0-2-.8,16.75,16.75,0,0,1-7.4-2.8c-1.5-1.2-2.2-3.4.4-3.9.9-.2,2,.1,2.6-.6s0-1.8-.7-2.4a8.57,8.57,0,0,0-6-1.8c-2.2.1-4.8.5-6.5,1.9a54,54,0,0,0-5.2,4.3,26.76,26.76,0,0,0-6.6,11.4" transform="translate(0.6 -0.73)"/><path class="cls-12" d="M632.3,1039.7c1.7-3.9,4.4-9.4,8.7-10.8,3.1-1,1.7-5.8-1.3-4.8-5.8,1.9-9.4,7.8-11.7,13.1-1.3,2.9,3,5.4,4.3,2.5Z" transform="translate(0.6 -0.73)"/><path class="cls-12" d="M632.2,1037.6a5.54,5.54,0,0,1-.6-.8c-.2-.3.3.5,0,0-.1-.1-.2-.3-.3-.4a2.47,2.47,0,0,0-3.4-.9,2.56,2.56,0,0,0-.9,3.4l1.5,2.4,3.9-3a10.94,10.94,0,0,1-1.1-1,2.47,2.47,0,0,0-3.5,3.5,10.94,10.94,0,0,1,1.1,1,2.57,2.57,0,0,0,3.3.2,2.37,2.37,0,0,0,.6-3.2l-1.5-2.4c-1.4.8-2.9,1.7-4.3,2.5a18.38,18.38,0,0,0,1.7,2.2,2.47,2.47,0,1,0,3.5-3.5Z" transform="translate(0.6 -0.73)"/><path class="cls-12" d="M651.5,1051.5a4.35,4.35,0,0,1,.4.7c.3.4-.1-.4,0,.1.1.2.1.4.2.6s.1.3.1.4c0-.3-.1-.4,0-.1a2.5,2.5,0,0,0,5,0,8.28,8.28,0,0,0-1.3-4.1,2.47,2.47,0,0,0-3.4-.9,2.29,2.29,0,0,0-1,3.3Z" transform="translate(0.6 -0.73)"/><path class="cls-12" d="M662.1,1041.5h.9a2.48,2.48,0,0,0,2.5-2.5,2.54,2.54,0,0,0-2.5-2.5h-.9a2.48,2.48,0,0,0-2.5,2.5,2.61,2.61,0,0,0,2.5,2.5Z" transform="translate(0.6 -0.73)"/><path class="cls-12" d="M875.2,952.5a6.81,6.81,0,0,0-3.3-2.5c-.2,1.6-.4,3.3-.7,4.9a1,1,0,0,1-.8-.7c.1.6.2.5.1-.3l1.7-1.7c-.1,0-.1,0-.2.1h1.3c.1.1.3.1.4.2-.2-.1-.3-.3-.5-.4a2.51,2.51,0,0,0-.7-.4,5.77,5.77,0,0,0-1.7-.6,13.43,13.43,0,0,0-3.5-.3c-3.2-.1-3.2,4.9,0,5a6.81,6.81,0,0,1,2.8.4,14,14,0,0,0,1.6,1,3,3,0,0,0,2.6-.4c2.7-2.1-.1-7-3.2-6.7a2.51,2.51,0,0,0-.7,4.9s.2.2.3.2a2.58,2.58,0,0,0,3.4.9c1.2-.8,1.9-2.5,1.1-3.6Z" transform="translate(0.6 -0.73)"/><path class="cls-12" d="M864.6,956.6a3.82,3.82,0,0,0,2.2-1.5c-.5.2-.6.3-.2.2h.7a10.87,10.87,0,0,1,1.8.1c-.4-.1-.8-.2-1.3-.3.1.1.2.1.3.2a14.3,14.3,0,0,1-1.1-1.5c-.1-.5.2.9.3,1.1a4.26,4.26,0,0,0,1.1,1.2,3.75,3.75,0,0,0,3.1.2c1.4-.4,2.5-2.4,1.5-3.7-.5-.6-.9-1.2-1.4-1.8a2.58,2.58,0,0,0-3.4-.9,2.47,2.47,0,0,0-.9,3.4c.5.6.9,1.2,1.4,1.8.5-1.2,1-2.4,1.5-3.7.2.1.4.1.6.2l.9.9c0-.1-.1-.1-.1-.2.1.4.2.8.3,1.3a2.93,2.93,0,0,0-1.3-2.6,5.42,5.42,0,0,0-3.1-.6,8.61,8.61,0,0,0-2.8.3,3.53,3.53,0,0,0-1.3.8l-.3.3c-.3.3-.3.3.2,0a2.48,2.48,0,0,0-1.7,3.1,2.38,2.38,0,0,0,3,1.7Z" transform="translate(0.6 -0.73)"/><path class="cls-22" d="M141,975.1c.2,5.8,2.2,11.4,1.7,17.2s-2,11.1-1.5,16.9c.1.8,1.3.8,1.2,0-.5-5.7,1.1-11.2,1.5-16.9s-1.6-11.4-1.7-17.2c0-.8-1.3-.8-1.2,0Z" transform="translate(0.6 -0.73)"/><rect class="cls-2" x="126.8" y="1962.07" width="296.8" height="88.3"/><rect class="cls-2" x="122.9" y="1683.07" width="300.7" height="193.9"/><ellipse class="cls-3" cx="301" cy="1644.77" rx="119.5" ry="158.3"/><path class="cls-22" d="M288.1,2004.5c2.3.8,2.1,3.6.5,5.2a5.35,5.35,0,0,1-2.6,1.3c-.5.3-1.3.3-1.3,1-.3,1.6,1.8,1.3,2.9,1,1.8-.8,2.6-2.9,2.6-4.7a6.94,6.94,0,0,0-1.6-2.9c-1-.8-3.1-1-3.6-2.3a4.36,4.36,0,0,0-.8,1,2.62,2.62,0,1,1-1.8,4.9c-.8-.3-1,1-.3,1.3a61.42,61.42,0,0,0,5.7,2.3,2.08,2.08,0,0,0-.3-1.3c-1.3.8-4.9,2.6-5.5-.3a1.86,1.86,0,0,1-1,.5c2.1,1.8,5.2.5,6.2-1.8s1.3-7.3-1.3-8.6a.62.62,0,0,0-1,.5,3.72,3.72,0,0,0,.5,2.3c.3.5.5,1,.8,1.6,0,.3.3.3.3.5.8,1,.3,1.3-1.3.5.3-.8-1-1-1.3-.3-.8,2.1,1.6,4.2,3.4,2.6,2.6-2.1-1.3-4.9-1-7-.3.3-.8.3-1,.5,3.1,1.8.5,11.7-3.4,8.6-.5-.5-1.3,0-1,.5.8,3.9,5.2,2.3,7.3,1,.5-.3.3-1-.3-1.3a61.42,61.42,0,0,0-5.7-2.3c0,.5-.3.8-.3,1.3,5.2,1.8,7.8-6,2.3-7.5-.5-.3-1,.5-.8,1,1,2.1,3.9,1.6,4.7,3.9a3.65,3.65,0,0,1,0,2.9,4,4,0,0,1-1.3,1.3c-.8.5-.8.5-.3.5a4.1,4.1,0,0,0,2.3-1.3c2.6-2.3,2.9-6.5-.8-7.8-.4-.2-.6,1.1.1,1.4Z" transform="translate(0.6 -0.73)"/><path class="cls-22" d="M417,2003.5a4,4,0,0,1-2.3,2.6c-.8.3,0,1.6.8,1a4.69,4.69,0,0,0,2.9-3.4c.2-.8-1.1-1-1.4-.2Z" transform="translate(0.6 -0.73)"/><path class="cls-22" d="M334.5,2101.3h1.3c1-15-4.2-29.5-4.7-44.5-.3-1-1.6-1-1.3,0C330.3,2071.8,335.5,2086.3,334.5,2101.3Z" transform="translate(0.6 -0.73)"/><path class="cls-22" d="M278.3,2046.4c15.6-3.6,30.2-20,33.1-35.7.3-.8-1-1-1.3-.3-2.9,15.1-16.9,31.2-32.3,34.9-.8.1-.3,1.1.5,1.1Z" transform="translate(0.6 -0.73)"/><path class="cls-3" d="M559.4,2051.1c-9.1,0-146.3-205.9-158.5-215.6s-83-3.9-83-3.9L315,1803l-75.5-18.5,1.6,51.5c-31.5,2.6-65.6,17.7-101.5,43.7L-.1,2074.2v26.1h63c31.8-39.7,107.6-134.6,107.6-134.6,17.7,49.2,28.4,94.5,31.9,135.6h183c-.9-20.4-1.4-40.5-1.2-59.6,45.4-20.8,43.5-50.9,26.4-80l104.7,138.2h94.4l127.5-60.5,26.6-43.2S568.5,2051.1,559.4,2051.1Z" transform="translate(0.6 -0.73)"/><path class="cls-23" d="M252.5,2051.1c78.6-12.8,65.6-64.8,27.1-88.3" transform="translate(0.6 -0.73)"/><path class="cls-21" d="M411.5,1997.5c.8,3.6-2.6,7-.8,10.2s6,2.6,8.6.5,4.7-5.7,3.6-9.1c-.8-3.4-3.4-5.5-6-7.5-2.6-1.8-6.2,1.8-4.4,4.4.5.8,2.6,3.1,1.8,3.9-2.1,2.3-.3,6.5,3.1,5.5.5,0,.8-.3,1.3-.3-1.3-1.6-2.3-3.1-3.6-4.7-.3.3-.5.8-.8,1a3.07,3.07,0,0,0-2.3,3.6,3.39,3.39,0,0,0,3.1,2.9c3.4-.3,7-1.6,8.1-5.2a5.84,5.84,0,0,0-4.2-7.3c-4.2-1-5.7,5.2-1.8,6.2-.8-.3-.3-.5-.5-.8-.3,0-1.3.5-1.8.5.3,2.1.5,4.2.8,6.5a9.09,9.09,0,0,0,4.7-3.9c1.6-2.3-1-5.7-3.6-4.7-.5,0-.8.3-1.3.3,1,1.8,2.1,3.6,3.1,5.5,3.1-3.9,1.8-8.1-.8-12l-4.4,4.4c1,.8,2.6,1.8,2.9,2.9.5,1.3-.8,2.1-1.3,3.1-1.3.5-.8,1,1.6,1.8,0-.3.3-.5.3-.8a6.34,6.34,0,0,0,.8-2.9,11.49,11.49,0,0,0-.3-5.5c-.4-4.3-6.6-2.7-5.9,1.5Z" transform="translate(0.6 -0.73)"/><path class="cls-23" d="M366,2049c80.4-21.9,62.7-87.7,22.1-96.8" transform="translate(0.6 -0.73)"/><path class="cls-24" d="M300.6,1856.9c1.6-7.5,10.2-11.5,17.7-11.5,6.5,0,12.8,2.3,19,3.6s13.3,2.1,19-1" transform="translate(0.6 -0.73)"/><path class="cls-24" d="M265.8,1855.1a33.35,33.35,0,0,0-19.5,2.1c-6.2,2.9-11.5,7.8-18,9.9s-13.5,1.3-20.3.5" transform="translate(0.6 -0.73)"/><path class="cls-21" d="M289.2,2007.4c.8,3.6-2.6,7-.8,10.2s6,2.6,8.6.5,4.7-5.7,3.6-9.1c-.8-3.4-3.4-5.5-6-7.5-2.6-1.8-6.2,1.8-4.4,4.4.5.8,2.6,3.1,1.8,3.9-2.1,2.3-.3,6.5,3.1,5.5.5,0,.8-.3,1.3-.3-1.3-1.6-2.3-3.1-3.6-4.7-.3.3-.5.8-.8,1a3.07,3.07,0,0,0-2.3,3.6,3.39,3.39,0,0,0,3.1,2.9c3.4-.3,7-1.6,8.1-5.2a5.84,5.84,0,0,0-4.2-7.3c-4.2-1-5.7,5.2-1.8,6.2-.8-.3-.3-.5-.5-.8-.3,0-1.3.5-1.8.5.3,2.1.5,4.2.8,6.5a9.09,9.09,0,0,0,4.7-3.9c1.6-2.3-1-5.7-3.6-4.7-.5,0-.8.3-1.3.3,1,1.8,2.1,3.6,3.1,5.5,3.1-3.9,1.8-8.1-.8-12l-4.4,4.4c1,.8,2.6,1.8,2.9,2.9.5,1.3-.8,2.1-1.3,3.1-1.3.5-.8,1,1.6,1.8,0-.3.3-.5.3-.8a6.34,6.34,0,0,0,.8-2.9,11.49,11.49,0,0,0-.3-5.5c-.4-4.5-6.7-2.7-5.9,1.5Z" transform="translate(0.6 -0.73)"/><path class="cls-22" d="M329,2101.3h3.1c1-15-4.2-29.5-4.4-44.5,0-2.1-3.4-2.1-3.1,0C325.1,2071.8,330.2,2086.3,329,2101.3Z" transform="translate(0.6 -0.73)"/><circle class="cls-15" cx="269.9" cy="1652.17" r="30.8"/><circle cx="273.3" cy="1658.07" r="17.8"/><circle class="cls-26" cx="275.2" cy="1658.07" r="7.4"/><circle class="cls-15" cx="360.1" cy="1634.77" r="30.8"/><circle cx="357.2" cy="1644.37" r="17.8"/><circle class="cls-26" cx="357.2" cy="1644.37" r="7.4"/><ellipse class="cls-27" cx="326.92" cy="1731.07" rx="24.4" ry="43" transform="translate(-149.7 34.54) rotate(-5.02)"/><path class="cls-28" d="M309.2,1757c4.3-6.3,11.1-7.8,20.4-4.8,7.2-5.3,14-6.6,20.3-2.2-2.3,11.9-7.4,21-17.7,24.6C322.2,1777,315.1,1769.2,309.2,1757Z" transform="translate(0.6 -0.73)"/><path class="cls-16" d="M315.8,1651.4q1.2,3.9,2.4,7.5a16.19,16.19,0,0,0,.6,1.7,3.46,3.46,0,0,0,.7,1.2c.6.9,1.3,1.5,2,2.4a23.31,23.31,0,0,0,4.5,3.9,32.94,32.94,0,0,0,4.9,2.6l.9.3.2,1.2a2,2,0,0,1,.1.7v1.4a7.93,7.93,0,0,1-.2,1.7,12.14,12.14,0,0,1-.9,2.7,11,11,0,0,1-2.9,3.4,28.23,28.23,0,0,1-3.1,2.1,24.81,24.81,0,0,1-3.2,1.7,29.86,29.86,0,0,1,2.5-3.4c.8-1,1.8-2.1,2.5-3.1a13.18,13.18,0,0,0,1.8-3.3,4.19,4.19,0,0,0,.4-1.5v-1l1.2,1.5a19.93,19.93,0,0,1-5.8-2.6,23.64,23.64,0,0,1-6.9-8.5,9.75,9.75,0,0,1-.8-2.2,17,17,0,0,0-.4-2.2A36.54,36.54,0,0,1,315.8,1651.4Z" transform="translate(0.6 -0.73)"/><path class="cls-13" d="M282,1609a26,26,0,0,0-15.8-7,51.06,51.06,0,0,0-17.3,1.8c-5.7,1.3-11.1,3.6-16.5,5.9-2.6,1.3-5.4,2.6-8,3.9s-5.2,2.8-7.8,4.4q3.45-2.7,7.2-5.4c2.6-1.8,5.2-3.1,7.8-4.7a78.55,78.55,0,0,1,16.8-6.7,46.17,46.17,0,0,1,18.1-1.3c1.5.3,3.1.8,4.4,1a18.88,18.88,0,0,1,4.1,1.8A28.75,28.75,0,0,1,282,1609Z" transform="translate(0.6 -0.73)"/><path class="cls-13" d="M384.9,1577.5a64.86,64.86,0,0,0-7.7-1.1c-2.5-.4-5.1-.5-7.5-.8a75.71,75.71,0,0,0-15.1.8,36.48,36.48,0,0,0-14,5.2,23.3,23.3,0,0,0-9.1,11.8,19,19,0,0,1,2.7-7.4,22.77,22.77,0,0,1,5.4-5.8,31.7,31.7,0,0,1,14.6-5.8,51.78,51.78,0,0,1,15.7-.4A88.14,88.14,0,0,1,384.9,1577.5Z" transform="translate(0.6 -0.73)"/><path class="cls-2" d="M107.7,1921.2l55.4-71.6c1.8-117.7,40.1-72.4,18-184.8,0,0,56,7.3,25.8-71.9-3.1-8.3,11.7,3.9,11.7,3.9s10.4,6.5,19.3,13.5c34.6,27.1,117.4-.3,82.3-37.5-2.9-3.1-8.3-9.9-8.3-9.9l37.7,23.7,46.1-39c41.7,70.5,8.1,177.8,5.5,287.4l41.4,50.5c22.6-133,13.8-265-45.3-370.7-59.6-105.7-280.1-60.9-288.7,48.2S107.7,1921.2,107.7,1921.2Z" transform="translate(0.6 -0.73)"/><rect class="cls-3" x="627.7" y="1054.97" width="15.6" height="9.3"/><use class="cls-29" transform="translate(365.73 698.57) scale(0.17)" xlink:href="#image"/><path class="cls-12" d="M430.9,797.7c1.4,0,2.8,0,4.2.1h2.6a.37.37,0,0,0,.3-.1c-.6-.3-1.1-.7-1.7-1" transform="translate(0.6 -0.73)"/><path class="cls-12" d="M430.9,800.2c1.5,0,3,0,4.5.1,1.2,0,2.9.3,3.9-.4a2.53,2.53,0,0,0,0-4.3c-.6-.3-1.1-.7-1.7-1-2.7-1.7-5.3,2.6-2.5,4.3.6.3,1.1.7,1.7,1v-4.3l-.1.1c.4-.1.8-.2,1.3-.3a54.52,54.52,0,0,1-7-.1c-3.3-.1-3.3,4.9-.1,4.9Z" transform="translate(0.6 -0.73)"/><g class="cls-30"><rect class="cls-2" x="396.79" y="752.68" width="42.3" height="12.6" transform="translate(-16.89 9.17) rotate(-1.33)"/></g><g class="cls-31"><path class="cls-2" d="M424.7,714.6a81.15,81.15,0,0,0,13.9-.1l.6,25.5-42.9,1-.6-27.6,14.8-.3C415.2,713.7,420,714.3,424.7,714.6Z" transform="translate(0.6 -0.73)"/></g><g class="cls-31"><path class="cls-3" d="M403.2,712c7.2.9,14.3,2.1,21.5,2.5,1.4.1,2.9.2,4.5.2-2.2,8.7-8.3,15.1-15.7,15.2-8.3.2-15.4-7.5-17.1-18A51.46,51.46,0,0,0,403.2,712Z" transform="translate(0.6 -0.73)"/></g><g class="cls-31"><path class="cls-2" d="M396.8,712.1c.7,7.1,2.1,14.8,2.5,22.7l-5.7,7.3a102,102,0,0,1-1.6-30Z" transform="translate(0.6 -0.73)"/></g><g class="cls-31"><path class="cls-2" d="M441.1,714.1c.4,15.5.3,32.1.3,32.1l-8.1-10c-.6-14.7-4.7-11.4-3.8-21.3A57.58,57.58,0,0,0,441.1,714.1Z" transform="translate(0.6 -0.73)"/></g><g class="cls-31"><path class="cls-3" d="M418.6,804.1l.3-.9c-.7,2.9-.8,7.3-.5,12.8,0,0,.6,9.1,1.1,13.9.3,2.4.5,5,.8,7.6a12.8,12.8,0,0,1,7.5-2.2,13.1,13.1,0,0,1,8.8,3.2c.8-6.6,1.5-11.7,1.5-11.7s3.1-29.8,1.1-30.3c-.4-.1-.9.4-1.3.8-11.3,1.2-23.8-3.6-38.5,1.9.1,18.2.7,35.6,2.1,51.7,0,0,.5,2,1.2,5.2,3.4-.1,6.8.1,10.2.2.9,0,1.7.1,2.6.1a42.8,42.8,0,0,0-1.7-4.3C414.6,840.3,416.6,823.9,418.6,804.1Z" transform="translate(0.6 -0.73)"/></g><g class="cls-31"><path class="cls-22" d="M441.5,802.3c-2,.9-3.8,2.3-5.8,3.3-.5.3-2.5,1.2-2.6,1,.1.1.9-1.6.9-1.5.1-.2,0-.4-.2-.4-3.6.4-1.7,0-.6-1.5a.27.27,0,0,0-.2-.4c-.5.1-2,.5-2.4.2s.8-.9,1.3-1.3c.2-.1,0-.4-.2-.4a8.88,8.88,0,0,1-2.3.1c-.2-.1-.3.5.2.1.9-.9,3.6-.9,4.2-2.3.5-1.2-.6-.9-.7-1.4a9.2,9.2,0,0,1,1.4-1.3c.8-.3,2,.4,2.7.8a10.26,10.26,0,0,1,4.1,5.3c.1.3.6.2.5-.1-.9-2.5-2.9-5.4-5.6-6.3-1.3-.4-4.6-.4-4.4,1.6a.22.22,0,0,0,.2.2c.6.3.5,0,.5.9,0,1.1-.8,1-1.7,1.3a3.81,3.81,0,0,0-1.5.5,1.48,1.48,0,0,0-.2,1.3.25.25,0,0,0,.4-.1c-.1.1,2.9-1.2.4.7a.37.37,0,0,0-.1.3,1.56,1.56,0,0,0,.6.8h.3c.3-.1.6-.1.8-.2,1-.3,1,0-.1.7-.1,0-.3,0-.3.2a.75.75,0,0,0,.1.8c.1.1.8.2.7.2-.8-.3,3.3.4.7.8a.22.22,0,0,0-.2.2c0,2,8.5-3.4,9.2-3.7.4-.1.2-.6-.1-.4Z" transform="translate(0.6 -0.73)"/></g><g class="cls-31"><path class="cls-21" d="M418.3,812.4a9.52,9.52,0,0,1,4.6-8.2.25.25,0,1,0-.3-.4,9.49,9.49,0,0,0-4.8,8.6.25.25,0,0,0,.5,0Z" transform="translate(0.6 -0.73)"/></g><g class="cls-31"><path class="cls-21" d="M418.4,809.8c-1.8,1-3-.9-3.9-2.2a4.59,4.59,0,0,0-2-1.9c-.3-.1-.5.3-.3.4,2,1,3.4,5.9,6.4,4.1.3-.1,0-.5-.2-.4Z" transform="translate(0.6 -0.73)"/></g><g class="cls-31"><path class="cls-22" d="M415.8,758.3a.74.74,0,0,0-.4.9,1,1,0,0,0,.4.5c.1.1.4.1.5.2,0-.1-.1-.2-.1-.3a1.85,1.85,0,0,1,.2-.7c.1,0,.1-.1.2-.1s.2-.1.2-.3-.1-.5-.3-.4a.74.74,0,1,0,.5,1.4c0-.2-.1-.3-.1-.5-.3.1-.5.2-.8.3s-.3.3-.1.5c.4.3,1.1.4,1.3-.3.1-.3-.2-.4-.4-.2s-.6-.8-.3-1c-.1-.1-.3-.1-.4-.2,0,.4-.6.9,0,1.2a.51.51,0,0,0,.7-.6c-.1-.3-.6-.2-.5.1,0,0,.3-.3.3-.4s.1-.2,0-.3-.2-.3-.4-.2c-.8.6-.1,2.5.9,1.7a.76.76,0,0,0-.4-.2c-.1.3-.4,0-.5,0a.9.9,0,0,1-.1.5c.3-.1.5-.2.8-.3s.2-.6-.1-.5-.3,0-.2-.4a1.38,1.38,0,0,1-.3-.4c-.1.1-.3.2-.4.3l-.3.3a.85.85,0,0,0,0,.7c.2.3.9.7,1,.2a.37.37,0,0,0-.1-.3c-.1-.1-.1,0-.2-.1s-.1,0-.2-.1c-.3-.1-.3-.3-.1-.6.3-.1,0-.5-.3-.4Z" transform="translate(0.6 -0.73)"/></g><g class="cls-31"><path class="cls-22" d="M397.3,759a1,1,0,0,0,.5.6c.3.1.5-.3.3-.4s-.2-.1-.3-.3-.6-.2-.5.1Z" transform="translate(0.6 -0.73)"/></g><g class="cls-31"><path class="cls-22" d="M409.9,766.2c0,2.1-.7,4.2-.5,6.3s.8,4.2.7,6.4a.25.25,0,0,0,.5,0c.1-2.2-.6-4.2-.7-6.4s.5-4.2.5-6.3a.25.25,0,0,0-.5,0Z" transform="translate(0.6 -0.73)"/></g><g class="cls-31"><path class="cls-22" d="M417.6,764.2a6.79,6.79,0,0,1-4.6-4.7.26.26,0,0,0-.5.1,7.16,7.16,0,0,0,5,5.1c.3.1.4-.4.1-.5Z" transform="translate(0.6 -0.73)"/></g><g class="cls-31"><path class="cls-3" d="M422.2,727.1l-.1,7.4c4.5.3,9.4,2.3,14.6,5.9l25.8,34.2c2.4,3-14.5,19.5-22.7,29.8l-1.4-6.5s13.2-22.3,11.9-24-17.7-21.1-17.7-21.1c-6.6,19.9-5.6,35.3,4.4,44.9l-37.5,1.6c2.2-9.2,3.3-23.3,2.8-34.9-9.2-3.9-5.1-10.8-.5-16.2l-19.9,27.6c-.8,1.1-2.6,1.4-5.5.4L352,765.3l-3.9-6.1s28,7.2,29.3,7.2,20.2-29.8,21.9-31.3,11.8-.8,11.8-.8l.3-4.1Z" transform="translate(0.6 -0.73)"/></g><g class="cls-31"><path class="cls-32" d="M421.2,765.1c-11.2-1.5-9.6-9-4.1-12.5" transform="translate(0.6 -0.73)"/></g><g class="cls-31"><path class="cls-21" d="M397.7,757.9c0,.2-.1.4,0,.6s.2.5.2.6-.4-.3-.4-.4c-.1-.4.3-.6.6-.8-.1-.1-.3-.2-.4-.3-.3.5-.5,1-.1,1.4a.76.76,0,0,0,.2-.4h-.2c-.2-.1-.4.2-.3.4a1,1,0,0,0,.5.4c0-.2.1-.3.1-.5a.37.37,0,0,1-.3-.1c-.1,0-.2-.1-.1-.3.3-.1.2-.6-.1-.5a.68.68,0,0,0-.4.8c.1.4.6.5,1,.6.2,0,.4-.4.1-.5-.1,0-.2-.1-.3-.2a1.38,1.38,0,0,0-.3.4h.2c.3.1.4-.2.2-.4s0-.6.2-.8-.2-.5-.4-.3a1.36,1.36,0,0,0-.7,1.1,1.15,1.15,0,0,0,.6.9.61.61,0,0,0,.8,0c.1-.1.1-.2.1-.4a.76.76,0,0,0-.2-.4,1.7,1.7,0,0,1-.1-.7c0-.4-.5-.5-.5-.2Z" transform="translate(0.6 -0.73)"/></g><g class="cls-31"><path class="cls-32" d="M404.5,765.2c-11.4-3.5-8.7-11.1-2.6-13.8" transform="translate(0.6 -0.73)"/></g><g class="cls-31"><path class="cls-33" d="M413.9,737.6c-1.3-3.5-5.8-.3-8.1-1.2-.3-.1-.4.4-.1.5,2.3.8,6.7-2,7.8.9,0,.2.5.1.4-.2Z" transform="translate(0.6 -0.73)"/></g><g class="cls-31"><path class="cls-33" d="M418.7,737.5c2.1-.4,3.1.7,4.8,1.4a6.89,6.89,0,0,0,3.5.2c.3,0,.2-.5-.1-.5a5,5,0,0,1-3.6-.4c-.6-.3-1.1-.7-1.7-1a6.06,6.06,0,0,0-3-.3c-.3.2-.2.7.1.6Z" transform="translate(0.6 -0.73)"/></g><g class="cls-31"><path class="cls-22" d="M439.3,804a2.83,2.83,0,0,1,1.8-.4.25.25,0,0,0,0-.5,3,3,0,0,0-2.1.5c-.3.3,0,.6.3.4Z" transform="translate(0.6 -0.73)"/></g><g class="cls-31"><path class="cls-22" d="M435,797.4a3.19,3.19,0,0,0,.3-1.4.25.25,0,0,0-.5,0,2,2,0,0,1-.3,1.1.3.3,0,0,0,.5.3Z" transform="translate(0.6 -0.73)"/></g><g class="cls-31"><path class="cls-21" d="M415.1,758.9c0,.2-.1.4,0,.6s.2.5.2.6-.4-.3-.4-.4c-.1-.4.3-.6.6-.8-.1-.1-.3-.2-.4-.3-.3.5-.5,1-.1,1.4a.76.76,0,0,0,.2-.4H415c-.2-.1-.4.2-.3.4a1,1,0,0,0,.5.4c0-.2.1-.3.1-.5a.37.37,0,0,1-.3-.1c-.1,0-.2-.1-.1-.3.3-.1.2-.6-.1-.5a.68.68,0,0,0-.4.8c.1.4.6.5,1,.6.2,0,.4-.4.1-.5-.1,0-.2-.1-.3-.2a1.38,1.38,0,0,0-.3.4h.2c.3.1.4-.2.2-.4s0-.6.2-.8-.2-.5-.4-.3a1.36,1.36,0,0,0-.7,1.1,1.15,1.15,0,0,0,.6.9.61.61,0,0,0,.8,0c.1-.1.1-.2.1-.4a.76.76,0,0,0-.2-.4,1.7,1.7,0,0,1-.1-.7c.1-.4-.4-.6-.5-.2Z" transform="translate(0.6 -0.73)"/></g><g class="cls-31"><path class="cls-17" d="M416,719.3c-3.9,5.9-11.7,4.3-11.7-2.6Z" transform="translate(0.6 -0.73)"/></g><use class="cls-29" transform="translate(915.59 704.91) scale(0.17)" xlink:href="#image"/><g class="cls-34"><rect class="cls-2" x="947.17" y="758.28" width="42.3" height="12.6" transform="translate(-16.87 21.93) rotate(-1.33)"/></g><g class="cls-35"><path class="cls-2" d="M975.1,720.2a81.15,81.15,0,0,0,13.9-.1l.6,25.5-42.9,1-.6-27.6,14.8-.3C965.6,719.3,970.4,719.9,975.1,720.2Z" transform="translate(0.6 -0.73)"/></g><g class="cls-35"><path class="cls-3" d="M953.6,717.6c7.2.9,14.3,2.1,21.5,2.5,1.4.1,2.9.2,4.5.2-2.2,8.7-8.3,15.1-15.7,15.2-8.3.2-15.4-7.5-17.1-18A51.44,51.44,0,0,0,953.6,717.6Z" transform="translate(0.6 -0.73)"/></g><g class="cls-35"><path class="cls-2" d="M947.2,717.7c.7,7.1,2.1,14.8,2.5,22.7l-5.7,7.3a102,102,0,0,1-1.6-30Z" transform="translate(0.6 -0.73)"/></g><g class="cls-35"><path class="cls-2" d="M991.5,719.7c.4,15.5.3,32.1.3,32.1l-8.1-10c-.6-14.7-4.7-11.4-3.8-21.3A57.59,57.59,0,0,0,991.5,719.7Z" transform="translate(0.6 -0.73)"/></g><g class="cls-35"><path class="cls-3" d="M969,809.7l.3-.9c-.7,2.9-.8,7.3-.5,12.8,0,0,.6,9.1,1.1,13.9.3,2.4.5,5,.8,7.6a12.8,12.8,0,0,1,7.5-2.2,13.1,13.1,0,0,1,8.8,3.2c.8-6.6,1.5-11.7,1.5-11.7s3.1-29.8,1.1-30.3c-.4-.1-.9.4-1.3.8-11.3,1.2-23.8-3.6-38.5,1.9.1,18.2.7,35.6,2.1,51.7,0,0,.5,2,1.2,5.2,3.4-.1,6.8.1,10.2.2.9,0,1.7.1,2.6.1a42.79,42.79,0,0,0-1.7-4.3C965,845.9,967,829.5,969,809.7Z" transform="translate(0.6 -0.73)"/></g><g class="cls-35"><path class="cls-22" d="M991.9,807.9c-2,.9-3.8,2.3-5.8,3.3-.5.3-2.5,1.2-2.6,1,.1.1.9-1.6.9-1.5.1-.2,0-.4-.2-.4-3.6.4-1.7,0-.6-1.5a.27.27,0,0,0-.2-.4c-.5.1-2,.5-2.4.2s.8-.9,1.3-1.3c.2-.1,0-.4-.2-.4a8.88,8.88,0,0,1-2.3.1c-.2-.1-.3.5.2.1.9-.9,3.6-.9,4.2-2.3.5-1.2-.6-.9-.7-1.4a9.2,9.2,0,0,1,1.4-1.3c.8-.3,2,.4,2.7.8a10.26,10.26,0,0,1,4.1,5.3c.1.3.6.2.5-.1-.9-2.5-2.9-5.4-5.6-6.3-1.3-.4-4.6-.4-4.4,1.6a.22.22,0,0,0,.2.2c.6.3.5,0,.5.9,0,1.1-.8,1-1.7,1.3a3.8,3.8,0,0,0-1.5.5,1.48,1.48,0,0,0-.2,1.3.25.25,0,0,0,.4-.1c-.1.1,2.9-1.2.4.7a.37.37,0,0,0-.1.3,1.56,1.56,0,0,0,.6.8h.3c.3-.1.6-.1.8-.2,1-.3,1,0-.1.7-.1,0-.3,0-.3.2a.76.76,0,0,0,.1.8c.1.1.8.2.7.2-.8-.3,3.3.4.7.8a.22.22,0,0,0-.2.2c0,2,8.5-3.4,9.2-3.7.4-.1.2-.6-.1-.4Z" transform="translate(0.6 -0.73)"/></g><g class="cls-35"><path class="cls-21" d="M968.7,818a9.52,9.52,0,0,1,4.6-8.2.25.25,0,1,0-.3-.4,9.49,9.49,0,0,0-4.8,8.6.25.25,0,0,0,.5,0Z" transform="translate(0.6 -0.73)"/></g><g class="cls-35"><path class="cls-21" d="M968.8,815.4c-1.8,1-3-.9-3.9-2.2a4.59,4.59,0,0,0-2-1.9c-.3-.1-.5.3-.3.4,2,1,3.4,5.9,6.4,4.1.3-.1,0-.5-.2-.4Z" transform="translate(0.6 -0.73)"/></g><g class="cls-35"><path class="cls-22" d="M966.2,763.9a.74.74,0,0,0-.4.9,1,1,0,0,0,.4.5c.1.1.4.1.5.2,0-.1-.1-.2-.1-.3a1.85,1.85,0,0,1,.2-.7c.1,0,.1-.1.2-.1s.2-.1.2-.3-.1-.5-.3-.4a.74.74,0,1,0,.5,1.4c0-.2-.1-.3-.1-.5-.3.1-.5.2-.8.3s-.3.3-.1.5c.4.3,1.1.4,1.3-.3.1-.3-.2-.4-.4-.2s-.6-.8-.3-1c-.1-.1-.3-.1-.4-.2,0,.4-.6.9,0,1.2a.51.51,0,0,0,.7-.6c-.1-.3-.6-.2-.5.1,0,0,.3-.3.3-.4s.1-.2,0-.3-.2-.3-.4-.2c-.8.6-.1,2.5.9,1.7a.76.76,0,0,0-.4-.2c-.1.3-.4,0-.5,0a.9.9,0,0,1-.1.5c.3-.1.5-.2.8-.3s.2-.6-.1-.5-.3,0-.2-.4a1.38,1.38,0,0,1-.3-.4c-.1.1-.3.2-.4.3l-.3.3a.85.85,0,0,0,0,.7c.2.3.9.7,1,.2a.37.37,0,0,0-.1-.3c-.1-.1-.1,0-.2-.1s-.1,0-.2-.1c-.3-.1-.3-.3-.1-.6.3-.1,0-.5-.3-.4Z" transform="translate(0.6 -0.73)"/></g><g class="cls-35"><path class="cls-22" d="M947.7,764.6a1,1,0,0,0,.5.6c.3.1.5-.3.3-.4s-.2-.1-.3-.3-.6-.2-.5.1Z" transform="translate(0.6 -0.73)"/></g><g class="cls-35"><path class="cls-22" d="M960.3,771.8c0,2.1-.7,4.2-.5,6.3s.8,4.2.7,6.4a.25.25,0,0,0,.5,0c.1-2.2-.6-4.2-.7-6.4s.5-4.2.5-6.3a.25.25,0,0,0-.5,0Z" transform="translate(0.6 -0.73)"/></g><g class="cls-35"><path class="cls-22" d="M968,769.8a6.79,6.79,0,0,1-4.6-4.7.26.26,0,0,0-.5.1,7.16,7.16,0,0,0,5,5.1c.3.1.4-.4.1-.5Z" transform="translate(0.6 -0.73)"/></g><g class="cls-35"><path class="cls-3" d="M972.6,732.7l-.1,7.4c4.5.3,9.4,2.3,14.6,5.9l25.8,34.2c2.4,3-14.5,19.5-22.7,29.8l-1.4-6.5s13.2-22.3,11.9-24S983,758.4,983,758.4c-6.6,19.9-5.6,35.3,4.4,44.9l-37.5,1.6c2.2-9.2,3.3-23.3,2.8-34.9-9.2-3.9-5.1-10.8-.5-16.2l-19.9,27.6c-.8,1.1-2.6,1.4-5.5.4l-24.4-10.9-3.9-6.1s28,7.2,29.3,7.2,20.2-29.8,21.9-31.3,11.8-.8,11.8-.8l.3-4.1Z" transform="translate(0.6 -0.73)"/></g><g class="cls-35"><path class="cls-32" d="M971.6,770.7c-11.2-1.5-9.6-9-4.1-12.5" transform="translate(0.6 -0.73)"/></g><g class="cls-35"><path class="cls-21" d="M948.1,763.5c0,.2-.1.4,0,.6s.2.5.2.6-.4-.3-.4-.4c-.1-.4.3-.6.6-.8-.1-.1-.3-.2-.4-.3-.3.5-.5,1-.1,1.4a.76.76,0,0,0,.2-.4H948c-.2-.1-.4.2-.3.4a1,1,0,0,0,.5.4c0-.2.1-.3.1-.5a.37.37,0,0,1-.3-.1c-.1,0-.2-.1-.1-.3.3-.1.2-.6-.1-.5a.68.68,0,0,0-.4.8c.1.4.6.5,1,.6.2,0,.4-.4.1-.5-.1,0-.2-.1-.3-.2a1.38,1.38,0,0,0-.3.4h.2c.3.1.4-.2.2-.4s0-.6.2-.8-.2-.5-.4-.3a1.36,1.36,0,0,0-.7,1.1,1.15,1.15,0,0,0,.6.9.61.61,0,0,0,.8,0c.1-.1.1-.2.1-.4a.76.76,0,0,0-.2-.4,1.7,1.7,0,0,1-.1-.7c0-.4-.5-.5-.5-.2Z" transform="translate(0.6 -0.73)"/></g><g class="cls-35"><path class="cls-32" d="M954.9,770.8c-11.4-3.5-8.7-11.1-2.6-13.8" transform="translate(0.6 -0.73)"/></g><g class="cls-35"><path class="cls-33" d="M964.3,743.2c-1.3-3.5-5.8-.3-8.1-1.2-.3-.1-.4.4-.1.5,2.3.8,6.7-2,7.8.9,0,.2.5.1.4-.2Z" transform="translate(0.6 -0.73)"/></g><g class="cls-35"><path class="cls-33" d="M969.1,743.1c2.1-.4,3.1.7,4.8,1.4a6.89,6.89,0,0,0,3.5.2c.3,0,.2-.5-.1-.5a5,5,0,0,1-3.6-.4c-.6-.3-1.1-.7-1.7-1a6.06,6.06,0,0,0-3-.3c-.3.2-.2.7.1.6Z" transform="translate(0.6 -0.73)"/></g><g class="cls-35"><path class="cls-22" d="M989.7,809.6a2.83,2.83,0,0,1,1.8-.4.25.25,0,0,0,0-.5,3,3,0,0,0-2.1.5c-.3.3,0,.6.3.4Z" transform="translate(0.6 -0.73)"/></g><g class="cls-35"><path class="cls-22" d="M985.4,803a3.19,3.19,0,0,0,.3-1.4.25.25,0,0,0-.5,0,2,2,0,0,1-.3,1.1.3.3,0,0,0,.5.3Z" transform="translate(0.6 -0.73)"/></g><g class="cls-35"><path class="cls-21" d="M965.5,764.5c0,.2-.1.4,0,.6s.2.5.2.6-.4-.3-.4-.4c-.1-.4.3-.6.6-.8-.1-.1-.3-.2-.4-.3-.3.5-.5,1-.1,1.4a.76.76,0,0,0,.2-.4h-.2c-.2-.1-.4.2-.3.4a1,1,0,0,0,.5.4c0-.2.1-.3.1-.5a.37.37,0,0,1-.3-.1c-.1,0-.2-.1-.1-.3.3-.1.2-.6-.1-.5a.68.68,0,0,0-.4.8c.1.4.6.5,1,.6.2,0,.4-.4.1-.5-.1,0-.2-.1-.3-.2a1.38,1.38,0,0,0-.3.4h.2c.3.1.4-.2.2-.4s0-.6.2-.8-.2-.5-.4-.3a1.36,1.36,0,0,0-.7,1.1,1.15,1.15,0,0,0,.6.9.61.61,0,0,0,.8,0c.1-.1.1-.2.1-.4a.76.76,0,0,0-.2-.4,1.7,1.7,0,0,1-.1-.7c.1-.4-.4-.6-.5-.2Z" transform="translate(0.6 -0.73)"/></g><g class="cls-35"><path class="cls-17" d="M966.4,724.9c-3.9,5.9-11.7,4.3-11.7-2.6Z" transform="translate(0.6 -0.73)"/></g></svg>
