<svg xmlns="http://www.w3.org/2000/svg" xmlns:xlink="http://www.w3.org/1999/xlink" viewBox="0 0 1366 769"><defs><style>.cls-1{fill:#7f6b6e;}.cls-1,.cls-2,.cls-3,.cls-4,.cls-5,.cls-6,.cls-7,.cls-8,.cls-9{stroke:#000;stroke-miterlimit:10;}.cls-2{fill:#c2cacc;}.cls-3{fill:#e9eced;}.cls-4{fill:#8a6f6a;}.cls-5{fill:#fff;}.cls-6{fill:#ffa3c5;}.cls-7{fill:#ffb1ff;}.cls-8{fill:#f4912d;}.cls-9{fill:none;}</style></defs><title>værelse</title><g id="Layer_5" data-name="Layer 5"><rect class="cls-1" x="0.5" y="637.5" width="1365" height="131"/><rect class="cls-2" x="0.5" y="0.5" width="1365" height="637"/><path d="M645.31,72.17a1.5,1.5,0,0,0,0-3,1.5,1.5,0,0,0,0,3Z" transform="translate(0 1)"/><path class="cls-3" d="M656.11,67" transform="translate(0 1)"/></g><g id="seng"><rect class="cls-4" x="44.5" y="404.5" width="19" height="256"/><path class="cls-5" d="M54.5,402.5" transform="translate(0 1)"/><circle class="cls-4" cx="54.5" cy="394.5" r="10"/><rect class="cls-4" x="585.5" y="340.5" width="20" height="320"/><circle class="cls-4" cx="595.5" cy="330.5" r="10"/><rect class="cls-4" x="63.5" y="573.03" width="522" height="25.39"/><polygon class="cls-6" points="585.5 494.66 64.5 494.66 63.5 573.5 585.5 573.5 585.5 494.66"/><path class="cls-7" d="M585.5,455.5h-102s-16,15.32,0,38.16l102-.16Z" transform="translate(0 1)"/></g><g id="skab"><polygon class="cls-8" points="913.5 0.5 913.5 702.5 1314.5 702.5 1314.5 631.5 1314.5 0.5 913.5 0.5"/><path class="cls-9" d="M1314.5,670.8h0Z" transform="translate(0 1)"/><rect class="cls-9" x="913.5" y="577.85" width="401" height="3.64"/><path class="cls-9" d="M1324.5,586.5" transform="translate(0 1)"/><rect class="cls-9" x="913.5" y="483.82" width="401" height="3.7"/><path class="cls-9" d="M1114,0l-.5,392.5Z" transform="translate(0 1)"/><path class="cls-9" d="M1314.5,392.5h0Z" transform="translate(0 1)"/><path class="cls-9" d="M1332.5,416.5" transform="translate(0 1)"/><circle class="cls-6" cx="1074" cy="345" r="8.5"/><circle class="cls-6" cx="1159" cy="345" r="8.5"/><ellipse class="cls-6" cx="1261.5" cy="430.5" rx="8" ry="7"/><circle class="cls-6" cx="970" cy="431" r="8.5"/><circle class="cls-6" cx="970" cy="520" r="8.5"/><circle class="cls-6" cx="970" cy="609" r="8.5"/><circle class="cls-6" cx="1262" cy="520" r="8.5"/><circle class="cls-6" cx="1262" cy="609" r="8.5"/><image width="1262" height="950" transform="translate(115 68) scale(0.33)" xlink:href="Screen Shot 2017-11-08 at 13.57.31.png"/><path class="cls-9" d="M44.5,630.5" transform="translate(0 1)"/></g></svg>
